<?xml version="1.0" encoding="UTF-8"?>
<svg id="Layer_1" xmlns="http://www.w3.org/2000/svg" viewBox="0 0 50 33.35">
  <defs>
    <style>
      .cls-1 {
        fill: #f5b1b5;
      }

      .cls-2, .cls-3 {
        fill: #009ee0;
      }

      .cls-4 {
        fill: #1b1918;
      }

      .cls-3 {
        fill-rule: evenodd;
      }
    </style>
  </defs>
  <path class="cls-3" d="M41.23,18.31v-.94s-.58.71-.58.71l.58.23ZM41.7,19.5l-.47-.19v-.58l-.85-.34-.36.43-.46-.18,1.65-1.89.46.18.04,2.56ZM38.91,18.48l.67-2.27.44.14-.67,2.27-.44-.14ZM37.04,17.92l.63-2.28,1.51.45-.11.39-1.06-.32-.15.54.92.27-.11.39-.92-.27-.27.97-.44-.13ZM34.81,17.41l.47-2.32.44.1.6,1.75.32-1.55.42.09-.47,2.32-.45-.1-.59-1.71-.31,1.52-.42-.09ZM32.91,15.88c-.04.27-.01.48.08.63.1.16.24.25.42.28.18.03.34-.01.48-.13.14-.12.23-.31.27-.58.04-.27.01-.48-.08-.63-.09-.15-.23-.24-.42-.27-.19-.03-.35.01-.48.13-.14.12-.22.31-.26.58ZM32.44,15.82c.04-.24.1-.43.19-.58.07-.11.16-.21.26-.29.1-.08.21-.13.32-.16.15-.04.32-.04.5-.01.33.05.58.21.75.45.17.25.22.56.16.94-.06.38-.2.66-.43.84-.23.18-.51.24-.84.19-.34-.06-.59-.21-.75-.45-.17-.25-.22-.56-.16-.93ZM31.62,16.01l.42.21c-.1.25-.24.42-.42.52-.17.1-.38.13-.63.1-.3-.04-.53-.19-.7-.43-.16-.24-.22-.55-.17-.92.05-.39.19-.68.41-.87.22-.19.49-.26.81-.21.28.04.49.16.64.35.09.12.15.27.17.47l-.47.05c-.01-.13-.05-.23-.13-.31-.08-.08-.17-.13-.29-.15-.17-.02-.31.02-.43.13-.12.11-.2.3-.24.58-.04.3-.02.52.07.66.09.14.21.22.37.25.12.02.23,0,.33-.07.1-.07.18-.18.24-.35ZM27.56,16.3l.03-1.68,1.2.02v.29s-.88-.02-.88-.02v.37s.81.01.81.01v.28s-.82-.01-.82-.01v.46s.9.02.9.02v.28s-1.24-.02-1.24-.02ZM25.67,15.53l-.33-.88-.29.89h.62ZM26.53,16.45h-.5s-.21-.53-.21-.53l-.91.02-.18.54h-.49s.85-2.38.85-2.38h.49s.95,2.35.95,2.35ZM22.17,16.58l-.12-2.37.46-.03.05.93.9-.05-.05-.93.46-.03.12,2.37-.46.03-.05-1.04-.9.05.05,1.04-.46.03ZM20.26,16.76l-.24-2.34.46-.05.2,1.94,1.14-.12.04.4-1.6.17ZM19.02,15.95l-.43-.83-.19.92.62-.09ZM19.99,16.76l-.5.07-.27-.51-.9.13-.11.56-.48.07.56-2.48.48-.07,1.22,2.22ZM15.94,16.4l.12.62.42-.08c.16-.03.27-.06.31-.08.06-.03.11-.07.15-.13.03-.06.04-.13.03-.21-.01-.07-.04-.13-.08-.17-.04-.04-.1-.07-.16-.08-.07,0-.2,0-.41.05l-.37.07ZM15.76,15.47l.1.54.3-.06c.18-.04.29-.06.33-.07.08-.02.13-.06.17-.12.04-.06.05-.12.03-.2-.01-.07-.04-.13-.09-.16-.05-.04-.11-.05-.19-.05-.05,0-.18.03-.39.07l-.26.05ZM15.24,15.18l.9-.18c.18-.04.31-.06.4-.06.09,0,.17.01.25.05.08.03.15.09.21.16.06.07.1.16.12.26.02.11.01.22-.03.32-.04.1-.1.19-.19.25.14.01.26.06.35.15.09.08.15.19.18.33.02.11.02.21-.01.32-.03.11-.08.2-.15.28-.07.08-.17.13-.28.17-.07.02-.25.07-.54.13l-.76.15-.44-2.33ZM14.39,16.84l-.51-.78-.09.93.6-.16ZM15.43,17.54l-.49.13-.32-.47-.89.23-.06.57-.47.12.31-2.53.47-.12,1.44,2.07ZM11.31,17.29l.33-.1c.21-.07.34-.12.39-.15.05-.04.08-.08.1-.14.02-.06.01-.12,0-.18-.02-.08-.06-.13-.11-.17-.05-.03-.12-.05-.19-.04-.04,0-.14.04-.32.09l-.34.11.17.58ZM11.25,18.74l-.67-2.27.93-.3c.23-.07.41-.11.53-.1.12,0,.22.05.32.14.09.08.16.19.2.33.05.17.04.33-.02.47-.06.14-.19.26-.37.35.11.03.21.07.29.12.08.05.2.15.36.29l.4.36-.53.17-.46-.39c-.17-.14-.28-.23-.33-.26-.06-.03-.11-.05-.16-.05-.05,0-.13.01-.23.05l-.09.03.28.95-.44.14ZM9.87,19.23l-.68-1.84-.63.25-.14-.38,1.69-.68.14.38-.63.25.68,1.84-.43.17Z"/>
  <rect class="cls-2" x="0" y="0" width="49.98" height="11.28"/>
  <path class="cls-4" d="M50,11.3H0V0h50v11.3ZM.02,11.28h49.96V.02H.02v11.26Z"/>
  <path class="cls-4" d="M50,22.32H0v-11.04h50v11.04ZM.02,22.3h49.96v-11H.02v11Z"/>
  <rect class="cls-1" x="0" y="22.32" width="49.98" height="11.02"/>
  <path class="cls-4" d="M50,33.35H0v-11.04h50v11.04ZM.02,33.33h49.96v-11H.02v11Z"/>
</svg>