<?xml version="1.0" encoding="UTF-8"?>
<svg id="Layer_1" xmlns="http://www.w3.org/2000/svg" viewBox="0 0 756.55 300.48">
  <defs>
    <style>
      .cls-1, .cls-2 {
        fill: #231f20;
      }

      .cls-3 {
        fill: #f18f20;
      }

      .cls-3, .cls-2, .cls-4 {
        fill-rule: evenodd;
      }

      .cls-4 {
        fill: #005baa;
      }
    </style>
  </defs>
  <path class="cls-1" d="M722.29,225.94c0,2.03.47,3.57,1.41,4.63.94,1.05,2.13,1.57,3.58,1.57s2.63-.52,3.57-1.56c.93-1.04,1.39-2.61,1.39-4.69s-.45-3.6-1.36-4.61c-.9-1.01-2.1-1.52-3.6-1.52s-2.7.51-3.62,1.54c-.91,1.03-1.37,2.57-1.37,4.64M718.55,226.06c0-1.83.28-3.37.82-4.61.4-.91.96-1.74,1.67-2.46.71-.73,1.48-1.26,2.32-1.62,1.12-.47,2.41-.71,3.87-.71,2.65,0,4.76.82,6.35,2.46,1.59,1.65,2.38,3.93,2.38,6.86s-.79,5.17-2.36,6.81c-1.57,1.64-3.68,2.46-6.32,2.46s-4.79-.81-6.37-2.45c-1.57-1.63-2.36-3.88-2.36-6.74ZM705.8,215.38h-1.58c0-.19-.01-.33-.01-.44,0-.86.21-1.52.63-1.98.41-.46.95-.69,1.6-.69.29,0,.55.03.8.09.25.06.69.24,1.34.53.65.29,1.16.43,1.53.43.26,0,.48-.08.65-.25.18-.17.29-.44.34-.83h1.58c0,1.12-.21,1.91-.61,2.39-.41.48-.92.72-1.56.72-.28,0-.55-.03-.82-.09-.19-.05-.66-.23-1.4-.52-.75-.3-1.29-.44-1.64-.44-.26,0-.46.08-.61.24-.15.16-.23.44-.23.83ZM710.73,227.81l-2.49-6.64-2.42,6.64h4.91ZM717.37,234.92h-3.91l-1.55-4.08h-7.2l-1.49,4.08h-3.84l6.97-17.94h3.84l7.19,17.94ZM686.71,239.71v-1.44c.84.09,1.62.13,2.32.13s1.27-.13,1.62-.39c.27-.2.4-.45.4-.76,0-.28-.12-.52-.38-.72-.25-.2-.65-.3-1.18-.3s-1.06.08-1.61.25l.32-1.22c.63-.23,1.32-.33,2.05-.33,1.02,0,1.8.23,2.33.67.53.45.8,1,.8,1.64,0,.72-.29,1.3-.88,1.75-.79.61-1.93.92-3.41.92-1.05,0-1.85-.07-2.39-.2ZM694.59,228.31l3.51,1.08c-.54,1.97-1.44,3.44-2.69,4.4-1.25.96-2.84,1.44-4.77,1.44-2.38,0-4.34-.81-5.88-2.44-1.53-1.63-2.3-3.85-2.3-6.68,0-2.99.77-5.31,2.31-6.96,1.54-1.65,3.57-2.48,6.08-2.48,2.2,0,3.98.65,5.35,1.95.82.77,1.43,1.87,1.84,3.31l-3.58.85c-.21-.93-.66-1.66-1.33-2.2-.68-.54-1.5-.81-2.46-.81-1.33,0-2.41.48-3.24,1.43-.83.95-1.24,2.5-1.24,4.64,0,2.26.41,3.88,1.22,4.84.82.96,1.88,1.44,3.19,1.44.96,0,1.8-.3,2.49-.92.69-.61,1.19-1.57,1.5-2.89ZM676.03,234.92v-17.94h3.63v17.94h-3.63ZM658.06,216.98h3.63v9.72c0,1.55.05,2.54.13,3,.15.74.52,1.33,1.09,1.77.58.45,1.37.67,2.37.67s1.78-.21,2.3-.63c.52-.42.83-.94.93-1.55.1-.61.16-1.63.16-3.05v-9.93h3.63v9.43c0,2.15-.1,3.68-.29,4.57-.2.89-.56,1.64-1.08,2.25-.52.61-1.22,1.1-2.1,1.46-.88.36-2.03.55-3.44.55-1.71,0-3-.2-3.88-.59-.88-.4-1.58-.91-2.09-1.55-.51-.63-.85-1.29-1.01-1.99-.24-1.03-.36-2.55-.36-4.56v-9.58ZM643.6,227.08v4.81h3.36c1.3,0,2.13-.04,2.49-.11.54-.1.98-.34,1.32-.72.34-.38.51-.89.51-1.53,0-.54-.13-1-.39-1.37-.26-.38-.64-.65-1.13-.82-.49-.17-1.57-.26-3.22-.26h-2.93ZM643.6,219.96v4.13h2.37c1.41,0,2.28-.02,2.63-.06.62-.07,1.11-.28,1.46-.64.36-.36.53-.82.53-1.39s-.16-1-.46-1.35c-.3-.35-.76-.56-1.36-.63-.36-.04-1.39-.06-3.09-.06h-2.08ZM639.97,216.98h7.17c1.42,0,2.48.06,3.18.18.7.12,1.32.37,1.88.74.55.38,1.01.87,1.38,1.5.37.62.55,1.32.55,2.1,0,.84-.23,1.61-.68,2.3-.45.7-1.06,1.22-1.84,1.57,1.09.32,1.93.86,2.51,1.63.59.77.88,1.67.88,2.71,0,.82-.19,1.61-.57,2.38-.38.77-.9,1.39-1.56,1.85-.66.46-1.47.74-2.43.85-.6.06-2.06.1-4.37.12h-6.11v-17.94ZM632.88,234.92v-17.94h3.63v17.94h-3.63ZM618.55,224.57h2.68c1.74,0,2.82-.07,3.25-.22.43-.15.77-.4,1.01-.76.25-.36.37-.81.37-1.35,0-.61-.16-1.09-.48-1.47-.32-.37-.78-.61-1.36-.7-.3-.04-1.18-.06-2.64-.06h-2.83v4.56ZM614.91,234.92v-17.94h7.63c1.92,0,3.31.16,4.18.48.87.32,1.57.89,2.09,1.72.52.83.79,1.77.79,2.83,0,1.35-.39,2.46-1.18,3.34-.79.88-1.97,1.43-3.54,1.66.78.46,1.42.96,1.93,1.5.51.55,1.19,1.52,2.05,2.91l2.19,3.5h-4.33l-2.6-3.92c-.93-1.39-1.57-2.27-1.92-2.63-.34-.36-.71-.61-1.09-.74-.39-.13-1-.2-1.83-.2h-.73v7.49h-3.63ZM603.64,234.92v-14.91h-5.31v-3.03h14.23v3.03h-5.29v14.91h-3.63ZM581.94,229.11l3.53-.35c.21,1.18.64,2.05,1.29,2.6.65.56,1.52.83,2.62.83,1.16,0,2.04-.25,2.63-.74.59-.49.88-1.07.88-1.73,0-.43-.13-.79-.37-1.09-.25-.3-.68-.55-1.3-.77-.42-.15-1.38-.41-2.89-.79-1.93-.48-3.29-1.08-4.07-1.78-1.1-.99-1.65-2.2-1.65-3.62,0-.91.26-1.77.77-2.57.52-.8,1.26-1.4,2.23-1.82.97-.42,2.14-.63,3.52-.63,2.24,0,3.93.5,5.07,1.5,1.14,1,1.73,2.33,1.79,3.99l-3.63.13c-.15-.93-.48-1.59-.99-2-.51-.4-1.27-.61-2.28-.61s-1.86.22-2.45.65c-.38.28-.57.65-.57,1.12,0,.43.18.79.54,1.09.45.39,1.56.79,3.32,1.21,1.76.41,3.06.85,3.9,1.29.84.45,1.5,1.05,1.98,1.82.48.77.71,1.72.71,2.86,0,1.03-.28,1.99-.86,2.89-.57.9-1.38,1.57-2.42,2-1.04.44-2.35.66-3.9.66-2.27,0-4.01-.52-5.22-1.57-1.22-1.04-1.94-2.57-2.18-4.57ZM575.81,234.92v-17.94h3.63v17.94h-3.63ZM561.47,220.01v11.88h2.69c1.01,0,1.73-.06,2.18-.17.59-.15,1.07-.4,1.46-.75.39-.35.7-.93.94-1.73.25-.8.37-1.9.37-3.29s-.12-2.45-.37-3.19c-.24-.74-.58-1.32-1.02-1.74-.44-.41-.99-.7-1.67-.84-.5-.11-1.49-.17-2.96-.17h-1.62ZM557.84,216.98h6.61c1.49,0,2.63.11,3.41.34,1.05.31,1.95.86,2.7,1.65.75.79,1.32,1.76,1.71,2.91.39,1.14.58,2.56.58,4.24,0,1.48-.18,2.75-.55,3.82-.45,1.31-1.09,2.36-1.92,3.17-.63.61-1.47,1.09-2.54,1.43-.8.26-1.86.38-3.2.38h-6.8v-17.94ZM529.96,234.92v-17.94h5.44l3.22,12.23,3.18-12.23h5.45v17.94h-3.36v-14.12s-3.55,14.12-3.55,14.12h-3.49l-3.52-14.12v14.12h-3.37ZM513.3,234.92v-17.94h13.28v3.03h-9.65v3.98h8.97v3.03h-8.97v4.86h10v3.03h-13.63ZM498.69,227.81l-2.49-6.64-2.42,6.64h4.91ZM505.33,234.92h-3.91l-1.55-4.08h-7.2l-1.49,4.08h-3.84l6.97-17.94h3.84l7.19,17.94ZM482.09,234.92v-17.94h3.63v17.94h-3.63ZM475.59,228.31l3.51,1.08c-.54,1.97-1.44,3.44-2.69,4.4-1.25.96-2.84,1.44-4.77,1.44-2.38,0-4.34-.81-5.88-2.44-1.53-1.63-2.3-3.85-2.3-6.68,0-2.99.77-5.31,2.31-6.96,1.54-1.65,3.57-2.48,6.08-2.48,2.2,0,3.98.65,5.35,1.95.82.77,1.43,1.87,1.84,3.31l-3.58.85c-.21-.93-.66-1.66-1.33-2.2-.68-.54-1.5-.81-2.46-.81-1.33,0-2.41.48-3.24,1.43-.83.95-1.24,2.5-1.24,4.64,0,2.26.41,3.88,1.22,4.84.82.96,1.88,1.44,3.19,1.44.96,0,1.8-.3,2.49-.92.69-.61,1.19-1.57,1.5-2.89ZM446.02,234.92v-17.94h3.52l7.38,12.02v-12.02h3.36v17.94h-3.63l-7.27-11.79v11.79h-3.36ZM432.07,215.35l2.57-3.61h3.17l2.54,3.61h-2.76l-1.42-1.83-1.32,1.83h-2.78ZM429.31,234.92v-17.94h13.28v3.03h-9.65v3.98h8.97v3.03h-8.97v4.86h10v3.03h-13.63ZM414.85,224.57h2.68c1.74,0,2.82-.07,3.25-.22.43-.15.77-.4,1.01-.76.25-.36.37-.81.37-1.35,0-.61-.16-1.09-.48-1.47-.32-.37-.78-.61-1.36-.7-.3-.04-1.18-.06-2.64-.06h-2.83v4.56ZM411.22,234.92v-17.94h7.63c1.92,0,3.31.16,4.18.48.87.32,1.57.89,2.09,1.72.52.83.79,1.77.79,2.83,0,1.35-.39,2.46-1.18,3.34-.79.88-1.97,1.43-3.54,1.66.78.46,1.42.96,1.93,1.5.51.55,1.19,1.52,2.05,2.91l2.19,3.5h-4.33l-2.6-3.92c-.93-1.39-1.57-2.27-1.92-2.63-.34-.36-.71-.61-1.09-.74-.39-.13-1-.2-1.83-.2h-.73v7.49h-3.63ZM394.51,234.92v-17.94h13.28v3.03h-9.65v3.98h8.97v3.03h-8.97v4.86h10v3.03h-13.63ZM379.2,234.92v-17.94h12.33v3.03h-8.69v4.26h7.52v3.03h-7.52v7.62h-3.63ZM362.49,234.92v-17.94h13.28v3.03h-9.65v3.98h8.97v3.03h-8.97v4.86h10v3.03h-13.63ZM348.03,224.57h2.68c1.74,0,2.82-.07,3.25-.22.43-.15.77-.4,1.01-.76.25-.36.37-.81.37-1.35,0-.61-.16-1.09-.48-1.47-.32-.37-.78-.61-1.36-.7-.3-.04-1.18-.06-2.64-.06h-2.83v4.56ZM344.4,234.92v-17.94h7.63c1.92,0,3.31.16,4.18.48.87.32,1.57.89,2.09,1.72.52.83.79,1.77.79,2.83,0,1.35-.39,2.46-1.18,3.34-.79.88-1.97,1.43-3.54,1.66.78.46,1.42.96,1.93,1.5.51.55,1.19,1.52,2.05,2.91l2.19,3.5h-4.33l-2.6-3.92c-.93-1.39-1.57-2.27-1.92-2.63-.34-.36-.71-.61-1.09-.74-.39-.13-1-.2-1.83-.2h-.73v7.49h-3.63Z"/>
  <path class="cls-2" d="M543.95,95.04v76.32c0,4.99,3.33,8.44,7.19,9.39h4.28c3.35-.86,6.32-3.86,7.09-9.63l.23-58.48c6.8,10.72,12.14,68.1,24.66,68.1,14.82,0,13.78-4.6,20.43-31.23l8.42-32.68c.11-.37.45-1.44.58-1.77.09-.26.25-.61.34-.83l.76-1.59v38.75c0,17.36-2.98,29.36,11.74,29.36,3.8,0,7.04-5.1,7.04-9.39v-78.67c0-8.88-16.56-7.04-22.31-7.04-10.04,0-10.32,12.62-14.59,27.69-1.47,5.21-7.36,29.46-10.07,33.37l-8.72-33.56c-8.69-30.69-4.41-27.5-27.69-27.5-5.68,0-9.39,3.71-9.39,9.39"/>
  <path class="cls-2" d="M343.16,131.44c0,28.4,18.19,49.32,45.79,49.32,14.38,0,46.97-3.43,46.97-22.31,0-32.68,3.2-28.18-38.75-28.18-6.92,0-9.76,14.09,2.35,14.09h17.61v15.26c-9.56,2.23-31.1,12.97-44.81-2.16-14.53-16.03-11.93-58.9,20.15-58.9,22.35,0,16.5,18.79,32.88,18.79,2.37,0,7.05-3.2,7.05-8.22,0-14.78-18.73-25.83-34.05-25.83-17.03,0-30.4,1.1-42.61,13.75-6.96,7.21-12.58,20.73-12.58,34.39"/>
  <path class="cls-2" d="M523.6,180.76h-4.03c-3.17-.82-6.44-3.71-9.02-10.04-1.84-4.5-4.29-8.92-5.35-13.44h-38.75c-1.17,5.04-6.96,23.48-12.92,23.48h-.4c-4.21,0-11.34-.17-11.34-8.22,0-7.02,14.19-39.58,17.61-48.14,3.13-7.82,6.28-15.65,9.39-23.49,2.68-6.77,6.17-17.61,15.27-17.61,13.38,0,13.93,4.83,19.29,18.29l19.13,46.63c2.36,5.47,8.55,18.11,8.55,24.33,0,3.09-3.25,7.17-7.44,8.22M486.42,105.61c.47,5.66,10.5,27.2,12.92,37.57h-27.01l14.09-37.57Z"/>
  <path class="cls-2" d="M648.46,172.54c0,8.05,7.14,8.22,11.34,8.22h.4c4.57,0,6.43-5.92,7.9-9.71,1.91-4.95,3.82-8.63,5.02-13.77h38.75c.8,3.44,7.66,23.48,14.09,23.48,23.3,0,5.3-26.56-6.38-55.85-3.37-8.47-6.22-14.94-9.56-23.32-5.36-13.46-5.91-18.29-19.29-18.29-9.09,0-12.58,10.84-15.27,17.61-3.11,7.83-6.26,15.66-9.39,23.49-3.13,7.82-6.26,15.66-9.39,23.48-2.19,5.48-8.22,18.23-8.22,24.66M691.91,105.61c3.04,4.38,13.3,34.17,14.09,37.57h-27.01c2.34-10.05,12.4-31.39,12.92-37.57Z"/>
  <rect class="cls-1" x="323.9" y="195.07" width="432.65" height=".71"/>
  <path class="cls-4" d="M0,141.76c0,30.46,1.23,47.54,14.98,74.92,35.46,70.61,113.87,100.26,190.05,74.78,27.74-9.28,56.9-32.05,71.55-57.53,15.3-26.6,26.9-66.26,1.66-91.49-17.32-17.31-43.04-19.1-63.2-6.93-6.5,3.93-13.68,7-20.64,10.48-32.87,16.43-82.94,43.47-115.07,17.87-8.02-6.39-9.69-12.96-13.63-17.49,1.13,13.54,9.19,25.83,18.15,34.87,25.59,25.82,65.75,14.3,93.33,2.84,11.11-4.61,28.86-16.74,45.77-18.99,34.06-4.53,44.83,31.43,25.78,59.24-12.6,18.39-34.28,34.46-49.85,41.32-14.24,6.27-30.26,9.81-49.04,9.81-126.92,0-175.03-172.99-58.24-235.73,39.76-21.36,88.35-18.78,126.02,5.44,14.25,9.16,6.4,6.54,21.94.75,5.53-2.06,7.22-2.13,15.16-2.13C230.68,19.84,181.59,0,147.4,0,72.24.85,0,65.85,0,141.76"/>
  <path class="cls-3" d="M250.17,59.44c18,0,32.59,13.9,32.59,31.05s-14.59,31.05-32.59,31.05-32.59-13.9-32.59-31.05,14.59-31.05,32.59-31.05"/>
</svg>