<?xml version="1.0" encoding="UTF-8"?>
<svg id="Layer_1" xmlns="http://www.w3.org/2000/svg" viewBox="0 0 398.94 403.13">
  <defs>
    <style>
      .cls-1 {
        fill: #f08e20;
      }

      .cls-2 {
        fill: #ffc10e;
      }

      .cls-3 {
        fill: #005aa9;
      }

      .cls-4 {
        fill: #737477;
      }
    </style>
  </defs>
  <g>
    <path class="cls-1" d="M124.61,202.36l-26.04,95.41h28.55l2.09-9.23h35.34l2.44,9.23h28.2l-24.41-90.47c-15.72-.81-31.15-2.41-46.17-4.94ZM136.35,263.57c1.91-6.67,5.37-18.57,10.36-35.68h.35l10.71,35.68h-21.41Z"/>
    <path class="cls-1" d="M254.09,205.21l-5.11,9.87-4.81-9.03c-7.78.6-15.58,1.07-23.38,1.4-6.21.26-12.39.42-18.55.49v89.83h30.98v-46.13l15.75,29.77,15.32-29.77v46.13h30.98v-97.34c-13.69,1.92-27.42,3.54-41.19,4.78Z"/>
    <path class="cls-1" d="M367.71,185.49c-12.35,3.2-24.73,6.38-37.21,9.03l-28.17,103.24h28.55l2.09-9.23h35.34l2.44,9.23h28.2l-30.29-112.28h-.94ZM340.1,263.57c1.91-6.67,5.37-18.57,10.36-35.68h.35l10.71,35.68h-21.41Z"/>
    <path class="cls-3" d="M260.06,97.63c.92,0,2.1.38,3.54,1.13,1.44.76,3.15,1.51,5.12,2.27,1.97.76,4.05,1.13,6.25,1.13,6.32,0,12.14-3.66,17.45-10.99l-9.83-10.58c-2.93,3.48-5.61,5.22-8.04,5.22-1.24,0-3.32-.7-6.25-2.1-2.93-1.4-5.68-2.1-8.25-2.1-5.91,0-11.61,3.71-17.11,11.13l9.55,9.83c2.84-3.3,5.36-4.95,7.56-4.95Z"/>
    <path class="cls-3" d="M154.18,196.32v-22.14h-29.27v-11.54h22.81v-20.55h-22.81v-11.2h29.27v-22.81h-53.46v77.81c17.19,4.97,35.11,8.35,53.46,10.43Z"/>
    <path class="cls-3" d="M183.68,198.48v-16.2h5.26l8.56,16.57c9.4.13,18.85,0,28.31-.36l-12.27-23.32c4.45-3.17,7.97-7.31,10.56-12.4,2.58-5.09,3.87-10.91,3.87-17.45,0-4.79-.82-9.24-2.45-13.36-1.64-4.12-3.79-7.62-6.47-10.49-2.68-2.87-5.76-5.33-9.24-7.39-3.48-2.06-7.07-3.58-10.77-4.55-3.7-.97-7.35-1.46-10.95-1.46h-29.43v88.67c8.27.82,16.62,1.39,25.02,1.74ZM183.68,130.46h1.78c1.09,0,2.2.07,3.34.21s2.54.49,4.19,1.03c1.66.54,3.12,1.28,4.37,2.2,1.25.92,2.34,2.27,3.27,4.05.92,1.78,1.39,3.85,1.39,6.22s-.38,4.48-1.14,6.33-1.68,3.29-2.77,4.34c-1.09,1.04-2.32,1.9-3.7,2.56-1.37.66-2.59,1.1-3.66,1.32-1.06.21-2.05.32-2.95.32h-4.12v-28.58Z"/>
    <path class="cls-3" d="M251.69,197l2.05-7.57h27.9l1.16,4.4c7.2-.88,14.36-1.86,21.46-2.91l-22.35-82.84h-28.17l-24.98,90.37c7.65-.34,15.29-.83,22.93-1.45ZM267.55,141.54h.27l8.45,28.17h-16.9c1.51-5.27,4.24-14.66,8.18-28.17Z"/>
    <path class="cls-3" d="M309.71,176.37c2.27,3.85,4.92,7.28,7.97,10.31,1.14,1.13,2.38,2.15,3.69,3.11,2.45-.41,4.9-.82,7.33-1.24,15.02-3.06,29.91-6.82,44.79-10.68.32-.5.64-.98.95-1.5,2.27-3.85,3.96-7.82,5.08-11.92,1.12-4.1,1.68-8.07,1.68-11.92s-.56-7.97-1.68-12.09c-1.12-4.12-2.82-8.11-5.08-11.96-2.27-3.85-4.94-7.29-8.01-10.34-3.07-3.05-6.72-5.49-10.96-7.32-4.24-1.83-8.72-2.75-13.43-2.75s-9.2.92-13.43,2.75c-4.24,1.83-7.88,4.27-10.92,7.32-3.05,3.05-5.7,6.49-7.97,10.34-2.27,3.85-3.96,7.83-5.08,11.96-1.12,4.12-1.68,8.15-1.68,12.09s.56,7.82,1.68,11.92c1.12,4.1,2.82,8.07,5.08,11.92ZM329.32,142.43c1.1-3.34,2.78-6.21,5.05-8.59,2.27-2.38,4.82-3.57,7.66-3.57s5.37,1.19,7.59,3.57c2.22,2.38,3.86,5.23,4.91,8.55,1.05,3.32,1.58,6.7,1.58,10.14s-.53,6.68-1.58,10c-1.05,3.32-2.69,6.2-4.91,8.62-2.22,2.43-4.75,3.64-7.59,3.64s-5.39-1.21-7.66-3.64c-2.27-2.43-3.95-5.31-5.05-8.66-1.1-3.34-1.65-6.67-1.65-9.96s.55-6.76,1.65-10.1Z"/>
    <path class="cls-3" d="M58.8,163.25h-.55l-12.64-55.18h-7c-4.59,6.78-8.71,13.89-12.34,21.29l7.28,26.98c13.65,9.39,28.3,17.01,43.72,23.12l19.26-71.39h-25.08l-12.64,55.18Z"/>
    <path class="cls-2" d="M338.88,68.6h0C303.65,26.69,250.86,0,191.95,0,86.11,0,0,86.11,0,191.95c0,16.77,2.2,33.03,6.27,48.54.15-5.89,1.06-11.63,2.75-17.23-.49-5.3-.76-10.67-.76-16.1C8.26,109.44,87.76,29.93,185.49,29.93c44.89,0,85.92,16.78,117.18,44.39,2.53,2.38,5.02,4.82,7.4,7.38,14.72,15.84,5.85,10.11,26.88,7.87,7.49-.79,9.6-.34,19.41,2.17-4.57-7.69-10.54-15.5-17.48-23.14Z"/>
    <path class="cls-1" d="M64.02,269.75v-31.86h29.16v50.65c-2.44,2.61-6.96,4.86-13.58,6.75s-14.19,2.83-22.72,2.83c-6.79,0-13.04-1.12-18.76-3.35-5.72-2.23-10.5-5.21-14.36-8.92-3.86-3.71-7.14-8.01-9.84-12.88s-4.66-9.91-5.87-15.1c-1.22-5.19-1.83-10.43-1.83-15.71,0-7.02,1.09-13.84,3.26-20.45,2.18-6.61,5.31-12.65,9.4-18.1,4.09-5.45,9.49-9.84,16.19-13.14,6.7-3.31,14.2-4.96,22.5-4.96,11.08,0,20.34,1.89,27.76,5.66v31.07c-2.21-2.2-5.59-4.19-10.14-5.96-4.56-1.77-8.89-2.66-13.01-2.66-7.72,0-13.81,2.76-18.28,8.27-4.47,5.51-6.7,12.27-6.7,20.28,0,3.37.54,6.69,1.61,9.97,1.07,3.28,2.61,6.25,4.61,8.92,2,2.67,4.57,4.83,7.7,6.48,3.13,1.66,6.58,2.48,10.36,2.48.81,0,1.65-.09,2.52-.26Z"/>
  </g>
  <g>
    <g>
      <path class="cls-4" d="M39.69,352.05c-.26-.52-.69-1.1-1.13-1.45-.38-.29-1.07-.66-2.17-.66-1.91,0-3.24,1.19-3.24,2.98,0,.75.2,1.19.72,1.68.58.58,1.3.9,2.02,1.22l1.85.81c1.13.49,2.17,1.01,2.98,1.82.98.98,1.39,2.11,1.39,3.5,0,3.56-2.63,5.93-6.1,5.93-1.27,0-2.86-.26-4.2-1.56-.96-.93-1.53-2.26-1.79-3.41l2.08-.58c.14,1.01.61,1.88,1.16,2.46.84.84,1.79,1.07,2.78,1.07,2.63,0,3.88-1.88,3.88-3.82,0-.87-.26-1.62-.95-2.26-.55-.52-1.3-.87-2.31-1.33l-1.74-.81c-.75-.35-1.71-.75-2.57-1.59-.84-.81-1.33-1.71-1.33-3.15,0-2.98,2.29-4.98,5.41-4.98,1.19,0,2.14.23,3.1.87.78.52,1.45,1.3,1.88,2.14l-1.71,1.13Z"/>
      <path class="cls-4" d="M48.21,360.06c0,1.62,0,3.39,1.53,4.69.78.66,2.11,1.1,3.18,1.1s2.4-.44,3.18-1.1c1.53-1.3,1.53-3.07,1.53-4.69v-11.83h2.14v12.41c0,1.62-.17,3.18-1.22,4.63-1.16,1.59-3.18,2.6-5.64,2.6s-4.49-1.01-5.64-2.6c-1.04-1.45-1.22-3.01-1.22-4.63v-12.41h2.14v11.83Z"/>
      <path class="cls-4" d="M75.41,362.09h-8.22l-2.31,5.44h-2.37l8.88-20.22,8.65,20.22h-2.37l-2.26-5.44ZM74.57,360.06l-3.24-7.72-3.3,7.72h6.54Z"/>
      <path class="cls-4" d="M98.31,350.25h-6.65v5.7h6.42v2.02h-6.42v9.55h-2.14v-19.3h8.79v2.03Z"/>
      <path class="cls-4" d="M111.77,362.09h-8.22l-2.31,5.44h-2.37l8.88-20.22,8.65,20.22h-2.37l-2.26-5.44ZM110.93,360.06l-3.24-7.72-3.3,7.72h6.54Z"/>
      <path class="cls-4" d="M122.22,348.23c1.3,0,3.24.09,4.69,1.07,1.13.75,2.11,2.23,2.11,4.28,0,2.95-1.94,5.12-4.86,5.32l6.13,8.62h-2.6l-5.87-8.45h-.55v8.45h-2.14v-19.3h3.1ZM121.27,357.17h1.36c2.66,0,4.25-1.27,4.25-3.53,0-1.07-.32-2.14-1.53-2.84-.87-.49-1.85-.55-2.78-.55h-1.3v6.91Z"/>
      <path class="cls-4" d="M132.99,367.52l3.21-20.37,7.41,16.29,7.55-16.32,3.01,20.4h-2.2l-1.82-13.42-6.57,14.23-6.48-14.23-1.91,13.42h-2.2Z"/>
      <path class="cls-4" d="M169.29,362.09h-8.22l-2.31,5.44h-2.37l8.88-20.22,8.65,20.22h-2.37l-2.26-5.44ZM168.45,360.06l-3.24-7.72-3.3,7.72h6.54ZM169.55,343.31l-4.43,3.39-1.24-.93,3.65-3.76,2.02,1.3Z"/>
      <path class="cls-4" d="M190.79,352.48c-.61-.61-1.53-1.33-2.52-1.8-1.01-.46-2.2-.75-3.33-.75-4.46,0-7.75,3.59-7.75,8.04,0,5.24,4.25,7.87,7.78,7.87,1.3,0,2.57-.38,3.59-.9,1.1-.55,1.88-1.27,2.23-1.62v2.66c-2.14,1.53-4.37,1.88-5.82,1.88-5.73,0-9.98-4.34-9.98-9.92s4.31-10.04,10.1-10.04c1.16,0,3.39.15,5.7,1.91v2.66Z"/>
      <path class="cls-4" d="M196.88,348.23v19.3h-2.14v-19.3h2.14Z"/>
      <path class="cls-4" d="M212.5,362.09h-8.22l-2.31,5.44h-2.37l8.88-20.22,8.65,20.22h-2.37l-2.26-5.44ZM211.67,360.06l-3.24-7.72-3.3,7.72h6.54Z"/>
      <path class="cls-4" d="M230.11,348.23c1.94,0,3.56.23,4.86,1.36,1.42,1.21,1.76,2.92,1.76,4.14,0,2.72-1.71,5.41-6.1,5.41h-1.88v8.39h-2.14v-19.3h3.5ZM228.75,357.11h1.76c2.55,0,4.08-1.27,4.08-3.5,0-3.07-2.86-3.36-4.25-3.36h-1.59v6.86Z"/>
      <path class="cls-4" d="M242.9,348.23c1.3,0,3.24.09,4.69,1.07,1.13.75,2.11,2.23,2.11,4.28,0,2.95-1.94,5.12-4.86,5.32l6.13,8.62h-2.6l-5.87-8.45h-.55v8.45h-2.14v-19.3h3.1ZM241.95,357.17h1.36c2.66,0,4.25-1.27,4.25-3.53,0-1.07-.32-2.14-1.53-2.84-.87-.49-1.85-.55-2.78-.55h-1.3v6.91Z"/>
      <path class="cls-4" d="M264.35,350.25h-7.87v5.73h7.64v2.02h-7.64v7.49h7.87v2.03h-10.01v-19.3h10.01v2.03Z"/>
      <path class="cls-4" d="M271.79,348.23c1.94,0,3.56.23,4.86,1.36,1.42,1.21,1.76,2.92,1.76,4.14,0,2.72-1.71,5.41-6.1,5.41h-1.88v8.39h-2.14v-19.3h3.5ZM270.43,357.11h1.76c2.55,0,4.08-1.27,4.08-3.5,0-3.07-2.86-3.36-4.25-3.36h-1.59v6.86Z"/>
      <path class="cls-4" d="M290.63,362.09h-8.22l-2.31,5.44h-2.37l8.88-20.22,8.65,20.22h-2.37l-2.26-5.44ZM289.79,360.06l-3.24-7.72-3.3,7.72h6.54Z"/>
      <path class="cls-4" d="M301.08,348.23c1.3,0,3.24.09,4.69,1.07,1.13.75,2.11,2.23,2.11,4.28,0,2.95-1.94,5.12-4.86,5.32l6.13,8.62h-2.6l-5.87-8.45h-.55v8.45h-2.14v-19.3h3.1ZM300.13,357.17h1.36c2.66,0,4.25-1.27,4.25-3.53,0-1.07-.32-2.14-1.53-2.84-.87-.49-1.85-.55-2.78-.55h-1.3v6.91Z"/>
      <path class="cls-4" d="M323.17,362.09h-8.22l-2.31,5.44h-2.37l8.88-20.22,8.65,20.22h-2.37l-2.26-5.44ZM322.33,360.06l-3.24-7.72-3.3,7.72h6.54Z"/>
      <path class="cls-4" d="M330.52,348.23h3.94c1.94,0,4.69.2,7.12,2.26,1.77,1.48,3.3,3.94,3.3,7.41,0,4.05-2,6.22-3.38,7.41-1.77,1.51-3.62,2.23-7.06,2.23h-3.91v-19.3ZM332.67,365.5h1.88c1.53,0,3.64-.17,5.53-1.74,1.45-1.21,2.6-3.12,2.6-5.87,0-4.63-3.24-7.64-8.13-7.64h-1.88v15.25Z"/>
      <path class="cls-4" d="M359.46,362.09h-8.22l-2.31,5.44h-2.37l8.88-20.22,8.65,20.22h-2.37l-2.26-5.44ZM358.63,360.06l-3.24-7.72-3.3,7.72h6.54Z"/>
      <path class="cls-4" d="M367,364.69l1.91.69-2.92,6.54-1.36-.55,2.37-6.68Z"/>
    </g>
    <g>
      <path class="cls-4" d="M31.97,386.78c-.26-.52-.69-1.1-1.13-1.45-.38-.29-1.07-.66-2.17-.66-1.91,0-3.24,1.19-3.24,2.98,0,.75.2,1.19.72,1.68.58.58,1.3.9,2.02,1.22l1.85.81c1.13.49,2.17,1.01,2.98,1.82.98.98,1.39,2.11,1.39,3.5,0,3.56-2.63,5.93-6.1,5.93-1.27,0-2.86-.26-4.2-1.56-.96-.93-1.53-2.26-1.79-3.41l2.08-.58c.14,1.01.61,1.88,1.16,2.46.84.84,1.79,1.07,2.78,1.07,2.63,0,3.88-1.88,3.88-3.82,0-.87-.26-1.62-.95-2.26-.55-.52-1.3-.87-2.31-1.33l-1.74-.81c-.75-.35-1.71-.75-2.57-1.59-.84-.81-1.33-1.71-1.33-3.15,0-2.98,2.29-4.98,5.41-4.98,1.19,0,2.14.23,3.1.87.78.52,1.45,1.3,1.88,2.14l-1.71,1.13Z"/>
      <path class="cls-4" d="M48.35,384.99h-7.87v5.73h7.64v2.02h-7.64v7.49h7.87v2.03h-10.01v-19.3h10.01v2.03Z"/>
      <path class="cls-4" d="M54.43,394.8c0,1.62,0,3.39,1.53,4.69.78.66,2.11,1.1,3.18,1.1s2.4-.44,3.18-1.1c1.53-1.3,1.53-3.07,1.53-4.69v-11.83h2.14v12.41c0,1.62-.17,3.18-1.22,4.63-1.16,1.59-3.18,2.6-5.64,2.6s-4.49-1.01-5.64-2.6c-1.04-1.45-1.22-3.01-1.22-4.63v-12.41h2.14v11.83Z"/>
      <path class="cls-4" d="M79.61,386.78c-.26-.52-.69-1.1-1.13-1.45-.38-.29-1.07-.66-2.17-.66-1.91,0-3.24,1.19-3.24,2.98,0,.75.2,1.19.72,1.68.58.58,1.3.9,2.02,1.22l1.85.81c1.13.49,2.17,1.01,2.98,1.82.98.98,1.39,2.11,1.39,3.5,0,3.56-2.63,5.93-6.1,5.93-1.27,0-2.86-.26-4.2-1.56-.96-.93-1.53-2.26-1.79-3.41l2.08-.58c.14,1.01.61,1.88,1.16,2.46.84.84,1.79,1.07,2.78,1.07,2.63,0,3.88-1.88,3.88-3.82,0-.87-.26-1.62-.95-2.26-.55-.52-1.3-.87-2.31-1.33l-1.74-.81c-.75-.35-1.71-.75-2.57-1.59-.84-.81-1.33-1.71-1.33-3.15,0-2.98,2.29-4.98,5.41-4.98,1.19,0,2.14.23,3.1.87.78.52,1.45,1.3,1.88,2.14l-1.71,1.13Z"/>
      <path class="cls-4" d="M107.48,387.22c-.61-.61-1.53-1.33-2.52-1.8-1.01-.46-2.2-.75-3.33-.75-4.46,0-7.75,3.59-7.75,8.04,0,5.24,4.25,7.87,7.78,7.87,1.3,0,2.57-.38,3.59-.9,1.1-.55,1.88-1.27,2.23-1.62v2.66c-2.14,1.53-4.37,1.88-5.82,1.88-5.73,0-9.98-4.34-9.98-9.92s4.31-10.04,10.1-10.04c1.16,0,3.39.15,5.7,1.91v2.66Z"/>
      <path class="cls-4" d="M113.57,382.96v17.27h5.32v2.03h-7.47v-19.3h2.14Z"/>
      <path class="cls-4" d="M123.93,382.96v19.3h-2.14v-19.3h2.14Z"/>
      <path class="cls-4" d="M138.92,384.99h-7.87v5.73h7.64v2.02h-7.64v7.49h7.87v2.03h-10.01v-19.3h10.01v2.03Z"/>
      <path class="cls-4" d="M142.86,402.26v-20.11l15.04,15.77v-14.96h2.14v20.16l-15.04-15.77v14.9h-2.14Z"/>
      <path class="cls-4" d="M169.78,384.99v17.27h-2.14v-17.27h-4.69v-2.03h11.51v2.03h-4.69Z"/>
      <path class="cls-4" d="M187.38,384.99h-7.87v5.73h7.64v2.02h-7.64v7.49h7.87v2.03h-10.01v-19.3h10.01v2.03Z"/>
      <path class="cls-4" d="M199.94,386.78c-.26-.52-.69-1.1-1.13-1.45-.38-.29-1.07-.66-2.17-.66-1.91,0-3.24,1.19-3.24,2.98,0,.75.2,1.19.72,1.68.58.58,1.3.9,2.02,1.22l1.85.81c1.13.49,2.17,1.01,2.98,1.82.98.98,1.39,2.11,1.39,3.5,0,3.56-2.63,5.93-6.1,5.93-1.27,0-2.86-.26-4.2-1.56-.96-.93-1.53-2.26-1.79-3.41l2.08-.58c.14,1.01.61,1.88,1.16,2.46.84.84,1.79,1.07,2.78,1.07,2.63,0,3.88-1.88,3.88-3.82,0-.87-.26-1.62-.95-2.26-.55-.52-1.3-.87-2.31-1.33l-1.74-.81c-.75-.35-1.71-.75-2.57-1.59-.84-.81-1.33-1.71-1.33-3.15,0-2.98,2.29-4.98,5.41-4.98,1.19,0,2.14.23,3.1.87.78.52,1.45,1.3,1.88,2.14l-1.71,1.13Z"/>
      <path class="cls-4" d="M216.56,382.96c1.94,0,3.56.23,4.86,1.36,1.42,1.21,1.76,2.92,1.76,4.14,0,2.72-1.71,5.41-6.1,5.41h-1.88v8.39h-2.14v-19.3h3.5ZM215.2,391.85h1.76c2.55,0,4.08-1.27,4.08-3.5,0-3.07-2.86-3.36-4.25-3.36h-1.59v6.86Z"/>
      <path class="cls-4" d="M229.36,382.96c1.3,0,3.24.09,4.69,1.07,1.13.75,2.11,2.23,2.11,4.28,0,2.95-1.94,5.12-4.86,5.32l6.13,8.62h-2.6l-5.87-8.45h-.55v8.45h-2.14v-19.3h3.1ZM228.4,391.9h1.36c2.66,0,4.25-1.27,4.25-3.53,0-1.07-.32-2.14-1.53-2.84-.87-.49-1.85-.55-2.78-.55h-1.3v6.91Z"/>
      <path class="cls-4" d="M239.75,392.63c0-5.76,4.48-9.98,10.04-9.98s10.04,4.22,10.04,9.98-4.45,9.98-10.04,9.98-10.04-4.25-10.04-9.98ZM241.95,392.63c0,4.43,3.5,7.96,7.84,7.96s7.84-3.53,7.84-7.96-3.5-7.96-7.84-7.96-7.84,3.53-7.84,7.96Z"/>
      <path class="cls-4" d="M267.51,384.99v17.27h-2.14v-17.27h-4.69v-2.03h11.51v2.03h-4.69Z"/>
      <path class="cls-4" d="M285.1,384.99h-7.87v5.73h7.64v2.02h-7.64v7.49h7.87v2.03h-10.01v-19.3h10.01v2.03Z"/>
      <path class="cls-4" d="M299,392.57h8.04v.46c0,2.14-.64,4.46-1.85,6.11-.58.78-2.75,3.47-7.17,3.47-5.73,0-10.01-4.37-10.01-9.98s4.31-9.98,10.07-9.98c1.85,0,4.02.46,5.9,1.91.87.66,1.68,1.53,2.23,2.29l-1.59,1.45c-.55-.78-1.19-1.47-1.82-2-.93-.75-2.37-1.62-4.69-1.62-4.66,0-7.9,3.5-7.9,7.99,0,5.26,4.19,7.93,7.84,7.93,2.57,0,4.8-1.3,5.9-3.24.35-.61.72-1.53.78-2.75h-5.73v-2.02Z"/>
      <path class="cls-4" d="M313.13,382.96v19.3h-2.14v-19.3h2.14Z"/>
      <path class="cls-4" d="M318.11,382.96h3.94c1.94,0,4.69.2,7.12,2.26,1.77,1.48,3.3,3.94,3.3,7.41,0,4.05-2,6.22-3.38,7.41-1.77,1.51-3.62,2.23-7.06,2.23h-3.91v-19.3ZM320.25,400.24h1.88c1.53,0,3.64-.17,5.53-1.74,1.45-1.21,2.6-3.12,2.6-5.87,0-4.63-3.24-7.64-8.13-7.64h-1.88v15.25Z"/>
      <path class="cls-4" d="M335.36,392.63c0-5.76,4.48-9.98,10.04-9.98s10.04,4.22,10.04,9.98-4.46,9.98-10.04,9.98-10.04-4.25-10.04-9.98ZM337.56,392.63c0,4.43,3.5,7.96,7.84,7.96s7.84-3.53,7.84-7.96-3.5-7.96-7.84-7.96-7.84,3.53-7.84,7.96Z"/>
      <path class="cls-4" d="M368,386.78c-.26-.52-.69-1.1-1.13-1.45-.38-.29-1.07-.66-2.17-.66-1.91,0-3.24,1.19-3.24,2.98,0,.75.2,1.19.72,1.68.58.58,1.3.9,2.02,1.22l1.85.81c1.13.49,2.17,1.01,2.98,1.82.98.98,1.39,2.11,1.39,3.5,0,3.56-2.63,5.93-6.1,5.93-1.27,0-2.86-.26-4.2-1.56-.96-.93-1.53-2.26-1.79-3.41l2.08-.58c.14,1.01.61,1.88,1.16,2.46.84.84,1.79,1.07,2.78,1.07,2.63,0,3.88-1.88,3.88-3.82,0-.87-.26-1.62-.95-2.26-.55-.52-1.3-.87-2.31-1.33l-1.74-.81c-.75-.35-1.71-.75-2.57-1.59-.84-.81-1.33-1.71-1.33-3.15,0-2.98,2.29-4.98,5.41-4.98,1.19,0,2.14.23,3.1.87.78.52,1.45,1.3,1.88,2.14l-1.71,1.13Z"/>
      <path class="cls-4" d="M375.19,399.66c.78,0,1.45.66,1.45,1.45s-.67,1.45-1.45,1.45-1.45-.67-1.45-1.45.67-1.45,1.45-1.45Z"/>
    </g>
  </g>
</svg>