<?xml version="1.0" encoding="UTF-8"?>
<svg id="Layer_1" xmlns="http://www.w3.org/2000/svg" viewBox="0 0 566.2 165.11">
  <defs>
    <style>
      .cls-1 {
        fill-rule: evenodd;
      }
    </style>
  </defs>
  <g>
    <polygon class="cls-1" points="305.38 86.47 372.1 86.47 372.1 78.52 317.18 78.52 317.18 52.5 358.13 52.5 358.13 44.56 317.18 44.56 317.18 20.95 372.1 20.95 372.1 12.53 305.38 12.53 305.38 86.47"/>
    <polygon class="cls-1" points="339.82 .48 331.15 10.6 359.33 .48 339.82 .48"/>
    <polygon class="cls-1" points="483.13 78.52 483.13 12.53 473.02 12.53 473.02 86.47 539.5 86.47 539.5 78.52 483.13 78.52"/>
    <path class="cls-1" d="M414.73,12.53l-37.57,73.94h12.52l9.88-19.03h22.64v-9.39h-18.06l18.06-35.41v.48-10.6h-7.47ZM422.2,67.44v-9.39h17.82l-17.82-34.93v-10.6h6.98l37.82,73.94h-12.53l-9.88-19.03h-22.4Z"/>
    <path class="cls-1" d="M251.91,12.53h-36.37v73.94h10.84v-30.59h25.53v-8.91h-25.53v-25.53h25.53v-8.91h0ZM270.21,55.88c6.5,9.63,22.16,30.59,22.16,30.59h-13.49l-22.4-30.59h-4.58v-8.91h8.91c5.54,0,11.56-1.44,14.45-6.02,1.69-3.37,2.17-7.47,1.44-10.84-1.44-5.06-6.26-8.67-14.93-8.67h-9.88v-8.91h10.36c16.14,0,25.05,8.43,26.49,21.44-.48,4.58-1.93,17.1-18.55,21.92Z"/>
    <path class="cls-1" d="M151.95,0c-30.35,0-50.82,21.44-50.82,46.97,0,26.98,22.88,46,50.82,45.52h0v-8.92h-.48c-20.95,0-38.3-16.62-37.81-36.61-.48-19.99,15.9-37.81,38.3-37.81V0h0ZM151.95,92.49v-8.92c20.47-.24,38.06-16.62,38.06-36.61s-15.9-37.81-38.06-37.81h0V0c29.63,0,50.1,21.44,50.1,46.97,0,26.98-22.16,46-50.1,45.52Z"/>
    <polygon class="cls-1" points="74.16 38.54 82.1 38.54 96.07 12.53 84.99 12.53 74.16 38.54"/>
    <polygon class="cls-1" points="37.06 78.52 37.06 12.53 26.71 12.53 26.71 86.47 93.18 86.47 93.18 78.52 37.06 78.52"/>
  </g>
  <g>
    <path d="M0,119.6h14.55c3.07,0,5.49.74,7.27,2.23,1.78,1.49,2.67,3.53,2.67,6.11,0,1.64-.39,3.1-1.16,4.38-.78,1.28-1.86,2.22-3.26,2.83,1.61.52,2.93,1.49,3.94,2.92,1.02,1.43,1.53,3.02,1.53,4.79,0,2.74-.96,4.86-2.87,6.38-1.92,1.52-4.62,2.28-8.12,2.28H0v-31.92ZM14.64,133.6c2.01,0,3.57-.47,4.7-1.41,1.12-.94,1.69-2.25,1.69-3.92s-.57-2.99-1.71-3.97c-1.14-.97-2.7-1.46-4.67-1.46H3.51v10.76h11.13ZM14.91,148.24c2.22,0,3.97-.52,5.24-1.55,1.28-1.03,1.92-2.43,1.92-4.19s-.64-3.16-1.92-4.2c-1.28-1.03-3.03-1.55-5.24-1.55H3.51v11.49h11.4Z"/>
    <path d="M40.24,150.59c-1.78-.99-3.16-2.38-4.15-4.17-.99-1.79-1.48-3.85-1.48-6.16s.48-4.31,1.44-6.09c.96-1.78,2.3-3.16,4.04-4.15,1.73-.99,3.72-1.48,5.97-1.48,3.56,0,6.35,1.03,8.39,3.1,2.04,2.07,3.06,4.88,3.06,8.44,0,.67-.02,1.17-.05,1.5h-19.38c.18,2.28,1.03,4.07,2.55,5.38,1.52,1.31,3.47,1.96,5.84,1.96,1.46,0,2.87-.27,4.24-.82,1.37-.55,2.42-1.28,3.15-2.19l2.19,2.05c-1.06,1.28-2.46,2.28-4.17,3.01-1.72.73-3.55,1.09-5.49,1.09-2.31,0-4.35-.49-6.13-1.48ZM54.26,138.66c-.12-2.13-.91-3.84-2.37-5.13-1.46-1.29-3.37-1.94-5.75-1.94s-4.08.63-5.49,1.89c-1.41,1.26-2.26,2.99-2.53,5.18h16.14Z"/>
    <path d="M67.58,119.6h3.37v31.92h-3.37v-31.92Z"/>
    <path d="M86.89,150.59c-1.78-.99-3.16-2.38-4.15-4.17-.99-1.79-1.48-3.85-1.48-6.16s.48-4.31,1.44-6.09c.96-1.78,2.3-3.16,4.04-4.15,1.73-.99,3.72-1.48,5.97-1.48,3.56,0,6.35,1.03,8.39,3.1,2.04,2.07,3.06,4.88,3.06,8.44,0,.67-.02,1.17-.05,1.5h-19.38c.18,2.28,1.03,4.07,2.55,5.38,1.52,1.31,3.47,1.96,5.84,1.96,1.46,0,2.87-.27,4.24-.82,1.37-.55,2.42-1.28,3.15-2.19l2.19,2.05c-1.06,1.28-2.46,2.28-4.17,3.01-1.72.73-3.55,1.09-5.49,1.09-2.31,0-4.35-.49-6.13-1.48ZM100.91,138.66c-.12-2.13-.91-3.84-2.37-5.13-1.46-1.29-3.37-1.94-5.75-1.94s-4.08.63-5.49,1.89c-1.41,1.26-2.26,2.99-2.53,5.18h16.14Z"/>
    <path d="M111.99,150.06l13.59-17.92h-12.86v-3.15h18.1v1.41l-13.63,17.92h13.63v3.19h-18.83v-1.46Z"/>
    <path d="M144.41,150.5c-1.7-.99-3.03-2.37-3.99-4.15s-1.44-3.81-1.44-6.09.48-4.31,1.44-6.09c.96-1.78,2.29-3.16,3.99-4.15,1.7-.99,3.65-1.48,5.84-1.48,1.95,0,3.7.39,5.27,1.16,1.57.78,2.8,1.85,3.72,3.21l.05-3.92h3.06v22.53h-3.06l-.05-3.88c-.88,1.37-2.11,2.43-3.69,3.19-1.58.76-3.34,1.14-5.29,1.14-2.19,0-4.13-.49-5.84-1.48ZM143.43,144.73c.71,1.31,1.69,2.32,2.94,3.03,1.25.71,2.67,1.07,4.29,1.07s3.04-.36,4.29-1.07c1.25-.71,2.23-1.72,2.94-3.03.71-1.31,1.07-2.8,1.07-4.47s-.36-3.16-1.07-4.47c-.71-1.31-1.69-2.32-2.94-3.03-1.25-.71-2.68-1.07-4.29-1.07s-3.04.36-4.29,1.07c-1.25.71-2.23,1.73-2.94,3.03-.71,1.31-1.07,2.8-1.07,4.47s.36,3.16,1.07,4.47Z"/>
    <path d="M191.61,119.6h11.4c3.16,0,5.97.67,8.41,2.01,2.45,1.34,4.35,3.21,5.7,5.63,1.35,2.42,2.03,5.19,2.03,8.32s-.68,5.9-2.03,8.32c-1.35,2.42-3.25,4.29-5.7,5.63-2.45,1.34-5.25,2.01-8.41,2.01h-11.4v-31.92ZM203.01,148.19c2.46,0,4.64-.53,6.54-1.6,1.9-1.06,3.38-2.55,4.45-4.47,1.06-1.92,1.6-4.1,1.6-6.57s-.53-4.65-1.6-6.57c-1.06-1.92-2.55-3.4-4.47-4.47-1.92-1.06-4.09-1.6-6.52-1.6h-7.89v25.26h7.89Z"/>
    <path d="M233.72,150.59c-1.78-.99-3.16-2.38-4.15-4.17-.99-1.79-1.48-3.85-1.48-6.16s.48-4.31,1.44-6.09c.96-1.78,2.3-3.16,4.04-4.15,1.73-.99,3.72-1.48,5.97-1.48,3.56,0,6.35,1.03,8.39,3.1,2.04,2.07,3.06,4.88,3.06,8.44,0,.67-.02,1.17-.05,1.5h-19.38c.18,2.28,1.03,4.07,2.55,5.38,1.52,1.31,3.47,1.96,5.84,1.96,1.46,0,2.87-.27,4.24-.82,1.37-.55,2.42-1.28,3.15-2.19l2.19,2.05c-1.06,1.28-2.46,2.28-4.17,3.01-1.72.73-3.55,1.09-5.49,1.09-2.31,0-4.35-.49-6.13-1.48ZM247.74,138.66c-.12-2.13-.91-3.84-2.37-5.13-1.46-1.29-3.37-1.94-5.75-1.94s-4.08.63-5.49,1.89c-1.41,1.26-2.26,2.99-2.53,5.18h16.14Z"/>
    <path d="M261.05,129h3.06l.05,4.29c.82-1.52,1.85-2.67,3.08-3.47,1.23-.79,2.64-1.19,4.22-1.19.97,0,1.92.14,2.83.41.91.27,1.7.67,2.37,1.19l-1.55,2.83c-1.12-.73-2.39-1.09-3.78-1.09s-2.53.35-3.58,1.05c-1.05.7-1.86,1.68-2.44,2.94-.58,1.26-.87,2.7-.87,4.31v11.26h-3.37v-22.53Z"/>
    <path d="M285.08,129h3.05l.05,3.37c.82-1.22,1.84-2.14,3.06-2.78,1.22-.64,2.58-.96,4.1-.96,1.82,0,3.41.41,4.77,1.23,1.35.82,2.35,1.98,2.99,3.47.85-1.52,1.99-2.68,3.42-3.49,1.43-.8,3.04-1.21,4.83-1.21,2.86,0,5.1.87,6.73,2.6,1.63,1.73,2.44,4.13,2.44,7.2v13.09h-3.37v-12.9c0-2.22-.51-3.92-1.53-5.11-1.02-1.19-2.49-1.78-4.4-1.78s-3.55.68-4.81,2.03c-1.26,1.35-1.89,3.08-1.89,5.18v12.58h-3.37v-12.9c0-2.22-.51-3.92-1.53-5.11-1.02-1.19-2.5-1.78-4.45-1.78s-3.55.68-4.81,2.03c-1.26,1.35-1.89,3.08-1.89,5.18v12.58h-3.37v-22.53Z"/>
    <path d="M335.93,150.5c-1.7-.99-3.03-2.37-3.99-4.15-.96-1.78-1.44-3.81-1.44-6.09s.48-4.31,1.44-6.09c.96-1.78,2.29-3.16,3.99-4.15,1.7-.99,3.65-1.48,5.84-1.48,1.95,0,3.7.39,5.27,1.16,1.57.78,2.8,1.85,3.72,3.21l.05-3.92h3.06v22.53h-3.06l-.05-3.88c-.88,1.37-2.11,2.43-3.69,3.19-1.58.76-3.34,1.14-5.29,1.14-2.19,0-4.13-.49-5.84-1.48ZM334.95,144.73c.71,1.31,1.69,2.32,2.94,3.03,1.25.71,2.67,1.07,4.29,1.07s3.04-.36,4.29-1.07c1.25-.71,2.23-1.72,2.94-3.03.71-1.31,1.07-2.8,1.07-4.47s-.36-3.16-1.07-4.47c-.71-1.31-1.69-2.32-2.94-3.03-1.25-.71-2.68-1.07-4.29-1.07s-3.04.36-4.29,1.07c-1.25.71-2.23,1.73-2.94,3.03-.71,1.31-1.07,2.8-1.07,4.47s.36,3.16,1.07,4.47Z"/>
    <path d="M368.26,144.32v-12.36h-4.56v-2.96h4.56v-6.29l3.37-.32v6.61h7.16v2.96h-7.16v12.36c0,1.46.27,2.58.82,3.35.55.78,1.51,1.16,2.87,1.16,1.03,0,2.16-.29,3.37-.87l1.05,2.78c-1.67.76-3.25,1.14-4.74,1.14-4.5,0-6.75-2.52-6.75-7.57Z"/>
    <path d="M392.81,150.45c-1.78-1.02-3.16-2.42-4.15-4.19-.99-1.78-1.48-3.78-1.48-6s.49-4.22,1.48-6c.99-1.78,2.37-3.18,4.15-4.2,1.78-1.02,3.82-1.53,6.13-1.53s4.35.51,6.13,1.53c1.78,1.02,3.15,2.42,4.13,4.2.97,1.78,1.46,3.78,1.46,6s-.49,4.22-1.46,6c-.97,1.78-2.35,3.18-4.13,4.19-1.78,1.02-3.82,1.53-6.13,1.53s-4.35-.51-6.13-1.53ZM391.6,144.59c.7,1.31,1.69,2.34,2.96,3.1,1.28.76,2.74,1.14,4.38,1.14s3.06-.38,4.33-1.14c1.28-.76,2.26-1.79,2.96-3.1.7-1.31,1.05-2.75,1.05-4.33s-.35-3.02-1.05-4.33c-.7-1.31-1.69-2.34-2.96-3.1-1.28-.76-2.72-1.14-4.33-1.14s-3.1.38-4.38,1.14c-1.28.76-2.27,1.79-2.96,3.1-.7,1.31-1.05,2.75-1.05,4.33s.35,3.03,1.05,4.33Z"/>
    <path d="M420.97,119.6h3.37v31.92h-3.37v-31.92Z"/>
    <path d="M440.28,150.45c-1.78-1.02-3.16-2.42-4.15-4.19-.99-1.78-1.48-3.78-1.48-6s.49-4.22,1.48-6c.99-1.78,2.37-3.18,4.15-4.2,1.78-1.02,3.82-1.53,6.13-1.53s4.35.51,6.13,1.53c1.78,1.02,3.15,2.42,4.13,4.2.97,1.78,1.46,3.78,1.46,6s-.49,4.22-1.46,6c-.97,1.78-2.35,3.18-4.13,4.19-1.78,1.02-3.82,1.53-6.13,1.53s-4.35-.51-6.13-1.53ZM439.07,144.59c.7,1.31,1.69,2.34,2.96,3.1,1.28.76,2.74,1.14,4.38,1.14s3.06-.38,4.33-1.14c1.28-.76,2.26-1.79,2.96-3.1.7-1.31,1.05-2.75,1.05-4.33s-.35-3.02-1.05-4.33c-.7-1.31-1.69-2.34-2.96-3.1-1.28-.76-2.72-1.14-4.33-1.14s-3.1.38-4.38,1.14c-1.28.76-2.27,1.79-2.96,3.1-.7,1.31-1.05,2.75-1.05,4.33s.35,3.03,1.05,4.33Z"/>
    <path d="M501.04,120.47c.46-.46,1.03-.68,1.73-.68s1.32.23,1.78.68c.46.46.68,1.03.68,1.73s-.23,1.27-.68,1.71c-.46.44-1.05.66-1.78.66s-1.28-.22-1.73-.66c-.46-.44-.68-1.01-.68-1.71s.23-1.28.68-1.73ZM501.09,129h3.37v22.53h-3.37v-22.53Z"/>
    <path d="M520.47,150.52c-1.79-.97-3.19-2.35-4.2-4.13-1-1.78-1.5-3.82-1.5-6.13s.5-4.31,1.5-6.09c1-1.78,2.4-3.16,4.2-4.15,1.79-.99,3.83-1.48,6.11-1.48,3.22,0,5.97,1.14,8.25,3.42l-2.1,2.23c-.79-.82-1.73-1.44-2.8-1.87-1.08-.42-2.2-.64-3.35-.64-1.58,0-3.01.35-4.29,1.05s-2.29,1.69-3.03,2.99c-.75,1.29-1.12,2.8-1.12,4.54s.36,3.2,1.09,4.49c.73,1.29,1.74,2.3,3.03,3.01,1.29.71,2.73,1.07,4.31,1.07,1.22,0,2.38-.22,3.49-.66,1.11-.44,2.07-1.09,2.9-1.94l2.1,2.33c-2.31,2.28-5.14,3.42-8.48,3.42-2.28,0-4.32-.49-6.11-1.46Z"/>
    <path d="M548.28,150.5c-1.7-.99-3.03-2.37-3.99-4.15-.96-1.78-1.44-3.81-1.44-6.09s.48-4.31,1.44-6.09c.96-1.78,2.29-3.16,3.99-4.15,1.7-.99,3.65-1.48,5.84-1.48,1.95,0,3.7.39,5.27,1.16,1.57.78,2.8,1.85,3.72,3.21l.05-3.92h3.06v22.53h-3.06l-.05-3.88c-.88,1.37-2.11,2.43-3.69,3.19-1.58.76-3.34,1.14-5.29,1.14-2.19,0-4.13-.49-5.84-1.48ZM547.3,144.73c.71,1.31,1.69,2.32,2.94,3.03,1.25.71,2.67,1.07,4.29,1.07s3.04-.36,4.29-1.07c1.25-.71,2.23-1.72,2.94-3.03.71-1.31,1.07-2.8,1.07-4.47s-.36-3.16-1.07-4.47c-.71-1.31-1.7-2.32-2.94-3.03-1.25-.71-2.68-1.07-4.29-1.07s-3.04.36-4.29,1.07c-1.25.71-2.23,1.73-2.94,3.03-.71,1.31-1.07,2.8-1.07,4.47s.36,3.16,1.07,4.47Z"/>
    <path d="M468.95,157.79c.94,1.2,2.21,2.22,3.84,3.06,1.62.84,3.34,1.25,5.14,1.25,1.67,0,3.09-.24,4.26-.73,1.17-.49,2.11-1.15,2.83-1.98.72-.84,1.25-1.81,1.58-2.93.33-1.12.5-2.32.5-3.59v-4.41h-.1c-.9,1.47-2.18,2.61-3.84,3.41-1.66.8-3.34,1.2-5.04,1.2-1.84,0-3.5-.3-4.99-.9-1.49-.6-2.76-1.43-3.81-2.48s-1.87-2.32-2.46-3.79c-.59-1.47-.88-3.06-.88-4.77s.29-3.24.88-4.71c.58-1.47,1.4-2.76,2.46-3.86,1.05-1.1,2.32-1.97,3.81-2.61,1.49-.64,3.15-.95,4.99-.95,1.71,0,3.38.4,5.02,1.2,1.64.8,2.93,1.96,3.86,3.46h.1v-4.06h3.41v23.27c0,1.27-.18,2.62-.53,4.06-.35,1.44-1,2.76-1.96,3.96-.95,1.2-2.25,2.21-3.89,3.01-1.64.8-3.76,1.2-6.37,1.2-2.17,0-4.25-.42-6.22-1.25-1.97-.84-3.66-1.99-5.07-3.46l2.46-2.61ZM469.6,141.03c0,1.24.2,2.41.6,3.51s.98,2.07,1.73,2.91c.75.84,1.68,1.5,2.78,1.98,1.1.49,2.36.73,3.76.73,1.3,0,2.51-.22,3.61-.65,1.1-.43,2.06-1.05,2.86-1.86s1.43-1.76,1.88-2.88c.45-1.12.68-2.37.68-3.74,0-1.24-.23-2.41-.68-3.51s-1.08-2.07-1.88-2.91c-.8-.84-1.76-1.5-2.86-2.01-1.1-.5-2.31-.75-3.61-.75-1.4,0-2.66.25-3.76.75-1.1.5-2.03,1.17-2.78,2.01-.75.84-1.33,1.81-1.73,2.91s-.6,2.27-.6,3.51Z"/>
    <polygon points="453.32 114.88 458.3 114.88 448.69 124.49 444.99 124.49 453.32 114.88"/>
  </g>
</svg>