<?xml version="1.0" encoding="UTF-8"?>
<svg id="Layer_1" xmlns="http://www.w3.org/2000/svg" viewBox="0 0 398.8 298.2">
  <defs>
    <style>
      .cls-1 {
        fill: #f08e20;
      }

      .cls-2 {
        fill: #ffc10e;
      }

      .cls-3 {
        fill: #005aa9;
      }
    </style>
  </defs>
  <g id="Layer_1-2" data-name="Layer_1">
    <g>
      <path class="cls-1" d="M124.6,202.4l-26,95.4h28.5l2.1-9.2h35.3l2.4,9.2h28.2l-24.4-90.5c-15.7-.8-31.1-2.4-46.2-4.9h.1ZM136.4,263.6c1.9-6.7,5.4-18.6,10.4-35.7h.4l10.7,35.7h-21.5Z"/>
      <path class="cls-1" d="M254.1,205.2l-5.1,9.9-4.8-9c-7.8.6-15.6,1.1-23.4,1.4-6.2.3-12.4.4-18.6.5v89.8h31v-46.1l15.8,29.8,15.3-29.8v46.1h31v-97.3c-13.7,1.9-27.4,3.5-41.2,4.8h0v-.1Z"/>
      <path class="cls-1" d="M367.7,185.5c-12.4,3.2-24.7,6.4-37.2,9l-28.2,103.2h28.5l2.1-9.2h35.3l2.4,9.2h28.2l-30.3-112.3h-.9l.1.1ZM340.1,263.6c1.9-6.7,5.4-18.6,10.4-35.7h.4l10.7,35.7h-21.5Z"/>
      <path class="cls-3" d="M260.1,97.6c.9,0,2.1.4,3.5,1.1,1.4.8,3.1,1.5,5.1,2.3s4,1.1,6.2,1.1c6.3,0,12.1-3.7,17.5-11l-9.8-10.6c-2.9,3.5-5.6,5.2-8,5.2s-3.3-.7-6.2-2.1-5.7-2.1-8.2-2.1c-5.9,0-11.6,3.7-17.1,11.1l9.6,9.8c2.8-3.3,5.4-4.9,7.6-4.9h0l-.2.1Z"/>
      <path class="cls-3" d="M154.2,196.3v-22.1h-29.3v-11.5h22.8v-20.6h-22.8v-11.2h29.3v-22.8h-53.5v77.8c17.2,5,35.1,8.4,53.5,10.4h0Z"/>
      <path class="cls-3" d="M183.7,198.5v-16.2h5.3l8.6,16.6c9.4.1,18.9,0,28.3-.4l-12.3-23.3c4.4-3.2,8-7.3,10.6-12.4,2.6-5.1,3.9-10.9,3.9-17.4s-.8-9.2-2.4-13.4c-1.6-4.1-3.8-7.6-6.5-10.5s-5.8-5.3-9.2-7.4c-3.5-2.1-7.1-3.6-10.8-4.6s-7.4-1.5-10.9-1.5h-29.4v88.7c8.3.8,16.6,1.4,25,1.7h0l-.2.1ZM183.7,130.5h1.8c1.1,0,2.2,0,3.3.2s2.5.5,4.2,1,3.1,1.3,4.4,2.2,2.3,2.3,3.3,4.1c.9,1.8,1.4,3.9,1.4,6.2s-.4,4.5-1.1,6.3-1.7,3.3-2.8,4.3-2.3,1.9-3.7,2.6c-1.4.7-2.6,1.1-3.7,1.3-1.1.2-2.1.3-2.9.3h-4.1v-28.6h0l-.1.1Z"/>
      <path class="cls-3" d="M251.7,197l2.1-7.6h27.9l1.2,4.4c7.2-.9,14.4-1.9,21.5-2.9l-22.4-82.8h-28.2l-25,90.4c7.6-.3,15.3-.8,22.9-1.4h0v-.1ZM267.5,141.5h.3l8.5,28.2h-16.9c1.5-5.3,4.2-14.7,8.2-28.2h-.1Z"/>
      <path class="cls-3" d="M309.7,176.4c2.3,3.9,4.9,7.3,8,10.3,1.1,1.1,2.4,2.1,3.7,3.1,2.5-.4,4.9-.8,7.3-1.2,15-3.1,29.9-6.8,44.8-10.7.3-.5.6-1,1-1.5,2.3-3.9,4-7.8,5.1-11.9,1.1-4.1,1.7-8.1,1.7-11.9s-.6-8-1.7-12.1-2.8-8.1-5.1-12c-2.3-3.8-4.9-7.3-8-10.3-3.1-3.1-6.7-5.5-11-7.3s-8.7-2.8-13.4-2.8-9.2.9-13.4,2.8c-4.2,1.8-7.9,4.3-10.9,7.3-3,3.1-5.7,6.5-8,10.3-2.3,3.9-4,7.8-5.1,12-1.1,4.1-1.7,8.1-1.7,12.1s.6,7.8,1.7,11.9c1.1,4.1,2.8,8.1,5.1,11.9h-.1ZM329.3,142.4c1.1-3.3,2.8-6.2,5-8.6,2.3-2.4,4.8-3.6,7.7-3.6s5.4,1.2,7.6,3.6,3.9,5.2,4.9,8.6c1,3.3,1.6,6.7,1.6,10.1s-.5,6.7-1.6,10-2.7,6.2-4.9,8.6c-2.2,2.4-4.8,3.6-7.6,3.6s-5.4-1.2-7.7-3.6-4-5.3-5-8.7c-1.1-3.3-1.6-6.7-1.6-10s.5-6.8,1.6-10.1h0v.1Z"/>
      <path class="cls-3" d="M58.8,163.2h-.5l-12.6-55.2h-7c-4.6,6.8-8.7,13.9-12.3,21.3l7.3,27c13.6,9.4,28.3,17,43.7,23.1l19.3-71.4h-25.1l-12.6,55.2h-.2Z"/>
      <path class="cls-2" d="M338.9,68.6h0C303.6,26.7,250.9,0,191.9,0,86.1,0,0,86.1,0,191.9s2.2,33,6.3,48.5c.2-5.9,1.1-11.6,2.8-17.2-.5-5.3-.8-10.7-.8-16.1C8.3,109.4,87.8,29.9,185.5,29.9s85.9,16.8,117.2,44.4c2.5,2.4,5,4.8,7.4,7.4,14.7,15.8,5.9,10.1,26.9,7.9,7.5-.8,9.6-.3,19.4,2.2-4.6-7.7-10.5-15.5-17.5-23.1v-.1Z"/>
      <path class="cls-1" d="M64,269.8v-31.9h29.2v50.7c-2.4,2.6-7,4.9-13.6,6.8s-14.2,2.8-22.7,2.8-13-1.1-18.8-3.4-10.5-5.2-14.4-8.9c-3.9-3.7-7.1-8-9.8-12.9s-4.7-9.9-5.9-15.1c-1.2-5.2-1.8-10.4-1.8-15.7s1.1-13.8,3.3-20.4c2.2-6.6,5.3-12.6,9.4-18.1,4.1-5.4,9.5-9.8,16.2-13.1s14.2-5,22.5-5,20.3,1.9,27.8,5.7v31.1c-2.2-2.2-5.6-4.2-10.1-6-4.6-1.8-8.9-2.7-13-2.7-7.7,0-13.8,2.8-18.3,8.3s-6.7,12.3-6.7,20.3.5,6.7,1.6,10,2.6,6.2,4.6,8.9,4.6,4.8,7.7,6.5c3.1,1.7,6.6,2.5,10.4,2.5s1.7,0,2.5-.3h0l-.1-.1Z"/>
    </g>
  </g>
</svg>