<?xml version="1.0" encoding="UTF-8"?>
<svg id="Layer_1" xmlns="http://www.w3.org/2000/svg" viewBox="0 0 124.39 70">
  <path d="M55.06,45.34c-4.76-.11-10.14-1.57-14.7-5.38-2.43-2.03-4.19-4.51-4.81-7.67-.72-3.69.2-7.04,2.38-10.04.76-1.05,1.73-1.95,2.65-2.88.35-.35.54-.65.54-1.18.01-4.6,1.57-8.46,5.54-11.07,2.4-1.58,5.12-2.17,7.97-2.16.58,0,.97-.17,1.36-.61,4.77-5.28,11.98-5.82,17.77-1.34,3.34,2.59,5.51,6.01,6.65,10.02,1.99,6.98,1.39,13.75-2.03,20.21-1.42,2.67-3.47,4.76-5.89,6.58-1.82,1.36-3.64,2.67-5.78,3.48-3.41,1.29-6.92,2.04-11.65,2.03ZM50.78,20.98c0,2.75.49,5.42,1.42,8,1.09,3,2.68,5.69,5.19,7.74,2.72,2.23,5.77,3.19,9.23,2.15,3.56-1.06,5.97-3.53,7.77-6.67.07-.13.1-.29.13-.44.26-1.46.02-2.86-.56-4.21-1.39-3.24-3.84-5.44-6.96-6.92-4.8-2.27-9.87-2.69-15.07-1.91-1.11.17-1.11.19-1.16,1.27-.01.33,0,.66,0,1ZM41.88,23.21c-3.09,2.49-4.54,6.02-3.89,9.69.64,3.63,2.65,6.46,5.74,8.34,7.7,4.68,15.63,4.85,23.67.84.1-.05.2-.09.3-.13-.22-.15-.33-.16-.43-.15-2.64.47-5.21.15-7.73-.65-5.56-1.77-9.89-5.26-13.41-9.81-1.88-2.44-3.31-5.12-4.24-8.13ZM50.3,19.05c-2.19.49-4.22,1.23-6.07,2.4-1.94,1.23-1.75.62-1.07,2.75,2.48,7.82,7.73,12.99,15.44,15.71.19.07.39.1.72.17-7.13-5.33-9.08-12.73-9.03-21.03ZM76.93,21.65c.08-.01.17-.02.25-.03-.13-1.6-.16-3.22-.4-4.81-.58-3.88-1.96-7.44-4.54-10.45-3.86-4.51-9.62-5.23-14.26-1.82-.2.14-.37.32-.67.58,4.7.73,8.62,2.71,12.04,5.71,3.4,2.99,5.94,6.58,7.57,10.82ZM69.57,17.56c-.05-.09-.09-.18-.16-.26-1.79-2.14-3.8-4.03-6.15-5.54-2.6-1.68-5.4-2.85-8.52-3.14-.39-.04-.63.07-.8.41-.59,1.23-1.22,2.45-1.79,3.7-.21.46-.31.98-.5,1.59,6.42-.97,12.38-.09,17.91,3.25ZM42.61,17.82c2.55-1.61,5.23-2.67,8.08-3.31.17-.04.36-.29.43-.49.41-1.19.77-2.4,1.18-3.59.21-.62.51-1.21.77-1.83-4.86-.66-10.84,4.58-10.46,9.21Z"/>
  <path d="M119.29,67.7s-.05.02-.13.09c-1.99,1.83-4.36,2.23-6.94,1.8-2.42-.4-3.91-2.17-4.03-4.64-.13-2.57,1.07-4.31,3.27-5.46,2-1.05,4.17-1.28,6.38-1.34.48-.01.96,0,1.43,0,.36-2.17-.53-3.88-2.89-4.03-2.05-.14-3.98.17-5.7,1.36-.52.36-.8.22-.99-.32-.11-.29-.2-.58-.31-.87-.24-.62,0-1.07.51-1.42,1.09-.73,2.33-1.05,3.61-1.26,1.66-.28,3.31-.3,4.95.06,2.31.5,3.76,2.06,3.91,4.42.14,2.14.11,4.3.14,6.44.02,1.24-.01,2.48.02,3.72.03,1.16.31,1.44,1.43,1.68.16.03.38.32.37.46-.04.37.31.93-.33,1.06-1.16.24-2.37.36-3.42-.3-.52-.32-.84-.95-1.29-1.47ZM119.38,60.36c-1.71.2-3.32.29-4.89.62-.8.17-1.63.63-2.25,1.18-1.61,1.43-1.03,4.4.92,4.89,2.13.53,4.04-.05,5.65-1.51.26-.24.52-.62.54-.95.06-1.32.03-2.65.03-4.23Z"/>
  <path d="M26.2,58.16c.3-2.6-.81-3.94-3.16-4.05-1.99-.09-3.84.26-5.49,1.4-.45.31-.73.24-.91-.26,0-.02-.02-.04-.03-.06-.73-1.51-.56-2.09.98-2.75,2.62-1.13,5.35-1.36,8.12-.66,1.91.48,3.11,1.73,3.44,3.7.13.78.22,1.58.23,2.37.03,2.48.01,4.96.01,7.45,0,.22,0,.44.02.66.12,1.64.2,1.73,1.84,2.05,0,.34.03.72-.02,1.08-.02.14-.2.34-.34.37-1.08.22-2.15.26-3.2-.14-.79-.3-1.11-.96-1.35-1.72-.16.12-.27.19-.37.28-1.96,1.75-4.26,2.11-6.77,1.75-2.86-.41-4.39-2.78-4.08-5.77.23-2.19,1.59-3.54,3.45-4.46,1.95-.97,4.06-1.18,6.2-1.23.46-.01.92,0,1.42,0ZM26.35,62.65c0-.53-.02-1.06,0-1.59.02-.4-.13-.56-.54-.54-1.1.07-2.22.06-3.31.19-1.24.15-2.44.51-3.37,1.42-.94.91-1.12,2.02-.75,3.24.37,1.22,1.26,1.76,2.48,1.85,1.42.11,2.72-.23,3.94-.95,1.04-.62,1.73-1.44,1.55-2.76-.04-.28,0-.57,0-.86Z"/>
  <path d="M69.01,67.99v1.34c-2.11.84-3.93.21-4.91-1.7-.09.06-.19.11-.27.18-1.96,1.79-4.28,2.17-6.82,1.81-2.64-.38-4.27-2.43-4.12-5.43.11-2.24,1.36-3.68,3.23-4.68,1.99-1.06,4.17-1.29,6.38-1.35.48-.01.97,0,1.44,0,.41-2.35-.64-3.84-2.72-4.01-2.1-.18-4.07.12-5.83,1.34-.5.35-.8.26-.99-.31-.07-.21-.18-.4-.25-.61-.3-.93-.17-1.35.68-1.83,1.85-1.06,3.89-1.34,5.96-1.3.96.02,1.95.15,2.88.41,2,.56,3.11,1.98,3.35,4.01.13,1.12.14,2.25.15,3.38.02,2.06,0,4.12,0,6.19,0,.22,0,.44.02.66.13,1.52.26,1.66,1.81,1.91ZM64.15,62.62c0-.53-.01-1.06,0-1.59.01-.37-.12-.54-.5-.51-1.34.1-2.7.14-4.03.32-1.01.14-1.96.55-2.72,1.3-.96.94-1.09,2.09-.7,3.31.38,1.19,1.29,1.68,2.47,1.77,1.34.11,2.59-.21,3.76-.86,1.16-.64,1.89-1.52,1.71-2.94-.03-.26,0-.53,0-.8Z"/>
  <path d="M49.14,69.4h-3.06v-.77c0-3.55,0-7.09,0-10.64,0-.44-.03-.89-.11-1.32-.25-1.29-1.02-2.1-2.33-2.31-1.42-.23-2.83-.2-4.17.42-1.21.56-1.93,1.38-1.89,2.87.08,3.68.02,7.36.04,11.04,0,.58-.14.79-.74.75-.77-.05-1.54-.01-2.36-.01-.02-.28-.04-.49-.04-.71,0-5.41.01-10.82-.02-16.23,0-.65.23-.8.81-.76,1.14.08,1.93.58,2.2,1.81.19-.14.33-.23.47-.33,2.15-1.67,4.59-2.15,7.22-1.62,2.39.48,3.95,2.38,4.01,5.04.09,4.19.04,8.38.04,12.57,0,.04-.03.08-.06.2Z"/>
  <path d="M.89,65.53c1.1.89,2.29,1.57,3.65,1.73.97.11,1.99.08,2.96-.1,1.11-.2,1.82-.98,1.97-2.15.15-1.13-.32-2.07-1.44-2.6-.79-.37-1.68-.54-2.51-.83-1.12-.39-2.34-.65-3.34-1.25-2.9-1.73-2.87-5.98-.02-7.79,2.47-1.58,6.78-1.51,9.19.15.93.64,1.01,2.39.11,3.06-.14.1-.59-.03-.77-.19-1.71-1.46-3.64-1.98-5.82-1.41-1.15.3-1.71,1.04-1.73,2.06-.01.82.33,1.45,1.08,1.74.96.38,1.97.67,2.95,1,.9.31,1.82.56,2.69.95,3.67,1.65,3.54,6.76.57,8.72-1.2.79-2.52,1.17-3.94,1.26-1.72.11-3.41-.07-5.01-.75-1.59-.67-1.83-1.38-1.01-2.9.12-.23.27-.45.43-.72Z"/>
  <path d="M85.83,52.07c-.97,2.53-1.92,5.03-2.88,7.52-1.18,3.07-2.37,6.14-3.53,9.23-.21.55-.46.83-1.09.76-.61-.07-1.24-.05-1.86,0-.47.04-.66-.17-.81-.58-1.48-4-2.98-7.99-4.47-11.99-.54-1.45-1.09-2.9-1.63-4.34-.08-.2-.14-.41-.21-.61,1.78-.85,3.23-.33,3.88,1.47,1.14,3.21,2.2,6.44,3.29,9.66.33.98.66,1.96,1.04,3.06.11-.18.18-.26.22-.35,1.34-3.86,2.68-7.72,4.03-11.58.14-.4.3-.79.48-1.16.7-1.44,2.02-1.86,3.56-1.09Z"/>
  <path d="M105.47,65.81s.05.03.06.04c1.47,1.75,1.2,2.81-.94,3.63-1.47.56-2.99.65-4.51.3-2.01-.45-3.3-2.1-3.31-4.26-.03-5.81-.02-11.61-.03-17.42,0-.53,0-1.06,0-1.57,1.51-.52,2.92.31,3.07,1.8.09.86.04,1.73.05,2.59,0,.26,0,.52,0,.87.92,0,1.75,0,2.59,0,.82,0,1.64,0,2.46,0,.31,0,.52.06.51.43,0,.71,0,1.41,0,2.19-.28.01-.52.04-.75.04-1.4,0-2.79.01-4.19,0-.44,0-.63.11-.63.6.02,3.17-.02,6.34.02,9.51.03,2.39,1.82,3.45,3.97,2.36.56-.29,1.06-.71,1.63-1.09Z"/>
  <path d="M93.36,68.18v1.22c-1.09.26-2.18.36-3.26.06-1.01-.27-1.57-1.19-1.58-2.5-.03-2.79-.02-5.58-.03-8.37,0-2.04,0-4.07,0-6.11v-.7c1.64-.51,2.96.32,3.06,1.94.08,1.37.04,2.74.04,4.12,0,2.52,0,5.05,0,7.57,0,.16,0,.31,0,.47.02,1.69.15,1.87,1.77,2.31Z"/>
  <path d="M87.93,46.01c0-1.26.78-2.09,1.97-2.09,1.18,0,2,.87,1.99,2.09,0,1.13-.84,1.97-1.96,1.99-1.16.02-2-.82-2.01-2Z"/>
</svg>