<?xml version="1.0" encoding="UTF-8"?>
<svg id="Layer_1" xmlns="http://www.w3.org/2000/svg" viewBox="0 0 591.1 199.17">
  <g>
    <path d="M529.96,104.61l-1.98,5.59c.11,1.51,1.13,2.28,3.05,2.28h14.75l2.14-6.15.63-1.71h-18.59Z"/>
    <path d="M452.7,89.58h-15.01l-8.24,23.07h15.18c1.86-.09,3.05-.74,3.63-1.94l6.27-18.63c.14-1.25-.22-2.23-1.82-2.51Z"/>
    <path d="M410.55,97.47l1.99-5.59c-.13-1.51-1.14-2.28-3.07-2.28l-12.56-.1c-1.17.21-2.19,1-3.05,2.37l-1.99,5.59h18.68Z"/>
    <path d="M576.56,55.81h-234.02s-35.56,56.71-35.56,56.71h20.37c.26.04.45.32.42.66,0,.05,0,.1-.03.16l-2.03,5.79c-.15.37-.44.64-.77.69h-10.86s-11.67,0-11.67,0l-16.56,26.41h260.53c11.48,0,22.58-8.27,25.99-18.46l17.86-53.5c3.41-10.19-3.47-18.46-13.66-18.46ZM368.4,119.82h-8.61c-.28-.03-.47-.31-.43-.67,0-.04.01-.09.02-.15l8.85-25.49c.87-2.55-.27-3.82-3.39-3.82h-1.6l-10.33,29.43c-.15.39-.47.67-.81.7h-6.37c-.27-.03-.46-.31-.44-.67.01-.07.03-.13.04-.18l10.19-29.29h-6.21l-10.28,29.43c-.14.39-.45.67-.81.7h-8.37c-.28-.03-.47-.31-.43-.67,0-.05.01-.12.02-.17l2.45-6.49,7.99-22.91,2.39-6.58c.14-.4.47-.7.85-.7l28.52.13h2.44c3.43.74,5.19,3.24,5.28,7.52l-10.18,29.23c-.16.36-.46.61-.78.63ZM390.06,112.57h16.94s7.18,0,7.18,0c.29.01.5.3.47.67-.01.07-.03.14-.05.2l-2.12,5.75c-.15.35-.44.6-.76.63h-25.95c-7.19,0-9.03-3.41-8.42-7.24l7.8-22.76c1.55-5.04,5.84-7.56,12.82-7.56h15.44c6,0,9.03.8,9.16,5.43.04,1.42-.21,1.53-.45,2.44l-4,11.48c-.83,2.21-2.31,3.31-4.46,3.31h-19.11s-3.22,0-3.22,0h-2l-1.8,5.18c.2,1.66,1.03,2.48,2.51,2.48ZM444.82,119.82h-26.99c-.3,0-.52-.31-.49-.67.02-.07.03-.15.05-.2l2.33-6.41,7.92-22.9,2.44-6.63v-.02c.14-.38.44-.65.78-.68h26.1c1.75.09,3.27.32,4.59.69,1.71.83,2.79,2.42,3.26,4.73l.21,2.09-7.95,23.11c-1.09,4.59-5.17,6.89-12.25,6.89ZM469.82,119.82h-8.3c-.3,0-.51-.31-.47-.67,0-.05,0-.12.04-.18l2.4-6.4,7.94-22.87,2.47-6.76c.16-.43.49-.72.86-.72h8.04c.26.03.45.33.43.67,0,.07-.03.13-.07.2l-12.49,36.03c-.15.41-.49.7-.85.7ZM514.3,113.53l-1.94,5.59c-.15.4-.46.68-.81.7h-23.86c-5.08,0-8.04-1.37-8.87-4.1-.34-1.12-.39-2.19-.15-3.21l7.9-23.11c1.64-3.16,4.11-5.34,7.4-6.54,1.87-.37,3.79-.55,5.75-.55h13.8s4.43,0,4.43,0h4.51c.25.04.45.32.42.66-.02.07-.03.13-.04.2l-1.9,5.64c-.14.38-.45.66-.79.69h-19.49c-2.17-.18-3.94.6-5.32,2.37l-6.85,18.86c-.07.32-.1.72-.04,1.19.06.41.78.67,2.11.76h23.31c.3.01.51.31.48.67,0,.07-.03.14-.05.2ZM560.08,98.58l-7.11,20.53c-.15.39-.46.67-.8.7h-21.6s-3.58,0-3.58,0c-6,0-9.04-1.82-9.14-5.48-.03-.69.09-1.48.31-2.38l3.97-11.48c.83-2.21,2.33-3.32,4.47-3.32h24.46l1.83-5.18c-.19-1.64-1.03-2.48-2.51-2.48h-22.01c-.3,0-.51-.3-.47-.67,0-.06.02-.12.04-.18l1.93-5.69c.16-.41.5-.71.87-.71h21.17c7.22,0,11.05,2.62,11.32,7.45l-3.13,8.88Z"/>
  </g>
  <g>
    <path d="M220.53,98.58h15.3c1.73,0,2.96-1.01,3.67-3.06l1.12-3.53c.13-1.66-.81-2.24-2.4-2.51h-14.48l-3.21,9.11Z"/>
    <path d="M154.46,89.6l-12.55-.1c-1.17.21-2.19,1-3.04,2.37l-2,5.59h18.67l1.97-5.59c-.09-1.51-1.12-2.28-3.05-2.28Z"/>
    <path d="M299.62,119.8c-4.87-.07-7.73-1.45-8.54-4.16-.34-1.12-.4-2.18-.16-3.21l7.95-23.11,2.23-6.39c.14-.38.47-.68.8-.71h8.11c.3,0,.5.31.47.67,0,.05-.01.09-.02.14l-9.6,27.54c-.02,1.21.63,1.86,1.98,1.95h1.33L374.43,0l-107.75,55.81H42.98c-10.2,0-21.23,8.26-24.62,18.46L.91,127.77c-3.42,10.19,3.2,18.46,13.39,18.46h253.41s9.82-26.41,9.82-26.41h-16.99s-3.59,0-3.59,0c-6,0-9.04-1.83-9.15-5.48-.01-.69.1-1.48.33-2.39l3.98-11.48c.83-2.21,2.31-3.32,4.47-3.32h24.45l1.84-5.18c-.19-1.64-1.04-2.47-2.52-2.47h-16.97s-5.06,0-5.06,0c-.3-.02-.5-.31-.46-.67,0-.05,0-.09.02-.13l1.95-5.73c.15-.39.46-.68.81-.71h21.24c3.96,0,6.88.79,8.77,2.3l9.2-24.76-64.52,12.86,4.68-2.42,62.64-12.48-10.56,28.4c.64,1,1.02,2.19,1.1,3.55l-3.13,8.88-7.11,20.54c-.16.4-.49.7-.86.7h-2.52l-29.49,79.35,49.56-79.36ZM33.33,119.82h-8.4c-.27-.03-.46-.31-.42-.67,0-.07,0-.15.04-.23l2.42-6.43,7.98-22.99,2.39-6.61c.14-.39.5-.66.83-.66h8.08c.27.03.47.33.43.67,0,.05-.02.1-.03.15l-12.52,36.07c-.15.39-.46.67-.8.7ZM77.89,119.12c-.15.39-.47.68-.82.7h-8.41c-.29-.02-.48-.31-.47-.67.02-.05.03-.11.04-.15l8.83-25.56c.87-2.56-.25-3.83-3.38-3.83h-11.91l-10.46,29.51c-.13.39-.45.68-.8.7h-8.23c-.29-.02-.47-.31-.45-.67,0-.05.02-.12.04-.17l2.4-6.54,7.85-22.84,2.35-6.71c.16-.38.5-.65.84-.65h27.53c3.43.74,5.2,3.25,5.29,7.52l-10.24,29.37ZM103,119.12c-.14.41-.48.7-.84.7h-7.89c-.3,0-.52-.31-.49-.67.02-.07.04-.13.06-.2l2.36-6.61,7.61-22.73h-11.54c-.28-.01-.47-.31-.44-.66,0-.05.01-.09.02-.14l2.05-5.85c.16-.42.49-.72.85-.72h23.85s9.59,0,9.59,0c.3,0,.51.31.48.67,0,.07-.02.13-.05.2l-2.03,5.82c-.15.41-.49.69-.85.69h-12.58s-10.17,29.51-10.17,29.51ZM158.66,104.92h-19.09s-3.22,0-3.22,0h-2.01l-1.8,5.18c.2,1.66,1.03,2.47,2.51,2.47h11.4s5.54,0,5.54,0h7.19c.28.02.49.3.46.67,0,.07-.02.14-.03.2l-2.11,5.68c-.15.4-.46.68-.81.7h-25.92c-7.18,0-9.02-3.41-8.42-7.24l7.81-22.76c1.55-5.04,5.84-7.56,12.83-7.56h15.44c6,0,9.03.8,9.15,5.43.04,1.42-.22,1.53-.45,2.44l-3.98,11.48c-.84,2.21-2.32,3.31-4.48,3.31ZM188.55,119.82h-4.69s-5.76,0-5.76,0h-2.65c-7.21,0-10.97-2.41-11.26-7.24l7.81-22.76c1.57-5.04,5.84-7.56,12.84-7.56h23.99c.27.05.45.33.41.67,0,.06-.01.11-.03.16l-2.11,5.87c-.16.37-.47.64-.83.64l-22.5-.09c-1.17.21-2.18,1-3.03,2.37l-6.5,18.22c.2,1.66,1.03,2.48,2.51,2.48h12.88c1.17-.21,2.2-1,3.05-2.37l1.98-5.59h-5.44s-5.21,0-5.21,0c-.26-.03-.45-.33-.42-.67,0-.06.02-.12.03-.18l2.02-5.88c.15-.39.46-.69.79-.71h20.14l-5.18,15.1c-1.56,5.03-5.84,7.55-12.83,7.55ZM242.58,82.21c1.74.1,3.25.33,4.57.7,1.72.85,2.79,2.42,3.28,4.73l.21,2.09-3.4,10.35c-.85,2.31-3.48,5.88-6.14,5.97h-.25s2.93,12.58,2.93,12.58c.03.1.03.21.02.32-.04.47-.38.86-.77.86h-9.02c-.24,0-.42-.18-.46-.43l-2.64-13.46-12.71-.02-4.65,13.21c-.14.4-.5.69-.85.69h-8.26c-.31,0-.52-.31-.49-.68,0-.06.01-.12.04-.18l2.42-6.52,7.84-22.73,2.48-6.77c.15-.41.49-.72.86-.72h10.81s14.18,0,14.18,0Z"/>
    <path d="M259.91,104.61l-1.96,5.59c.11,1.5,1.14,2.27,3.05,2.27h14.74l2.16-6.15.61-1.71h-5.27s-13.32,0-13.32,0Z"/>
  </g>
</svg>