<?xml version="1.0" encoding="UTF-8"?>
<svg id="Layer_1" xmlns="http://www.w3.org/2000/svg" viewBox="0 0 722.84 201.58">
  <path d="M579,0c.25.3.6.25.93.27,4.49.24,8.87,1.07,13.13,2.55,5.77,2.01,10.71,5.27,14.69,9.9,2.88,3.35,5.03,7.15,6.62,11.28.56,1.47.89,2.95.78,4.51-.2,3.06-1.48,5.53-4.07,7.27-.78.52-1.64.81-2.52,1.05-1.59.43-3.18.62-4.84.22-2.06-.49-3.68-1.61-5.02-3.2-.97-1.15-1.65-2.48-2.44-3.75-2.44-3.95-5.67-7.04-9.94-8.95-2.16-.97-4.45-1.5-6.8-1.83-2.02-.29-4.04-.31-6.05-.23-3.45.14-6.77.87-9.91,2.33-1.66.77-3.26,1.65-4.71,2.8-3.56,2.82-5.81,6.43-6.38,10.94-.43,3.37.11,6.64,1.94,9.58,1.32,2.12,3.11,3.78,5.2,5.13,3.07,1.98,6.46,3.21,9.97,4.14,5.67,1.51,11.37,2.91,17.04,4.42,4.99,1.33,9.85,3.04,14.46,5.38,3.05,1.55,5.96,3.35,8.64,5.5,3.53,2.84,6.43,6.22,8.62,10.19,1.37,2.5,2.32,5.18,2.91,7.97.36,1.7.64,3.4.63,5.14,0,1.4.03,2.8-.01,4.19-.13,4.27-1.01,8.39-2.57,12.36-1.33,3.39-3.16,6.49-5.45,9.31-2.78,3.44-6.12,6.25-9.9,8.55-4.28,2.61-8.89,4.38-13.75,5.51-2.11.49-4.25.8-6.4,1.05-3.75.45-7.51.34-11.26.18-2.1-.09-4.2-.47-6.28-.88-4.75-.94-9.29-2.53-13.55-4.84-3.01-1.64-5.81-3.59-8.4-5.84-2.94-2.55-5.38-5.5-7.49-8.75-1.5-2.31-2.79-4.75-3.59-7.38-1.19-3.94-.42-7.53,2.45-10.56,1.45-1.53,3.34-2.24,5.41-2.45.95-.09,1.9-.14,2.87-.05,2.83.24,5.01,1.6,6.7,3.8.73.95,1.26,2.03,1.79,3.12,1.31,2.69,2.8,5.27,4.86,7.48,1.78,1.91,3.71,3.63,6.01,4.92,2,1.12,4.11,1.87,6.32,2.41,1.35.33,2.74.5,4.12.67,1.69.2,3.37.25,5.05.16,4.16-.22,8.23-.96,11.99-2.84,5.46-2.73,9.15-6.97,10.62-12.97,1.04-4.27.29-8.3-1.87-12.09-1.77-3.11-4.42-5.3-7.49-7.03-3.34-1.88-6.94-3.08-10.65-4.01-5.51-1.37-11.03-2.71-16.51-4.16-5.13-1.36-10.1-3.17-14.79-5.71-4.15-2.26-7.82-5.13-10.87-8.73-2.88-3.39-4.85-7.28-5.91-11.61-.51-2.11-.92-4.23-.93-6.41,0-.33-.06-.67-.1-1-.03-.33-.11-.67-.1-1,.15-5.23.96-10.31,3.19-15.13,2.26-4.86,5.55-8.89,9.56-12.36,1.97-1.7,4.13-3.15,6.41-4.42,3.6-2,7.4-3.48,11.39-4.49,1.91-.48,3.83-.92,5.81-1.08,1.05-.09,2.1-.21,3.15-.33.13-.01.24-.15.36-.22,2.31,0,4.63,0,6.94,0Z"/>
  <path d="M46.64,0c.25.3.6.25.94.27,4.74.25,9.35,1.16,13.81,2.78,4.17,1.51,7.89,3.76,11.18,6.74,4.11,3.73,7.02,8.26,9.13,13.35.13.31.27.62.4.93.87,2.12,1.02,4.31.4,6.51-.84,2.96-2.63,5.11-5.65,6.07-1.15.36-2.31.65-3.53.64-2.79-.04-4.99-1.22-6.79-3.28-.83-.95-1.48-2.02-2.1-3.1-1.13-1.97-2.45-3.82-4.07-5.41-2.8-2.76-6.15-4.59-9.97-5.57-3.35-.86-6.76-1.07-10.18-.8-4.63.37-8.95,1.76-12.8,4.46-2.84,1.99-4.99,4.52-6.27,7.75-1,2.54-1.37,5.18-.94,7.92.16,1,.37,1.98.7,2.94.87,2.59,2.49,4.65,4.58,6.36,2.27,1.85,4.84,3.13,7.58,4.13,2.85,1.04,5.81,1.73,8.74,2.51,4.88,1.29,9.79,2.48,14.65,3.87,4.82,1.38,9.51,3.16,13.91,5.6,4.07,2.25,7.82,4.93,10.99,8.37,3.77,4.09,6.31,8.83,7.52,14.26.33,1.5.6,3.01.63,4.56.01.81.19,1.63.19,2.44.01,2.02-.25,4.02-.48,6.03-.28,2.5-.84,4.93-1.67,7.29-1.5,4.27-3.69,8.13-6.64,11.58-3.3,3.87-7.24,6.88-11.73,9.22-4.31,2.24-8.85,3.74-13.62,4.62-3.61.67-7.25.95-10.92.88-.82-.02-1.64,0-2.46-.02-2.99-.06-5.93-.51-8.86-1.11-4.37-.9-8.53-2.39-12.47-4.45-3.82-1.99-7.29-4.48-10.37-7.52-2.37-2.35-4.5-4.89-6.24-7.74-1.31-2.14-2.46-4.37-3.27-6.75-1.3-3.82-.51-7.31,2-10.42.83-1.03,1.94-1.73,3.18-2.19,2.12-.78,4.34-.97,6.54-.54,2.46.48,4.42,1.89,5.85,3.94.55.78,1,1.65,1.41,2.51,1.15,2.4,2.46,4.7,4.14,6.76,2.02,2.49,4.35,4.61,7.22,6.12,3.16,1.67,6.51,2.54,10.05,2.91,1.69.17,3.37.27,5.04.18,4.46-.24,8.8-1.04,12.77-3.2,5.09-2.76,8.48-6.91,9.91-12.54.9-3.56.51-7.07-.98-10.44-1.36-3.08-3.5-5.5-6.25-7.41-2.19-1.52-4.55-2.7-7.04-3.63-3.03-1.14-6.17-1.84-9.3-2.63-4.34-1.09-8.7-2.11-13.02-3.27-4.8-1.28-9.47-2.94-13.88-5.27-4.25-2.25-8.1-5.03-11.28-8.67-2.3-2.63-4.1-5.58-5.31-8.87-.86-2.36-1.41-4.78-1.75-7.27-.4-2.93-.22-5.86-.18-8.8.73-5.36,2.33-10.4,5.33-14.96,2.61-3.95,5.84-7.27,9.68-10.02,4.88-3.5,10.28-5.84,16.12-7.2,2.53-.59,5.09-1.04,7.69-1.19.27-.02.52-.17.78-.26,2.31,0,4.63,0,6.94,0Z"/>
  <path d="M722.82,98.32c0,2.82-.66,5.53-1.46,8.2-1.09,3.63-2.75,7-4.94,10.07-2.85,4-6.39,7.31-10.54,9.97-4.31,2.75-8.96,4.66-13.92,5.84-2.39.57-4.8.95-7.24,1.23-3.71.42-7.41.28-11.12.17-1.53-.04-3.06-.33-4.57-.58-3.29-.54-6.5-1.4-9.6-2.61-4.79-1.87-9.23-4.34-13.17-7.68-3.03-2.57-5.69-5.47-7.87-8.79-1.59-2.42-2.89-5-3.93-7.71-.35-.9-.52-1.84-.53-2.82-.02-1.6.01-3.17.65-4.68.78-1.88,1.98-3.39,3.66-4.54.9-.61,1.9-.93,2.94-1.13,2.21-.43,4.39-.44,6.52.4,1.61.63,2.94,1.62,3.97,3.01.66.89,1.23,1.84,1.7,2.85,1.22,2.63,2.7,5.1,4.55,7.35,2.5,3.04,5.56,5.3,9.22,6.76,2.02.81,4.12,1.36,6.27,1.65,2.29.31,4.6.51,6.92.31,2.97-.25,5.92-.67,8.76-1.66,3.88-1.34,7.17-3.52,9.79-6.66,1.56-1.87,2.68-4.01,3.35-6.34.36-1.24.55-2.53.8-3.81.06-.33.07-.68.03-1.01-.14-1.14-.27-2.29-.47-3.42-.54-3.08-2.02-5.68-4.14-7.95-2.45-2.62-5.46-4.4-8.72-5.8-3.11-1.34-6.4-2.09-9.67-2.91-4.99-1.26-9.99-2.49-14.97-3.8-4.11-1.08-8.08-2.57-11.89-4.45-2.77-1.37-5.39-2.98-7.83-4.88-3.58-2.8-6.46-6.19-8.56-10.22-1.39-2.66-2.28-5.5-2.82-8.46-.54-2.95-.74-5.93-.54-8.91.36-5.5,1.85-10.68,4.7-15.45,1.69-2.83,3.71-5.4,6.09-7.66,2.31-2.2,4.85-4.09,7.61-5.7,2.63-1.54,5.4-2.77,8.27-3.76,2.46-.85,4.97-1.5,7.55-1.9,1.71-.26,3.41-.57,5.15-.61.17,0,.34-.15.5-.24,2.31,0,4.63,0,6.94,0,.21.09.42.25.64.25,1.73.06,3.44.32,5.15.58,3.15.47,6.22,1.22,9.2,2.37,5.54,2.15,10.28,5.41,14.06,10.03,2.77,3.39,4.85,7.16,6.37,11.25.64,1.74.86,3.53.46,5.37-.7,3.19-2.41,5.53-5.53,6.7-.67.25-1.39.37-2.09.53-2.34.53-4.48.05-6.47-1.25-1.7-1.11-2.9-2.67-3.87-4.41-.8-1.44-1.7-2.79-2.73-4.07-2.57-3.2-5.77-5.49-9.64-6.85-3.17-1.11-6.46-1.44-9.8-1.46-3.76-.02-7.37.7-10.83,2.12-3.27,1.34-6.05,3.38-8.28,6.12-1.28,1.58-2.22,3.36-2.77,5.35-.36,1.31-.6,2.62-.54,3.98.05,1.2,0,2.42.22,3.59.71,3.84,2.85,6.75,5.99,9.01,2.98,2.14,6.3,3.52,9.8,4.48,4.17,1.15,8.38,2.17,12.56,3.28,3.3.88,6.61,1.72,9.87,2.73,3.92,1.21,7.69,2.78,11.31,4.72,3.88,2.08,7.45,4.58,10.57,7.72,3.17,3.19,5.62,6.83,7.2,11.04.95,2.53,1.66,5.12,1.69,7.85,0,2.42,0,4.84,0,7.26Z"/>
  <path d="M0,183.07c0-1.09,0-2.19,0-3.28.34-4.39,3.68-8.64,8.55-9.76,1.86-.43,3.73-.38,5.61-.23,1.48.12,2.96.34,4.44.53,1.24.15,2.48.33,3.72.48.91.11,1.81.21,2.72.3,1.29.13,2.59.23,3.88.36,1.48.15,2.96.34,4.44.5,1.1.12,2.2.23,3.3.32,1.58.13,3.17.22,4.75.36,1.48.13,2.96.31,4.44.47.1.01.19.02.29.03,1.78.12,3.55.22,5.33.36,1.77.14,3.54.32,5.31.48.1,0,.19.02.29.03,1.97.12,3.94.22,5.91.35,2.21.15,4.41.33,6.61.5.1,0,.19.02.29.02,2.45.12,4.91.17,7.36.37,2.31.18,4.62.14,6.92.34,1.78.16,3.56.09,5.34.25,2.79.25,5.59.11,8.37.33,2.79.22,5.59.06,8.37.27,4.33.33,8.68.06,13,.3,5.64.31,11.27.17,16.91.22,5.64.05,11.28.02,16.92.01,5.21,0,10.42.09,15.62-.1,4.72-.17,9.45-.03,14.16-.29,3.47-.19,6.94-.04,10.4-.28,3.03-.21,6.07-.07,9.1-.3,2.46-.19,4.92-.07,7.36-.27,2.6-.21,5.21-.1,7.79-.31,2.02-.17,4.05-.08,6.06-.26,2.31-.21,4.63-.11,6.92-.32,1.88-.17,3.76-.09,5.62-.27,2.02-.2,4.05-.11,6.05-.31,1.64-.16,3.27-.14,4.9-.24,2.3-.14,4.6-.32,6.91-.48.1,0,.19-.02.29-.02,2.55-.12,5.1-.23,7.65-.35,2.02-.1,4.05-.13,6.05-.35,1.44-.16,2.88-.15,4.32-.25,2.11-.14,4.22-.33,6.33-.49.05,0,.1,0,.14,0,2.07-.11,4.13-.2,6.2-.33,2.4-.15,4.8-.34,7.19-.52.1,0,.19-.02.29-.02,2.26-.12,4.52-.21,6.78-.36,1.97-.13,3.93-.32,5.89-.48.1,0,.19-.02.29-.03,1.97-.11,3.94-.19,5.91-.34,2.3-.18,4.61-.19,6.9-.52.1-.01.19-.01.29-.02,2.11-.12,4.23-.21,6.34-.36,1.97-.14,3.93-.33,5.89-.5.05,0,.1,0,.14,0,2.11-.12,4.23-.21,6.34-.36,1.92-.13,3.83-.32,5.75-.48.1,0,.19-.02.29-.03,2.02-.12,4.04-.21,6.05-.35,2.06-.14,4.12-.33,6.18-.5.1,0,.19-.02.29-.02,2.16-.12,4.33-.21,6.49-.36,2.01-.14,4.02-.33,6.03-.5.05,0,.1,0,.14,0,2.02-.11,4.04-.21,6.05-.35,2.16-.15,4.31-.33,6.47-.5.1,0,.19-.02.29-.02,2.26-.12,4.52-.21,6.78-.36,2.11-.14,4.22-.33,6.32-.5.05,0,.1,0,.14,0,2.02-.11,4.04-.2,6.05-.33,2.59-.17,5.19-.21,7.77-.53.05,0,.1,0,.14,0,2.4-.12,4.81-.23,7.21-.35,2.07-.1,4.14-.12,6.2-.35,1.54-.17,3.09-.06,4.61-.27,2.39-.32,4.82-.06,7.2-.46.38-.06.77-.03,1.16-.04,3.08-.12,6.17-.15,9.23-.39,1.88-.15,3.76-.09,5.62-.26,2.45-.22,4.92-.11,7.36-.32,2.22-.19,4.43-.09,6.64-.26,3.08-.24,6.17-.11,9.24-.33,2.46-.17,4.91-.1,7.36-.23,4.67-.26,9.35-.12,14.01-.34,5.59-.26,11.18-.16,16.77-.22,5.59-.05,11.19-.02,16.78-.01,4.68,0,9.36-.06,14.03.09,4,.13,8,.09,11.99.31,2.55.14,5.11.07,7.65.26,2.31.18,4.63.11,6.92.31,1.83.15,3.67.04,5.48.28,2.16.29,4.34.03,6.47.45.09.02.19.01.29.02,2.36.12,4.71.21,7.07.37,1.87.12,3.73.32,5.6.49.14.01.29.02.43.03,1.78.12,3.55.21,5.33.35,2.25.18,4.5.36,6.75.59,2.34.23,4.68.53,7.02.78,2.25.23,4.5.41,6.75.66,2.01.22,4,.52,6,.77,1.76.22,3.53.42,5.3.65,1.86.24,3.71.51,5.57.77,1.57.22,3.14.43,4.71.66,2.19.32,4.38.64,6.56.98,2.09.33,4.17.68,6.26,1.04,2.42.41,4.84.81,7.25,1.25,2.88.53,5.76,1.08,8.64,1.66,3.49.71,6.97,1.45,10.45,2.18,7.44,1.57,14.81,3.43,22.16,5.35,3.35.87,6.68,1.84,10.01,2.79,2.54.73,5.08,1.49,7.62,2.25.42.12.82.28,1.24.4,1.52.43,1.53.86,1.46,2.2-.05.83-.62,1.26-1.48,1.14-.38-.05-.76-.11-1.14-.2-4.6-1-9.2-2.05-13.81-3-3.25-.67-6.51-1.26-9.78-1.83-4.4-.78-8.81-1.53-13.22-2.25-2.28-.37-4.57-.64-6.85-.97-1.66-.24-3.32-.53-4.99-.76-1.71-.24-3.43-.43-5.15-.64-2.15-.27-4.29-.55-6.44-.81-1.1-.13-2.2-.23-3.3-.35-1.48-.16-2.96-.34-4.44-.5-1.05-.12-2.1-.23-3.16-.32-1.53-.13-3.07-.22-4.6-.36-1.58-.14-3.15-.32-4.73-.48-.1,0-.19-.02-.29-.03-1.87-.12-3.75-.22-5.62-.36-1.92-.14-3.83-.33-5.75-.49-.1,0-.19-.02-.29-.02-2.4-.12-4.81-.16-7.21-.37-2.16-.19-4.34-.12-6.49-.33-1.88-.18-3.75-.11-5.63-.24-3.32-.25-6.65-.12-9.96-.33-4.91-.31-9.83-.05-14.74-.28-5.35-.25-10.7-.28-16.04-.13-5.93.17-11.86.02-17.78.28-3.28.14-6.56.03-9.82.27-2.74.2-5.5.07-8.23.29-2.31.19-4.63.08-6.93.29-1.97.17-3.95.1-5.91.29-1.83.18-3.66.1-5.48.28-1.73.18-3.47.11-5.19.29-1.68.17-3.37.11-5.04.29-1.49.16-2.98.16-4.47.26-1.92.13-3.83.32-5.75.48-.1,0-.19,0-.29.01-2.16.12-4.33.21-6.49.36-1.87.13-3.73.32-5.6.49-.1,0-.19.01-.29.02-1.92.12-3.84.21-5.76.36-1.72.13-3.44.32-5.17.48-.19.02-.38.03-.58.04-1.82.12-3.65.21-5.47.36-1.58.13-3.15.33-4.73.48-1.2.12-2.39.21-3.59.3-1.63.12-3.26.22-4.89.36-1.53.13-3.06.31-4.59.47-.19.02-.38.04-.58.06-2.68.22-5.37.4-8.05.65-2.44.23-4.87.53-7.31.77-1.48.15-2.97.22-4.46.36-1.53.14-3.06.33-4.59.49-1,.11-2.01.21-3.01.3-1.39.13-2.78.22-4.17.36-1.58.15-3.15.34-4.73.51-1,.11-2.01.21-3.01.3-1.39.13-2.78.22-4.17.36-1.43.14-2.86.33-4.3.48-1.1.12-2.2.23-3.3.33-1.44.13-2.88.21-4.31.36-1.24.13-2.48.31-3.72.46-.24.03-.48.03-.72.06-1.72.18-3.44.37-5.16.53-1.34.13-2.68.22-4.02.36-1.53.15-3.06.34-4.58.5-1.05.11-2.1.22-3.16.32-1.39.12-2.78.22-4.17.35-1.39.14-2.77.32-4.15.47-1.05.12-2.1.23-3.16.33-1.39.13-2.78.22-4.17.35-1.43.14-2.86.32-4.3.48-.24.03-.48.04-.72.06-1.82.18-3.63.37-5.45.54-1.44.13-2.88.23-4.31.37-1.48.14-2.96.31-4.44.46-.19.02-.38.05-.57.07-1.96.19-3.92.39-5.88.56-1.58.14-3.17.22-4.75.37-1.53.14-3.06.33-4.59.49-1.05.11-2.1.22-3.16.3-1.63.13-3.26.22-4.89.36-1.53.13-3.06.31-4.59.47-.14.01-.29.03-.43.04-1.68.12-3.36.22-5.04.36-1.58.13-3.15.32-4.73.48-.14.01-.29.03-.43.04-1.78.12-3.55.21-5.33.36-1.58.13-3.15.32-4.73.48-.14.01-.29.02-.43.03-1.82.12-3.65.22-5.47.35-2.69.19-5.38.36-8.06.6-2.54.24-5.08.44-7.62.57-1.92.1-3.83.32-5.75.49-.05,0-.1,0-.14,0-2.16.12-4.33.21-6.49.36-2.11.14-4.22.33-6.32.49-.1,0-.19.01-.29.02-2.55.12-5.1.22-7.65.36-2.26.13-4.51.32-6.76.48-.1,0-.19.02-.29.02-2.4.11-4.81.22-7.21.32-2.98.12-5.98.13-8.95.38-2.26.19-4.53.08-6.78.28-2.55.22-5.11.08-7.65.3-2.89.25-5.78.06-8.66.27-3.95.29-7.9.07-11.84.31-2.8.17-5.59.12-8.38.21-5.21.02-10.42.04-15.62.06-.34-.01-.67-.04-1.01-.04-8.73-.02-17.47-.03-26.2-.04-.29,0-.58.02-.86.03-1.59-.01-3.18.04-4.77-.05-3.99-.23-7.99-.1-11.98-.33-2.84-.16-5.68-.05-8.51-.27-2.31-.18-4.62-.09-6.92-.3-1.92-.17-3.85-.09-5.76-.27-1.97-.19-3.95-.1-5.91-.3-1.73-.18-3.46-.15-5.19-.26-1.96-.13-3.93-.32-5.89-.48-.1,0-.19-.01-.29-.02-2.35-.12-4.71-.21-7.06-.37-1.77-.12-3.54-.32-5.31-.48-.14-.01-.29-.02-.43-.02-1.92-.12-3.84-.21-5.76-.36-1.58-.12-3.15-.32-4.73-.48-.14-.01-.29-.02-.43-.03-1.68-.12-3.36-.21-5.04-.36-1.48-.13-2.96-.34-4.44-.48-1.39-.14-2.78-.22-4.17-.35-1.53-.15-3.06-.33-4.58-.49-1.1-.12-2.2-.24-3.3-.34-1.34-.13-2.68-.21-4.02-.36-1.24-.13-2.48-.32-3.71-.47-.86-.11-1.72-.22-2.58-.31-1.24-.13-2.49-.23-3.73-.36-4.53-.47-8-2.61-10.17-6.66-.7-1.31-1.2-2.73-1.24-4.26Z"/>
  <path d="M305.32,93.69c0-14.79,0-29.59,0-44.38,0-12.53,0-25.06,0-37.58,0-1.02.05-2.02.28-3.01.83-3.58,2.9-6.17,6.35-7.49,2.88-1.1,5.68-.64,8.33.85,2.47,1.39,4.09,3.49,4.81,6.23.24.92.31,1.89.44,2.84.04.33,0,.67,0,1.01,0,36.72,0,73.43.01,110.15,0,1.17-.05,2.34-.35,3.43-.96,3.5-3.13,5.91-6.68,6.95-.84.24-1.69.35-2.57.33-1.01-.02-2.03-.02-3.04,0-3.76.07-6.58-1.57-8.51-4.76-2.12-3.5-4.21-7.02-6.32-10.52-2.58-4.29-5.17-8.57-7.76-12.86-2.48-4.12-4.96-8.25-7.44-12.38-2.75-4.58-5.51-9.16-8.26-13.74-2.75-4.58-5.5-9.16-8.25-13.74-2.75-4.58-5.51-9.16-8.26-13.74-2.16-3.59-4.31-7.18-6.47-10.77-.25-.41-.51-.81-.75-1.2-.4.11-.26.4-.27.6-.02.58,0,1.16,0,1.73,0,26.94,0,53.87,0,80.81,0,1.46-.23,2.86-.8,4.22-1.31,3.08-3.61,5.06-6.78,6.01-1.64.49-3.31.53-4.99.1-2.66-.68-4.64-2.24-6.04-4.58-1.07-1.79-1.44-3.75-1.57-5.79-.02-.34,0-.67,0-1.01,0-36.52,0-73.05,0-109.57,0-1.35.14-2.68.46-4,.94-3.87,4.56-6.57,7.83-7,2.32-.3,4.61-.28,6.9.11,2.65.45,4.71,1.9,6.21,4.11.84,1.23,1.58,2.53,2.35,3.81,2.8,4.66,5.6,9.33,8.4,13.99,2.7,4.5,5.39,9,8.09,13.5,2.8,4.66,5.61,9.32,8.4,13.99,2.55,4.25,5.08,8.52,7.62,12.77,2.74,4.58,5.5,9.16,8.25,13.74,2.45,4.09,4.9,8.17,7.35,12.26.91,1.53,1.81,3.06,2.72,4.6.02.09,0,.21.06.27.08.08.26.19.31.15.22-.15.11-.3-.05-.42Z"/>
  <path d="M204.02,50.1c0,12.38.01,24.76,0,37.15,0,6.02-1.09,11.86-3.25,17.48-1.55,4.02-3.67,7.74-6.36,11.12-1.14,1.43-2.31,2.85-3.61,4.13-4.66,4.57-10.03,8.08-16.14,10.45-3.56,1.38-7.22,2.32-10.99,2.94-2.73.45-5.45.56-8.2.55-1.06,0-2.12-.02-3.18-.03-1.54-.02-3.06-.3-4.59-.48-2.78-.33-5.48-1.03-8.15-1.84-1.15-.35-2.29-.74-3.41-1.19-4.13-1.66-7.99-3.81-11.52-6.54-1.95-1.51-3.76-3.16-5.45-4.94-2.19-2.32-4.07-4.87-5.72-7.6-2.87-4.76-4.68-9.91-5.69-15.35-.43-2.31-.74-4.65-.7-7.02.02-1.01,0-2.02,0-3.04,0-24.81,0-49.63,0-74.44,0-1.15-.03-2.31.34-3.43,1.27-3.88,3.75-6.46,7.88-7.16,3.19-.54,5.97.41,8.39,2.53,1.86,1.63,2.87,3.71,3.32,6.09.06.33.07.67.08,1.01.01.72.01,1.45.01,2.17,0,24.67,0,49.34,0,74.01,0,3.35.5,6.6,1.62,9.77,1.82,5.15,4.93,9.34,9.32,12.57,3.75,2.76,7.92,4.55,12.53,5.25,1.52.23,3.05.45,4.58.49,1.44.04,2.89-.09,4.31-.29,2.67-.38,5.27-1.08,7.77-2.14,2.69-1.13,5.11-2.66,7.34-4.54,2.88-2.43,5.07-5.39,6.72-8.75,1.11-2.26,1.79-4.66,2.25-7.13.23-1.24.3-2.48.31-3.73,0-.96.01-1.93.01-2.89,0-24.43,0-48.86,0-73.28,0-1.8.24-3.54,1.01-5.19,1.57-3.35,4.2-5.24,7.82-5.94,2.1-.4,4.02-.04,5.86.92,2.83,1.46,4.5,3.84,5.22,6.91.23.99.29,1.99.29,3.01-.01,12.82,0,25.63,0,38.45Z"/>
  <path d="M460.1,77.23c0,11.96,0,23.71,0,35.46,0,.23.05.46.09.76.31.05.58.11.86.12.43.02.87,0,1.3,0,16.06,0,32.11,0,48.17,0,.63,0,1.25.03,1.88,0,3.88-.16,7.8,2.96,8.74,6.9.85,3.58.06,6.69-2.65,9.22-1.65,1.54-3.69,2.22-5.9,2.4-.34.03-.67,0-1.01,0-20.16,0-40.31,0-60.47,0-1.12,0-2.22-.1-3.29-.37-3.86-.94-6.26-3.42-7.36-7.19-.26-.88-.4-1.78-.37-2.71.02-.67,0-1.35,0-2.02,0-35.32,0-70.64,0-105.96,0-.72,0-1.45,0-2.17.02-2.56.89-4.81,2.54-6.75,1.02-1.19,2.33-2.02,3.78-2.58,1.13-.44,2.29-.74,3.52-.68.43.02.87,0,1.3,0,19.53,0,39.06,0,58.59,0,1.31,0,2.59.06,3.83.57,3.24,1.35,5.13,3.74,5.79,7.18.43,2.2.05,4.24-1.05,6.11-1.35,2.3-3.35,3.81-6,4.4-.99.22-1.99.28-3.01.28-15.77,0-31.53,0-47.3,0h-1.79c-.08.34-.17.6-.2.87-.03.29,0,.58,0,.87,0,11.66,0,23.32,0,34.98,0,.52.03,1.04.04,1.64.34.06.61.13.88.15.43.02.87,0,1.3,0,13.26,0,26.52,0,39.78,0,1.96,0,3.82.39,5.51,1.42,2.11,1.29,3.54,3.11,4.21,5.48,1.47,5.16-1.55,9.84-6.61,11.23-.93.26-1.89.32-2.86.32-13.45-.01-26.91,0-40.36,0-.57,0-1.14.03-1.9.04Z"/>
  <path d="M373.6,113.56c.63,0,1.25.03,1.88.03,13.69,0,27.39,0,41.08,0,1.36,0,2.7.04,3.96.61,3.12,1.39,5.05,3.74,5.72,7.11.26,1.3.23,2.58-.13,3.85-1.03,3.67-3.43,5.91-7.16,6.74-.81.18-1.62.23-2.44.23-17.5,0-35,0-52.51,0-1.17,0-2.31-.12-3.43-.43-4.03-1.1-6.35-3.81-7.25-7.81-.23-1.03-.31-2.08-.31-3.15.01-36.43.01-72.85,0-109.28,0-1.55.23-3.07.81-4.51,1.15-2.83,3.16-4.79,6.06-5.81,2.24-.79,4.45-.6,6.62.26,2.79,1.1,4.73,3.06,5.9,5.82.58,1.36.65,2.8.79,4.23.04.43,0,.87,0,1.3,0,32.91,0,65.82,0,98.73,0,.63.03,1.25.04,1.88.11.07.22.14.33.21Z"/>
</svg>