<?xml version="1.0" encoding="UTF-8"?>
<svg id="Layer_1" xmlns="http://www.w3.org/2000/svg" viewBox="0 0 320.94 43.78">
  <path d="M125.96.25h7.99v18.04c.33-.21.52-.3.67-.44,3.19-2.91,6.37-5.82,9.56-8.72,3.14-2.85,6.3-5.69,9.47-8.53.18-.16.46-.32.69-.32,6.06-.02,12.12-.02,18.18-.01.09,0,.17.02.36.05v43.42c-2.79,0-5.63,0-8.47,0-3.14,0-6.29,0-9.43-.03-.28,0-.63-.13-.82-.32-2.25-2.32-4.47-4.67-6.7-7.01-3.11-3.25-6.23-6.49-9.32-9.76-.49-.52-.79-.46-1.25-.02-.85.81-1.76,1.56-2.58,2.39-.24.25-.38.71-.38,1.08-.02,4.41-.01,8.82-.01,13.24,0,.11,0,.22,0,.37h-7.97V.25ZM164.6,43.02c.05-.06.1-.11.16-.17V1.42c-.29.18-.45.25-.58.37-1.67,1.52-3.33,3.05-5,4.58-2.17,1.98-4.33,3.96-6.5,5.94-2.87,2.62-5.74,5.24-8.63,7.83-.48.43-.35.72.01,1.09.65.66,1.28,1.34,1.92,2.01,3.34,3.53,6.68,7.05,10.02,10.58,2.42,2.56,4.84,5.12,7.26,7.69.46.49.9,1,1.34,1.5Z"/>
  <path d="M.23.07c2.16,0,4.23,0,6.3.01.15,0,.36.15.44.29,2.41,4.21,4.81,8.43,7.21,12.65,2.13,3.75,4.27,7.5,6.4,11.24.4.7.8,1.39,1.28,2.23.52-.89.97-1.64,1.41-2.39,3-5.15,5.99-10.31,8.99-15.46,1.53-2.63,3.08-5.26,4.59-7.9.26-.46.56-.64,1.1-.63,1.9.04,3.8.01,5.7.01v43.55h-8.14v-24.45c-.24.26-.37.36-.44.49-2.97,5.11-5.94,10.23-8.91,15.34-.6,1.03-1.19,2.07-1.82,3.09-.1.17-.37.33-.56.33-1.29.03-2.58,0-3.87.03-.38,0-.55-.14-.73-.45-2.52-4.44-5.05-8.86-7.58-13.3-1.01-1.77-2-3.54-3.01-5.31-.06-.11-.17-.21-.35-.3-.24,8.16-.12,16.32-.18,24.51H0C.08,29.15.15,14.64.23.07Z"/>
  <path d="M47.42,22.09c-.13-12.11,9.72-21.54,21-21.96,13.09-.48,22.84,10.18,22.77,21.85-.07,11.93-10.13,22.15-22.74,21.71-11.62-.41-21.04-10.01-21.03-21.6ZM69.27,8.14c-7.5.04-14.04,6.13-13.81,14.23.2,7.26,6.19,13.44,14.04,13.3,7.61-.14,13.63-6.16,13.6-13.8-.02-8.05-6.23-13.69-13.83-13.73Z"/>
  <path d="M121.43,9.99c-2.25,1.45-4.5,2.9-6.78,4.36-.51-1.02-.96-2.02-1.5-2.98-1.18-2.09-3.13-2.95-5.41-3.25-1.47-.19-2.93-.13-4.36.27-2.43.67-3.79,2.8-3.31,5.15.23,1.14,1.03,1.81,1.96,2.38,1.71,1.03,3.65,1.42,5.56,1.86,2.86.67,5.7,1.41,8.3,2.83,2.71,1.49,4.94,3.47,5.91,6.5,1.8,5.65-.39,11.73-6.1,14.68-3.44,1.78-7.12,2.17-10.92,1.79-2.81-.28-5.44-1.08-7.84-2.56-2.3-1.42-4.06-3.35-5.29-5.76-.42-.83-.83-1.66-1.28-2.55,2.42-1.12,4.83-2.23,7.29-3.37.26.52.54,1.03.78,1.56,1.03,2.34,2.84,3.75,5.28,4.37,2.4.61,4.83.69,7.2-.12,1.87-.63,3.22-1.77,3.41-3.93.13-1.55-.52-2.67-1.79-3.46-1.89-1.18-4.04-1.64-6.18-2.11-2.81-.62-5.58-1.33-8.11-2.74-3.08-1.71-5.33-4.1-6.02-7.67-1.17-6.11,1.84-11.98,8.02-14.18,4.48-1.59,8.97-1.38,13.33.48,3.36,1.44,5.69,3.98,7.26,7.25.18.38.38.76.6,1.19Z"/>
  <path d="M175.07,8.27V.32h36.76v8.03c-1.63,0-3.28,0-4.92,0-2.93,0-5.86-.01-8.79-.04-.46,0-.58.14-.57.58.04,6.63.06,13.26.09,19.89.02,4.86.04,9.72.05,14.58,0,.13-.02.26-.03.43h-8.05c-.01-.25-.03-.46-.03-.68-.01-9.01-.02-18.01-.04-27.02,0-2.35-.07-4.7-.06-7.05,0-.62-.21-.75-.78-.75-4.27.01-8.55,0-12.82,0-.25,0-.49,0-.8,0Z"/>
  <path d="M234.16,41.35c-10.67,0-19.44-8.86-19.44-19.42,0-10.59,8.57-19.33,19.4-19.16,10.64.17,19.32,8.68,19.29,19.53-.03,10.57-8.7,18.96-19.24,19.05ZM250.15,22.28c.23-8.91-7.06-16.23-16.01-16.36-9.23-.12-15.98,7.11-16.29,15.38-.35,9.5,7.48,16.69,15.8,16.91,9.26.24,16.74-7.52,16.5-15.94Z"/>
  <path d="M318.71,20.53c0,.99.03,1.91-.03,2.83,0,.12-.43.32-.66.32-3.44.02-6.88.02-10.31.01-2.89,0-5.79-.03-8.68-.07-.51,0-.4.33-.4.6,0,2.35,0,4.71.02,7.06.02,1.94.08,3.89.1,5.83.02,1.39,0,2.78,0,4.21h-3.12c-.01-.24-.03-.47-.03-.71-.01-3.21-.01-6.42-.04-9.64-.03-4.02-.07-8.05-.11-12.07-.04-3.26-.1-6.51-.14-9.77-.02-2.05,0-4.1,0-6.22h25.63v3.04c-.81.03-1.67.06-2.54.08-1.12.01-2.24.02-3.35,0-1.71-.02-3.43-.08-5.14-.09-3.57-.01-7.15.01-10.72-.02-.65,0-.85.17-.84.83.08,4.36.13,8.73.16,13.09,0,.63.28.68.78.68,6.18,0,12.35,0,18.53,0,.27,0,.53,0,.89,0Z"/>
  <path d="M261.56,2.84h25.78v3.08c-.81,0-1.6,0-2.38,0-6.49,0-12.98.01-19.47,0-.64,0-.8.19-.79.81.04,2.58.02,5.16.05,7.74.02,1.76.1,3.52.08,5.29,0,.66.23.78.82.78,6.11-.01,12.21,0,18.32,0,.99,0,.98,0,1,.98.01.65.07,1.3.11,2.08-.85.04-1.67.1-2.48.1-2.25-.02-4.49-.08-6.74-.1-3.39-.02-6.79.01-10.18-.02-.64,0-.86.15-.85.83.07,5.36.1,10.72.14,16.08,0,.27,0,.53,0,.84h-3.1c-.11-12.79-.21-25.56-.32-38.47Z"/>
</svg>