<?xml version="1.0" encoding="UTF-8"?>
<svg id="Layer_1" xmlns="http://www.w3.org/2000/svg" viewBox="0 0 1117.34 165.98">
  <path d="M195.24,104.69v-59.26h-.49c-3.25,1.95-6.82,2.44-11.04,2.44h-22.25v.49c6.01,5.03,5.68,9.74,5.68,17.37v26.3c0,4.23.33,8.44-2.28,12.34-1.63,2.43-4.71,3.58-7.62,3.58-10.72,0-9.1-13.65-9.1-20.78v-41.73h-.49c-3.08,1.95-6.66,2.44-10.89,2.44h-22.4v.49c6.01,5.03,5.68,9.74,5.68,17.37v31.51c0,8.12,0,15.58,6.49,21.25,5.03,4.4,12.01,6.18,18.34,6.18,9.58,0,16.89-3.42,22.25-10.71v8.6h33.61v-.48c-6.01-5.03-5.36-9.75-5.52-17.38"/>
  <path d="M264.25,79.03c-5.19-3.4-11.85-5.19-17.69-6.98-3.9-1.13-9.26-2.43-9.26-7.46,0-4.39,6.33-5.2,9.57-5.2,7.32,0,15.29,5.08,20.78,10.59v-21.14c-8.27-1.95-16.72-3.08-25.16-3.08s-17.21.8-24.68,5.18c-7.47,4.23-12.01,10.89-12.01,19.66,0,21.91,38.8,22.56,38.8,33.45,0,6-6.98,7.14-11.53,7.14-10.23,0-21.49-8.44-28.74-17.49l3.57,27.22c8.93,1.95,18.19,3.73,27.28,3.73,17.22,0,41.41-4.87,41.41-26.63,0-8.28-5.52-14.62-12.34-19"/>
  <path d="M315.23,10.36s-11.83,2.6-21.68,3.21c-.05,3.25.31,6.71.12,9.55-.2,2.83-.44,5.67-.86,8.49-1.46,10.01-5.61,20.63-17.35,20.63v11.2h11.04v34.59c0,7.63-.34,15.43,5.84,20.95,5.19,4.55,13.63,6.33,20.29,6.33,4.23,0,8.61-.81,12.84-1.14l7.14-13.8c-4.39-.16-9.1-.33-12.99-2.93-5.2-3.4-5.04-7.62-5.04-13.47v-30.37h4.05l13.98-.02v-15.07h-17.38V10.36Z"/>
  <path d="M386.98,64.75c2.75,0,5.68.65,8.45,1.29v-19.8l-6.02-.49c-8.27,0-15.09,4.05-17.53,11.53v-11.85h-.49c-3.08,1.78-6.65,2.43-10.39,2.43h-22.74v.49c6.02,5.03,5.53,9.9,5.53,17.38v38.97c0,7.63.49,12.34-5.53,17.37v.49h39.14v-.49c-6.02-5.03-5.53-9.91-5.53-17.37v-24.51c0-4.07-.49-6.83,2.28-9.91,3.4-3.74,7.96-5.52,12.83-5.52"/>
  <path d="M463.31,90.11v-12.99c0-9.41-.81-18.84-8.92-25-6.34-4.72-14.94-6.17-22.58-6.17-6.97,0-13.8.49-20.46,2.27l-7.63,18.52c6.02-3.09,13.8-5.36,20.47-5.36,4.05,0,10.39,1.78,10.39,6.81,0,13.64-44.66,3.74-44.66,33.78,0,7.46,4.23,15.09,10.72,19,4.71,2.92,11.85,3.89,17.37,3.89,0,0,7.07.13,8.45,0,9.37-.83,14.77-2.83,18.44-4.9,5.5,3.64,11.88,4.9,18.75,4.9l6.49-.49,6.65-14.14c-13.95-.31-13.47-9.25-13.47-20.12M420.12,100.02c0-5.37,5.19-7.81,9.26-9.74l5.19-2.45v5.37c0,6.23-.26,11.57,1.66,16.52-1.27.43-5.12.85-6.2.85-5.84,0-9.91-4.88-9.91-10.55"/>
  <path d="M635.56,90.11v-12.99c0-9.41-.81-18.84-8.92-25-6.34-4.72-14.94-6.17-22.57-6.17-6.98,0-13.8.49-20.46,2.27l-7.63,18.52c6.01-3.09,13.8-5.36,20.46-5.36,4.05,0,10.39,1.78,10.39,6.81,0,13.64-44.65,3.74-44.65,33.78,0,7.46,4.23,15.09,10.71,19,4.72,2.92,11.86,3.89,17.38,3.89,0,0,7.06.13,8.45,0,9.36-.83,14.76-2.83,18.43-4.9,5.51,3.64,11.89,4.9,18.76,4.9l6.48-.49,6.66-14.14c-13.96-.31-13.48-9.25-13.48-20.12M592.38,100.02c0-5.37,5.19-7.81,9.26-9.74l5.18-2.45v5.37c0,6.23-.25,11.57,1.66,16.52-1.27.43-5.11.85-6.2.85-5.84,0-9.9-4.88-9.9-10.55"/>
  <path d="M510.07,104.69c0-9.71-.11-19.44-.16-29.14-.07-14.37-.15-28.72-.23-43.08-.02-4.98-.37-15.33-.16-17.17-7.97-6.35-31.26-8.19-31.26-8.19,2.6,5.22,2.54,11.64,3.11,17.65.74,7.83.6,15.75.61,23.61v56.31c0,7.47.49,12.18-5.53,17.38v.48h39.14v-.48c-6.01-5.2-5.52-9.91-5.52-17.38"/>
  <path d="M538.49,44.61c8.77,0,15.92-6.82,15.92-15.74,0-8.28-6.82-15.27-15.27-15.27-8.94,0-15.43,7.3-15.43,16.07,0,7.8,6.82,14.94,14.78,14.94"/>
  <path d="M554.07,104.69v-59.26h-.49c-3.09,1.95-6.66,2.44-11.04,2.44h-22.09v.49c6.01,5.03,5.52,9.74,5.52,17.37v38.97c0,7.47.49,12.18-5.68,17.38v.48h39.45v-.48c-6.17-5.2-5.68-9.91-5.68-17.38"/>
  <path d="M732.83,104.69v-26.79c0-8.61.49-15.91-5.52-22.9-6.01-6.98-14.13-9.26-22.9-9.26-8.28,0-15.25,2.61-19.97,8.61v-8.92h-.49c-4.22,1.79-7.63,2.44-11.53,2.44h-21.76v.49c6.17,5.19,5.68,9.9,5.68,17.37v38.97c0,7.63.49,12.35-5.68,17.38v.48h39.47v-.48c-6.18-5.03-5.69-9.75-5.69-17.38v-27.43c0-3.58-.16-8.12,2.28-11.21,1.62-2.28,4.54-3.73,7.31-3.73,3.4,0,6.65,1.62,8.44,4.54,2.28,3.08,2.28,6.82,2.28,10.4v27.43c0,7.63.49,12.35-5.68,17.38v.48h39.45v-.48c-6.17-5.03-5.68-9.75-5.68-17.38"/>
  <path d="M120.97,116.14h-.2c-11.47,0-18.21-15.46-21.47-22.93l-.46-1.02c-1.08-2.48-4.59-11.62-9.04-23.19C81.47,47.29,70.06,17.56,62.83.87c-.24-.53-.76-.87-1.34-.87h-8.03c-.47,0-.91.23-1.18.6C37.8,20.89,5.96,87.86,1.35,103.79c-2.11,7.17-1.73,13.16,1.04,16.88,1.67,2.23,4.15,3.46,7,3.46h32.28c.39,0,.76-.15,1.04-.42.27-.28.42-.65.42-1.03v-5.16c-.02-.4-.2-.78-.49-1.05-.3-.28-.69-.41-1.11-.38-.12.01-11.73.83-12.86-5.61-1.26-7.22,1.28-18.62,5.98-21.6,1.92-.86,18.93-.76,34.65-.18.79,2.69,2.99,10.25,4.72,16.24.44,1.55,2.17,6.99,5.77,11.86,3.55,4.79,7.74,7.33,12.12,7.33,6.95,0,29.08-.05,29.08-.05.8,0,1.44-.65,1.44-1.45v-5.02c0-.4-.15-.77-.42-1.03-.28-.28-.65-.44-1.05-.43M60.16,66.22c-.37.51-1.25.76-2.61.76h-19.59l13.39-31.2c1.89,5.57,5.52,16.21,7.24,21.34,1.1,3.25,2.59,7.69,1.57,9.11"/>
  <path d="M1109.08,111.88l-2.08-2.93c1.7-.56,2.87-2.02,2.87-3.68,0-2.4-1.9-3.4-4.16-3.4h-6.99v.6c1.7.08,1.68.23,1.68,1.58v9.02c0,1.29.02,1.44-1.68,1.54v.63h6.25v-.63c-1.7-.1-1.69-.25-1.69-1.54v-3.72h1.37c1.92,2.86,2.91,5.89,4.05,5.89h2.94v-.38c-.74-.65-1.66-1.79-2.55-2.98M1104.55,108.56h-1.28v-5.92h1.31c1.29,0,2.21.72,2.21,2.81,0,1.58-.54,3.11-2.24,3.11"/>
  <path d="M1104.76,96.24c-7.16,0-12.61,5.57-12.61,12.59s5.45,12.51,12.61,12.51,12.58-5.51,12.58-12.51-5.38-12.59-12.58-12.59M1104.76,119.5c-5.67,0-10.03-4.89-10.03-10.68s4.36-10.74,10.03-10.74,10.03,4.91,10.03,10.74-4.38,10.68-10.03,10.68"/>
  <path d="M828.23,68.15c5.84,4.55,6.17,8.45,6.17,15.75v24.03c-2.11.49-4.38.49-6.49.49-23.54,0-30.53-23.05-30.53-43.02s9.1-34.42,30.21-34.42c8.28,0,18.34,3.42,23.87,8.61h.8v-22.57c-8.11-2.28-16.72-3.25-25.15-3.25-33.62,0-60.41,21.43-60.41,56.36s27.28,55.2,61.05,55.2c11.69,0,23.38-1.95,34.59-5.03v-52.61h-34.1v.48Z"/>
  <path d="M940.76,55.65c-7.97-6.82-18.04-9.26-28.43-9.26-24.35,0-42.21,15.27-42.21,40.1s17.69,38.83,40.91,38.83c24.69,0,43.19-14.79,43.19-40.44,0-11.04-5.03-22.25-13.47-29.23M912.99,110.21c-14.29,0-15.59-17.04-15.59-27.92,0-9.58,2.75-20.3,14.28-20.3,13.16,0,15.27,16.23,15.27,26.3s-1.62,21.91-13.95,21.91"/>
  <path d="M988.19,105.33V13.76h-.5c-4.53,1.79-8.92,2.6-14.6,2.6h-18.18v.49c5.68,5.67,5.19,9.41,5.19,17.53v70.95c0,7.47.49,12.18-5.53,17.38v.48h39.14v-.48c-6.02-5.2-5.52-9.91-5.52-17.38"/>
  <path d="M1078.01,99.49V13.76h-.48c-4.39,2.6-8.45,2.6-13.8,2.6h-19.65v.48c6.01,5.04,5.36,9.76,5.84,17.39v17.53c-5.84-3.58-11.85-5.53-18.36-5.53-22.24,0-35.87,19.17-35.87,39.95s14.78,38.85,35.71,38.14c10.7-.35,16.18-2.27,18.51-3.38v2.26h35.24v-.49c-7.16-6.49-7.16-13.8-7.16-23.22M1043.44,109.56c-4.71.53-9.58-2.44-12.5-6.02-4.22-5.03-5.19-12.18-5.19-18.51,0-8.92,2.11-22.07,13.47-22.07,3.58,0,6.82,1.63,8.78,4.72,2.1,3.24,1.94,6.48,1.94,9.9v29.43c-1.49,1.01-3.78,2.26-6.49,2.56"/>
  <path d="M863.35,161.2c.72,1.55,2.36,3.4,5.18,3.4s4.69-2.13,4.69-4.75c0-6.04-10.34-3.45-10.34-11.16,0-3.64,2.76-6.21,7.12-6.21,2.07,0,3.55.5,4.86,1.55-.4.75-.62,1.52-.89,2.75h-.39c-.47-1.2-1.44-3.08-3.9-3.08s-4.24,1.67-4.24,4.07c0,6.14,10.33,3.58,10.33,10.83,0,4-2.98,7.37-8.03,7.37-2.73,0-4.26-.94-5.42-1.85.4-1.02.5-1.68.63-2.93h.4Z"/>
  <path d="M887.05,151.41c0-2.82-.14-5.67-.26-8.5.54.11,1.07.16,1.6.16s1.05-.05,1.59-.16c-.12,2.83-.25,5.68-.25,8.5v5.65c0,2.82.13,5.68.25,8.5-.54-.1-1.07-.16-1.59-.16s-1.06.07-1.6.16c.12-2.82.26-5.68.26-8.5v-5.65Z"/>
  <path d="M921.22,165.98c-4.99-5.87-10.96-12.16-16.57-18.14-.03,1.2-.11,3.18-.11,6.66,0,2.82.14,9.75.29,11.06-.36-.1-.75-.16-1.14-.16s-.79.07-1.23.16c.27-1.55.69-9.94.69-14.27s0-7.32-.1-8.8h.53c5.35,5.81,12.6,13.73,16.6,17.76,0-5.88,0-12.27-.26-17.34.36.11.75.17,1.12.17s.69-.07,1.05-.17c-.21,1.94-.53,8.44-.53,11,0,3.34.07,10.59.1,12.07h-.46Z"/>
  <path d="M951.82,164.12c-.81.66-3.55,1.86-6.82,1.86-6.93,0-11.98-4.3-11.98-11.74s5.05-11.75,12.31-11.75c2.82,0,5.36.68,7.12,1.52-.34.59-.56,1.86-.69,2.56l-.2.07c-.91-1.02-3.14-2.93-6.23-2.93-5.15,0-9.09,3.25-9.09,10.54s3.94,10.54,9.09,10.54c3.11,0,5.41-1.79,6.67-2.73l.12.13-.29,1.94Z"/>
  <path d="M963.33,151.38c0-2.82-.14-5.67-.26-8.47,1.96.11,3.9.16,5.88.16s3.89-.05,5.83-.16c-.07.34-.1.66-.1,1s.03.64.1.96c-2.75-.18-4.37-.42-8.63-.42-.03,1.42-.13,2.57-.13,4.17,0,1.7.03,3.5.03,4.34,3.86,0,6.04-.16,7.97-.34-.07.34-.09.69-.09,1.02s.02.66.09.99c-2.27-.24-6.4-.3-7.97-.3-.03.8-.03,1.62-.03,4.77,0,2.48.03,4.1.07,4.91,2.92,0,6.8-.03,8.86-.42-.07.29-.1.73-.1,1.02s.03.65.1.95c-1.93-.1-3.9-.16-5.91-.16s-3.97.07-5.96.16c.12-2.85.26-5.71.26-8.53v-5.65Z"/>
  <path d="M1006.76,145.44l-3.9,2.17c-.2-.39-.59-.79-.99-1.04v-.24c2.49-1.02,5.22-2.27,7.48-3.42l.24.16c-.17,2.86-.27,5.71-.27,8.57v5.49c0,2.82.1,5.65.27,8.42-.53-.09-1.02-.15-1.55-.15s-1.02.07-1.54.15c.2-2.81.26-5.61.26-8.42v-11.69Z"/>
  <path d="M1027.09,163.53c.92.82,2.03,1.34,3.25,1.34,4.72,0,6.62-5.8,6.62-11.06h-.07c-1.03,1.8-2.7,3.08-5.31,3.08-3.9,0-6.38-2.39-6.38-6.53s2.86-7.03,7.29-7.03c3.9,0,7.36,2.57,7.36,9.45,0,7.28-3.58,13.12-9.69,13.12-1.11,0-2.09-.26-2.59-.46-.13-.55-.39-1.38-.65-1.84l.16-.09ZM1032.47,144.39c-2.56,0-4.36,2.33-4.36,5.97s1.54,5.31,4.03,5.31c3.01,0,4.69-3.01,4.69-6.16s-1.75-5.13-4.37-5.13"/>
  <path d="M1055,153.32v-.22c-1.65-.4-3.61-1.97-3.61-4.53,0-2.76,2.42-5.23,6.16-5.23,4.34,0,6.28,2.33,6.28,4.82,0,2.04-1.28,4.08-3.69,4.82v.23c1.52.27,4.74,1.55,4.74,5.55,0,4.34-3.29,7.14-7.33,7.14s-7.32-2.32-7.32-6.39c0-2.67,1.38-5.1,4.77-6.21M1057.55,153.85c-2.72,0-4.42,2.3-4.42,5.51s1.7,5.52,4.42,5.52,4.43-2.3,4.43-5.52-1.7-5.51-4.43-5.51M1057.59,144.39c-2.47,0-3.51,1.94-3.51,4.21s1.04,4.2,3.51,4.2,3.53-1.93,3.53-4.2-1.05-4.21-3.53-4.21"/>
  <path d="M1078.44,153.13c.89-.47,1.7-.86,3.68-.86,3.84,0,6.3,2.86,6.3,6.17,0,4.13-3.35,7.48-8.16,7.48-1.94,0-3.84-.37-5.25-1.31v-.26c.22-.56.42-1.39.49-1.91h.23c.81,1.62,2.89,2.43,4.66,2.43,2.59,0,5.02-1.94,5.02-6.07,0-3.7-2.23-5.15-4.6-5.15-1.8,0-2.99.82-3.38,1.07l-.36-.22c.29-1.7.33-3.68.33-5.55s-.07-3.94-.26-5.41l.29-.2c.34.07.92.12,1.84.2.94.07,2.22.1,4,.1,2.04,0,3.81-.03,4.6-.07l.16.13c-.16.56-.24,1.21-.24,1.84,0,.22,0,.39.04.55-1.94-.37-6.9-.42-8.93-.42l-.46,7.45Z"/>
</svg>