<?xml version="1.0" encoding="UTF-8"?>
<svg id="Layer_1" xmlns="http://www.w3.org/2000/svg" viewBox="0 0 321.37 103.86">
  <polygon points="174.83 54.23 216.31 54.23 216.31 49.17 181.95 49.17 181.95 32.96 207.75 32.96 207.75 27.83 181.95 27.83 181.95 12.9 216.31 12.9 216.31 7.85 174.83 7.85 174.83 54.23"/>
  <polygon points="196.39 .36 190.77 6.67 208.4 .36 196.39 .36"/>
  <polygon points="285.93 49.17 285.93 7.85 279.44 7.85 279.44 54.23 321.37 54.23 321.37 49.17 285.93 49.17"/>
  <path d="M243.18,7.85l-23.58,46.38h7.97l6.04-12h28.28l6.09,12h7.89l-23.6-46.38h-9.08ZM236.59,36.42l11.11-22.15,11.25,22.15h-22.36Z"/>
  <path d="M152.33,34.84c10.62-2.84,11.66-10.74,11.61-13.57-.64-8.29-6.22-13.42-16.25-13.42h-29.23v46.38h6.67v-19.45h19.03l14,19.45h8.4s-10.07-13.09-14.22-19.39M146.78,29.3h-21.65v-15.95h22.41c5.16,0,8.06,2.41,9.11,5.47.69,2.1.25,4.85-.89,6.73-1.87,3.1-5.43,3.76-8.97,3.76"/>
  <path d="M78.41,0c-18.81,0-31.63,13.26-31.63,29.32,0,16.9,14.16,28.83,31.63,28.83s31.62-11.76,31.62-28.83c0-16.06-12.98-29.32-31.62-29.32M78.18,52.39c-13.02,0-23.74-10.46-23.74-23.05s10.22-23.55,24.24-23.55,23.73,10.96,23.73,23.55-11.23,23.05-24.24,23.05"/>
  <polygon points="30 24.26 34.8 24.26 43.53 7.85 36.51 7.85 30 24.26"/>
  <polygon points="6.49 49.17 6.49 7.85 0 7.85 0 54.23 41.92 54.23 41.92 49.17 6.49 49.17"/>
  <path d="M43.32,103.86c-4.73,0-9.5-2.86-9.5-9.24,0-4.43,3.58-9.01,9.57-9.01,4.09,0,6.29,2.11,7.34,3.12l.37.36-1.85,1.95-.27-.24c-.98-.86-2.82-2.46-5.5-2.46-4.34,0-6.93,3.19-6.93,6.28,0,3.89,2.76,6.51,6.86,6.51,3.34,0,5.14-1.45,5.14-2.82v-1.97h-5.77v-2.73h8.5v4.83c0,3.19-3.27,5.41-7.96,5.41"/>
  <path d="M68.05,103.51l-3.87-6.98h-6.04v6.98h-2.73v-17.53h8.74c5.91,0,7.16,2.82,7.16,5.19,0,3.89-2.52,4.98-4.07,5.28l3.94,7.06h-3.13ZM64.97,93.8c2.45,0,3.62-.39,3.62-2.62s-2.5-2.48-3.27-2.48h-7.18v5.1h6.82Z"/>
  <path d="M88.43,103.51l-2.73-5.75h-7.57l-2.64,5.75h-3.04l8.34-17.53h2.45l8.2,17.53h-3.03ZM84.48,95.03l-2.46-5.38-2.55,5.38h5Z"/>
  <polygon points="107.36 103.51 97.01 90.5 97.01 103.51 94.28 103.51 94.28 85.98 96.82 85.98 107.16 99.16 107.16 85.98 109.89 85.98 109.89 103.51 107.36 103.51"/>
  <path d="M115.57,103.51v-17.53h8.61c5.6,0,8.12,5.13,8.12,8.77,0,3.03-1.7,8.77-8.12,8.77h-8.61ZM124.18,100.78c3.52,0,5.39-3.51,5.39-6.04s-1.71-6.04-5.39-6.04h-5.88v12.08h5.88Z"/>
  <polygon points="136.3 103.51 136.3 85.98 150.83 85.98 150.83 88.7 139.03 88.7 139.03 93.06 145.24 93.06 145.24 95.79 139.03 95.79 139.03 100.78 151.33 100.78 151.33 103.51 136.3 103.51"/>
  <path d="M163.71,103.51v-17.53h9.64c1.33,0,5.66.37,5.66,5.19,0,3.33-2.01,5.17-5.66,5.17h-6.91v7.18h-2.73ZM173.35,93.6c2.05,0,2.93-.73,2.93-2.44s-.9-2.46-2.93-2.46h-6.91v4.9h6.91Z"/>
  <path d="M190.66,103.86c-5.16,0-7.78-2.44-7.78-7.25v-10.64h2.73v10.64c0,3.17,1.51,4.52,5.05,4.52s5.05-1.35,5.05-4.52v-10.64h2.73v10.64c0,4.74-2.69,7.25-7.78,7.25M188.87,85.35l2.25-3.55h3.74l-3.16,3.55h-2.83Z"/>
  <path d="M204.03,103.51v-17.53h9.73c2.6,0,5.63,1.3,5.63,4.96,0,1.56-.62,2.76-1.32,3.4,1.11.82,2.1,2.29,2.1,4.07,0,3.34-2.22,5.1-6.42,5.1h-9.73ZM213.76,100.78c2.59,0,3.69-.68,3.69-2.28,0-2.26-2.31-2.59-3.69-2.59h-7v4.87h7ZM213.76,93.18c1.85,0,2.91-.85,2.91-2.33,0-1.34-1.09-2.15-2.91-2.15h-7v4.47h7Z"/>
  <polygon points="224.67 103.51 224.67 85.98 227.4 85.98 227.4 100.78 237.93 100.78 237.93 103.51 224.67 103.51"/>
  <rect x="240.84" y="85.98" width="2.73" height="17.53"/>
  <path d="M257.74,103.86c-4.81,0-9.68-3.13-9.68-9.12s4.84-9.12,9.39-9.12c4.83,0,7.49,2.59,8.36,3.44l.28.27-1.94,1.88-.26-.22c-.84-.72-3.09-2.64-6.39-2.64-4.2,0-6.71,3.23-6.71,6.35s2.47,6.44,7.04,6.44c3.56,0,5.36-1.77,6.22-2.63l.41-.4,1.86,2.07-.27.25c-.07.06-.14.13-.22.21-1.09,1.05-3.37,3.23-8.09,3.23"/>
  <path d="M278.85,103.86c-5.18,0-9.39-4.09-9.39-9.12s4.13-9.12,9.39-9.12,9.39,4.09,9.39,9.12-4.21,9.12-9.39,9.12M278.85,88.35c-3.74,0-6.66,2.81-6.66,6.4s2.93,6.4,6.66,6.4,6.66-2.81,6.66-6.4-2.93-6.4-6.66-6.4"/>
</svg>