<?xml version="1.0" encoding="UTF-8"?>
<svg id="Layer_1" xmlns="http://www.w3.org/2000/svg" viewBox="0 0 870.94 221.47">
  <defs>
    <style>
      .cls-1 {
        fill-rule: evenodd;
      }
    </style>
  </defs>
  <path class="cls-1" d="M0,128.32h11.56l21.91,49.01,21.12-49.01h9.96l-28.29,61.36h-7.17L0,128.32ZM74.9,189.68h9.96v-61.36h-9.96v61.36ZM219.93,190.08h-9.96v-27.89h-35.06v27.89h-10.36v-61.36h10.36v25.9h35.06v-25.9h9.96v61.36h0ZM228.29,127.92h12.35l20.72,29.09,19.52-28.69h10.76l-25.1,36.66v24.7h-10.76v-24.7l-27.49-37.05h0ZM153.79,136.29v-7.57c-5.98-1.59-12.75-2.39-17.93-2.39-16.34,0-32.27,6.77-39.04,21.91-3.98,7.97-2.39,19.92,2.79,27.49,13.15,16.73,37.05,17.13,56.18,11.95v-7.17c-.53,0-.93.13-1.2.4-13.94,4.78-29.88,7.17-43.43-7.17-5.18-6.37-6.77-15.54-4.38-23.51,4.38-11.95,15.14-18.33,28.29-17.13,0,0,9.16-.4,18.73,3.19h0ZM29.88,214.78h3.19v1.19h-4.78v-12.35h1.59v11.16ZM53.39,211.19h-3.98l1.99-5.18s1.99,5.18,1.99,5.18ZM54.19,212.39l1.2,3.58h1.59l-5.58-13.15-5.58,13.15h1.59l1.2-3.58s5.58,0,5.58,0ZM72.11,210h1.2c1.59,0,3.19.4,3.19,2.39s-1.59,2.39-2.79,2.39h-1.59v-4.78h-.01ZM70.92,215.97h2.79c2.39,0,4.38-1.19,4.38-3.58,0-1.59-.8-2.79-2.39-3.19.8-.4,1.2-1.2,1.2-2.39,0-2.39-1.99-3.18-3.98-3.18h-1.99v12.35h0ZM72.11,204.82h.4c1.99,0,3.19,0,3.19,1.99s-1.59,1.99-3.19,1.99h-.4v-3.98h0ZM98.41,204.42c2.79,0,4.78,2.39,4.78,5.18s-1.99,5.18-4.78,5.18-5.18-2.39-5.18-5.18,1.99-5.18,5.18-5.18ZM98.41,203.23c-3.59,0-6.77,2.79-6.77,6.38s3.19,6.37,6.77,6.37c3.19,0,6.38-2.79,6.38-6.37s-3.19-6.38-6.38-6.38ZM118.73,204.82h.4c1.59,0,3.19,0,3.19,2.39,0,1.59-1.59,1.99-3.19,1.99h-.4v-4.38ZM118.73,210.4h.4l3.59,5.58h1.59l-3.98-5.58c1.99-.4,3.19-1.59,3.19-3.59,0-2.79-1.99-3.18-4.38-3.18h-1.99v12.35h1.59v-5.58h0ZM143.83,211.19h-4.38l2.39-5.18,1.99,5.18ZM144.23,212.39l1.59,3.58h1.59l-5.58-13.15-5.98,13.15h1.59l1.59-3.58h5.2ZM162.16,215.97h-1.59v-11.16h-2.79v-1.19h7.17v1.19h-2.79v11.16h0ZM182.48,204.42c2.79,0,5.18,2.39,5.18,5.18s-2.39,5.18-5.18,5.18-4.78-2.39-4.78-5.18,1.99-5.18,4.78-5.18ZM182.48,203.23c-3.59,0-6.38,2.79-6.38,6.38s2.79,6.37,6.38,6.37,6.77-2.79,6.77-6.37-3.19-6.38-6.77-6.38h0ZM202.8,203.62h1.59v12.35h-1.59v-12.35ZM220.73,204.82h.4c1.99,0,3.19,0,3.19,2.39,0,1.59-1.59,1.99-2.79,1.99h-.8v-4.38ZM220.73,210.4h.4l3.98,5.58h1.59l-3.99-5.58c1.99-.4,3.19-1.59,3.19-3.59,0-2.79-2.39-3.18-4.78-3.18h-1.59v12.35h1.2v-5.58h0ZM240.25,203.62h6.77v1.19h-5.18v3.59h4.78v1.2h-4.78v5.18h5.18v1.19h-6.77v-12.35h0ZM265.35,206.01c-.8-.8-1.19-1.59-2.39-1.59s-1.99.8-1.99,1.99,1.19,1.59,1.99,1.99l.8.4c1.59.8,2.79,1.59,2.79,3.59s-1.59,3.58-3.59,3.58-3.59-1.19-3.99-3.19l1.2-.4c.4,1.59,1.19,2.39,2.79,2.39,1.2,0,2.39-.8,2.39-2.39s-1.19-1.99-2.39-2.39l-.8-.4c-1.19-.8-2.39-1.2-2.39-3.19s1.59-3.19,3.19-3.19,2.79.8,3.19,1.99l-.8.8h0Z"/>
  <g>
    <polygon class="cls-1" points="359.75 167.53 380.28 167.53 380.28 173.26 353.55 173.26 353.55 128.39 359.75 128.39 359.75 167.53 359.75 167.53"/>
    <path class="cls-1" d="M402.23,137.94l7.16,16.23h-13.84l6.68-16.23h0ZM404.62,128.39h-4.77l-19.09,44.87h6.68l5.73-13.36h18.61l6.21,13.36h6.68l-20.05-44.87h0Z"/>
    <path class="cls-1" d="M449.96,134.12h4.3c6.2,0,8.59,2.39,8.59,6.68.48,3.82-1.43,7.16-8.59,7.16h-4.3v-13.84h0ZM443.76,128.39v44.87h6.2v-19.09h2.87c3.34,0,6.2.95,11.93,10.02l5.73,9.07h7.64c-2.86-4.3-4.3-5.73-5.73-8.59-3.82-5.73-6.2-10.02-10.02-12.41,4.77-1.91,7.16-5.73,7.16-10.98,0-8.11-5.73-12.89-14.32-12.89h-11.46Z"/>
    <path class="cls-1" d="M483.85,150.83c0-9.55,7.64-16.71,17.66-16.71s17.18,7.16,17.18,16.71c0,10.02-7.16,17.18-17.18,17.18s-17.66-7.16-17.66-17.18h0ZM477.64,150.83c0,12.41,9.07,22.91,23.39,22.91,15.27,0,24.34-10.5,24.34-22.91s-9.07-22.91-23.87-22.91-23.86,10.5-23.86,22.91h0Z"/>
    <path class="cls-1" d="M571.19,138.42c-5.25-2.86-10.02-4.29-15.27-4.29-10.02,0-17.66,7.16-17.66,16.71,0,10.02,7.16,17.18,18.14,17.18,4.77,0,10.5-1.91,15.27-5.25v7.16c-4.3,2.38-9.07,3.82-16.23,3.82-16.71,0-23.86-12.89-23.86-21.96,0-13.84,10.02-23.87,24.34-23.87,4.77,0,9.55.96,15.27,3.82v6.68h0Z"/>
    <polygon class="cls-1" points="617.49 173.26 611.29 173.26 611.29 153.69 585.99 153.69 585.99 173.26 579.79 173.26 579.79 128.39 585.99 128.39 585.99 147.96 611.29 147.96 611.29 128.39 617.49 128.39 617.49 173.26 617.49 173.26"/>
    <polygon class="cls-1" points="652.81 134.12 634.2 134.12 634.2 147.96 652.34 147.96 652.34 153.69 634.2 153.69 634.2 167.53 653.77 167.53 653.77 173.26 627.52 173.26 627.52 128.39 652.81 128.39 652.81 134.12 652.81 134.12"/>
    <polygon class="cls-1" points="658.06 155.6 673.81 155.6 673.81 161.8 658.06 161.8 658.06 155.6 658.06 155.6"/>
    <path class="cls-1" d="M688.13,134.12h7.64c5.73,0,7.64,3.82,7.64,7.16,0,4.3-3.34,6.68-8.11,6.68h-7.16v-13.84h-.01ZM681.93,128.39v44.87h6.2v-19.09h6.68c10.5,0,15.27-5.73,15.27-12.89s-4.77-12.89-14.32-12.89h-13.84.01Z"/>
    <path class="cls-1" d="M720.11,150.83c0-9.55,7.64-16.71,17.66-16.71s17.18,7.16,17.18,16.71c0,10.02-7.16,17.18-17.18,17.18s-17.66-7.16-17.66-17.18h0ZM713.43,150.83c0,12.41,9.55,22.91,23.87,22.91,15.27,0,24.34-10.5,24.34-22.91s-9.07-22.91-23.86-22.91-24.34,10.5-24.34,22.91h-.01Z"/>
    <path class="cls-1" d="M790.75,138.42c-3.82-3.82-7.64-4.77-10.5-4.77-4.3,0-7.16,2.39-7.16,5.25,0,8.59,19.57,8.59,19.57,22.91,0,7.16-5.73,11.93-12.89,11.93-4.77,0-8.59-.95-12.41-3.82v-8.11c3.34,3.82,7.16,6.2,11.93,6.2s7.16-2.86,7.16-5.73c0-9.07-19.09-10.02-19.09-22.43,0-7.16,5.25-11.93,13.36-11.93,3.34,0,6.68.96,10.02,3.34v7.16h.01Z"/>
    <path class="cls-1" d="M816.53,137.94l7.16,16.23h-13.84l6.68-16.23h0ZM818.91,128.39h-4.77l-19.09,44.87h6.68l5.25-13.36h19.09l6.21,13.36h6.2l-19.57-44.87h0Z"/>
    <polygon class="cls-1" points="863.3 128.39 870.94 128.39 854.71 149.87 854.71 173.26 848.03 173.26 848.03 149.39 831.32 128.39 839.44 128.39 851.37 144.14 863.3 128.39 863.3 128.39"/>
    <polygon class="cls-1" points="356.89 212.4 366.43 212.4 366.43 215.74 353.55 215.74 353.55 189.01 356.89 189.01 356.89 212.4 356.89 212.4"/>
    <path class="cls-1" d="M378.37,194.74l3.34,10.03h-6.68l3.34-10.03h0ZM379.32,189.01h-1.91l-9.55,26.73h3.34l2.86-7.64h9.07l2.86,7.64h2.86l-9.55-26.73h.02Z"/>
    <path class="cls-1" d="M395.55,192.35h2.86c2.86,0,3.82,1.91,3.82,3.82,0,2.86-1.43,4.3-4.77,4.3h-1.91v-8.11h0ZM392.68,215.74h7.16c5.25,0,7.64-3.82,7.64-7.16s-2.39-6.21-5.25-6.68v-.48c1.91-.95,3.34-2.86,3.34-5.73,0-3.34-2.39-6.68-6.68-6.68h-6.21v26.73h0ZM395.55,203.81h3.82c3.34,0,4.77,1.91,4.77,4.3,0,1.91-.95,4.3-4.77,4.3h-3.82v-8.59h0Z"/>
    <path class="cls-1" d="M413.69,202.37c0-5.73,3.34-10.02,8.11-10.02s8.59,4.3,8.59,10.02c0,6.21-3.82,10.5-8.59,10.5s-8.11-4.3-8.11-10.5h0ZM410.35,202.37c0,7.64,4.3,13.84,11.45,13.84s11.46-6.68,11.46-13.84c0-7.64-4.3-13.84-11.46-13.84-6.68,0-11.45,6.68-11.45,13.84h0Z"/>
    <path class="cls-1" d="M442.32,192.35h1.91c2.86,0,4.3,1.43,4.3,3.82s-.95,4.77-4.3,4.77h-1.91v-8.59h0ZM438.98,189.01v26.73h3.34v-11.46h.95c1.91,0,2.86.48,5.73,6.2l2.86,5.25h3.82c-1.43-2.39-1.91-3.34-2.86-5.25-1.91-3.34-2.87-5.73-4.77-7.16,2.39-1.43,3.34-3.82,3.34-6.68,0-4.77-2.39-7.64-7.16-7.64h-5.25Z"/>
    <path class="cls-1" d="M467.14,194.74l3.82,10.03h-6.68l2.86-10.03h0ZM468.58,189.01h-2.39l-9.07,26.73h2.86l2.86-7.64h9.07l2.86,7.64h3.34l-9.55-26.73h.02Z"/>
    <polygon class="cls-1" points="495.3 192.35 488.15 192.35 488.15 215.74 484.8 215.74 484.8 192.35 477.64 192.35 477.64 189.01 495.3 189.01 495.3 192.35 495.3 192.35"/>
    <path class="cls-1" d="M500.08,202.37c0-5.73,3.34-10.02,8.11-10.02s8.59,4.3,8.59,10.02c0,6.21-3.82,10.5-8.59,10.5s-8.11-4.3-8.11-10.5h0ZM496.74,202.37c0,7.64,4.3,13.84,11.45,13.84s11.93-6.68,11.93-13.84c0-7.64-4.77-13.84-11.93-13.84-6.68,0-11.45,6.68-11.45,13.84h0Z"/>
    <polygon class="cls-1" points="524.9 189.01 528.24 189.01 528.24 215.74 524.9 215.74 524.9 189.01 524.9 189.01"/>
    <path class="cls-1" d="M536.83,192.35h1.91c3.34,0,4.3,1.43,4.3,3.82s-.95,4.77-4.3,4.77h-1.91v-8.59h0ZM533.97,189.01v26.73h2.86v-11.46h1.43c1.43,0,2.86.48,5.73,6.2l2.86,5.25h3.82c-1.43-2.39-2.39-3.34-3.34-5.25-1.43-3.34-2.39-5.73-4.77-7.16,2.39-1.43,3.82-3.82,3.82-6.68,0-4.77-2.86-7.64-7.16-7.64h-5.25,0Z"/>
    <polygon class="cls-1" points="566.42 192.35 557.35 192.35 557.35 200.47 566.42 200.47 566.42 204.28 557.35 204.28 557.35 212.4 566.9 212.4 566.9 215.74 554.49 215.74 554.49 189.01 566.42 189.01 566.42 192.35 566.42 192.35"/>
    <path class="cls-1" d="M582.17,192.35h3.82c2.86,0,3.34,2.39,3.34,4.3,0,2.86-1.43,4.3-3.82,4.3h-3.34v-8.59h0ZM578.83,189.01v26.73h3.34v-11.46h3.34c4.77,0,7.16-3.34,7.16-7.64s-2.39-7.64-6.68-7.64h-7.16Z"/>
    <polygon class="cls-1" points="615.58 215.74 612.24 215.74 612.24 204.28 600.31 204.28 600.31 215.74 596.97 215.74 596.97 189.01 600.31 189.01 600.31 200.47 612.24 200.47 612.24 189.01 615.58 189.01 615.58 215.74 615.58 215.74"/>
    <path class="cls-1" d="M628.95,194.74l3.34,10.03h-6.68l3.34-10.03h0ZM629.9,189.01h-1.91l-9.55,26.73h3.34l2.86-7.64h9.07l2.86,7.64h3.34l-10.02-26.73h0Z"/>
    <path class="cls-1" d="M646.61,192.35h1.91c3.34,0,4.3,1.43,4.3,3.82s-.95,4.77-4.3,4.77h-1.91v-8.59h0ZM643.74,189.01v26.73h2.86v-11.46h1.43c1.43,0,2.86.48,5.73,6.2l2.86,5.25h3.34c-1.43-2.39-1.91-3.34-2.86-5.25-1.43-3.34-2.86-5.73-4.77-7.16,2.39-1.43,3.82-3.82,3.82-6.68,0-4.77-2.86-7.64-7.16-7.64h-5.25Z"/>
    <polygon class="cls-1" points="683.84 215.74 680.97 215.74 680.97 194.74 680.97 194.74 674.29 205.24 673.81 205.24 667.13 194.74 667.13 194.74 667.13 215.74 663.79 215.74 663.79 189.01 666.66 189.01 673.81 199.99 680.97 189.01 683.84 189.01 683.84 215.74 683.84 215.74"/>
    <path class="cls-1" d="M697.68,194.74l3.82,10.03h-6.68l2.86-10.03h0ZM699.11,189.01h-2.39l-9.07,26.73h2.86l2.86-7.64h9.07l2.86,7.64h3.34l-9.54-26.73h.01Z"/>
    <path class="cls-1" d="M729.66,195.22c-2.39-2.39-4.77-2.86-7.16-2.86-5.25,0-8.59,4.3-8.59,10.02,0,6.21,3.34,10.5,8.59,10.5,2.39,0,5.25-.95,7.63-3.34v4.3c-2.39,1.43-4.77,2.39-8.11,2.39-8.12,0-11.46-7.64-11.46-13.36,0-8.11,4.77-14.32,11.93-14.32,1.91,0,4.3.95,7.16,2.39v4.3h0v-.02Z"/>
    <polygon class="cls-1" points="747.32 192.35 738.25 192.35 738.25 200.47 746.84 200.47 746.84 204.28 738.25 204.28 738.25 212.4 747.8 212.4 747.8 215.74 734.91 215.74 734.91 189.01 747.32 189.01 747.32 192.35 747.32 192.35"/>
    <path class="cls-1" d="M770.23,205.24c0,6.68-3.34,10.98-9.55,10.98-4.77,0-9.07-2.86-9.07-10.5v-16.71h3.34v15.75c0,3.34,0,4.3.95,5.73,1.43,1.43,2.86,2.39,4.77,2.39,2.39,0,4.3-.95,5.25-2.39.95-1.43,1.43-3.34,1.43-5.73v-15.75h2.87v16.23h0Z"/>
    <polygon class="cls-1" points="791.71 192.35 784.07 192.35 784.07 215.74 781.21 215.74 781.21 192.35 773.57 192.35 773.57 189.01 791.71 189.01 791.71 192.35 791.71 192.35"/>
    <polygon class="cls-1" points="796 189.01 798.87 189.01 798.87 215.74 796 215.74 796 189.01 796 189.01"/>
    <path class="cls-1" d="M816.05,192.35c4.77,0,8.11,4.3,8.11,10.02s-3.34,10.5-8.11,10.5c-5.73,0-8.59-4.77-8.59-10.5,0-3.82,1.91-10.02,8.59-10.02h0ZM818.44,216.22c5.25-1.43,9.07-7.16,9.07-13.84,0-7.64-4.77-13.84-11.45-13.84-7.16,0-11.93,5.73-11.93,13.84,0,6.68,3.82,12.41,9.07,13.84,2.87,2.39,6.21,4.77,10.5,5.25l2.86-3.34h0c-2.39.48-4.3,0-8.11-1.91v-.48.48h-.01Z"/>
    <path class="cls-1" d="M850.42,205.24c0,6.68-2.86,10.98-9.55,10.98-4.3,0-9.07-2.86-9.07-10.5v-16.71h3.34v15.75c0,3.34.48,4.3,1.43,5.73s2.39,2.39,4.3,2.39c2.39,0,4.3-.95,5.25-2.39.95-1.43,1.43-3.34,1.43-5.73v-15.75h2.86v16.23h.01Z"/>
    <polygon class="cls-1" points="868.55 192.35 859.01 192.35 859.01 200.47 868.08 200.47 868.08 204.28 859.01 204.28 859.01 212.4 868.55 212.4 868.55 215.74 856.14 215.74 856.14 189.01 868.55 189.01 868.55 192.35 868.55 192.35"/>
    <polygon class="cls-1" points="567.38 114.55 651.86 114.55 651.86 0 567.38 0 567.38 114.55 567.38 114.55"/>
  </g>
</svg>