<?xml version="1.0" encoding="UTF-8"?>
<svg id="Layer_1" xmlns="http://www.w3.org/2000/svg" viewBox="0 0 501.05 164.79">
  <path d="M323.51,101.36h8.8v-46.74s.3-14.26-13.96-14.26h-32.47v60.7h17v-46.74c0-3.03,2.43-5.46,5.46-5.46s5.46,2.43,5.46,5.46v38.24s-1.21,9.71,9.71,8.8"/>
  <path d="M492.25,101.36h8.8v-46.74s.3-14.26-13.96-14.26h-32.17v60.7h17v-46.74c0-3.03,2.43-5.46,5.46-5.46s5.46,2.43,5.46,5.46v38.24c-.3,0-1.52,9.71,9.41,8.8"/>
  <path d="M268.28,101.36h8.8v-46.74s.3-14.26-13.96-14.26h-14.87V0h-19.42v101.36h19.12v-47.04c0-3.03,2.43-5.46,5.46-5.46s5.46,2.43,5.46,5.46v38.24c-.3,0-1.52,9.71,9.41,8.8"/>
  <path d="M127.16,79.51v-5.77h-16.39c-.91,0-7.89.3-7.89,8.8v1.21c0,.91,0,2.12-.3,3.03-.91,2.12-2.73,3.64-4.86,3.95h-.61c-.3,0-1.21,0-1.82-.3-2.73-.61-4.55-3.34-4.55-6.07v-42.18c0-2.12.91-3.95,2.43-5.16l1.82-.91c.61-.3,1.21-.3,1.82-.3h.91c.61,0,.91.3,1.52.3.61.3,1.21.61,1.82,1.21,1.82,1.52,2.12,3.64,2.12,4.86v.91c0,6.98,7.28,7.28,7.89,7.28h16.39v-2.73c0-2.12,0-3.95-.3-5.46s-.61-2.73-.91-3.64c-.91-2.73-1.82-3.64-3.34-5.46-1.82-2.12-3.95-3.34-5.77-4.25-6.37-3.34-14.26-3.95-18.51-3.95h-4.25c-3.95,0-23.37.61-27.62,13.96v.91c0,.3-.3.61-.3,1.21-.3.91-.3,1.21-.3,1.82v.3c-.3,1.21,0,7.28,0,9.71h0v21.24h0v7.59h0c0,2.12.61,4.25.61,4.86,3.95,13.35,20.94,14.87,27.92,14.87h4.86c3.34,0,10.02-.61,16.08-3.03,5.16-2.12,8.8-5.46,10.62-9.71.61-2.43,1.21-5.16.91-9.1Z"/>
  <path d="M28.22,25.19c-10.62,0-18.51,2.12-23.06,6.68C.91,36.11.91,40.36.91,40.67v11.84c-.3,9.1,8.5,13.35,8.5,13.35,4.55,3.03,17.91,2.73,18.51,2.73,3.03.3,5.46,1.21,6.68,2.73,1.52,1.82,1.21,3.64,1.21,3.64v8.19c0,2.73-.61,4.86-2.12,6.37-2.12,1.82-5.46,1.52-5.46,1.52h-.91c-.91-.3-1.82-.61-2.43-.91-2.12-1.52-2.73-4.55-2.73-6.37v-1.82c-.3-7.89-6.68-8.19-6.68-8.19H.61v2.73c-.3,7.59,1.52,13.66,6.07,18.21,6.68,6.68,17.3,7.28,21.85,7.28h2.12c10.62.3,18.21-2.12,22.76-6.68,4.25-4.55,4.25-9.41,4.25-9.41v-11.84c.3-9.1-8.5-13.35-8.5-13.35-4.55-3.03-17.91-2.73-18.51-2.73-3.03-.3-5.46-1.21-6.68-2.73-1.52-1.82-1.21-3.64-1.21-3.64v-8.19c0-2.73.61-4.86,2.12-6.37,2.12-2.12,5.46-1.52,5.46-1.52,2.12,0,3.64.61,4.86,1.82,1.82,2.12,1.21,4.86,1.21,5.16,0,8.5,6.68,8.5,6.68,8.5h15.48v-.3c.3-7.59-1.52-13.66-6.07-18.21-9.1-8.5-23.98-7.28-24.28-7.28Z"/>
  <path d="M382.09,46.13c-6.98-6.68-19.12-5.77-19.12-5.77-8.5,0-14.87,1.82-18.51,5.46-3.34,3.34-3.34,6.98-3.34,6.98v9.41c-.3,7.28,6.98,10.62,6.98,10.62,3.64,2.43,14.26,2.12,14.87,2.12,2.43,0,4.25.91,5.46,2.12,1.21,1.21.91,3.03.91,3.03v6.68c0,2.12-.3,3.95-1.52,4.86-1.82,1.52-4.25,1.21-4.55,1.21h-.61c-.61,0-1.52-.3-1.82-.61-1.82-1.21-2.12-3.64-2.12-4.86v-1.52c0-6.37-5.46-6.68-5.46-6.68h-12.14v2.12c-.3,6.07,1.21,10.93,4.86,14.57,5.46,5.16,13.96,5.77,17.6,5.77h1.82c8.5,0,14.57-1.82,18.21-5.46s3.34-7.59,3.34-7.59v-9.41c.3-7.28-6.98-10.62-6.98-10.62-3.64-2.43-14.26-2.12-14.87-2.12-2.43-.3-4.25-.91-5.46-2.12-1.21-1.21-.91-3.03-.91-3.03v-6.68c0-2.12.3-3.95,1.52-4.86,1.82-1.52,4.25-1.21,4.55-1.21,1.82,0,3.03.61,3.64,1.52,1.21,1.52.91,3.95.91,3.95,0,6.68,5.46,6.98,5.46,6.98h12.44v-.3c0-6.37-1.52-11.23-5.16-14.57Z"/>
  <path d="M161.45,0v115.32c0,31.87-31.87,49.47-76.17,49.47C28.53,164.79,0,144.16,0,117.45v-7.28h20.94c8.5,0,10.32,11.84,10.32,11.84,0,0,0,.61,1.82,6.68,4.55,16.69,28.53,27.92,52.2,27.92,29.44,0,50.99-18.51,50.99-41.27V0h25.19Z"/>
  <path d="M216.08,45.83c-3.64-3.34-9.1-4.86-13.05-5.16-4.25-.61-7.59-.3-7.59-.3,0,0-3.34-.3-7.59.3-3.95.61-9.1,1.82-13.05,5.16-2.73,2.73-4.25,6.07-4.55,10.32v29.44c0,4.25,1.52,7.59,4.55,10.32,3.64,3.34,9.1,4.86,13.05,5.16,3.95.61,7.28.3,7.59.3h1.52c1.52,0,3.64,0,5.77-.3,3.95-.61,9.1-1.82,13.05-5.16,2.73-2.73,4.25-6.07,4.55-10.32v-29.44c0-4.25-1.52-7.59-4.25-10.32ZM200.91,87.71c0,3.03-2.43,5.46-5.46,5.46s-5.46-2.43-5.46-5.46v-34.29c0-3.03,2.43-5.46,5.46-5.46s5.46,2.43,5.46,5.46v34.29Z"/>
  <path d="M440.96,45.83c-3.64-3.34-9.1-4.86-13.05-5.16-4.25-.61-7.59-.3-7.59-.3,0,0-3.34-.3-7.59.3-3.95.61-9.1,1.82-13.05,5.16-2.73,2.73-4.25,6.07-4.55,10.32v29.44c0,4.25,1.52,7.59,4.55,10.32,3.64,3.34,9.1,4.86,13.05,5.16,3.95.61,7.28.3,7.59.3h1.52c1.52,0,3.64,0,5.77-.3,3.95-.61,9.1-1.82,13.05-5.16,2.73-2.73,4.25-6.07,4.55-10.32v-29.44c.3-4.25-1.21-7.59-4.25-10.32ZM425.79,87.71c0,3.03-2.43,5.46-5.46,5.46s-5.46-2.43-5.46-5.46v-34.29c0-3.03,2.43-5.46,5.46-5.46s5.46,2.43,5.46,5.46v34.29Z"/>
</svg>