<?xml version="1.0" encoding="UTF-8"?>
<svg id="Layer_1" xmlns="http://www.w3.org/2000/svg" viewBox="0 0 322.51 111.07">
  <path d="M69.01,0c1.62.35,3.31.49,4.84,1.08,2.38.92,4.72,2.03,6.94,3.29,1.34.76,2.33,2.03,2.67,3.63.43,2-.54,4.1-2.36,5.25-1.68,1.05-3.23.93-5.09-.41-.27-.19-.55-.39-.79-.62-5.47-5.26-12.84-3.3-17.04.56-3.86,3.54-5.47,8.09-5.6,13.18-.13,4.79-.03,9.58-.02,14.37,0,.2.05.4.11.8.49-.25.88-.43,1.24-.65,3.49-2.11,6.98-4.23,10.46-6.35,1.61-.98,3.29-1.57,5.03-.44,1.81,1.17,2.3,2.99,2.07,5.02-.16,1.4-1.1,2.27-2.23,2.99-5.16,3.28-10.31,6.6-15.49,9.85-.88.55-1.22,1.15-1.22,2.2.02,8.71.2,17.42-.12,26.12-.37,10.07-3.59,19.09-11.79,25.57-9.78,7.72-25.43,8.03-34.78-2.45C1.65,98.31-.04,92.63,0,86.43c.04-5.96,2.1-11.15,6.31-15.42,2.56-2.6,6.71-2.08,8.23,1.02.92,1.88.59,3.83-1.13,5.44-2.34,2.19-3.87,4.77-4.16,8-.69,7.6,4.11,14.17,11.56,15.82,8.2,1.82,16.75-3.14,19.75-11.51,1.56-4.35,2.14-8.9,2.22-13.49.1-5.58.06-11.16.08-16.75,0-.32-.05-.64-.09-1.12-.46.26-.82.44-1.16.65-3.08,1.91-6.16,3.81-9.23,5.73-1.42.88-2.9,1.53-4.6,1.08-3.46-.91-4.51-5.19-1.9-7.78.47-.46,1.04-.83,1.6-1.18,4.73-2.95,9.47-5.9,14.23-8.81.8-.49,1.13-1,1.12-1.97-.04-5.92-.12-11.84.06-17.75.2-6.14,1.56-12.05,4.72-17.41C51.26,4.78,56.6,1.08,63.83.24c.23-.03.45-.16.68-.24,1.5,0,3,0,4.5,0Z"/>
  <path d="M322.51,86c-.86,1.57-2.22,2.12-3.94,1.96-.41-.04-.84-.04-1.25,0-2.17.21-3.73-.73-5.01-2.44-3.22-4.3-6.49-8.56-9.74-12.84-.37-.49-.75-.97-1.21-1.56-2.28,2.94-4.46,5.77-6.65,8.6-1.6,2.08-3.22,4.14-4.8,6.24-1.06,1.41-2.42,2.1-4.19,2.01-1.04-.05-2.08.02-3.12-.02-1.14-.05-2.15-.45-2.63-1.58-.45-1.05-.16-2.01.53-2.9,4.62-5.95,9.24-11.92,13.85-17.88.3-.39.6-.8.96-1.27-1.91-2.48-3.82-4.95-5.72-7.42-2.9-3.76-5.8-7.52-8.72-11.26-.79-1.01-1.35-2.07-.72-3.32.61-1.22,1.78-1.39,3.05-1.55,3.55-.46,5.79,1.04,7.96,3.85,9.89,12.83,20.01,25.48,30.04,38.2.48.61.88,1.29,1.32,1.94v1.25Z"/>
  <path d="M158.78,44.98c4.58-3.9,9.69-5.1,15.24-4.7,5.63.4,10.24,2.71,13.55,7.47.16-.12.3-.18.39-.3,4.32-5.44,10.11-7.5,16.86-7.2,9.88.44,16.55,6.8,17.4,16.66.28,3.27.21,6.57.23,9.86.03,5.58.01,11.17,0,16.75,0,3.18-1.27,4.44-4.49,4.44-.37,0-.75,0-1.12,0-2.43-.04-3.79-1.38-3.79-3.81-.01-7.71.02-15.42-.02-23.12,0-1.45-.12-2.93-.44-4.33-1.27-5.48-5.73-8.53-11.32-7.85-6.63.79-10.44,5.11-10.47,11.9-.02,7.62,0,15.25,0,22.87,0,3.22-1.14,4.35-4.36,4.35-.5,0-1,.02-1.5-.01-2.08-.13-3.38-1.45-3.45-3.53-.04-1.08-.01-2.17-.01-3.25,0-6.75.02-13.5-.02-20.25,0-1.32-.12-2.67-.4-3.96-1.21-5.68-5.72-8.83-11.49-8.11-6.5.81-10.29,5.01-10.33,11.6-.05,7.75-.01,15.5-.01,23.25,0,2.98-1.27,4.25-4.25,4.26-.42,0-.83,0-1.25,0-2.46-.04-3.88-1.42-3.91-3.89-.03-2.62,0-5.25,0-7.87,0-10.29,0-20.58,0-30.87,0-1.6.13-3.21,1.73-4,1.79-.89,3.73-.87,5.54-.01,1.33.63,1.71,1.95,1.71,3.67Z"/>
  <path d="M265.02,84.25c-2.24,1.12-4.54,2.61-7.05,3.48-13.79,4.8-28.39-4-30.7-18.4-1.27-7.93.25-15.2,5.61-21.35,4.88-5.59,11.21-7.99,18.58-7.76,4.75.15,9.06,1.59,12.92,4.37.14.1.27.2.41.28.07.04.15.04.34.09.05-.22.13-.43.15-.65.24-2.37,1.46-3.51,3.82-3.54.67,0,1.33-.03,2,0,2.02.12,3.32,1.42,3.38,3.45.05,1.75.01,3.5.01,5.25,0,11.16,0,22.33,0,33.49,0,3.97-1.03,5.04-5.05,4.93-1.01-.03-2.23-.33-2.96-.96-.76-.66-1.05-1.87-1.47-2.71ZM265.76,64.65c0-.58.03-1.17,0-1.75-.04-.58-.12-1.16-.23-1.73-1.06-5.41-3.61-9.73-9.16-11.45-5.77-1.79-11.21-1.04-15.58,3.44-4.51,4.62-5.36,10.32-3.74,16.35,1.42,5.28,4.84,8.92,10.24,10.26,5.49,1.35,10.54.39,14.58-3.85,2.98-3.13,3.9-7.06,3.91-11.26Z"/>
  <path d="M101.67,45.12c.12-.72.16-1.34.34-1.92.59-1.94,1.9-2.5,5.4-2.4,1.82.05,3.1,1,3.49,2.64.09.4.09.83.09,1.24,0,13.12,0,26.23,0,39.35,0,2.56-1.36,3.91-3.94,3.94-.25,0-.5,0-.75,0-3.12,0-4.22-.96-4.6-4.13-.3.19-.57.34-.81.52-13.5,10.17-33.11,3.03-36.79-13.48-1.93-8.67-.4-16.68,5.75-23.37,7.68-8.37,21.08-9.74,30.46-3.3.43.3.87.59,1.36.92ZM72.67,64.58c.35,1.87.51,3.8,1.1,5.59,1.77,5.37,5.46,8.84,11.07,9.82,5.67,1,10.71-.34,14.38-5.09,2.68-3.47,3.38-7.57,3.04-11.82-.95-11.84-10.07-15.92-18.89-13.58-6.39,1.69-10.45,7.69-10.69,15.07Z"/>
  <path d="M128.66,44.35c2.18-2.09,4.56-3.46,7.41-3.91,2.58-.4,5.15-.33,7.67.36,1.88.52,2.72,1.84,2.46,3.76-.06.45-.18.9-.3,1.34-.81,3.23-2.29,4.1-5.48,3.23-3.9-1.06-7.62.53-9.62,4.16-1.36,2.47-1.84,5.15-1.84,7.94,0,7.42,0,14.83,0,22.25,0,3.31-1.19,4.48-4.54,4.48-.37,0-.75,0-1.12,0-2.31-.07-3.72-1.47-3.74-3.79-.03-3.67,0-7.33,0-11,0-9.37,0-18.75,0-28.12,0-3,1.26-4.25,4.25-4.25,3.17,0,3.98.56,4.86,3.55Z"/>
  <path d="M304.01,55.91c.39-.85.63-1.81,1.19-2.52,3.01-3.82,6.08-7.59,9.17-11.35,1.47-1.79,3.9-2.05,5.55-.68,1.71,1.42,1.99,3.75.56,5.57-3.08,3.87-6.19,7.72-9.34,11.54-1.16,1.41-2.92,1.8-4.51,1.16-1.45-.58-2.4-2-2.62-3.72Z"/>
</svg>