<?xml version="1.0" encoding="UTF-8"?>
<svg id="Layer_1" xmlns="http://www.w3.org/2000/svg" viewBox="0 0 128.59 70.34">
  <defs>
    <style>
      .cls-1 {
        fill-rule: evenodd;
      }
    </style>
  </defs>
  <path class="cls-1" d="M25.47.44c-.17.06-.33.14-.48.21h-.01s-4.76,1.57-4.49,8.65c0,0,0,0,0,0-.54,4.74-.03,10.52.05,15.41h-.13c-3.51-6.89-7.02-13.78-10.54-20.67H0v.69s.84-.29,1.87,1.71v18.94c0,3.11.74,6.99-1.87,7.6v.8h6.53v-.8c-1.39-.53-1.69-1.32-1.74-1.74,0-.1,0-.19,0-.29h0c-.04-6.39-.09-12.78-.13-19.18h.13c3.73,7.33,7.47,14.67,11.2,22.01h7.2V11.64c0-4.23,1.24-9.46,2.8-9.47,0,0,.81-.04,1.07.32.29.2,1.5,1.24,1.29,4.43-.15,1.25-.5,2.51-.87,3.43-.09.22-.23.55-.42.89v.4l.51-.06h0c2.84-.37,5.32-1.21,6.29-3.41,2.27-5.09-3.44-9.62-8.4-7.74Z"/>
  <path class="cls-1" d="M47.91,27.57c-.36.32-.72.69-1.09,1.03-1.38,1.14-5.58,1.83-7.92-.32-1.51-1.4-2.47-3.47-3.02-5.3h14c-.08-4.72-2.24-7.86-5.15-9.48h0s-.01,0-.02,0c-.51-.28-1.03-.51-1.58-.7-5.69-2.13-9.59.83-11.38,2.73-.02.02-.04.04-.06.06-.06.07-.13.14-.18.2-.05.06-.1.12-.15.17-.08.09-.15.17-.21.25-.03.03-.05.06-.08.1-.28.35-.42.58-.42.58h0c-.69,1.02-1.24,2.2-1.58,3.55-1.38,5.35.86,9.31,4.34,11.41.02.01.03.02.05.03,7.24,4.68,13.07-.75,13.07-.75h0c1.11-.93,2.05-2.14,2.74-3.65h0s0-.01,0-.01c.07-.16.14-.32.21-.49v-.13l-.87-.19s-.18.34-.7.91ZM38.45,14.14c3.47,0,4.47,7.36,4.47,7.36h-7.36c-.71-7.53,2.88-7.36,2.88-7.36Z"/>
  <path class="cls-1" d="M79.8,2.97c-4.39-2.42-11.12,3.6-12.29,5.52-.84,1.38-1.6,2.72-1.95,3.37-.63-.14-1.29-.24-1.97-.27-5.22-.28-9.63,2.88-9.85,7.05-.12,2.26,1.01,4.35,2.91,5.84-.89.6-3.53,2.63-2.98,5.21.66,3.09,5.78,3.68,10.46,4.89,4.68,1.21,4.44,3.6,4.44,3.6-.58,2.97-6.69,2.17-6.69,2.17-6.81-1.92-2.59-5.89-2.59-5.89-5.52-1.55-7.57,2.59-7.57,2.59-.03.11-.06.22-.09.33-.44,1.02-.54,2.34.75,3.62.26.27.57.51.94.73,1.71,1.13,3.96,1.59,6.51,1.55,3.37.15,7.16-.63,9.97-1.98,0,0,0,0,0,0h0c1.46-.7,2.66-1.56,3.4-2.53,2.34-3.05,1.59-5.48-1.3-7.65-2.88-2.17-11.37-3.22-13.55-4.14-1.57-.66-1.11-1.44-.74-1.82,1.46.88,3.23,1.44,5.17,1.54,5.22.28,9.63-2.88,9.85-7.05.17-3.22-2.21-6.11-5.71-7.38h0s1.84-3.64,4.35-3.69,5.6,2.01,7.94,1.67c2.34-.33,4.98-4.85.59-7.27ZM64.6,24.91c-.18.02-.36.01-.54-.01-.93-.6-2.28-.28-3.95-5.32-1.67-5.06,1.07-6.26,1.07-6.26.43-.15.9-.13,1.36,0,.26.12,4,2,4.08,7.25,0,0,.62,3.6-2.03,4.33Z"/>
  <path class="cls-1" d="M77.46,33.08v.78h10.07v-.78s-1.16-.16-1.54-1.66v-12.7s1.63-3.01,3.48-2.98,2.48,2.38,1.47,4.08c0,0,1.76.97,4.01.03s2.45-3.54,2.16-4.83-1.35-3.57-5.11-3.45c-3.76.13-6.02,4.33-6.02,4.33v-4.04l-.75-.5s-2.79,1.85-7.78,1.87v.67s1.57.6,1.54,2.23-.03,15.21-.03,15.21c0,0-.22,1.32-1.51,1.76Z"/>
  <path class="cls-1" d="M115.49,66.88c-1.82,1.98-2.56.05-2.56.05v-12.79c0-1.76-1.99-6.29-9.42-6.29-2.46,0-4.23.57-5.5,1.32h0s-2.43,1.22-3.03,3.63c-.04.12-.05.19-.05.19,0,.02,0,.03,0,.05-.09.47-.11.97-.03,1.52.14,1.02.64,1.66,1.27,2.05.61.48,1.44.68,2.46.68.66,0,1.17-.1,1.59-.25.01,0,.02,0,.02,0h0c1.05-.38,1.37-1.03,1.37-1.03-.53-.53-.6-1.69-.6-1.69,0-.77.13-1.6.4-2.34.07-.16.96-1.99,2.43-1.99s1.91,1.6,2.22,3.12c.1.91-.05,2.07-.07,2.22-1.17,2.03-4.11,2.43-4.11,2.43,0,0-8.09.94-8.28,6.4-.12,3.56,1.88,4.96,3.28,5.5,0,0,0,0,0,0,0,0,0,0,0,0,.08.03.17.06.24.09,2.4.85,4.18.03,4.18.03h0c3.11-.87,4.9-3.87,4.9-3.87v1.66s.82,2.95,4.7,2.77c3.89-.18,5.21-2.99,5.21-2.99l-.63-.47ZM106.12,63.97s-1.25,2.59-3.34,2.59-2.71-1.56-2.36-3.51c.31-1.76,4.58-5.29,5.71-5.98v6.9Z"/>
  <path class="cls-1" d="M127.38,36.94h0,0c-.31-.26-.65-.44-.97-.57h0s-.88-.48-2.73-.5h-1.16v.15s1.23,1.83.37,4.51c-.01.04-.02.08-.04.12,0,0,0,0,0,0h0c-.39,1.29-1.48,2.89-3.13,2.89-2.09,0-2.27-3.23-2.27-3.23v-22.32c0-1.76-2-6.32-9.46-6.32-2.47,0-4.25.57-5.53,1.33h0s-2.44,1.23-3.05,3.65c-.04.12-.05.19-.05.19,0,.02,0,.03,0,.05-.09.47-.11.98-.03,1.53.14,1.02.64,1.66,1.28,2.06.62.49,1.45.68,2.47.68.66,0,1.18-.1,1.59-.25.01,0,.02,0,.02,0h0c1.05-.38,1.38-1.04,1.38-1.04-.54-.54-.6-1.7-.6-1.7,0-.77.13-1.61.4-2.35.07-.16.97-2,2.45-2s1.92,1.61,2.23,3.14c.1.92-.05,2.08-.07,2.23-1.17,2.04-4.12,2.44-4.12,2.44,0,0-8.13.94-8.31,6.43-.12,3.58,1.89,4.98,3.3,5.52,0,0,0,0,0,0,0,0,0,0,0,0,.08.03.17.06.25.09,2.41.86,4.2.03,4.2.03h0c3.12-.88,4.92-3.88,4.92-3.88v1.67s0,0,0,0c0,.97.02,1.84.05,2.64,0,0,0,0,0,0-.16,6.28,2.22,7.89,2.22,7.89h0c.27.31.57.61.9.92,2.42,2.27,5.65,2.63,7.77,2.45,2.12-.18,6.72-1.52,6.95-5.35.1-1.57-.48-2.53-1.2-3.11ZM110.6,27.83c-.8,1.24-1.85,2.17-2.79,2.4-.81.2-2.28.01-2.82-1.09-.14-.36-.21-.78-.21-1.24.07-1.18.67-2.14.99-2.57.1-.12.2-.24.3-.37.07-.07,3.32-3.16,4.53-3.82v6.68Z"/>
  <path class="cls-1" d="M89.78,61.33h0c-.53-2.9-5.69-5.11-8.78-6.85-3.26-1.83-2.75-3.96-2.75-3.96.77-1.87,3.19-1.5,3.19-1.5,4.03,1.06,5.9,6.3,5.9,6.3h.73l.62-4.8c-4.03-3.27-8.94-2.81-8.94-2.81-6.82.96-7.36,4.61-7.37,5.71h0s0,.02,0,.04c0,.07,0,.13,0,.17.03.6.21,2.35,1.33,3.35,0,0,0,0,0,0,1.13,1.39,3.02,2.2,6.49,4.02,5.46,2.86,4.81,4.41,4.81,4.41.08,2.86-3.16,2.8-3.16,2.8-3.07.08-3.8-2.65-3.8-2.65-.52-2.19,1.21-3.57,1.21-3.57v-.39c-.59-.7-2.6-.84-2.6-.84-4.4.33-5.09,3.26-4.62,5.17.48,1.91,3.66,5.42,10.59,4.14,3.8-.7,5.59-2.17,6.43-3.87,0,0,0,0,0,0,1.49-2.03.7-4.85.7-4.85Z"/>
  <path class="cls-1" d="M57.69,48.41c-5.96,0-10.79,4.83-10.79,10.79s4.83,10.79,10.79,10.79,10.79-4.83,10.79-10.79-4.83-10.79-10.79-10.79ZM59.95,68.61c-1.94.46-4.47-3.26-5.66-8.29-1.19-5.04-.59-9.49,1.35-9.95,1.94-.46,4.47,3.26,5.66,8.29,1.19,5.04.59,9.49-1.35,9.95Z"/>
  <path class="cls-1" d="M43.7,68.45c-.52-.65-7-12.12-7-12.12v-.25s6.61-1.83,6.69-7.66v-.86s-.79-6.77-10.1-6.77h-16.87s-7.32,1.25-6.94,7.76c0,0,.38,3.83,4.1,4.58,0,0,2.86.44,4.7-1.4,0,0-3.28-1.74-3.76-5.21,0,0-.1-1.21-.06-1.8.04-.59.96-3.01,3.6-3.05,0,0,2.57-.02,3.89,1.71v23.77s-.04,1.46-1.55,1.82v.79h10.37v-.79s-1.59-.63-1.59-1.82v-10.24l6.81,12.86h8.86v-.79s-.63.15-1.15-.5ZM29.17,56.16v-14.05h1.1c5.95,1.23,5.61,6.41,5.52,7.26-.04.24-.08.48-.14.73-1.3,5.56-6.48,6.06-6.48,6.06Z"/>
</svg>