<?xml version="1.0" encoding="UTF-8"?>
<svg id="Layer_1" xmlns="http://www.w3.org/2000/svg" viewBox="0 0 732.12 165.1">
  <path d="M707.99,64.74l.99-.8h-.07c20.54-17.16,27.68-34.68,19.58-48.33-8.72-14.7-33.02-20.02-53.07-11.62h0s-.13.06-.13.06c-.29.12-.58.24-.84.36-6.11,2.63-11.77,6.15-16.82,10.47l-.09.08s-.01.02-.02.02c-15.03,13.26-25.42,30.57-30.05,50.1-9.26,43.8,15.7,66.52,31.4,76.16l.02-.03c.23.15.46.3.73.48,1.83,1.1,3.74,2.1,5.69,2.99.57.3,1.16.57,1.79.83.22.1.53.21.91.35l.48.18v.02c.54.21,1.33.49,1.81.65,5.81,1.94,11.65,2.91,17.32,2.91,7.75,0,15.2-1.8,21.83-5.37,10.37-5.58,17.75-14.92,20.79-26.31,6.04-22.61-2.68-43.31-22.25-53.18ZM683.41,116.56s-.04,0-.06,0c-1.37.1-2.77.04-4.15-.16,0,0,0,0,0,0-.47-.07-.93-.15-1.39-.25,0,0-.02,0-.03,0-.45-.1-.9-.21-1.35-.34-.02,0-.05-.01-.07-.02-.43-.13-.86-.26-1.29-.42-.03-.01-.07-.03-.1-.04-.41-.15-.82-.31-1.23-.49-.05-.02-.09-.04-.14-.06-.39-.17-.78-.36-1.16-.55-.06-.03-.11-.06-.17-.09-.37-.19-.74-.39-1.09-.61-.07-.04-.13-.08-.2-.12-.35-.21-.69-.43-1.02-.65-.07-.05-.15-.1-.22-.16-.32-.22-.64-.46-.95-.7-.08-.06-.16-.13-.24-.2-.3-.24-.59-.48-.87-.73-.09-.08-.18-.16-.26-.24-.27-.25-.53-.5-.79-.76-.09-.09-.18-.19-.28-.29-.24-.25-.48-.51-.71-.78-.1-.11-.19-.23-.29-.34-.13-.15-.25-.31-.37-.46v-.02c.91-1.47,2.06-3.28,3.3-5.2.06.15.13.29.19.44.09.22.18.43.27.64.12.26.24.51.37.77.1.19.19.37.29.55.15.27.31.53.48.79.1.15.19.3.29.45.18.27.38.54.58.8.1.13.19.26.29.38.21.26.43.52.66.77.11.12.21.23.32.35.22.24.46.46.69.69.13.12.26.24.39.36.22.2.45.39.68.57.17.14.34.27.51.4.21.16.42.31.64.45.21.14.42.28.64.42.11.07.2.14.31.2.08.05.17.09.25.13.32.18.65.36.99.52.16.08.32.16.48.24.4.18.81.35,1.23.5.1.04.19.08.29.11.51.18,1.04.33,1.57.47.11.03.23.05.35.07.43.1.86.18,1.29.25.13.02.26.03.39.05.44.06.89.1,1.33.12.1,0,.2,0,.3.01.22,0,.43.03.65.03,1.4,0,2.82-.17,4.24-.51l.24-.06c1.66-.51,3.07-1.26,4.29-2.16-1.45,1.56-3.17,2.77-5.11,3.6-.04.02-.08.03-.12.05-.35.14-.7.28-1.06.4-.06.02-.11.04-.17.06-.37.12-.75.22-1.13.32-.04,0-.08.02-.11.03-.43.1-.86.19-1.31.25-.25.04-.5.06-.75.09-.2.02-.4.05-.6.07ZM683.9,110.16l.15.03c3.49.9,7.03.32,9.94-1.35-.46.46-.96.91-1.51,1.31-.02.01-.04.03-.06.04-.32.23-.65.44-1,.65-.05.03-.11.06-.16.09-.72.4-1.49.75-2.34,1-7.92,2.03-16-2.32-18.8-9.82-.06-.17-.11-.35-.17-.52-.09-.27-.18-.54-.26-.82,1.42-1.94,2.9-3.84,4.45-5.69-1.1,6.7,3.06,13.29,9.74,15.09ZM656.58,132.84c.09.53.21,1.06.35,1.59.05.18.1.36.16.55.07.22.11.44.19.65.3.87.67,1.7,1.1,2.48-9.26-8.84-10.28-20.28-9.44-28.52.9-8.8,4.3-17.99,9.73-26.59-.04.16-.07.32-.11.48-.06.24-.12.47-.17.71-.1.45-.18.9-.26,1.36-.06.35-.11.69-.15,1.04-.05.38-.1.77-.13,1.15-.03.32-.05.65-.07.97-.02.3-.03.6-.04.89-.02.64-.01,1.29,0,1.93,0,.22,0,.44.02.66.02.4.06.81.1,1.21.02.21.04.43.07.64.16,1.36.4,2.74.74,4.12.04.19.09.37.14.56.11.43.23.86.36,1.29.06.2.13.4.19.6.22.68.45,1.37.71,2.06.12.31.23.61.35.92.13.32.27.65.41.97.19.44.39.87.6,1.31.1.2.19.41.29.61.29.58.59,1.16.9,1.74l-.04.06h0c-2.68,4.83-7.56,15.22-6.04,24.38.01.07.02.13.03.2ZM663.79,106.15c-.57-1.11-1.07-2.22-1.53-3.34-.09-.22-.19-.44-.27-.66-.13-.34-.24-.68-.36-1.02-.12-.35-.25-.7-.36-1.05-.09-.27-.16-.54-.24-.82-.12-.41-.24-.83-.35-1.24-.06-.24-.11-.48-.16-.72-.1-.44-.2-.88-.28-1.32-.04-.22-.07-.45-.11-.67-.07-.45-.14-.9-.2-1.35-.03-.22-.04-.44-.06-.65-.04-.45-.08-.9-.11-1.34-.01-.22-.01-.44-.02-.66-.01-.44-.02-.87-.01-1.31,0-.23.01-.45.02-.68.02-.42.04-.84.08-1.26.02-.24.05-.47.07-.71.04-.4.1-.8.16-1.19.04-.25.08-.49.13-.74.07-.38.15-.75.23-1.12.06-.26.13-.52.19-.77.09-.35.19-.7.3-1.05.08-.27.17-.54.26-.8.11-.33.24-.66.36-.98.11-.28.22-.55.34-.83.13-.31.27-.61.42-.91.14-.28.27-.57.42-.85.15-.28.31-.56.46-.84.16-.29.33-.58.51-.86.05-.08.1-.16.15-.23,1.38,1.55,3.85,4.25,6.79,7.23-3.23,4.67-4.41,10.34-3.34,15.89,0,0,0,.01,0,.02.05.28.11.55.18.83.02.09.04.18.06.27l-.79,1.22c-.69,1.07-1.35,2.1-1.97,3.08v-.26l-.98,1.72ZM676.65,89.21c-2.65,2.84-5.18,5.84-7.53,8.96-.04-.26-.07-.53-.09-.79-.01-.12-.03-.25-.04-.37-.37-4.28.7-8.54,3.1-12.17,1.54,1.53,3.07,2.99,4.58,4.36,0,0-.01.01-.02.02ZM698.71,97.16h0c0,1.02-.11,2.04-.37,3.02l-.03.12c-1.66,5.98-7.84,9.53-13.88,7.92l-.09-.02c-6-1.66-9.57-7.88-7.96-13.9.37-1.4,1-2.69,1.86-3.84h-.01s.03-.05.03-.05c.16-.23.34-.45.53-.65l.58-.61c.3-.3.62-.58.95-.84h0c4.9-3.88,12.05-3.05,15.93,1.85.4.51.76,1.05,1.08,1.64.08.15.16.3.23.46.03.07.07.14.11.21l.05.1c.06.13.11.25.16.38.05.12.1.25.13.32.46,1.25.68,2.54.7,3.89ZM679.06,86.75c-.37.29-.72.6-1.06.92-.23-.21-.45-.41-.69-.62-.11-.1-.23-.21-.34-.32-.85-.78-1.72-1.61-2.63-2.51-.04-.04-.08-.08-.12-.12-.3-.29-.61-.61-.92-.92.12-.14.23-.29.35-.43.1-.11.19-.22.29-.33.23-.26.47-.51.71-.75.08-.09.17-.17.25-.26.3-.3.62-.59.94-.86.03-.02.05-.05.08-.07.36-.31.74-.61,1.12-.89.01-.01.03-.02.05-.03.35-.26.72-.51,1.08-.75.1-.06.2-.12.3-.19.29-.18.58-.35.87-.52.13-.07.26-.14.39-.21.28-.15.56-.29.84-.42.14-.07.28-.13.42-.19.28-.13.57-.25.85-.36.14-.06.28-.11.42-.16.3-.11.61-.22.92-.31.13-.04.25-.08.38-.12.37-.11.74-.21,1.11-.3.07-.02.14-.04.21-.05.91-.21,1.84-.36,2.77-.44.09,0,.18-.01.27-.02.37-.03.75-.05,1.12-.06.12,0,.25,0,.37,0,.34,0,.69,0,1.03.02.13,0,.27.01.4.02.14,0,.28.03.43.04-3.17,2.65-6.26,5.42-9.24,8.28-1.01.97-2.01,1.95-2.99,2.93ZM693.9,73.45c-.14.11-.28.23-.42.34-.16-.03-.31-.04-.47-.07-.3-.05-.61-.09-.91-.13-.2-.02-.4-.04-.59-.05-.32-.03-.65-.06-.97-.07-.18,0-.35,0-.52,0-.34,0-.69-.01-1.03,0-.15,0-.3.02-.45.02-.37.02-.73.03-1.09.07-.1,0-.2.03-.29.04-.76.08-1.52.2-2.27.36-.14.03-.29.05-.43.08-.19.04-.37.1-.56.15-.32.08-.64.16-.96.26-.15.04-.29.1-.44.15-.35.11-.7.23-1.05.36-.12.05-.24.1-.36.15-.37.15-.74.3-1.1.46-.1.05-.19.1-.29.14-.38.18-.75.37-1.12.57-.08.04-.16.09-.24.14-.38.21-.76.43-1.12.67-.07.04-.14.09-.21.14-.37.24-.74.49-1.1.76-.07.05-.13.1-.2.15-.35.26-.69.54-1.03.82-.08.06-.15.13-.22.19-.31.27-.62.56-.92.85-.1.09-.19.19-.29.28-.26.26-.51.53-.76.8-.13.14-.26.29-.39.44-.08.09-.16.17-.23.26-3.29-3.35-5.8-6.17-6.88-7.41.22-.25.44-.51.65-.76.45-.52.9-1.04,1.36-1.56,1.2-1.2,2.47-2.29,3.8-3.28.02-.01.04-.03.06-.04.55-.4,1.11-.77,1.68-1.14.16-.1.31-.21.47-.31.51-.32,1.03-.6,1.55-.89.23-.13.45-.26.68-.38.49-.25.99-.48,1.49-.71.28-.13.55-.26.83-.38.47-.2.96-.38,1.44-.56.32-.12.63-.24.95-.35.46-.16.93-.29,1.39-.42.35-.1.7-.21,1.05-.3.45-.11.9-.21,1.35-.3.38-.08.75-.16,1.13-.23.44-.08.88-.13,1.32-.19.4-.05.8-.11,1.2-.15.42-.04.85-.07,1.28-.09.42-.02.84-.05,1.27-.06.41,0,.82,0,1.24,0,.44,0,.88.02,1.32.04.4.02.79.06,1.19.09.46.04.92.09,1.37.15.38.05.76.11,1.14.18.47.08.95.17,1.42.27.36.08.72.16,1.08.25.49.12.97.26,1.46.4.34.1.68.21,1.01.32.5.17,1,.35,1.49.54.32.12.63.25.94.38.21.09.42.19.63.29-.64.51-1.25.99-1.84,1.45-3.25,2.57-6.03,4.8-8.49,6.81ZM726.77,16.63c7.75,13.08.17,30.24-20.79,47.14-.67-.33-1.36-.62-2.04-.9-.26-.1-.52-.19-.77-.29-.54-.21-1.08-.4-1.63-.58-.29-.1-.59-.19-.88-.27-.57-.17-1.14-.32-1.72-.46-.23-.06-.46-.12-.69-.17-.8-.18-1.61-.33-2.41-.45-.16-.02-.32-.04-.48-.06-.68-.09-1.36-.16-2.04-.22-.22-.02-.44-.03-.66-.04-.71-.04-1.41-.06-2.12-.06-.12,0-.25,0-.37,0-.87.01-1.74.05-2.6.13-.03,0-.06,0-.08,0-.82.07-1.64.18-2.46.31-.12.02-.24.04-.35.06-2.61.44-5.16,1.18-7.62,2.2-.03.01-.06.02-.09.04-.94.39-1.87.81-2.77,1.29,2.12-2.22,4.28-4.43,6.41-6.62,17.38-17.84,33.79-34.69,25.7-46.26-3.92-5.59-10.17-7.69-14.72-8.46-.14-.02-.29-.04-.43-.06-.47-.07-.95-.14-1.44-.2-.24-.03-.49-.04-.74-.07-.31-.03-.62-.06-.94-.08,16.01-2.4,32.15,2.99,38.73,14.09ZM675.26,6.23c.26-.12.53-.23.79-.34l.07-.03c3.04-.96,6.93-1.51,10.95-1.36,6.69.26,13.7,2.49,17.59,8.04,7.14,10.2-9.45,27.22-25.48,43.69-3.94,4.05-7.98,8.21-11.69,12.28-.14.15-.28.31-.42.46-.53.58-1.07,1.16-1.58,1.74h0s0,0,0,0l-.26.3c-.33.36-.65.73-.95,1.1-.01.01-.03.03-.04.04-.07.08-.14.16-.21.25v-.03s-.33.39-.33.39c-12.05-15.41-22.22-37.37-4.68-56.45,4.88-4.15,10.34-7.54,16.25-10.08ZM629.42,65.51c3.7-15.59,11.16-29.75,21.78-41.49-.54,1.07-1.03,2.19-1.47,3.35,0,.02-.02.04-.02.06-.14.38-.28.77-.41,1.16,0,0,0,.02,0,.03-.39,1.18-.73,2.41-1,3.67,0,.03-.01.05-.02.08-.08.4-.16.81-.23,1.22,0,.05-.02.11-.03.16-.21,1.27-.35,2.59-.41,3.95,0,.03,0,.05,0,.08-.02.42-.03.85-.03,1.29,0,.09,0,.18,0,.27,0,1.4.09,2.83.26,4.32,0,0,0,0,0,0,.05.45.12.9.19,1.35.02.13.04.25.06.38.07.45.15.9.24,1.35.01.07.03.15.05.22.3,1.45.68,2.95,1.16,4.48.05.16.1.31.15.47.15.46.31.92.47,1.39.05.15.11.29.16.44.55,1.51,1.2,3.05,1.94,4.62.09.18.17.37.26.55.23.47.47.95.71,1.43.1.2.21.4.32.61.83,1.58,1.76,3.19,2.78,4.83.13.21.26.42.39.63.31.49.64.98.97,1.48.16.25.33.49.5.74.34.5.69,1,1.05,1.51.12.16.24.33.36.49.73,1.02,1.5,2.04,2.31,3.08.14.18.28.37.43.55l-.06.07h0s-.02.03-.02.03l.06.06c-.3.38-.59.76-.89,1.14-.09.11-.18.22-.26.34-.48.63-.96,1.27-1.42,1.91-.04.05-.07.1-.11.15-7.17,9.96-11.65,20.96-12.72,31.45-.99,9.69.95,18.18,5.65,25-14.44-11.36-30.79-32.73-23.15-68.91ZM667.87,143.67s-.02-.01-.04-.02v-.03c-.18-.08-.38-.16-.57-.25-1.01-.45-1.94-.96-2.79-1.54-.02-.01-.03-.02-.05-.04-.39-.27-.75-.54-1.11-.84-.11-.09-.21-.19-.31-.28-.26-.22-.51-.45-.74-.69-.2-.2-.38-.42-.56-.63-.13-.15-.26-.29-.38-.44-.92-1.17-1.64-2.49-2.14-3.95-.34-1-.57-2.02-.72-3.07-.02-.16-.05-.33-.07-.49-.03-.24-.04-.48-.06-.71-.19-2.56.08-5.42.8-8.47.02-.08.04-.15.06-.23.09-.37.19-.75.29-1.12.1-.38.21-.75.32-1.12.02-.06.04-.12.06-.19,1.17-3.74,2.76-7.09,4.02-9.45l.89,1.26v-.44c.06.06.12.12.18.18.03.03.05.05.08.08.32.33.65.65.99.96.05.04.09.08.14.12.32.29.65.58.99.85.06.05.11.09.17.14.33.26.67.52,1.01.77.06.05.13.09.19.13.34.24.69.47,1.04.7.07.04.13.08.2.13.36.22.71.43,1.08.63.07.04.13.07.2.11.37.2.74.39,1.12.57.06.03.13.06.19.09.39.18.78.35,1.18.51.06.02.11.05.17.07.41.16.83.31,1.25.45.04.01.08.03.12.04.45.15.9.28,1.36.4.01,0,.02,0,.03,0,1.42.37,2.86.6,4.31.69.03,0,.06,0,.1,0,.39.02.78.04,1.16.04.04,0,.07,0,.11,0,.29,0,.58-.02.87-.03.2,0,.4-.01.59-.03.5-.04,1-.09,1.49-.17,6.88-1.06,12.03-5.56,14.51-12.72.46-1.51.76-3.05.93-4.62.2-1.28.26-2.59.17-3.88-.01-1.56-.28-3.11-.84-4.64l-.13-.32c-.06-.15-.12-.31-.18-.43-.04-.09-.08-.18-.13-.27l-.06-.12c-.09-.18-.18-.38-.28-.55-.36-.67-.79-1.31-1.26-1.91-3.24-4.09-8.41-5.77-13.2-4.76.67-.63,1.35-1.26,2.03-1.88.27-.24.53-.49.8-.73,2.14-1.93,4.34-3.8,6.57-5.6.45.09.9.19,1.35.29.06.01.12.03.17.04h.03c1.16.29,2.28.62,3.36.99.01,0,.02,0,.04.01.5.17.99.36,1.48.55.06.03.13.05.19.07.47.19.92.39,1.37.59.07.03.14.06.21.09.49.23.97.46,1.44.71.02,0,.04.02.05.03,7.87,4.13,12.84,10.83,15.29,18.22.02.07.04.14.06.2.12.38.24.75.35,1.13.04.14.08.28.12.42.08.31.17.61.24.92.05.2.1.41.14.61.06.25.11.49.16.74.05.25.1.51.15.76.04.2.07.4.11.6.05.29.09.58.13.87.02.17.05.34.07.51.04.31.08.62.11.94.02.15.03.31.05.46.03.32.05.63.07.95.01.16.02.31.03.47.02.31.03.61.04.92,0,.18,0,.35.01.53,0,.28,0,.55,0,.83,0,.22,0,.44,0,.66,0,.22-.01.45-.02.67-.01.29-.03.57-.05.86,0,.15-.02.29-.03.43-.03.41-.07.83-.11,1.25,0,.06-.01.12-.02.18-.05.43-.11.86-.17,1.29-.01.09-.02.18-.04.27-.05.33-.11.66-.17.99-.04.22-.08.43-.12.65-.02.11-.05.22-.07.33-2.72,12.91-12.46,25.51-29.43,28.68-1.95.36-4.01.59-6.16.69-1.94.07-3.87.01-5.79-.17-3.17-.31-6.3-.96-9.33-1.94l-.66-.24c-.33-.12-.59-.21-.81-.31ZM728.3,117.41c-2.9,10.85-9.94,19.75-19.81,25.06-5.08,2.73-10.66,4.38-16.5,4.93,18.69-3.93,28.78-18.88,30.56-33.32.03-.21.04-.42.07-.63,0-.03,0-.07.01-.1.04-.38.08-.77.1-1.15,0-.06.01-.13.02-.19,0-.09,0-.19.02-.29.02-.3.04-.59.05-.89,0-.23.02-.46.02-.69,0-.23.01-.47.01-.7,0-.28,0-.56,0-.85,0-.19,0-.38-.01-.58,0-.32-.02-.63-.04-.95,0-.17-.02-.33-.03-.5-.02-.33-.05-.66-.08-.99-.01-.16-.03-.32-.05-.48-.03-.33-.07-.66-.11-.99-.02-.17-.04-.34-.07-.5-.04-.31-.09-.63-.15-.94-.03-.19-.06-.37-.1-.56-.05-.29-.11-.58-.17-.87-.04-.21-.09-.42-.13-.63-.06-.26-.12-.51-.18-.77-.06-.24-.12-.49-.18-.73-.06-.22-.12-.44-.18-.66-.08-.28-.16-.55-.24-.83-.06-.18-.12-.36-.17-.55-.1-.31-.2-.62-.31-.92-.05-.15-.11-.29-.16-.44-.12-.34-.25-.68-.39-1.01-.05-.11-.09-.22-.14-.34-.15-.36-.3-.72-.47-1.08-.04-.09-.08-.17-.12-.26-.18-.38-.36-.75-.54-1.12-.03-.07-.07-.13-.11-.2-.2-.38-.4-.77-.62-1.14-.03-.06-.07-.11-.1-.17-.22-.38-.45-.76-.68-1.14-.03-.05-.07-.11-.1-.16-.24-.37-.48-.74-.73-1.11-.04-.06-.09-.12-.13-.18-.25-.35-.5-.7-.76-1.05-.06-.07-.12-.15-.17-.22-.25-.33-.51-.65-.78-.97-.08-.09-.16-.19-.24-.28-.25-.29-.5-.58-.77-.87-.11-.12-.23-.24-.34-.36-.24-.25-.48-.5-.73-.75-.15-.15-.31-.3-.46-.44-.22-.21-.44-.42-.67-.62-.2-.18-.41-.35-.61-.53-.19-.16-.38-.33-.58-.49-.26-.21-.52-.41-.78-.61-.16-.12-.32-.25-.48-.37-.31-.23-.63-.45-.96-.67-.13-.09-.25-.17-.38-.26-.36-.24-.74-.47-1.12-.7-.1-.06-.19-.12-.29-.18-.41-.24-.83-.47-1.25-.7-.08-.04-.16-.09-.24-.13-.43-.23-.87-.44-1.31-.65-.09-.04-.18-.09-.27-.13-.41-.19-.84-.37-1.27-.55-.14-.06-.27-.12-.41-.17-.34-.14-.7-.27-1.05-.4-.24-.09-.48-.18-.72-.27-.2-.07-.41-.13-.62-.2-.35-.12-.69-.23-1.05-.34h-.05s-.09-.04-.14-.05c-.13-.04-.27-.07-.4-.11-.12-.03-.24-.07-.37-.11l-.28-.07c-.15-.04-.3-.08-.44-.12l-.16-.04c-.06-.02-.13-.04-.19-.05l.04-.03h-.01c2.26-1.84,4.96-4,8.54-6.83.41-.32.83-.65,1.25-.99.15-.12.3-.24.45-.36,19.26,9.26,27.9,29.32,22.03,51.29Z"/>
  <g id="Grupo_1086">
    <path id="Caminho_756" d="M0,118.48v-7.82c0-18.84,10.55-28.63,28.35-28.63,6.86-.12,13.47,2.53,18.35,7.35.35.31.56.75.57,1.22-.04.46-.24.89-.57,1.22l-3.2,3.77c-.29.39-.74.64-1.22.66-.41,0-.81-.13-1.13-.38-3.67-3.23-8.4-5-13.29-4.99-10.74,0-16.29,5.56-16.29,18.09v11.02c0,12.15,5.56,18.09,14.97,18.09,8.1,0,13.09-3.2,13.09-11.68v-5.65h-10.36c-.9.09-1.7-.57-1.79-1.47-.01-.11-.01-.21,0-.32v-5.18c-.09-.9.57-1.7,1.47-1.79.11-.01.21-.01.32,0h19.69c.9-.09,1.7.57,1.79,1.47.01.11.01.21,0,.32v11.3c0,14.13-9.89,21.84-24.3,21.84-16.65.02-26.44-9.68-26.44-28.43Z"/>
    <path id="Caminho_757" d="M59.43,144.29v-41.25c-.07-.76.34-1.48,1.03-1.79,5.82-2.79,12.19-4.23,18.65-4.24,1.67-.03,3.33.03,4.99.19.82.13,1.39.87,1.32,1.7v5.09c0,.95-.57,1.32-1.6,1.32h-3.48c-3.23-.11-6.45.37-9.51,1.41v37.58c.07.76-.49,1.44-1.25,1.51-.08,0-.17,0-.25,0h-8.38c-.76.07-1.44-.49-1.51-1.25,0-.09,0-.17,0-.26Z"/>
    <path id="Caminho_758" d="M91.83,126.58v-27.31c-.07-.76.49-1.44,1.25-1.51.08,0,.17,0,.25,0h8.38c.76-.07,1.44.49,1.51,1.25,0,.08,0,.17,0,.25v27.5c0,9.42,3.48,11.77,9.89,11.77,3.22.06,6.44-.22,9.61-.85v-38.43c-.07-.76.49-1.44,1.25-1.51.08,0,.17,0,.25,0h8.38c.76-.07,1.44.49,1.51,1.25,0,.08,0,.17,0,.25v42.38c.06.76-.41,1.46-1.13,1.7-6.64,2.29-13.6,3.5-20.63,3.58-14.03,0-20.53-7.16-20.53-20.34Z"/>
    <path id="Caminho_759" d="M187.62,118.38v6.5c0,14.41-8.76,21.76-22.41,21.76-3.36.04-6.71-.51-9.89-1.6v18.55c.07.76-.49,1.44-1.25,1.51-.08,0-.17,0-.25,0h-8.38c-.76.07-1.44-.49-1.51-1.25,0-.08,0-.17,0-.25v-61.03c-.06-.76.41-1.46,1.13-1.7,6.07-2.65,12.59-4.09,19.21-4.24,15.36,0,23.35,7.64,23.35,21.76ZM176.22,118.76c0-9.89-3.2-13.92-11.39-13.92-3.23,0-6.44.5-9.51,1.51v30.8c2.98.98,6.1,1.42,9.23,1.32,8.95,0,11.68-4.43,11.68-14.22v-5.47Z"/>
    <path id="Caminho_760" d="M194.39,124.79v-6.01c0-14.69,9.04-22.13,22.32-22.13s22.32,7.44,22.32,22.13v6.01c0,14.69-9.04,22.13-22.32,22.13s-22.32-7.44-22.32-22.13ZM227.64,124.42v-5.28c0-10.27-3.11-14.41-10.92-14.41s-10.92,4.33-10.92,14.41v5.28c0,10.27,3.11,14.41,10.92,14.41s10.92-4.33,10.92-14.41h0Z"/>
    <path id="Caminho_761" d="M249.77,145.14c-.91-.09-1.58-.88-1.51-1.79v-58.02c-.1-.89.54-1.68,1.43-1.78.03,0,.05,0,.08,0,6.41-1.05,12.9-1.56,19.4-1.51,14.41,0,23.73,6.69,23.73,16.29v1.6c-.11,4.95-2.83,9.46-7.16,11.87,5.97,2.58,9.93,8.37,10.17,14.87v1.79c0,11.3-9.23,18.46-25.71,18.46-6.85.07-13.7-.52-20.44-1.78ZM271.81,109.35c6.5,0,10.44-3.3,10.44-8.76v-1.13c0-5.38-4.61-8.57-12.15-8.57-3.74-.03-7.49.16-11.21.57v17.9h12.91ZM284.72,128.09v-1.13c0-5.75-4.43-9.23-11.49-9.23h-14.32v19.78c4.19.43,8.41.62,12.62.57,8.57,0,13.19-3.39,13.19-9.98h0Z"/>
    <path id="Caminho_762" d="M302.7,124.79v-6.01c0-14.69,9.04-22.13,22.32-22.13s22.32,7.44,22.32,22.13v6.01c0,14.69-9.04,22.13-22.32,22.13s-22.32-7.44-22.32-22.13ZM335.95,124.42v-5.28c0-10.27-3.11-14.41-10.93-14.41s-10.92,4.33-10.92,14.41v5.28c0,10.27,3.11,14.41,10.92,14.41s10.93-4.33,10.93-14.41h0Z"/>
    <path id="Caminho_763" d="M381.82,138.83v4.99c.07.87-.48,1.66-1.32,1.9-2.63.8-5.36,1.21-8.1,1.22-11.49,0-17.42-6.12-17.42-17.9v-41.08c-.06-.82.55-1.53,1.37-1.6.01,0,.03,0,.04,0l7.63-1.79c.43-.12.87-.21,1.32-.28.66,0,1.03.57,1.03,1.32v12.15h13.66c.76-.07,1.44.49,1.51,1.25,0,.08,0,.17,0,.25v5.38c.07.76-.49,1.44-1.25,1.51-.08,0-.17,0-.25,0h-13.66v22.49c0,8.01,2.53,9.89,8.2,9.89,1.82.03,3.63-.19,5.38-.66.31-.1.63-.16.95-.19.55,0,.92.38.92,1.14Z"/>
    <path id="Caminho_764" d="M388.69,85.61v-1.22c-.14-3.16,2.31-5.83,5.47-5.97.31-.01.63,0,.94.04,3.1-.37,5.91,1.84,6.28,4.94.04.33.05.66.03,1v1.22c.18,3.11-2.2,5.78-5.31,5.96-.33.02-.67,0-1-.03-3.14.38-5.99-1.86-6.37-5-.04-.31-.05-.62-.04-.94ZM389.35,144.29v-45.02c-.07-.76.49-1.44,1.25-1.51.08,0,.17,0,.25,0h8.38c.76-.07,1.44.49,1.51,1.25,0,.08,0,.17,0,.25v45.02c.07.76-.49,1.44-1.25,1.51-.08,0-.17,0-.25,0h-8.38c-.76.07-1.44-.49-1.51-1.25,0-.08,0-.17,0-.25Z"/>
    <path id="Caminho_765" d="M409.22,123.66v-3.96c0-15.54,9.14-23.08,23.08-23.08,4.73.02,9.32,1.64,13,4.61.44.3.71.79.75,1.32-.04.49-.24.95-.57,1.32l-2.73,3.39c-.47.56-.85.85-1.32.85-.38-.05-.75-.22-1.04-.47-2.42-1.74-5.31-2.69-8.29-2.73-9.04,0-11.49,5.38-11.49,15.45v2.83c0,9.98,2.83,15.45,11.39,15.45,3.48-.07,6.86-1.18,9.7-3.2.25-.18.54-.27.85-.28.38,0,.66.28,1.13.95l2.73,3.77c.28.31.45.71.47,1.13-.03.46-.27.88-.66,1.13-4.18,3.01-9.17,4.68-14.32,4.8-14.59,0-22.69-7.35-22.69-23.27Z"/>
    <path id="Caminho_766" d="M489.84,117.45v23.83c.06,1.03-.55,1.98-1.51,2.35-5.78,2.3-11.96,3.42-18.18,3.3-12.15,0-19.12-4.8-19.12-13.92v-1.98c0-8.66,6.78-13.19,19.12-13.19h9.04v-1.32c0-7.82-2.53-11.49-9.89-11.49-3.75.03-7.43,1.07-10.64,3.01-.29.17-.61.26-.95.28-.56-.02-1.09-.29-1.41-.75l-2.64-3.58c-.3-.34-.47-.77-.47-1.22-.02-.5.23-.97.66-1.22,4.61-3.15,10.05-4.86,15.64-4.9,13.47-.01,20.35,6.67,20.35,20.8ZM460.36,89.95v-3.48c.03-.93.69-1.72,1.6-1.9l20.25-6.31c.85-.28,1.51.09,1.51,1.03v6.31c.06.93-.52,1.79-1.41,2.07l-20.35,3.68c-1.03.19-1.6-.38-1.6-1.41h0ZM479.2,137.7v-12.81h-9.04c-6.31,0-8.86,2.26-8.86,6.22v1.51c0,3.48,2.53,6.31,8.86,6.31,3.07.26,6.15-.16,9.04-1.22Z"/>
    <path id="Caminho_767" d="M499.45,144.29v-41.25c-.07-.76.34-1.48,1.03-1.79,5.82-2.79,12.19-4.23,18.65-4.24,1.67-.03,3.33.03,4.99.19.82.13,1.39.87,1.32,1.7v5.09c0,.95-.57,1.32-1.6,1.32h-3.48c-3.23-.11-6.45.37-9.51,1.41v37.58c.07.76-.49,1.44-1.25,1.51-.08,0-.17,0-.25,0h-8.38c-.76.07-1.44-.49-1.51-1.25,0-.09,0-.17,0-.26Z"/>
    <path id="Caminho_768" d="M531.57,85.61v-1.22c-.14-3.16,2.31-5.83,5.47-5.97.31-.01.63,0,.94.04,3.1-.37,5.91,1.84,6.28,4.94.04.33.05.66.03,1v1.22c.18,3.11-2.2,5.78-5.31,5.96-.33.02-.67,0-1-.03-3.14.38-5.99-1.86-6.37-5-.04-.31-.05-.62-.04-.94ZM532.23,144.29v-45.02c-.07-.76.49-1.44,1.25-1.51.08,0,.17,0,.25,0h8.38c.76-.07,1.44.49,1.51,1.25,0,.08,0,.17,0,.25v45.02c.07.76-.49,1.44-1.25,1.51-.08,0-.17,0-.25,0h-8.38c-.76.07-1.44-.49-1.51-1.25,0-.08,0-.17,0-.25Z"/>
    <path id="Caminho_769" d="M552.1,124.79v-6.01c0-14.69,9.04-22.13,22.32-22.13s22.32,7.44,22.32,22.13v6.01c0,14.69-9.04,22.13-22.32,22.13s-22.32-7.44-22.32-22.13ZM585.35,124.42v-5.28c0-10.27-3.11-14.41-10.92-14.41s-10.93,4.33-10.93,14.41v5.28c0,10.27,3.11,14.41,10.93,14.41s10.92-4.33,10.92-14.41h0Z"/>
  </g>
</svg>