<?xml version="1.0" encoding="UTF-8"?>
<svg id="Layer_1" xmlns="http://www.w3.org/2000/svg" viewBox="0 0 655.85 169.67">
  <defs>
    <style>
      .cls-1 {
        fill-rule: evenodd;
      }
    </style>
  </defs>
  <path class="cls-1" d="M250.04,0c-48.68,0-83.66,37.93-83.66,84.82s34.98,84.84,83.66,84.84,83.66-37.93,83.66-84.84S298.71,0,250.04,0ZM250.04,140.71c-29.33,0-52.03-25.21-52.03-55.88s22.7-55.86,52.03-55.86,52.03,25.21,52.03,55.86-22.7,55.88-52.03,55.88Z"/>
  <path class="cls-1" d="M142.84,23.56C128.65,9.19,108.01,0,84.58,0,35.44,0,0,37.47,0,84.83s35.9,84.84,84.95,84.84c23.94,0,44.55-8.88,58.86-22.6l-19.76-21.84c-10.44,10.1-24.18,15.63-38.4,15.48-29.97,0-54.01-24.27-54.01-55.86-.1-7.3,1.19-14.55,3.79-21.32,2.6-6.77,6.47-12.94,11.37-18.14,4.9-5.2,10.74-9.33,17.18-12.14,6.44-2.82,13.35-4.27,20.33-4.27,14.38.08,28.16,6.09,38.33,16.72l20.2-22.14Z"/>
  <polygon class="cls-1" points="349.55 31.33 399.03 31.33 399.03 165.69 430.36 165.69 430.36 31.33 479.84 31.33 479.84 3.98 349.55 3.98 349.55 31.33"/>
  <polygon class="cls-1" points="618.34 3.98 655.85 3.98 592.15 102.26 592.15 165.69 560.92 165.69 560.92 102.68 497.2 3.98 535.14 3.98 577.05 71.04 618.34 3.98"/>
</svg>