<?xml version="1.0" encoding="UTF-8"?>
<svg id="Layer_1" xmlns="http://www.w3.org/2000/svg" viewBox="0 0 50.22 32.36">
  <defs>
    <style>
      .cls-1 {
        fill: #1b1918;
      }

      .cls-1, .cls-2 {
        fill-rule: evenodd;
      }

      .cls-3 {
        fill: #fff;
      }

      .cls-4 {
        fill: none;
        stroke: #000200;
        stroke-width: .22px;
      }

      .cls-2 {
        fill: #e30016;
      }
    </style>
  </defs>
  <rect class="cls-3" x=".11" y=".11" width="50" height="32.14"/>
  <rect class="cls-4" x=".11" y=".11" width="50" height="32.14"/>
  <polygon class="cls-2" points="16.18 23.8 26.1 5.9 35.99 23.8 16.18 23.8"/>
  <path class="cls-1" d="M23.52,8.31c.12.07.2.18.24.31.04.15.01.3-.08.46-.03.05-.08.12-.16.19-.08.07-.12.12-.13.15-.02.03-.02.05,0,.07,0,0,.02.02.04.04l-.03.05-.53-.3.03-.05c.17.06.32.07.45.03.12-.03.2-.09.25-.18.05-.09.07-.17.06-.25-.01-.08-.06-.14-.14-.19-.07-.04-.14-.04-.22-.01-.03.01-.09.05-.18.11l-.25.16c-.08.05-.17.08-.27.09-.11.01-.21,0-.29-.05-.12-.07-.21-.17-.25-.29-.05-.13-.03-.27.05-.4.04-.07.09-.13.17-.2.07-.07.12-.12.13-.14.02-.03,0-.06-.04-.11l.03-.05.48.27-.03.05c-.33-.06-.54,0-.66.2-.04.06-.05.13-.03.2.02.07.06.12.13.16.1.06.24.03.4-.1l.19-.14c.07-.05.15-.09.24-.12.14-.04.28-.02.4.05ZM22.22,10.33l-.66-.09.41.52.25-.43ZM23.1,9.98l-.4.7-.05-.03c.07-.13.08-.21.02-.25-.01,0-.04-.02-.07-.02l-.28-.03-.29.5.17.2s.03.03.05.04c.08.05.15.01.22-.1l.05.03-.25.44-.05-.03s.03-.1.01-.15c-.01-.03-.04-.08-.09-.13l-.96-1.25.04-.07,1.62.21c.06,0,.1,0,.13,0,.04-.01.07-.04.1-.09l.05.03ZM20.98,11.25l-.03.05c-.1-.05-.2-.07-.31-.04-.12.02-.21.08-.26.18l-.05.09,1.2.69c.05.03.1.04.15.02.05-.01.09-.05.12-.1l.05.03-.41.71-.05-.03c.03-.05.04-.1.03-.16-.01-.05-.04-.09-.09-.12l-1.2-.69-.05.09c-.06.11-.07.22-.02.33.04.1.1.17.19.23l-.03.05-.44-.25.75-1.31.44.25ZM19.64,13.46c-.22-.12-.38-.1-.48.09-.05.09-.04.15.03.19l.55.32c.08-.15.12-.26.12-.33,0-.1-.08-.18-.21-.26ZM21.04,13.56l-.25.43-.95.05-.03.05.47.27s.08.03.13.03c.06,0,.11-.04.15-.11l.05.03-.41.71-.05-.03c.03-.06.04-.11.02-.17-.02-.05-.05-.09-.09-.11l-1.06-.61s-.09-.03-.14-.01c-.05.01-.09.05-.12.1l-.05-.03.42-.72c.08-.14.18-.24.29-.31.15-.1.29-.1.42-.03.19.11.25.3.16.56l.88-.07c.05,0,.09-.02.11-.06l.05.03ZM19.52,15.15l.39.36-.72,1.25-.05-.03c.03-.06.04-.12.02-.17-.02-.05-.05-.08-.09-.11l-1.05-.61s-.09-.03-.15-.02c-.05.01-.09.05-.13.1l-.05-.03.71-1.23.45.26-.03.05c-.14-.06-.27-.07-.38-.03-.09.03-.16.09-.21.18l-.12.2s-.03.07-.02.09c.01.02.04.05.09.07l.5.29v-.03c.06-.09.09-.16.08-.22,0-.1-.07-.2-.2-.3l.03-.05.73.42-.03.05c-.15-.06-.27-.07-.36-.03-.05.03-.1.08-.15.17l-.02.03.5.29c.06.04.11.05.13.04.03-.01.08-.07.13-.16.08-.13.11-.25.1-.36-.01-.13-.07-.27-.17-.41l.03-.06ZM18.42,17.39c-.16-.09-.28-.14-.34-.15-.1,0-.19.05-.26.18l-.06.1.52.3c.06.03.09.05.11.05.04,0,.08-.03.12-.09.1-.17.07-.3-.09-.4ZM17.64,17.01c-.16-.09-.26-.14-.3-.14-.07,0-.13.04-.19.14-.02.04-.04.07-.04.09,0,.03.02.06.07.09l.5.29.05-.09c.09-.16.06-.29-.1-.38ZM18.5,16.96c.15.08.22.22.23.4,0,.13-.03.25-.09.35l-.45.78-.05-.03c.04-.06.04-.12.02-.18-.02-.04-.04-.07-.08-.09l-1.06-.61s-.1-.03-.15-.02c-.05.01-.09.05-.12.1l-.05-.03.38-.65c.21-.37.43-.49.66-.36.09.05.14.12.17.21.03.09.02.19-.01.31.21-.22.41-.27.6-.17ZM17.98,18.86l-.44.76-.05-.03c.08-.14.06-.24-.05-.31l-1.06-.61s-.09-.03-.15-.01c-.05.02-.1.06-.13.12l-.05-.03.44-.76.05.03c-.04.06-.05.12-.04.18,0,.06.04.1.08.12l1.06.61c.11.07.21.03.29-.11l.05.03ZM16.82,19.71l.44.37-.72,1.25-.05-.03c.04-.06.04-.12.02-.18-.02-.04-.05-.07-.09-.1l-1.07-.62s-.07-.02-.12-.01c-.06.01-.11.05-.14.1l-.05-.03.41-.7.05.03c-.04.06-.04.12-.02.18.02.04.04.07.07.09l1.06.61s.08.02.14,0c.05-.02.09-.06.13-.11.09-.16.12-.3.1-.44-.02-.11-.09-.23-.2-.37l.03-.06Z"/>
  <path class="cls-1" d="M35.64,20.05l.41-.53-.66.1.25.43ZM35.5,21l-.4-.7.05-.03c.07.13.14.18.21.14.01,0,.03-.02.05-.05l.17-.23-.29-.5-.26.04s-.04.01-.06.02c-.08.05-.09.12-.02.24l-.05.03-.25-.44.05-.03s.07.07.12.08c.03,0,.09,0,.16,0l1.56-.21.04.07-1,1.3s-.06.09-.06.11c0,.04,0,.08.03.13l-.05.03ZM35.25,18.04c.22-.13.27-.28.17-.46-.05-.09-.11-.11-.17-.07l-.55.32c.08.15.16.23.23.27.09.04.2.03.34-.05ZM34.46,19.2l-.25-.43.43-.85-.03-.05-.47.27s-.07.05-.09.1c-.03.06-.02.12.02.18l-.05.03-.41-.71.05-.03c.03.06.08.09.13.1.05.01.1,0,.14-.02l1.06-.61s.07-.06.08-.11c.01-.05,0-.11-.02-.16l.05-.03.42.72c.08.14.12.27.13.41,0,.17-.05.3-.19.38-.19.11-.38.06-.57-.14l-.38.8s-.02.09,0,.13l-.05.03ZM33.87,17.14l-.51.16-.72-1.25.05-.03c.03.06.08.09.14.1.05,0,.09,0,.14-.03l1.05-.61s.08-.07.09-.12c.01-.05,0-.1-.03-.16l.05-.03.71,1.23-.45.26-.03-.05c.12-.09.2-.2.22-.32.02-.09,0-.18-.05-.27l-.12-.2s-.04-.06-.07-.06c-.02,0-.06.01-.11.04l-.5.29.02.03c.05.09.1.14.15.17.09.05.21.04.36-.03l.03.05-.73.42-.03-.05c.13-.1.2-.2.2-.3,0-.06-.02-.13-.07-.22v-.03s-.52.29-.52.29c-.06.04-.09.07-.1.1,0,.04.02.1.07.2.08.13.16.22.26.26.12.05.27.07.44.06l.03.06ZM32.85,15.45c-.12.07-.25.09-.39.05-.15-.04-.27-.14-.36-.3-.03-.05-.06-.13-.09-.23-.03-.1-.05-.16-.06-.19-.02-.03-.03-.04-.06-.04,0,0-.02,0-.05.02l-.03-.05.53-.31.03.05c-.14.12-.22.24-.25.38-.03.12-.02.22.03.31.05.09.11.15.19.18.07.03.15.02.23-.02.07-.04.11-.1.12-.18,0-.03,0-.1,0-.21v-.29c-.02-.09,0-.19.04-.28.04-.11.11-.18.19-.23.12-.07.25-.1.38-.07.14.03.25.11.33.24.04.07.07.15.09.25.02.1.04.16.06.18.02.03.05.03.11.02l.03.05-.47.28-.03-.05c.22-.25.27-.47.15-.67-.04-.06-.09-.11-.15-.12-.07-.02-.13,0-.2.03-.1.06-.14.19-.12.4l.03.24c0,.09,0,.18-.02.26-.04.14-.12.25-.24.32ZM31.46,12.29l.65-.38v-.02s-.87.02-.87.02l.22.38ZM31.81,13.57l-.51.16-.69-1.19.05-.03c.03.06.08.09.14.1.05.01.09,0,.14-.02l.44-.25-.25-.43c-.4,0-.62,0-.66.03-.04.02-.05.06-.04.11,0,.03.02.07.05.13l-.05.03-.25-.43.05-.03s.1.06.21.06l1.47-.02s.05,0,.07-.02c.06-.03.05-.1,0-.21l-.02-.03.05-.03.79,1.37-.45.26-.03-.04c.23-.18.29-.37.17-.58l-.09-.16s-.04-.07-.06-.08c-.03-.01-.06,0-.1.01l-.54.31v.02c.06.08.11.14.16.16.09.04.2.03.36-.03l.03.05-.73.42-.03-.05c.13-.1.2-.2.2-.29,0-.04-.02-.11-.06-.21v-.02s-.54.31-.54.31c-.06.03-.08.07-.07.11,0,.03.03.08.07.15.07.13.17.22.3.26.1.04.23.05.4.04l.03.06ZM31.56,10.84c-.03-.05-.07-.08-.12-.1-.05-.02-.09-.01-.14.01l-.8.46c-.35.2-.63.12-.85-.25-.09-.15-.12-.3-.11-.46.01-.17.08-.29.2-.36l.87-.51c.12-.07.14-.16.08-.28l.05-.03.41.7-.05.03c-.04-.07-.09-.1-.15-.11-.05,0-.09,0-.13.03l-.84.48c-.25.14-.31.32-.18.54.14.25.36.29.64.12l.79-.46s.07-.06.09-.11c.01-.05,0-.1-.03-.15l.05-.03.25.43-.05.03ZM29.57,9.04c.2-.12.35-.24.45-.37.11-.15.13-.3.05-.43-.08-.13-.21-.19-.39-.17-.16.01-.34.08-.55.2-.21.12-.36.25-.45.38-.1.15-.12.29-.04.43.07.13.2.18.38.17.16-.01.35-.08.55-.2ZM28.77,10.1s-.09-.09-.14-.13c-.05-.05-.1-.12-.15-.2-.1-.17-.14-.33-.12-.51.01-.15.06-.26.14-.34-.06-.22-.06-.42.03-.61.08-.17.2-.31.39-.41.22-.13.45-.16.67-.11.23.06.4.19.53.41.13.22.16.45.09.68-.07.22-.21.4-.43.52-.18.1-.35.15-.51.13-.15,0-.32-.07-.5-.18-.03.07-.07.14-.1.21-.04.12-.04.23.02.34.02.04.05.07.07.1.03.03.04.04.04.05l-.04.05Z"/>
  <path class="cls-1" d="M31.19,24.76c-.06,0-.11.02-.15.06-.04.04-.05.08-.05.13v1.5h-.07l-1.11-1.36v1.09s.02.08.05.12c.04.04.09.07.15.07v.05h-.5v-.05c.07,0,.12-.02.16-.07.03-.04.05-.08.05-.13v-1.21s-.04-.05-.11-.13c-.04-.05-.08-.07-.11-.07v-.05h.53l.88,1.09v-.86s-.02-.08-.06-.12c-.04-.04-.09-.06-.14-.06v-.05h.5v.05ZM29.04,25.91l-.11.52h-1.44v-.05c.07,0,.12-.02.16-.07.03-.04.05-.08.05-.13v-1.22c0-.05-.02-.1-.05-.14-.04-.04-.09-.06-.15-.06v-.05h1.42v.52h-.05c-.02-.15-.07-.27-.16-.35-.07-.06-.16-.09-.26-.09h-.23s-.07,0-.09.03c-.01.02-.02.06-.02.12v.58h.03c.1,0,.17-.02.22-.05.09-.06.14-.16.16-.33h.06v.84h-.06c-.02-.16-.07-.27-.16-.33-.05-.03-.12-.05-.22-.05h-.03v.58c0,.07.01.12.03.13.03.02.1.04.21.04.15,0,.27-.03.36-.1.11-.08.2-.19.27-.35h.07ZM27.05,26.43h-.81v-.05c.07,0,.12-.02.16-.07.03-.04.05-.08.05-.13v-1.24l-.64,1.49h-.06l-.62-1.5v1.25c0,.05.02.1.05.13.04.04.09.06.15.06v.05h-.5v-.05c.06,0,.11-.02.14-.05.04-.03.06-.08.06-.14v-1.24c0-.06-.01-.11-.05-.13-.04-.03-.1-.05-.18-.05v-.05h.64l.48,1.17.51-1.17h.63v.05c-.07,0-.13.02-.17.07-.03.04-.04.08-.04.13v1.21s.01.09.04.13c.04.05.09.07.17.07v.05ZM23.74,25.84l-.26-.62-.24.62h.5ZM24.49,26.43h-.8v-.05c.15,0,.22-.04.22-.11,0-.01,0-.04-.02-.07l-.11-.26h-.58l-.09.25s-.01.04-.01.06c0,.09.07.14.2.14v.05h-.5v-.05c.05,0,.1-.02.13-.07.02-.03.05-.07.07-.14l.6-1.46h.08l.63,1.51c.02.06.05.09.07.11.03.03.07.04.13.04v.05ZM22.5,25.22h-.05c0-.11-.04-.21-.12-.29-.08-.09-.17-.14-.28-.14h-.1v1.38c0,.06.02.11.06.14.04.04.09.05.15.05v.05h-.81v-.05c.06,0,.11-.02.15-.06.04-.04.06-.08.06-.14v-1.38h-.1c-.12,0-.22.05-.3.15-.06.08-.1.18-.1.28h-.06v-.51h1.51v.51Z"/>
</svg>