<?xml version="1.0" encoding="UTF-8"?>
<svg id="Layer_1" xmlns="http://www.w3.org/2000/svg" viewBox="0 0 50 33.34">
  <defs>
    <style>
      .cls-1 {
        fill: #ffcb00;
      }

      .cls-1, .cls-2, .cls-3, .cls-4, .cls-5, .cls-6, .cls-7, .cls-8, .cls-9, .cls-10 {
        fill-rule: evenodd;
      }

      .cls-2, .cls-11 {
        fill: #fff;
      }

      .cls-3, .cls-12 {
        fill: #1b1918;
      }

      .cls-4, .cls-13 {
        fill: #000200;
      }

      .cls-5 {
        fill: #c5c7c8;
      }

      .cls-14, .cls-9 {
        fill: #009ee0;
      }

      .cls-15, .cls-7 {
        fill: #d9dadb;
      }

      .cls-6 {
        fill: #009035;
      }

      .cls-8 {
        fill: #e30016;
      }

      .cls-10 {
        fill: #cb6c36;
      }
    </style>
  </defs>
  <rect class="cls-14" x="25" y=".01" width="24.99" height="16.66"/>
  <path class="cls-12" d="M50,16.68h-25.01V0h25.01v16.68ZM25.01,16.66h24.97V.02h-24.97v16.64Z"/>
  <rect class="cls-11" x="25" y="16.67" width="24.99" height="16.66"/>
  <path class="cls-12" d="M50,33.34h-25.01v-16.68h25.01v16.68ZM25.01,33.32h24.97v-16.64h-24.97v16.64Z"/>
  <rect class="cls-14" x=".01" y="16.67" width="24.99" height="16.66"/>
  <path class="cls-12" d="M25.01,33.34H0v-16.68h25.01v16.68ZM.02,33.32h24.97v-16.64H.02v16.64Z"/>
  <rect class="cls-11" x=".01" y=".01" width="24.99" height="16.66"/>
  <path class="cls-12" d="M25.01,16.68H0V0h25.01v16.68ZM.02,16.66h24.97V.02H.02v16.64Z"/>
  <path class="cls-5" d="M27.51,29.2l.09-1.22c-.35-.05-.7-.12-1.06-.2l.96,1.42ZM27.5,29.31v-.02s0,0,0,0h0Z"/>
  <path class="cls-12" d="M27.56,29.56l-.19-.29.05-.03-1.07-1.58.21.05c.35.08.7.15,1.05.2h.08s-.12,1.54-.12,1.54h0s0,.11,0,.11ZM26.73,27.91l.71,1.05.07-.9c-.26-.04-.52-.09-.78-.14Z"/>
  <path class="cls-5" d="M23.34,26.91l-.25.78c.56.25,1.11.51,1.62.77-.4-.48-.8-.96-1.19-1.43l-.17-.12Z"/>
  <path class="cls-12" d="M24.67,28.54c-.46-.24-.98-.48-1.62-.77l-.07-.03.31-.96.28.2,1.19,1.43-.1.13ZM23.19,27.65c.45.2.84.39,1.2.56l-.93-1.12-.07-.05-.2.61Z"/>
  <path class="cls-1" d="M32.2,16.63c0-4.67-3.12-8.48-6.94-8.48s-6.94,3.81-6.94,8.48,3.12,8.48,6.94,8.48,6.94-3.81,6.94-8.48Z"/>
  <path class="cls-13" d="M25.26,25.17c-3.86,0-6.99-3.83-6.99-8.54s3.14-8.54,6.99-8.54,6.99,3.83,6.99,8.54-3.14,8.54-6.99,8.54ZM25.26,8.2c-3.8,0-6.89,3.78-6.89,8.43s3.09,8.43,6.89,8.43,6.89-3.78,6.89-8.43-3.09-8.43-6.89-8.43Z"/>
  <path class="cls-9" d="M25.26,24.41c2.31,0,4.27-1.44,5.45-3.77l-11.01-.22c.01-.1,1.69,4.1,5.56,3.99Z"/>
  <path class="cls-12" d="M25.11,24.47c-2.17,0-4.08-1.38-5.39-3.9-.02-.04-.04-.07-.05-.09h-.03s0-.1,0-.1h.04s.02-.01.03,0l11.07.22-.04.08c-1.23,2.41-3.23,3.8-5.5,3.8-.05,0-.1,0-.14,0ZM19.8,20.48s.01.02.02.04c1.32,2.54,3.25,3.9,5.44,3.84h0c2.2,0,4.15-1.33,5.36-3.66l-10.82-.22Z"/>
  <path class="cls-8" d="M32.42,23.98c.08-.01.13-.08.12-.15,0-.01,0-.02,0-.03.02,0,.05,0,.07,0,.08-.01.13-.08.12-.15,0-.05-.04-.08-.09-.1.02-.03.02-.06.02-.08-.01-.07-.09-.11-.16-.1-.02,0-.04.01-.06.02-.03-.02-.07-.04-.12-.03-.08.01-.13.08-.12.15,0,.02.01.04.02.05,0,0-.01,0-.02,0-.08.01-.13.08-.12.15.01.07.09.11.16.1,0,0,.02,0,.03,0,0,.02-.01.04,0,.07.01.07.09.11.16.1ZM34.37,21.04c.07-.04.09-.12.06-.18,0,0-.01-.02-.02-.02.02,0,.04,0,.07-.02.07-.04.09-.12.06-.18-.02-.04-.07-.06-.11-.06,0-.03,0-.06-.01-.09-.04-.06-.12-.08-.19-.04-.02.01-.03.02-.05.04-.04-.01-.08,0-.12.02-.07.04-.09.12-.06.18,0,.02.02.03.04.04,0,0-.01,0-.02,0-.07.04-.09.12-.06.18.04.06.12.08.19.04,0,0,.02-.01.02-.02,0,.02,0,.04.02.06.04.06.12.08.19.04ZM35.17,17.67c.05-.06.04-.15-.01-.19,0,0-.02-.01-.03-.02.02,0,.04-.02.05-.04.05-.06.04-.15-.01-.19-.04-.03-.08-.03-.13-.01,0-.03-.02-.06-.04-.07-.06-.04-.14-.03-.19.03-.01.02-.02.03-.03.05-.04,0-.08.02-.11.06-.05.06-.04.15.01.19.02.01.03.02.05.02,0,0-.01.01-.02.02-.05.06-.04.15.01.19.06.04.14.03.19-.03,0,0,.01-.02.02-.02,0,.02.02.04.04.05.06.04.14.03.19-.03ZM34.69,14.16c.03-.07,0-.15-.07-.18,0,0-.02,0-.03,0,.02-.02.03-.03.04-.06.03-.07,0-.15-.07-.18-.04-.02-.09,0-.13.02-.01-.03-.04-.05-.06-.06-.07-.03-.14.01-.17.09,0,.02-.01.04-.01.06-.04.01-.07.05-.08.09-.03.07,0,.15.07.18.02,0,.04,0,.05,0,0,0,0,.01,0,.02-.03.07,0,.16.07.18.07.03.14-.01.17-.09,0,0,0-.02,0-.03.01.02.03.03.05.04.07.03.14-.01.17-.09ZM33.34,10.97c.01-.08-.03-.15-.1-.16-.01,0-.02,0-.03,0,.01-.02.02-.04.03-.06.01-.08-.03-.15-.1-.16-.04,0-.09.01-.12.05-.02-.02-.04-.04-.07-.05-.07-.01-.14.04-.15.12,0,.02,0,.04,0,.06-.03.02-.06.06-.07.1-.01.08.03.15.1.16.02,0,.04,0,.06,0,0,0,0,.01,0,.02-.01.08.03.15.1.16.07.01.14-.04.15-.12,0,0,0-.02,0-.03.02.02.04.03.06.03.07.01.14-.04.15-.12ZM31.14,8.46l.55.72-.05-.4.38.17-.59-.75c-.02.06-.06.1-.12.1-.02,0-.04,0-.06-.02,0,0,0,.02,0,.03,0,.07-.05.13-.11.14ZM29.9,26.4c.08,0,.14-.06.14-.13,0-.01,0-.02,0-.03.02,0,.04.02.07.02.08,0,.14-.06.15-.13,0-.05-.03-.09-.07-.11.02-.02.03-.05.03-.08,0-.07-.06-.13-.14-.13-.02,0-.04,0-.06.01-.03-.03-.07-.05-.11-.05-.08,0-.14.06-.15.13,0,.02,0,.04.01.05,0,0-.01,0-.02,0-.08,0-.14.06-.14.13s.06.13.14.13c0,0,.02,0,.03,0-.01.02-.02.04-.02.06,0,.07.06.13.14.13Z"/>
  <path class="cls-12" d="M29.9,26.46h0c-.05,0-.1-.02-.14-.05-.04-.03-.06-.08-.06-.13,0,0,0,0,0-.01-.04,0-.07-.03-.1-.06-.03-.03-.05-.08-.05-.12,0-.09.07-.16.15-.18,0,0,0,0,0,0,0-.1.09-.18.2-.18h0s.09.02.12.04c.01,0,.03,0,.05,0,.11,0,.2.08.2.18,0,.02,0,.05-.02.07.03.03.05.08.05.12,0,.1-.09.18-.2.18,0,0-.01,0-.02,0,0,.03-.02.06-.05.09-.04.04-.09.06-.14.06ZM29.9,26.35s0,0,0,0c.03,0,.05,0,.07-.03,0,0,.02-.02.02-.05,0,0,0-.01,0-.02l-.03-.12.11.05s.03.01.04,0c.05,0,.09-.03.09-.07,0-.02-.01-.05-.04-.06l-.06-.03.05-.05s.02-.02.02-.04c0-.04-.04-.07-.09-.07-.01,0-.03,0-.04,0h-.03s-.03-.01-.03-.01c-.02-.02-.04-.03-.07-.03,0,0,0,0,0,0-.05,0-.09.03-.09.07,0,.01,0,.02,0,.03l.05.09-.1-.02s-.01,0-.02,0c-.03,0-.05,0-.07.02-.02.01-.02.03-.02.05,0,.02.01.04.02.05.02.02.05.03.07.03,0,0,0,0,.01,0l.13-.03-.07.11s-.01.02-.01.03c0,.02,0,.04.02.05.02.02.04.02.07.02h0ZM32.39,24.03c-.09,0-.17-.06-.19-.15,0,0,0,0,0-.01-.04,0-.08-.01-.11-.04-.04-.03-.06-.07-.07-.11-.01-.08.04-.17.12-.2,0,0,0,0,0,0,0-.04,0-.09.03-.13.03-.04.08-.07.13-.08.05,0,.09,0,.13.02.01,0,.03-.01.04-.01.11-.02.21.05.23.14,0,.02,0,.05,0,.07.04.03.06.07.07.11,0,.05,0,.1-.04.14-.03.04-.08.07-.13.07,0,0,0,0-.01,0,0,.03-.01.06-.03.09-.03.04-.08.07-.13.08-.01,0-.03,0-.04,0ZM32.36,23.72l-.05.11s0,.02,0,.04c0,.04.05.07.1.06h0s.05-.02.06-.04c0-.01.02-.03.01-.05,0,0,0-.01,0-.02l-.05-.1.11.03s.03,0,.05,0c.03,0,.05-.02.06-.04.01-.02.02-.04.02-.05,0-.02-.02-.04-.05-.05l-.06-.02.04-.06s.01-.03.01-.05c0-.04-.05-.07-.1-.06-.01,0-.03,0-.04.01l-.03.02-.03-.02s-.05-.02-.08-.02c-.03,0-.05.02-.06.04,0,.01-.02.03-.01.05,0,0,0,.02.01.03l.06.08h-.1s-.01,0-.02,0c-.05,0-.08.05-.07.09,0,.02.02.03.03.04.02.01.05.02.07.01,0,0,.01,0,.02,0l.11-.04ZM34.29,21.11c-.06,0-.12-.03-.16-.09,0,0,0,0,0-.01-.04.01-.08.01-.11,0-.05-.01-.08-.04-.11-.08-.02-.04-.03-.09-.02-.13,0-.04.03-.07.06-.1,0,0,0,0,0,0-.05-.09-.02-.2.08-.26.04-.02.09-.03.13-.03.01-.01.02-.02.04-.03.05-.03.1-.04.16-.02.05.01.08.04.11.08.01.02.02.04.02.07.04.01.08.04.1.08.03.04.03.09.01.14-.02.05-.05.09-.09.11,0,0,0,0-.01,0,.03.08-.01.17-.09.22h0s-.07.03-.11.03ZM34.22,20.82v.12s0,.02,0,.03c.02.04.07.04.12.02h0s.06-.07.04-.11c0,0,0,0,0-.01l-.09-.08h.12s.03-.02.04-.03c.02-.01.04-.03.04-.05,0-.02,0-.04,0-.06-.01-.02-.04-.03-.07-.03h-.07s.01-.06.01-.06c0-.01,0-.03,0-.05-.01-.02-.03-.03-.04-.03-.02,0-.05,0-.07.01-.01,0-.02.02-.03.03l-.02.03h-.04s-.05-.01-.08,0c-.04.03-.06.07-.04.11,0,0,.01.02.02.02l.09.05-.1.04s0,0-.01,0c-.02.01-.04.03-.05.06,0,.01,0,.03,0,.05.01.02.03.03.04.03.02,0,.05,0,.07-.01,0,0,.01,0,.02-.01l.09-.08ZM34.81,17.78s-.08-.01-.11-.04c-.04-.03-.06-.07-.06-.12,0-.04,0-.08.02-.11,0,0,0,0,0,0-.08-.06-.09-.18-.02-.27.03-.04.07-.06.11-.07,0-.01.02-.03.02-.04.03-.04.08-.07.14-.08.05,0,.09,0,.13.04.02.01.03.03.04.05.05,0,.09,0,.13.04.04.03.06.07.06.12,0,.05-.01.11-.04.15,0,0,0,0,0,.01.05.07.05.17,0,.24h0c-.07.09-.19.1-.27.04,0,0,0,0,0,0-.03.03-.07.04-.11.05,0,0-.01,0-.02,0ZM34.93,17.17s0,0,0,0c-.02,0-.05.02-.06.04,0,.01-.01.02-.02.04v.04s-.05,0-.05,0c-.03,0-.05.02-.07.04-.03.04-.03.09,0,.12,0,0,.02.01.03.01l.1.02-.07.07s0,0-.01.01c-.02.02-.02.05-.02.07,0,.01,0,.03.02.05.02.01.04.01.05.01.02,0,.05-.02.06-.04,0,0,0-.01.01-.02l.06-.11.04.11s.01.02.02.03c.03.03.08.01.11-.02.03-.04.03-.09,0-.12,0,0,0,0-.01,0l-.11-.05.11-.05s.03-.02.04-.03c.02-.02.02-.05.02-.07,0-.01,0-.03-.02-.05-.02-.02-.05-.02-.07,0l-.06.03v-.07s-.02-.03-.03-.04c-.01-.01-.03-.01-.04-.01ZM34.33,14.38s-.04,0-.06-.01c-.08-.03-.12-.12-.11-.21,0,0,0,0,0,0-.09-.04-.14-.15-.1-.25.02-.04.05-.08.08-.1,0-.02,0-.03.01-.04.04-.1.15-.15.24-.12.02,0,.04.02.06.04.04-.02.09-.02.13,0,.04.02.08.05.1.09.02.05.02.11,0,.16,0,0,0,0,0,.01.03.02.05.04.06.08.02.05.02.11,0,.16-.02.05-.06.09-.11.11-.04.02-.09.02-.13,0,0,0,0,0-.01,0-.04.06-.1.09-.16.09ZM34.33,14.05l-.05.09s0,0,0,.01c-.02.05,0,.1.04.11.04.01.08-.01.1-.06,0,0,0-.01,0-.02l.02-.12.07.1s.02.02.03.02c.02,0,.04,0,.05,0,.02,0,.04-.03.05-.05h0s0-.05,0-.07c0-.01-.02-.03-.04-.04,0,0-.01,0-.02,0h-.12s.09-.09.09-.09c.01,0,.02-.02.02-.04,0-.03,0-.05,0-.07,0-.01-.02-.03-.04-.04-.02,0-.05,0-.07.02l-.05.04-.03-.06s-.02-.03-.04-.03c-.04-.01-.08.01-.1.06,0,.01,0,.03,0,.04v.04s-.03.01-.03.01c-.02,0-.04.03-.05.06-.02.05,0,.1.04.11,0,0,.02,0,.03,0h.1ZM32.99,11.26s-.02,0-.03,0c-.08-.02-.14-.09-.15-.18,0,0,0,0,0,0-.04,0-.08-.03-.11-.07-.03-.04-.04-.1-.03-.15,0-.05.03-.09.06-.12,0-.02,0-.03,0-.05,0-.05.04-.1.08-.13.04-.03.09-.04.13-.03.02,0,.04.01.06.03.04-.03.08-.04.13-.03.04,0,.08.03.11.07.03.04.04.1.03.15,0,0,0,0,0,.01.03.01.06.04.08.07.03.04.03.09.03.14,0,.05-.04.1-.08.13-.04.03-.09.04-.13.03,0,0,0,0-.01,0-.03.07-.1.12-.17.12ZM32.97,10.94l-.04.1s0,0,0,.01c0,.05.02.09.06.1.04,0,.08-.03.09-.08,0,0,0-.01,0-.02v-.12l.09.08s.02.01.03.02c.02,0,.04,0,.05-.01.02-.01.03-.04.04-.06h0s0-.05-.01-.07c-.01-.02-.03-.03-.05-.03,0,0-.01,0-.01,0h-.12s.07-.08.07-.08c0-.01.01-.03.02-.04,0-.03,0-.05-.01-.07,0-.01-.02-.02-.04-.03-.02,0-.05,0-.07.03l-.04.05-.04-.06s-.02-.02-.04-.03c-.02,0-.04,0-.05.01-.02.01-.03.04-.04.06,0,.01,0,.03,0,.04v.04s-.02.02-.02.02c-.02.01-.04.04-.04.07,0,.03,0,.05.01.07.01.02.03.03.04.03.01,0,.02,0,.03,0l.11-.03ZM31.77,9.38l-.73-.95.08-.02s.06-.05.06-.09c0,0,0-.01,0-.02l-.02-.12.1.07s.09,0,.1-.05l.03-.1.65.83-.06.08-.29-.13.07.5ZM31.22,8.48l.39.51-.04-.29.27.12-.4-.51s-.09.06-.14.06c0,.05-.04.09-.07.12Z"/>
  <path class="cls-6" d="M32.08,23.74l-.62.67.38-.12-.1.4.64-.71c-.06,0-.11-.05-.12-.1,0-.02,0-.05,0-.07,0,0-.02,0-.03,0-.07.01-.14-.02-.16-.08ZM29.61,26.11l-.73.54.4-.05-.17.38.75-.58c-.06-.02-.1-.07-.1-.12,0-.02,0-.04.02-.06,0,0-.02,0-.03,0-.07,0-.13-.05-.14-.11ZM30.26,26.01c.2,0,.48,0,.67,0,.36-.16,1.27-.33,1.51-.95-.35-.54-1.94.77-2.17.84.12-.06.57-.31.67-.36.49-.29.67-.37.9-1.22-.91.23-.96.36-1.7,1.43.74-1.01,1.4-1.72.92-2.33-.53.14-1.06,1.83-.96,2.4.07,0,.12.06.12.13,0,.02,0,.03,0,.04,0,0,.02,0,.04.02ZM33.94,21.57c-.05.02-.1.05-.15.07l.15-.12v.05ZM32.7,23.52c.19-.04.47-.08.66-.13.32-.22,1.19-.56,1.31-1.21-.44-.47-1.77,1.11-1.99,1.22.11-.08.51-.41.59-.47.43-.37.59-.48.67-1.36l.04.36.35-.89c-.06.02-.12,0-.15-.05-.01-.02-.02-.04-.02-.06,0,0-.01.01-.02.02-.06.04-.13.03-.18-.02l-.32.78c-.58.3-.65.54-1.12,1.58.54-1.12,1.06-1.95.48-2.46-.49.23-.71,1.99-.5,2.54.07,0,.13.04.14.1,0,.02,0,.03,0,.04,0,0,.02,0,.05,0ZM34.47,20.51c.17-.11.41-.24.58-.35.23-.32.92-.94.81-1.59-.58-.28-1.26,1.66-1.43,1.84.08-.11.33-.56.39-.65.25-.46.36-.63.2-1.31l.08.21.06-.95s-.11.04-.16,0c-.02-.01-.03-.03-.04-.05,0,0,0,.02-.02.02-.04.06-.12.07-.17.05l-.12.84.1-.09c-.44.49-.43.74-.5,1.88.12-1.24.31-2.2-.41-2.47-.38.39.03,2.11.42,2.55.06-.03.14,0,.17.05,0,.01.01.03.02.04,0,0,.02,0,.05,0ZM35.07,17.15c.12-.16.3-.37.41-.53.1-.38.52-1.2.18-1.77-.64-.06-.58,2.01-.68,2.23.03-.13.1-.64.13-.75.07-.56.12-.75-.39-1.44l.22.22-.27-.91s-.1.07-.15.05c-.02,0-.04-.02-.05-.04,0,0,0,.02,0,.03-.03.07-.09.1-.15.09l.25.87.09-.39.05.05c-.38.85-.3.98.09,2.22-.34-1.2-.5-2.17-1.27-2.16-.22.5.79,1.96,1.31,2.23.05-.05.13-.06.18-.02.01,0,.02.02.03.03,0,0,.02,0,.04-.02ZM33.01,10.56c.03-.2.09-.47.11-.67-.09-.38-.25-1.14-.55-1.44-.37.26.3,1.83.33,2.07-.03-.13-.21-.62-.24-.72-.2-.54-.04-.78-1.05-1.1.07.94.19,1.01,1.12,1.92-.86-.9-1.42-1.28-1.59-1.24.17.33.54.77.81,1.07.26.11.55.23.84.22.02-.07.08-.11.15-.1.02,0,.03,0,.04.02,0,0,.01-.01.03-.04ZM31.03,7.82c0-.2,0-.48,0-.67-.16-.35-.45-.63-.8-.86-.16.16.63,1.29.7,1.53-.06-.12-.32-.57-.37-.66-.29-.49-.18-.76-1.23-.89.23.91.37.96,1.45,1.69-1.01-.73-1.39-.95-1.56-.88.22.3.44.6.76.85.27.07.59.12.86.07,0-.07.06-.12.13-.12.02,0,.03,0,.04,0,0,0,0-.02.02-.04ZM33,11.21l.38.71c-.03.61.16.87.78,1.79-.68-1.05-1.12-1.92-1.85-1.69-.06.54,1.33,1.64,1.91,1.75.03-.06.1-.09.16-.07.01,0,.03.01.04.02,0,0,.01-.01.03-.04.06-.19.17-.44.24-.63-.02-.39.14-1.3-.35-1.75-.63.13.03,2.09.01,2.33,0-.14-.09-.65-.1-.75-.09-.52-.13-.6-.7-1.04h.22s-.44-.83-.44-.83c-.03.05-.08.09-.14.08-.02,0-.04-.02-.06-.03,0,0,0,.02,0,.03-.01.07-.07.12-.13.12Z"/>
  <path class="cls-12" d="M29.14,27.02l-.08-.06.13-.29-.5.06.96-.72.02.08s.04.06.09.06c0,0,.01,0,.02,0l.13-.03-.07.11s-.01.02-.01.03c0,.03.02.06.06.07l.1.03-.84.64ZM29.37,26.53l-.12.27.52-.4s-.06-.08-.06-.13c0,0,0,0,0-.01-.05-.01-.09-.04-.12-.07l-.51.38.29-.04ZM30.25,26.06h0s-.04-.02-.05-.02l-.04-.02.02-.04s0-.02,0-.02c0-.04-.03-.07-.08-.07h-.04s0-.04,0-.04c-.11-.61.45-2.32,1-2.46h.03s.02.02.02.02c.28.35.2.73-.05,1.16.11-.07.23-.12.38-.17l.67-.73.03.08s.06.05.1.05c0,0,.01,0,.02,0l.11-.04-.05.11s0,.02,0,.04c0,.03.04.05.07.06h.11s-.71.8-.71.8h-.02c-.05.12-.09.22-.14.3.25-.11.48-.18.65-.14.09.02.17.07.21.14v.02s0,.03,0,.03c-.2.51-.85.73-1.27.88-.11.04-.2.07-.27.1h-.02c-.1,0-.22,0-.34,0-.12,0-.24,0-.34,0h0ZM30.43,25.95c.05,0,.11,0,.17,0,.11,0,.23,0,.32,0,.07-.03.16-.06.27-.1.4-.14,1-.34,1.19-.79-.03-.04-.08-.06-.13-.08-.19-.04-.47.07-.77.23-.12.13-.27.22-.48.34l-.04.03s-.14.08-.25.14c-.1.06-.21.12-.3.16-.06.04-.1.06-.13.07v-.03s0,.02,0,.03c0,0,0,0,0,0,.05,0,.1,0,.15,0ZM30.14,25.77s.08.05.11.09v-.02s.06-.03.11-.06c.07-.04.18-.11.28-.18.22-.15.5-.33.77-.48.13-.15.23-.36.35-.74-.45.12-.67.21-.89.46-.13.19-.28.39-.44.6-.08.11-.17.22-.25.34l-.04-.03s0,.01,0,.02ZM31.03,23.48c-.21.08-.45.46-.64.99-.16.43-.25.88-.25,1.18l.08-.11c.24-.35.41-.59.57-.76.35-.51.51-.93.25-1.29ZM31.92,24.21l-.07.28.44-.49s-.07-.07-.08-.12c0,0,0,0,0-.01-.05,0-.09-.02-.13-.05l-.43.47.28-.09ZM32.7,23.58h0s-.05,0-.06-.01h-.04s0-.06,0-.06c0,0,0-.02,0-.02,0-.04-.04-.06-.09-.06h-.04s-.01-.03-.01-.03c-.22-.58.02-2.36.53-2.6h.03s.03,0,.03,0c.33.29.33.68.17,1.15.1-.1.23-.18.39-.27l.34-.84.06.06s.07.03.11,0c0,0,.01,0,.02-.01l.09-.08v.12s0,.02,0,.03c.02.03.05.04.09.03l.1-.03-.39.98h-.08c-.02.14-.05.26-.09.36.22-.16.44-.26.61-.26.1,0,.18.04.24.1l.02.02v.03c-.11.54-.7.87-1.09,1.09-.1.06-.18.1-.25.15h-.02c-.1.03-.22.05-.33.07-.11.02-.23.04-.33.06h0ZM32.7,23.43s0,.02,0,.03c0,0,0,0,0,0,.09-.02.21-.04.31-.06.11-.02.23-.04.32-.06.07-.04.15-.09.25-.14.37-.21.92-.51,1.03-.99-.04-.03-.09-.05-.14-.05-.19,0-.45.16-.71.36-.1.15-.23.26-.41.42l-.04.03s-.13.1-.23.19c-.09.07-.18.15-.25.21-.05.05-.09.08-.12.09v-.02ZM32.55,23.32s.09.03.12.06h0s.06-.06.1-.09c.06-.06.15-.14.24-.23.19-.19.43-.42.68-.61.11-.17.16-.39.2-.79-.02.01-.05.02-.07.03l-.06-.09.22-.18.03.29.24-.61s-.09-.04-.12-.08c0,0,0,0,0-.01-.05.02-.09.01-.14,0l-.3.74h-.02c-.28.16-.44.29-.59.52-.09.21-.2.43-.32.67-.06.12-.12.25-.19.38l-.04-.02s0,.01,0,.02ZM33.01,20.9c-.19.12-.36.53-.45,1.09-.08.45-.09.91-.03,1.2l.06-.13c.18-.39.29-.65.42-.85.25-.57.34-1.01.01-1.32ZM34.42,20.57h-.05v-.05s-.01-.01-.02-.02c-.02-.03-.06-.04-.1-.02l-.04.02-.03-.03c-.41-.47-.81-2.22-.42-2.62l.02-.02h.03c.42.17.55.53.56,1.03.05-.1.11-.19.18-.28l.13-.93.07.03s.08,0,.1-.03c0,0,0-.01.01-.02l.06-.11.04.11s.01.02.02.03c.02.02.06.02.09,0l.09-.07-.06,1.06h-.03c.02.12.03.23.03.32.15-.23.32-.4.48-.46.09-.03.18-.03.26.01h.02s0,.04,0,.04c.09.55-.35,1.06-.64,1.41-.07.09-.14.16-.18.22h-.01c-.08.07-.19.13-.29.19-.1.06-.2.12-.28.17h-.02s-.04.02-.06.02ZM34.44,20.43s.01.01.02.02c0,0,0,0,0,0,.08-.05.18-.11.27-.16.1-.06.2-.12.28-.17.05-.06.11-.14.18-.22.27-.32.68-.8.62-1.29-.05-.02-.1-.02-.15,0-.18.06-.37.31-.54.6-.04.18-.12.33-.23.53l-.02.04s-.08.14-.14.25c-.06.1-.12.21-.17.29-.03.06-.06.1-.08.12l-.02-.02ZM34.3,20.37s.07,0,.09.02h-.01s.04-.07.07-.12c.04-.08.09-.19.15-.3.12-.24.26-.54.42-.81.03-.18.02-.38-.06-.71l.09-.03.04-.65s-.1,0-.13-.03c0,0,0,0,0,0-.04.03-.09.05-.14.05l-.09.66.07.07c-.22.24-.32.42-.38.69-.01.23-.04.48-.06.74-.01.13-.03.27-.04.42h-.04s0,0,.01.01c.01,0,.03,0,.04,0ZM33.83,17.95c-.13.18-.15.62-.04,1.18.09.45.24.89.39,1.14v-.14c.04-.42.05-.71.1-.94.03-.62-.04-1.06-.45-1.24ZM35.01,17.24l-.02-.04s0-.01-.02-.02c-.03-.02-.07-.02-.11.01l-.03.03-.03-.02c-.55-.29-1.55-1.78-1.33-2.3v-.03s.05,0,.05,0c0,0,0,0,0,0,.44,0,.69.29.88.75.01-.13.04-.26.1-.41l-.27-.95h.08s.07,0,.09-.05c0,0,0-.01,0-.02l.02-.12.07.1s.02.02.03.02c.03.01.07,0,.09-.03l.06-.09.31,1.01-.04.03c.09.14.15.25.19.36.06-.27.15-.49.29-.6.07-.06.16-.09.25-.08h.03s.01.03.01.03c.28.48.06,1.12-.09,1.54-.04.11-.07.2-.09.27v.02c-.07.08-.14.18-.22.27-.07.09-.15.18-.2.26h-.01s-.04.04-.05.04l-.04.02ZM35.01,17.08s.02,0,.02.02c0,0,0,0,0,0,.06-.08.13-.16.19-.25.07-.09.14-.18.2-.26.02-.08.05-.17.09-.27.14-.4.35-.99.11-1.43-.05,0-.1.02-.14.06-.15.12-.23.42-.29.75.03.18,0,.35-.03.58v.05s-.03.16-.05.28c-.02.11-.04.24-.05.33,0,.07-.02.11-.03.14h-.03ZM34.8,17.08s.01,0,.02.01c.04-.03.09-.04.13-.03h-.02s.02-.08.02-.13c.01-.09.02-.21.03-.33.02-.27.05-.6.1-.91-.03-.2-.14-.4-.37-.73-.05.12-.09.22-.12.31l-.03.13h0c-.05.18-.06.34-.03.54.07.22.14.46.2.71.04.13.07.27.11.4h-.04ZM33.56,14.98c-.06.21.08.64.38,1.12.24.39.54.74.77.92l-.04-.14c-.13-.41-.21-.68-.25-.91-.19-.59-.42-.98-.86-.99ZM34.38,14.37l.18.61.07-.29.15.15h0s.06.06.06.06l-.19-.63s-.1.03-.14,0c0,0,0,0-.01,0-.03.04-.07.07-.11.08ZM34.24,13.83h-.04c-.61-.12-2.01-1.25-1.95-1.81v-.03s.04-.01.04-.01c.42-.14.75.07,1.07.46-.04-.15-.05-.31-.04-.49l-.41-.77h.09s.07-.04.08-.08c0,0,0-.01,0-.02v-.12l.09.08s.02.01.03.02c.03,0,.06-.01.08-.05l.05-.09.53,1.02h-.15c.14.1.23.19.31.27-.03-.32-.02-.61.09-.78.05-.08.12-.13.21-.15h.03s.02.01.02.01c.41.37.39,1.05.37,1.5,0,.11,0,.21,0,.29h0s0,.02,0,.02c-.03.1-.08.21-.12.32-.04.11-.09.22-.12.31v.02s-.04.03-.05.04l-.04.03-.03-.03s-.01,0-.02-.01c-.03-.01-.08,0-.1.05l-.02.03ZM34.16,13.7s.01,0,.02,0c.03-.04.07-.06.12-.07h-.02s0-.07-.01-.13c-.02-.09-.04-.2-.07-.32-.05-.23-.11-.51-.16-.79-.09-.15-.23-.28-.54-.51l-.14-.11.3.02-.36-.69s-.09.04-.14.03c0,0,0,0-.01,0-.02.04-.05.08-.09.1l.35.66h0c-.02.34.03.56.18.84.12.18.25.37.38.58.07.11.15.23.22.35l-.04.02ZM32.36,12.06c0,.22.27.58.7.96.35.3.74.55,1.01.65-.26-.38-.44-.64-.56-.87-.37-.53-.7-.85-1.15-.73ZM34.37,13.64s.02,0,.02,0c0,0,0,0,0,0,.03-.09.07-.2.11-.3.04-.11.08-.21.11-.3,0-.08,0-.17,0-.29.01-.42.04-1.05-.31-1.4-.05.02-.09.05-.12.1-.11.18-.1.53-.04.91.07.13.1.28.14.51,0,.05.02.16.04.29.02.11.03.23.05.33.01.07.02.12.01.15h-.03ZM32.79,10.73c-.3,0-.61-.12-.85-.23h-.01s0-.01,0-.01c-.33-.38-.67-.77-.82-1.08l-.03-.06h.07c.12-.04.34.08.64.32-.14-.24-.19-.5-.22-.95v-.08s.07.02.07.02c.46.15.69.28.81.43-.06-.33-.05-.58.1-.68l.04-.03.03.03c.28.28.43.91.53,1.34.01.05.02.09.03.13h0s0,.02,0,.02c-.01.1-.04.22-.06.34-.02.11-.04.23-.06.33v.02s-.03.04-.04.05l-.03.03-.04-.02s-.01,0-.02,0c-.04,0-.07.02-.09.06v.04s-.05,0-.05,0h0ZM32.74,10.63s.01,0,.02,0c.02-.04.06-.07.1-.09h-.02c-.02-.07-.09-.26-.15-.43-.04-.13-.08-.24-.09-.28-.04-.1-.07-.2-.09-.29-.09-.33-.14-.51-.85-.75.05.64.14.84.57,1.28.16.15.34.33.53.52l-.03.03ZM31.99,10.41c.19.08.42.18.65.21l-.11-.11c-.14-.14-.27-.26-.37-.37-.49-.46-.78-.64-.92-.69.19.33.55.73.75.96ZM32.92,10.53s.02,0,.03,0c0,0,0,0,0,0,.01-.09.03-.2.05-.31.02-.11.04-.23.06-.32,0-.04-.02-.08-.03-.12-.09-.37-.23-.97-.47-1.25-.18.23.1,1.1.26,1.57.07.21.12.35.12.42h-.03ZM30.61,8.05c-.22,0-.45-.05-.64-.09h-.01s0,0,0,0c-.32-.25-.54-.55-.76-.84l-.05-.07.06-.03c.09-.04.21-.01.42.09-.15-.2-.24-.44-.34-.84l-.02-.08h.08c.43.07.68.15.83.25-.02-.09-.02-.16.02-.2l.03-.03.04.02c.41.28.67.56.82.89v.02c0,.1,0,.22,0,.34s0,.24,0,.33h0s0,.02,0,.02c-.01.03-.02.04-.02.05l-.02.04-.04-.02s-.09.02-.1.07v.04s-.04,0-.04,0c-.08.02-.16.02-.25.02ZM30.01,7.86c.2.05.45.1.68.08l-.12-.08c-.25-.17-.45-.3-.6-.42-.3-.19-.52-.31-.64-.33.2.26.41.53.69.75ZM30.02,7.35c.21.14.46.32.79.55l-.03.04s.01,0,.02,0c.02-.05.05-.08.08-.11h-.01c-.03-.07-.14-.25-.22-.4-.06-.11-.12-.21-.14-.25-.04-.06-.07-.13-.1-.18-.06-.1-.11-.2-.15-.29-.12-.18-.31-.3-.86-.38.14.54.25.75.62,1.03ZM30.5,6.93c.08.14.16.28.21.37.13.23.24.41.26.49h-.02s.02,0,.03,0c0-.1,0-.21,0-.32s0-.23,0-.32c-.13-.29-.36-.54-.72-.79,0,.06.04.16.1.28.04.07.08.14.11.22.01.02.02.04.03.07Z"/>
  <path class="cls-1" d="M26.26,28.48c.38.19,1.23.38,1.73.46.32-.18.22-.31.02-.54-.49-.15-1.28-.36-1.74-.45-.22.14-.23.33-.02.53ZM23.63,27.62c.34.25,1.14.6,1.62.76.35-.12.27-.27.12-.52-.46-.24-1.19-.58-1.63-.76-.24.1-.28.28-.11.52ZM21.53,26.63c.33.27,1.1.67,1.57.86.35-.1.29-.25.15-.52-.44-.27-1.15-.66-1.58-.86-.25.08-.3.26-.15.51ZM19.51,25.18c.33.34.97.86,1.47,1.12.4-.07.34-.25.22-.55-.46-.34-1.03-.72-1.47-.99-.28.06-.37.13-.22.42ZM17.72,23.19c.3.47.89,1.2,1.41,1.63.48.01.46-.2.39-.59-.45-.51-.93-.95-1.39-1.37-.36.08-.52-.02-.42.33ZM16.57,21.42c.23.43.47.87.7,1.3.38.1.58,0,.6-.33-.27-.45-.55-.9-.82-1.36-.3,0-.5.09-.48.38ZM16.06,19.47c.1.43.19.85.29,1.28.3.18.5.13.59-.14-.13-.45-.25-.9-.37-1.35-.25-.07-.45-.04-.5.21ZM15.79,17.55c.06.39.11.78.17,1.17.26.18.44.15.54-.08-.08-.41-.16-.83-.24-1.24-.22-.08-.4-.07-.46.15ZM15.84,16.1c0,.32,0,.65-.01.97.19.18.34.18.45,0-.01-.35-.02-.69-.04-1.04-.17-.1-.31-.11-.4.06ZM15.89,14.86c0,.29,0,.58-.01.88.17.16.3.16.4,0-.01-.31-.02-.62-.03-.94-.15-.09-.28-.1-.36.06ZM16.25,13.55c-.09.32-.19.63-.28.95.13.23.28.27.44.13.08-.34.17-.69.25-1.03-.14-.14-.28-.19-.41-.05ZM16.56,12.09c-.09.32-.19.63-.28.95.13.23.28.27.44.13.08-.34.17-.69.25-1.03-.14-.14-.28-.19-.41-.05ZM17.35,10.72c-.19.27-.39.54-.58.81.05.26.17.35.37.26.19-.3.39-.59.58-.89-.09-.18-.2-.28-.37-.18ZM18.02,9.58c-.17.23-.33.46-.5.69.04.22.15.3.32.23.17-.25.33-.51.5-.76-.07-.15-.17-.23-.32-.15ZM18.87,8.7c-.2.17-.4.34-.6.51,0,.21.07.3.24.27.2-.19.41-.38.61-.57-.03-.15-.1-.25-.25-.21ZM28.53,29.07c.16.19,1.14.38,1.73.46.95-.24.6-.35.02-.54-.49-.15-1.07-.55-1.53-.65-.48.09-.62.49-.23.73Z"/>
  <path class="cls-13" d="M30.27,29.58h0c-.49-.06-1.56-.25-1.76-.47-.18-.12-.27-.27-.24-.43.04-.19.22-.34.49-.39h.01s.01,0,.01,0c.26.05.55.2.83.34.24.12.48.24.7.31h.02c.37.13.59.2.59.33,0,.09-.11.18-.63.31h0ZM28.76,28.39c-.22.04-.37.16-.4.3-.02.12.05.24.2.33h.01c.13.16.99.36,1.69.45.5-.12.54-.19.54-.21-.01-.05-.3-.15-.51-.22h-.02c-.23-.08-.48-.2-.72-.32-.27-.14-.55-.28-.79-.33ZM28,28.99h-.02c-.48-.07-1.35-.27-1.75-.46h-.01c-.12-.13-.18-.25-.17-.36.01-.1.08-.19.19-.27h.02s.02,0,.02,0c.46.1,1.24.3,1.74.45h.01s0,.02,0,.02c.13.15.21.25.19.37-.01.09-.09.17-.23.25h-.02ZM26.29,28.44c.36.17,1.16.37,1.69.45.1-.06.15-.11.16-.16.01-.07-.06-.16-.16-.27-.49-.15-1.24-.35-1.7-.44-.08.05-.12.11-.13.18,0,.08.04.16.13.25ZM25.26,28.44h-.02c-.46-.16-1.28-.51-1.64-.78h-.01c-.1-.15-.13-.28-.1-.39.03-.1.11-.17.24-.23h.02s.02,0,.02,0c.44.18,1.17.52,1.63.76h.01s0,.02,0,.02c.09.14.17.28.12.4-.03.08-.12.15-.27.2h-.02ZM23.67,27.58c.32.23,1.07.57,1.58.75.11-.04.17-.08.19-.13.02-.07-.03-.16-.11-.3-.45-.24-1.15-.56-1.59-.74-.09.04-.14.09-.16.15-.02.07,0,.17.08.27ZM23.1,27.55h-.02c-.45-.19-1.24-.59-1.59-.88h-.01c-.09-.16-.12-.29-.08-.39.03-.1.12-.17.25-.21h.02s.02,0,.02,0c.42.2,1.13.59,1.58.86h.01s0,.02,0,.02c.08.15.15.29.1.41-.04.08-.13.14-.28.18h-.02ZM21.58,26.59c.31.25,1.03.64,1.53.84.11-.03.18-.07.2-.12.03-.06-.02-.17-.09-.3-.44-.27-1.12-.64-1.54-.84-.09.03-.14.08-.17.14-.03.07,0,.17.06.28ZM20.97,26.37h-.02c-.49-.27-1.14-.79-1.48-1.14h0c-.07-.17-.09-.27-.05-.34,0-.02.02-.03.03-.04-.08.03-.18.05-.31.04h-.02s-.01-.01-.01-.01c-.51-.42-1.1-1.14-1.42-1.64h0c-.04-.15-.04-.23,0-.28.04-.07.13-.08.24-.09.06,0,.14-.02.22-.04h.03s.17.15.17.15c.41.38.84.78,1.24,1.24h0s0,.03,0,.03c.05.25.07.42-.03.54,0,0,0,0,0,0,.05-.02.11-.04.19-.06h.02s.02,0,.02,0c.39.24.98.63,1.47,1h.01s0,.02,0,.02c.08.2.13.34.06.45-.05.08-.15.14-.33.17h-.02ZM19.56,25.15c.34.35.96.85,1.43,1.1.13-.02.21-.06.23-.11.04-.07,0-.19-.06-.35-.48-.36-1.05-.73-1.43-.97-.12.03-.2.06-.22.1-.02.04,0,.12.05.23ZM19.15,24.77c.16,0,.26-.02.31-.08.07-.08.05-.23,0-.43-.4-.45-.82-.84-1.23-1.22l-.12-.12c-.08.02-.15.02-.21.03-.08,0-.15.02-.16.04-.01.02,0,.08.02.17.32.49.89,1.19,1.38,1.6ZM17.52,22.81c-.08,0-.16-.01-.26-.04h-.02s-.72-1.34-.72-1.34h0c0-.14.02-.24.09-.32.09-.09.23-.13.44-.13h.03s.84,1.39.84,1.39v.02c0,.16-.06.27-.15.34-.07.05-.15.07-.25.07ZM17.31,22.67c.18.04.32.04.4-.02.06-.05.1-.13.11-.25l-.8-1.31c-.16,0-.27.04-.33.1-.05.05-.07.12-.06.21l.69,1.27ZM16.65,20.91c-.1,0-.21-.04-.34-.11h-.02s0-.03,0-.03c-.1-.43-.19-.85-.29-1.28h0s0-.02,0-.02c.02-.11.08-.19.15-.24.1-.06.23-.06.41,0h.03s0,.04,0,.04c.11.39.22.79.33,1.18l.05.19v.02c-.05.14-.12.22-.22.26-.04.01-.07.02-.11.02ZM16.39,20.71c.14.08.26.11.34.07.06-.02.11-.08.15-.18l-.04-.15c-.11-.38-.21-.77-.32-1.15-.14-.04-.23-.03-.3,0-.05.03-.08.08-.1.16.09.42.19.83.28,1.25ZM16.25,18.89c-.09,0-.2-.04-.32-.13h-.02s-.17-1.21-.17-1.21h0c.03-.11.08-.18.16-.22.09-.05.22-.04.38.02h.03s.25,1.29.25,1.29v.02c-.06.12-.13.19-.22.22-.03,0-.05.01-.08.01ZM16.01,18.69c.12.08.22.11.29.09.06-.02.1-.06.14-.14l-.23-1.19c-.12-.04-.2-.04-.26-.01-.04.02-.08.07-.1.13l.16,1.13ZM16.08,17.27c-.09,0-.18-.05-.29-.15l-.02-.02v-1.01s.02-.01.02-.01c.04-.08.09-.13.16-.15.08-.03.19,0,.31.07h.03s0,.04,0,.04c.01.34.02.67.03,1.01v.05s0,.01,0,.01c-.06.09-.13.15-.21.16,0,0-.02,0-.03,0ZM15.88,17.05c.08.08.16.11.22.1.04,0,.09-.04.12-.09v-.02c-.01-.33-.02-.65-.03-.98-.08-.04-.15-.06-.2-.04-.04.01-.07.04-.09.09v.94ZM16.11,15.91c-.08,0-.17-.05-.26-.14l-.02-.02v-.02c0-.29,0-.58.01-.88h0s0-.02,0-.02c.04-.07.09-.12.15-.14.02,0,.03,0,.05,0-.04-.04-.08-.09-.12-.16v-.02s.28-.99.28-.99h0c.06-.08.13-.11.2-.12.09,0,.18.05.29.15l.02.02-.26,1.08h-.01c-.05.06-.11.09-.16.1h.02s.03,1,.03,1h0c-.05.1-.12.15-.19.16,0,0-.02,0-.03,0ZM15.93,15.71c.07.07.14.1.19.09.04,0,.07-.03.11-.08l-.03-.89c-.07-.04-.13-.05-.17-.04-.03,0-.06.03-.08.08,0,.28,0,.56-.01.84ZM16.02,14.49c.06.1.12.15.18.16.05,0,.1-.01.15-.06l.24-.99c-.07-.07-.13-.1-.19-.1-.04,0-.08.02-.12.06l-.27.92ZM16.54,13.31s-.02,0-.04,0c-.1-.02-.19-.09-.27-.23v-.02s0-.02,0-.02c.09-.32.19-.63.28-.95h0s0-.02,0-.02c.06-.07.13-.1.2-.11.09,0,.18.05.29.15l.02.02-.26,1.08h-.01c-.07.08-.14.11-.21.11ZM16.34,13.04c.06.1.12.15.18.16.05,0,.1-.01.15-.06l.24-.99c-.07-.07-.13-.1-.19-.1-.04,0-.08.02-.12.06-.09.31-.18.61-.27.92ZM17.01,11.88s-.08,0-.12-.03c-.09-.05-.15-.15-.18-.31v-.02s0-.02,0-.02c.19-.27.39-.54.58-.81h0s.01-.02.01-.02c.08-.04.16-.06.22-.03.09.03.16.1.22.24v.03s-.59.93-.59.93h-.02c-.05.03-.11.04-.15.04ZM16.82,11.54c.03.11.07.19.12.21.04.02.09.02.16,0l.55-.85c-.04-.09-.09-.14-.14-.15-.04-.01-.08,0-.13.02-.19.26-.37.52-.56.78ZM17.73,10.57s-.07,0-.1-.02c-.08-.04-.13-.13-.16-.27v-.02s.51-.72.51-.72h.01c.07-.05.14-.06.2-.04.08.02.14.09.19.21v.03s-.51.8-.51.8h-.02s-.09.04-.13.04ZM17.58,10.28c.02.09.05.15.1.17.03.02.07.02.13,0l.47-.72c-.04-.07-.08-.11-.12-.12-.03,0-.06,0-.1.02l-.48.66ZM18.46,9.53c-.06,0-.11-.02-.15-.05-.06-.06-.09-.15-.08-.28v-.02s.18-.15.18-.15c.14-.12.29-.24.43-.37h0s.01-.01.01-.01c.07-.02.14-.01.19.02.06.04.11.11.13.23v.03s-.02.02-.02.02c-.2.19-.41.38-.61.57h-.01s-.02.01-.02.01c-.02,0-.04,0-.06,0ZM18.33,9.23c0,.08.02.14.05.17.02.02.06.03.11.02.19-.18.38-.36.58-.54-.02-.07-.04-.11-.07-.13-.02-.01-.05-.02-.09,0-.14.12-.28.24-.42.36l-.15.12Z"/>
  <path class="cls-5" d="M23.35,26.83c.41-.17.82-.34,1.22-.51.37-.08.75,0,1.12.22l1.85,2.72c-.3.2-.6.41-.9.61-.39-.1-.73-.2-1.02-.31-.76-.91-1.52-1.82-2.28-2.73Z"/>
  <path class="cls-12" d="M26.66,29.94h-.03c-.39-.11-.74-.21-1.02-.32h-.02s-.01-.02-.01-.02l-2.33-2.8,1.32-.55c.39-.08.78,0,1.17.23h.01s0,.02,0,.02l1.89,2.77-.98.67ZM25.66,29.51c.27.1.6.19.97.29l.82-.56-1.81-2.65c-.35-.21-.71-.28-1.05-.21l-1.13.47,2.21,2.65Z"/>
  <path class="cls-5" d="M26.25,27.36c.08-.21.17-.43.25-.64.12-.31.44-.47.97-.48,3.06.58,5.85.06,8.48-1.07-.45.52-.89,1.04-1.34,1.56.75.07,1.5.14,2.25.21-3.38,1.18-6.81,1.64-10.32.85l-.29-.43Z"/>
  <path class="cls-12" d="M30.09,28.26c-1.21,0-2.4-.13-3.57-.39h-.03s-.33-.5-.33-.5l.02-.04c.07-.19.15-.39.23-.58l.02-.06c.13-.34.49-.52,1.04-.54h0s0,0,0,0c2.78.53,5.54.18,8.43-1.07l.1.13-1.24,1.43c.65.06,1.3.12,1.95.19h.14s.02.18.02.18c-2.39.83-4.64,1.25-6.8,1.25ZM26.59,27.71c3.09.69,6.32.45,9.87-.73-.62-.06-1.24-.12-1.87-.18l-.16-.02,1.21-1.41c-2.8,1.15-5.48,1.45-8.19.94-.48.01-.77.15-.88.43l-.02.06c-.07.18-.14.36-.21.54l.25.36Z"/>
  <path class="cls-5" d="M16.21,24.17c2.27,1.82,5.79,2.9,8.5,4.29.13.15.25.31.38.46-.33.2-.65.4-.98.61-.37.13-.75.08-1.12,0-2.59-.84-5.9-2.47-7.72-3.71.56-.03,1.11-.05,1.67-.08-.25-.53-.49-1.05-.74-1.58Z"/>
  <path class="cls-12" d="M23.62,29.67c-.22,0-.44-.04-.64-.08-2.48-.8-5.81-2.4-7.74-3.72l-.17-.11,1.77-.08-.7-1.49.1-.08c1.49,1.19,3.53,2.07,5.5,2.92,1.01.44,2.06.89,2.99,1.37h.01s0,.02,0,.02c.13.15.25.31.38.46l.05.06-1.06.65c-.17.06-.35.08-.52.08ZM15.49,25.88c1.94,1.29,5.14,2.81,7.53,3.58.32.06.7.12,1.07,0l.91-.56c-.11-.13-.22-.26-.32-.39-.92-.47-1.92-.9-2.97-1.36-1.89-.81-3.83-1.65-5.31-2.77l.67,1.42-1.57.07Z"/>
  <path class="cls-8" d="M31.43,8.17c0-.08-.06-.14-.13-.14-.01,0-.02,0-.03,0,0-.02.01-.04.01-.07,0-.08-.06-.14-.13-.14-.05,0-.09.03-.11.07-.02-.02-.05-.03-.08-.03-.07,0-.13.06-.13.14,0,.02,0,.04.01.06-.03.03-.05.07-.05.11,0,.08.06.14.13.14.02,0,.04,0,.05-.01,0,0,0,.01,0,.02,0,.08.06.14.13.14s.13-.06.13-.14c0,0,0-.02,0-.03.02.01.04.02.06.02.07,0,.13-.06.13-.14Z"/>
  <path class="cls-13" d="M31.12,8.52c-.09,0-.16-.07-.18-.15-.1,0-.18-.09-.18-.2,0-.05.01-.09.04-.12,0-.02,0-.03,0-.05,0-.11.08-.2.18-.2.02,0,.05,0,.07.01.03-.03.08-.05.12-.05.1,0,.18.09.18.2,0,0,0,0,0,.01.08.02.14.1.14.19,0,.11-.09.21-.19.2-.02.09-.09.15-.18.15ZM31.06,8.21v.1s-.01,0-.01.02c0,.05.03.09.07.09s.07-.04.07-.09c0,0,0-.01,0-.02l-.02-.12.1.07s.11-.02.11-.08c0-.05-.03-.09-.07-.09,0,0-.01,0-.01,0l-.11.04.05-.11s0-.03,0-.05c0-.05-.03-.09-.07-.09-.02,0-.05.02-.06.04l-.03.06-.05-.05s-.02-.02-.04-.02c-.04,0-.07.04-.07.09,0,.01,0,.03,0,.04v.03s-.01.03-.01.03c-.02.02-.03.04-.03.07,0,.06.06.11.1.08l.09-.05Z"/>
  <path class="cls-6" d="M16.82,21.89c.01-.25.11-.77.2-1.21.02-.13-.1-1.46.04-1.53.68,1.27.36,3.33.11,3.27-.12.18-.23-.71-.35-.53Z"/>
  <path class="cls-12" d="M17.14,22.45s0,0,0,0c-.05,0-.09-.12-.15-.29-.04-.12-.09-.27-.13-.28,0,0-.02,0-.03.02l-.02.03v-.04c.01-.21.08-.6.15-.97.02-.08.03-.16.04-.24,0-.04,0-.2,0-.4-.02-.59-.04-1.09.06-1.14h0s0,0,0,0c.36.67.41,1.5.41,1.94,0,.66-.12,1.16-.23,1.3-.03.03-.05.05-.08.04-.01.02-.02.02-.04.02ZM16.86,21.85s0,0,0,0c.05,0,.09.12.15.29.04.12.09.27.13.28,0,0,.02,0,.03-.02h0s0,0,0,0c.02,0,.04,0,.06-.04.11-.13.22-.63.22-1.29,0-.43-.05-1.25-.4-1.92-.08.08-.05.72-.04,1.11,0,.2.01.36,0,.4-.01.08-.03.16-.04.24-.07.36-.14.73-.15.94,0,0,.01,0,.02,0Z"/>
  <path class="cls-6" d="M18.44,9.09c.04-.26.06-.5-.09-.61-.57-.06-.96.51-1.58.57.43-.06.92-.22,1.28-.13.11.18.22.36.33.54.02-.12.04-.24.06-.36ZM18.96,8.63l.17-.76-.68.38h.32v.63h.51s.07.41.07.41l.16-.74,1.64-1.03-1.66.86,1.51-1.45-1.32,1.02.54-.92-1.26,1.61ZM20.05,25.66c-.1.03-.2.05-.26.07-.07.02-1.18.02-1.22.1.49.22,1.31.17,1.8.08-.11-.08-.21-.16-.32-.25ZM17.93,24.84c.05-.13-.18-.62.02-.65.19-.03.45.06.7.17.16.17.33.33.49.47.16,0,.27-.02.33-.06.01.04.02.07.03.09-.06.05-.07.13,0,.28-.25.05-.89-.33-1.33-.61-.32-.05-.08.13-.24.31ZM20.26,24.19c-.04-.08-.13-.21-.25-.34-.06-.31-.12-.65-.17-.66-.04.12-.05.26-.06.4-.14-.16-.28-.31-.35-.41-.12-.17-.22-.38-.4-.45-.12.48-.06.77.01,1,.06.06.12.12.18.18,0-.11-.01-.22.06-.25.09.1.31.18.52.27.03.36.12.72.21,1,.15.09.3.19.45.3-.07-.21-.26-.65-.34-.85,0-.02-.03-.16-.06-.33.09.04.17.09.21.14ZM18.05,23.61c-.13-.12-.63-.29-.89-.47-.08-.05-1.26-.74-1.36-.71.14.57.45,1.09.75,1.2.3.11,1.56.3,1.68.33.15.03-.32-.38-.17-.35ZM16.79,22.12c-.09-.08-.2-.16-.33-.25-.08-.05-.61-.28-.71-.25.14.57.45.81.75.93.3.11.59.09.7.12.08.02-.03-.1-.11-.21.03,0,.06-.01.09-.05.25.07.57-2-.11-3.27-.14.07-.02,1.39-.04,1.53-.06.34-.17,1.02-.23,1.45ZM22.03,26.29c-.08-.22-.25-.62-.32-.8,0,0,0-.03-.02-.07.36.05.72.1.8.19-.09-.21-.47-.43-.88-.61-.06-.32-.13-.68-.18-.7-.05.17-.07.38-.06.59-.04-.01-.07-.03-.1-.04-.04-.24-.11-.48-.22-.65-.03.02,0,.32.02.57-.18-.07-.33-.12-.42-.15-.1.39-.08.59-.04.72.07.04.13.09.2.14,0-.11-.01-.22.06-.25.03.04.12.07.23.1-.01.11-.02.23-.03.34.05.03.09.07.14.1.02.05.04.09.05.13.05-.01.08-.23.07-.52.04,0,.07.01.11.02.05.29.12.56.2.75.02,0,.03-.01.05-.02.1.05.22.11.35.18ZM16.56,13.3c.34-.26.69-.46,1.03-.81.18-.43.27-.86.33-1.29-.39.6-.78,1.2-1.17,1.81-.01.06-.03.12-.04.18-.04.04-.08.06-.12.07-.01.02-.02.03-.03.05ZM16.72,12s0-.03,0-.04c.03-.1.05-.2.08-.31-.01-.04-.03-.08-.03-.12.03-.05.07-.09.1-.14.14-.56.28-1.11.41-1.67-.33.64-.69,1.28-.9,1.92-.04.35-.02.68.02,1.01.06-.19.11-.37.17-.56.05-.06.1-.09.16-.09ZM16.52,13.47c0-.07.02-.14.03-.22-.02,0-.04,0-.06,0,.01.07.02.15.03.22ZM15.85,16.08c-.11-.48-.23-1.1-.44-1.39-.21-.29-.73-.51-1.05-.62.04,1.21.36,1.12.12,1.8.25-.21.24.1.48-.93.23.25.59,1.02.87,1.45,0-.1,0-.19,0-.29,0,0,0-.01.01-.02ZM16,14.75c0-.07-.02-.15-.03-.23,0,0,0-.01-.01-.02,0,0,0-.02,0-.02-.05-.49-.07-1.09-.02-2.11-.16.62-.44,1.08-.47,1.85.11.61.25.99.4,1.31,0-.22,0-.45,0-.67.03-.06.07-.1.11-.11ZM16.14,15.99s.06.03.1.05c0,.02,0,.03,0,.05.12-.21.24-.43.32-.52.14.62.41,1.34.56,1.47-.14-.41-.22-1.26-.2-1.99-.19.07-.51.2-.63.37,0,.01-.02.03-.03.04,0,.1,0,.19,0,.29-.04.07-.09.11-.15.12,0,0,0,0,0,0h0s0,0,0,0c-.03,0-.06,0-.09-.01.02.04.04.08.06.12,0,0,0,0,0,.01,0,0,0,0,0,0h0s0,0,0,0h0s0,0,0,0c0,0,0,0,0,0h0s0,0,0,0c0,0,0,0,0,0h0s0,0,0,0h0s0,0,0,0h0s0,0,0,0h0s0,0,0,0h0s0,0,0,0c0,0,0,0,0,0h0s0,0,0,0c0,0,0,0,0,0s0,0,0,0c0,0,0,0,0,0h0s0,0,0,0h0s0,0,0,0c0,0,0,0,0,0,0,0,0,0,0,0h0s0,0,0,0h0s0,0,0,0h0s0,0,0,0c0,0,0,0,0,0h0s0,0,0,0h0s0,0,0,0h0s0,0,0,0h0s0,0,0,0h0s0,0,0,0h0ZM16.61,13.55c.17-.29.4-.53.77-.66-.12,1.25-.18,2.41.2,3.04-.41-.19-.59-1.4-.57-2.46-.16.17-.32.4-.48.62.04-.17.08-.33.12-.5-.02-.02-.03-.03-.05-.05ZM16.28,19.1s0-.01,0-.02c.16-.2.23-.92.39-1.1.14.61.45.88.6,1.01-.08-.37-.33-.95-.54-1.79-.19.07-.31.02-.44.19-.16.22-.11,1.21-.05,1.59-.15-.47-.27-1.51-.55-1.89-.21-.29-.59-.18-.91-.3.04,1.21-.07,2.99-.31,3.67.25-.21.57-1.65.81-2.68.27.3.69.97.97,1.28,0,0,0,.02,0,.03,0,0,0,0,0,0,0,0,0,0,0,.01ZM17.63,10.4l.54-.09.76-.44-.54.7-.76-.17ZM16.59,21.26c-.18-.34-.44-.82-.57-.99-.12-.17-.22-.38-.4-.45-.22.84-.48,1.26-.56,1.63.15-.13.47-.28.62-.89.13.14.61.58.9.84,0-.06,0-.11.02-.15Z"/>
  <path class="cls-12" d="M22.16,26.43l-.15-.08c-.13-.07-.24-.12-.33-.16,0,0-.01,0-.02,0l-.07.03-.02-.07c-.07-.19-.13-.41-.17-.64,0,.4-.09.42-.12.43h-.06s-.02-.04-.02-.04c-.01-.03-.03-.07-.04-.11-.04-.03-.08-.06-.12-.09l-.03-.02v-.04c.01-.09.02-.19.03-.28-.06-.02-.11-.04-.15-.06,0,.04,0,.09,0,.13v.16s-.1-.08-.1-.08c-.06-.05-.13-.09-.19-.13l-.16-.11c-.14-.1-.3-.2-.45-.3h-.02s0-.04,0-.04c-.1-.3-.18-.66-.21-.97-.18-.07-.34-.14-.45-.22,0,.04,0,.09,0,.12v.2s-.11-.12-.11-.12c-.06-.06-.12-.12-.18-.18h-.01s0-.03,0-.03c-.07-.24-.14-.55-.01-1.03l.02-.07.07.02c.17.06.26.21.36.35.03.04.05.08.08.12.05.07.14.18.24.29.01-.1.03-.18.05-.26l.02-.06.06.02c.06.02.1.05.22.69.14.16.21.27.25.34l-.11.07s-.04-.04-.07-.06c.02.09.03.16.03.18l.07.16c.09.22.22.53.28.69h0c-.02-.12,0-.3.07-.6l.02-.07.13.05c.07.03.16.06.26.1-.05-.47-.03-.5.02-.53l.06-.03.03.05c.09.13.15.31.2.53,0-.16.03-.29.06-.41l.02-.06.06.02c.06.02.1.06.22.71.51.23.79.44.88.63l-.11.07c-.06-.06-.38-.11-.66-.15l.05.11c.08.2.2.48.26.66l.06.16ZM21.69,26.04h.02c.06.04.12.07.2.11-.06-.16-.14-.34-.2-.49l-.06-.15s-.01-.03-.02-.08l-.02-.09h.09c.24.05.43.07.57.11-.12-.1-.33-.23-.68-.39h-.03s0-.05,0-.05c-.04-.22-.07-.36-.09-.46-.01.1-.02.22-.01.34v.1s-.23-.1-.23-.1v-.04c-.03-.14-.06-.26-.1-.37,0,.07.02.16.03.28v.11s-.09-.04-.09-.04c-.14-.05-.26-.1-.35-.13-.08.32-.06.49-.03.59.02.02.05.03.07.05,0-.08.03-.16.1-.18h.04s.03.02.03.02c0,.01.05.04.2.08h.06s0,.07,0,.07c0,.1-.02.2-.03.3.04.03.07.05.11.08,0-.08.02-.19.01-.34v-.08s.08.01.08.01c.04,0,.07.01.11.02h.05s0,.06,0,.06c.04.23.1.48.17.68h.02ZM20.06,24.89c.09.06.17.11.26.17-.06-.16-.14-.34-.2-.49l-.07-.16s-.02-.1-.06-.33l-.03-.15.06.03s-.04-.05-.06-.07h-.01s0-.03,0-.03c-.04-.2-.06-.33-.08-.42,0,.05,0,.1-.01.16v.16s-.14-.15-.14-.15c-.14-.15-.26-.29-.34-.39-.03-.04-.05-.08-.08-.12-.07-.11-.14-.21-.22-.27-.09.4-.04.65.02.86.02.02.04.04.05.06,0-.07.03-.13.1-.15h.04s.03.02.03.02c.07.08.27.16.47.24l.07.03v.04c.03.31.1.65.2.96ZM19.5,26.06c-.34,0-.69-.04-.96-.16l-.06-.03.02-.06c.03-.07.12-.1.97-.13.13,0,.27,0,.29-.01l.29-.08.03.02c.1.08.21.17.31.24l.12.09-.15.03c-.21.04-.54.08-.88.08ZM18.81,25.85c.4.1.95.09,1.39.02-.06-.04-.11-.09-.17-.13l-.23.06s-.1,0-.32.02c-.17,0-.47.02-.67.03ZM19.45,25.21c-.29,0-.86-.33-1.31-.62-.05,0-.08,0-.09,0,0,0,0,.03,0,.04,0,.07,0,.16-.08.26l-.11-.07s-.01-.15-.03-.22c-.04-.16-.07-.31,0-.4.02-.03.06-.06.1-.06.21-.03.48.07.73.18h.01s0,.02,0,.02c.16.17.32.32.47.45.13,0,.22-.02.27-.05l.08-.05.03.09s.02.06.03.08l.02.05-.04.03s-.05.05.01.2l.03.08-.08.02s-.04,0-.06,0ZM18.08,24.45s.06,0,.1,0h.01s.01.01.01.01c.55.36.98.57,1.19.6-.02-.07-.03-.14,0-.21-.07.02-.16.03-.28.03h-.02s-.02-.02-.02-.02c-.15-.13-.32-.28-.49-.46-.22-.1-.47-.19-.65-.16,0,0-.01,0-.01,0-.02.04,0,.14.01.24,0,0,0,0,0,0,.03-.02.06-.04.12-.04ZM18.23,24.03s-.02,0-.02,0c-.03,0-.17-.03-.33-.06-.45-.08-1.14-.19-1.36-.27-.31-.12-.63-.63-.79-1.25l-.02-.06.06-.02c.15-.06,1.41.71,1.42.72.12.08.31.17.48.25.18.09.34.16.41.22l.18.16-.12-.02s.03.03.04.05c.1.12.16.19.12.25,0,.01-.03.04-.07.04ZM15.9,22.52c.15.52.43.95.67,1.05.21.08.91.2,1.33.27.1.02.17.03.22.04-.01-.02-.03-.03-.04-.05-.08-.09-.13-.16-.13-.21-.08-.05-.2-.11-.33-.16-.17-.08-.37-.17-.5-.26-.1-.07-.94-.55-1.23-.67ZM18.05,23.61v.07s-.01,0-.01,0v-.07ZM17.21,22.74s-.02,0-.02,0c-.03,0-.09-.01-.15-.02-.15-.01-.35-.03-.56-.11-.4-.15-.66-.48-.79-.97v-.06s.04-.02.04-.02c.14-.05.71.22.77.25.08.06.16.12.24.18.06-.41.16-1,.21-1.33,0-.03,0-.21,0-.38-.04-.89-.02-1.14.09-1.19l.06-.03.03.06c.62,1.14.44,2.97.18,3.3-.03.04-.07.06-.09.06,0,0-.01.01-.02.02.08.1.12.15.09.21,0,.01-.03.04-.07.04ZM15.84,21.69c.12.41.35.67.68.79.19.07.38.09.52.1.02,0,.04,0,.06,0-.02-.02-.03-.04-.04-.05l-.13-.15h.16s.02.01.03-.01l.03-.04h.04s.05-.04.09-.17c.16-.5.26-1.86-.2-2.85-.02.23,0,.7,0,.95,0,.24.01.37,0,.41-.07.36-.18,1.04-.23,1.44l-.02.12-.09-.08c-.11-.09-.21-.17-.33-.25-.07-.05-.42-.19-.58-.23ZM14.95,21.62l.04-.19c.03-.17.1-.34.19-.56.11-.27.25-.61.37-1.08l.02-.07.07.02c.17.06.26.21.36.35.03.04.05.08.08.11.13.18.39.65.57,1v.02s0,.03,0,.03c-.01.04-.02.08-.01.13v.16s-.11-.11-.11-.11c-.1-.1-.23-.21-.36-.33-.18-.17-.35-.32-.46-.43-.14.46-.38.64-.54.75-.03.02-.05.04-.07.06l-.15.12ZM15.66,19.91c-.12.44-.25.76-.35,1.02-.05.13-.1.24-.13.35.15-.12.34-.31.43-.73l.03-.12.09.1c.08.09.31.3.54.51.09.08.18.16.26.24-.18-.35-.43-.79-.55-.96-.03-.04-.05-.08-.08-.12-.07-.11-.14-.21-.23-.27ZM14.33,20.68l.08-.23c.23-.66.34-2.41.3-3.65v-.1s.09.03.09.03c.1.04.22.05.33.06.22.02.45.05.6.26.17.23.28.67.37,1.1,0-.34.03-.66.12-.79.1-.14.21-.16.31-.18.05,0,.1-.02.15-.04l.07-.02.02.07c.12.45.24.83.34,1.13.09.27.16.49.2.66l.04.19-.15-.12c-.13-.11-.41-.35-.58-.88-.04.11-.08.26-.12.39-.06.24-.12.46-.2.57l-.03-.02h0s.03.03.03.03c0,0-.01.01-.02.02l-.08.07-.03-.1s0,0,0-.01c-.14-.16-.3-.39-.47-.62-.14-.2-.28-.4-.41-.55l-.02.09c-.3,1.3-.55,2.3-.78,2.5l-.19.16ZM14.85,16.89c.02.96-.04,2.19-.17,3.01.17-.51.35-1.28.49-1.9l.08-.34.09.1c.14.16.32.41.5.66.09.13.19.27.28.39-.03-.12-.06-.26-.09-.4-.1-.48-.22-1.02-.39-1.27-.12-.16-.3-.18-.51-.2-.09,0-.18-.02-.27-.04ZM16.67,17.29s-.07.02-.11.02c-.1.02-.16.03-.23.12-.13.18-.11,1.02-.05,1.46.04-.1.07-.24.11-.37.06-.25.12-.48.22-.58l.09-.1.03.12c.1.42.27.67.41.82-.04-.12-.08-.27-.14-.43-.1-.29-.22-.65-.33-1.07ZM17.27,17.24l-.19-.16c-.16-.13-.41-.8-.55-1.36-.07.1-.14.24-.22.38l-.13.23v-.25s-.04-.02-.06-.02h-.09s0-.03,0-.03h-.02s0-.05,0-.05l-.13-.25.16.06s.04.01.06,0h0s.06-.03.09-.07v-.29s0-.02,0-.02c0-.02.02-.03.03-.05.13-.18.43-.31.66-.4l.09-.03v.1c-.03.75.06,1.58.19,1.97l.08.23ZM16.6,15.42l.03.12c.09.39.21.76.32,1.03-.07-.41-.1-.94-.09-1.44-.25.1-.43.21-.51.31,0,0,0,.01-.01.02v.29s0,.02,0,.02c-.05.07-.1.12-.16.14h0s.03,0,.03,0v.02s.02,0,.03.01c.1-.19.2-.36.28-.44l.09-.09ZM15.9,16.62l-.12-.19c-.11-.17-.23-.4-.36-.62-.15-.27-.3-.54-.42-.72-.15.65-.2.69-.34.75-.04.02-.08.03-.13.08l-.19.16.08-.23c.12-.35.09-.48.02-.73-.06-.21-.13-.5-.15-1.05v-.1s.09.03.09.03c.38.14.87.36,1.08.64.02.03.04.06.06.1-.04-.15-.08-.33-.11-.52h0s0-.02,0-.02c.03-.52.16-.91.29-1.29.06-.18.13-.37.18-.58l.13.02c-.06,1.1-.03,1.7.01,2.1h0s0,.02,0,.02h0s0,.02,0,.02c0,.08.02.15.03.23v.05s-.04.02-.04.02c-.03,0-.05.03-.07.07v.65s-.14.03-.14.03c-.01-.03-.03-.06-.04-.09.04.15.07.3.1.45l.04.18v.02s-.01,0-.01,0v.5ZM14.94,14.8l.09.1c.14.16.33.49.52.85.08.14.16.28.23.41v-.07s0-.01,0-.01l-.03-.13c-.1-.45-.22-.97-.39-1.22-.14-.19-.46-.39-.92-.56.02.48.09.73.14.92.06.22.1.36.03.63,0,0,0,0,0,0,.09-.04.12-.05.29-.79l.03-.12ZM15.55,14.21c.08.44.18.75.27,1v-.37s.01-.01.01-.01c.03-.05.06-.1.1-.12,0-.05-.01-.11-.02-.17,0,0,0,0,0,0v-.02s0-.03,0-.03c0,0,0,0,0-.01-.03-.33-.06-.81-.04-1.59-.01.03-.02.06-.03.09-.13.38-.26.74-.29,1.24ZM17.76,16.08l-.2-.1c-.47-.23-.6-1.5-.61-2.33-.1.12-.2.26-.3.4l-.06.08-.12-.06.11-.47s-.01-.01-.02-.02l-.04-.04.03-.05s.01-.02.02-.03h-.12c-.01-.07-.02-.15-.03-.22l-.02-.11.1.03s.03,0,.04,0h.03s.05-.03.08-.05l.05-.18,1.17-1.81.12.05c-.07.5-.18.92-.34,1.31h0s0,.02,0,.02c-.12.12-.24.23-.36.33.02-.01.05-.02.08-.03l.1-.04v.11c-.12,1.12-.2,2.37.18,3l.12.19ZM17.08,13.29v.18c-.02.8.08,1.51.23,1.95-.16-.67-.1-1.58-.02-2.43-.25.11-.44.29-.6.54,0,0,0,0,.01.01l.03.03-.05.21c.09-.13.19-.25.28-.35l.12-.13ZM16.6,13.35v.1c.03-.07.08-.14.13-.2-.04.03-.09.06-.13.1ZM16.82,13.02h0c.24-.16.48-.34.72-.58.12-.29.21-.6.27-.95l-.99,1.53ZM16.46,12.67h-.13c-.05-.41-.06-.73-.02-1.04h0c.17-.55.46-1.1.74-1.62.06-.11.11-.21.17-.32l.12.05-.42,1.68-.09.12s.02.06.03.08v.02s-.08.36-.08.36v.06s-.06,0-.06,0c-.03,0-.07.02-.1.06l-.16.54ZM16.44,11.65c-.02.2-.03.41-.01.65l.07-.24h0c.05-.06.1-.1.15-.11l.07-.29s-.02-.07-.03-.12v-.03s.1-.15.1-.15l.28-1.12c-.24.47-.49.94-.64,1.41ZM18.41,10.65l-.8-.18v-.13s.53-.09.53-.09l.75-.43.09.1-.56.73ZM17.97,10.41l.38.09.31-.4-.49.28-.2.03ZM18.42,9.65l-.41-.67c-.23-.05-.53,0-.82.07-.1.02-.19.04-.29.05-.04,0-.08.01-.12.02l-.02-.13s.07,0,.1-.02c.23-.05.43-.16.63-.28.26-.15.54-.31.86-.27h.02s.01.01.01.01c.19.13.16.42.11.68l-.09.54ZM17.81,8.83c.09,0,.18,0,.26.03h.03s.25.42.25.42l.03-.19c.04-.26.05-.45-.05-.53-.27-.02-.51.11-.76.26-.03.02-.05.03-.08.05.11-.02.22-.03.32-.03ZM19.42,9.3h-.13s-.06-.34-.06-.34h-.52v-.64h-.51l1.04-.58-.14.61,1.08-1.38.11.08-.36.62,1.05-.81.09.1-1.18,1.13,1.25-.65.07.12-1.62,1.02-.15.71ZM18.84,8.81h.5s.02.13.02.13l.1-.44.31-.19-.23.12-.08-.11.64-.61-.36.28-.1-.09.03-.05-.65.83-.12-.06.14-.61-.32.18h.13v.63Z"/>
  <path class="cls-3" d="M23.99,29.3c.04-.09.11-.15.21-.19.09-.03.18-.03.27.01.09.04.15.11.18.21s.03.19-.02.27c-.05.09-.12.16-.21.19-.09.04-.19.03-.27-.01-.09-.04-.15-.11-.18-.21-.03-.09-.02-.19.02-.28ZM24.08,29.34c-.03.07-.04.14-.02.21.02.07.07.12.13.16.07.03.13.04.2,0,.07-.03.12-.08.16-.15.04-.07.04-.14.02-.21-.02-.07-.07-.12-.14-.16-.06-.03-.13-.03-.2,0-.07.03-.12.08-.16.15ZM23.79,28.97l.07-.14.08-.16.08.04-.4.82-.08-.04.05-.09s-.09.03-.14.03-.1-.01-.15-.04c-.09-.04-.15-.11-.18-.21-.03-.09-.02-.19.02-.28.04-.09.11-.15.2-.19.09-.03.18-.03.27.02.05.02.09.06.12.09.03.04.05.08.06.13ZM23.69,29.19c.03-.07.04-.14.02-.22-.02-.07-.06-.13-.13-.16-.07-.03-.13-.04-.2-.01-.07.02-.12.07-.16.14-.04.07-.04.15-.02.22.02.07.07.12.13.16.06.03.13.03.2,0,.07-.03.12-.07.16-.14ZM21.63,28.09c.03-.06.07-.11.11-.15.05-.04.1-.07.16-.09.06-.02.12-.03.18-.02.06,0,.12.02.17.05.06.03.11.06.14.11.04.04.07.1.09.16.02.06.03.12.03.18,0,.06-.02.12-.05.18-.03.06-.06.11-.11.15-.04.04-.09.07-.15.09-.06.03-.13.04-.19.03-.06,0-.13-.02-.19-.05-.12-.06-.2-.15-.24-.27-.04-.12-.03-.24.03-.37ZM21.71,28.13c-.05.1-.06.2-.03.3.03.1.1.17.19.22.09.05.19.05.29.01.1-.04.17-.11.22-.21.05-.09.05-.19.02-.29-.03-.1-.1-.17-.19-.22-.04-.02-.08-.03-.12-.03-.04,0-.08,0-.13,0-.06.01-.11.04-.15.08-.05.04-.08.08-.11.13ZM20.85,27.2l.23.11c.06.03.12.06.15.1.04.03.07.07.09.12.03.06.04.13.04.2,0,.07-.02.14-.05.2-.04.07-.08.13-.14.18-.06.05-.12.07-.19.09-.05,0-.09,0-.14,0-.05,0-.11-.03-.19-.08l-.2-.1.4-.82ZM20.89,27.32l-.33.67.17.08c.1.05.2.06.28.03.09-.03.15-.1.21-.21.03-.05.04-.11.04-.16,0-.06,0-.11-.03-.15-.02-.04-.04-.07-.07-.09-.03-.03-.07-.06-.14-.09l-.15-.07ZM20.15,27.45l.05-.49-.36.34.31.15ZM19.56,27.57l-.09-.04.72-.67.1.05-.08.98-.09-.04.03-.31-.37-.18-.22.21ZM19.06,27.34l-.08-.04.36-.74-.16-.08.04-.08.41.2-.04.08-.16-.08-.36.74ZM18.17,26.62l.08.04c-.02.05-.03.1-.02.14.01.04.04.08.09.1.05.02.09.03.14.01.04-.02.08-.05.1-.1.04-.07,0-.16-.09-.25,0,0-.01-.01-.02-.02-.05-.05-.08-.1-.09-.14-.01-.04,0-.09.02-.14.03-.07.08-.11.14-.13.06-.02.12-.02.19.02.06.03.1.07.12.13.02.06.01.12-.02.19l-.08-.04s.02-.09.01-.12-.03-.06-.07-.08c-.04-.02-.08-.02-.12,0-.04.01-.07.04-.09.08-.01.02-.02.04-.02.06,0,.02,0,.04.02.06.01.02.04.05.08.09.02.02.04.04.05.05.04.05.07.09.08.14,0,.04,0,.09-.03.14-.04.08-.09.13-.16.16-.07.03-.14.02-.21-.01-.07-.03-.11-.08-.13-.15-.02-.07-.01-.14.02-.21ZM17.57,26.05l.35.17-.04.08-.35-.17-.14.29.35.17-.04.08-.43-.21.4-.82.43.21-.04.08-.35-.17-.14.29Z"/>
  <path class="cls-3" d="M26,28.48c.05-.03.11-.05.18-.06.06,0,.12,0,.19.01.06.02.11.04.16.08.05.03.09.08.12.13.03.05.05.11.06.17,0,.06,0,.12,0,.18-.02.06-.04.12-.08.17-.04.05-.08.09-.14.12-.06.03-.11.06-.17.07-.06.01-.11.01-.17,0-.07-.01-.13-.04-.18-.08-.05-.04-.1-.08-.13-.14-.07-.11-.09-.23-.05-.36.03-.12.11-.22.22-.29ZM26.05,28.56c-.1.06-.16.14-.18.24-.03.1-.01.2.04.29.05.09.13.14.23.17.1.02.2,0,.3-.05.09-.05.15-.13.17-.23.03-.1.01-.2-.04-.29-.02-.04-.05-.07-.08-.09-.03-.03-.07-.05-.11-.06-.05-.02-.11-.02-.17-.02-.06,0-.11.02-.16.05ZM25.4,28.38l-.05-.08.78-.47.05.08-.78.47ZM25.59,27.09l-.71.43-.05-.08.78-.47.13.21s.05.09.06.12c0,.03.01.06.01.1,0,.04-.02.09-.04.13-.03.04-.06.07-.1.1-.06.04-.12.05-.19.04-.07,0-.12-.04-.15-.09l-.19.37-.06-.09.24-.46.04.07s.07.08.12.09c.05.01.09,0,.14-.02.03-.02.05-.04.07-.06.02-.02.03-.05.03-.08,0-.02,0-.05,0-.07,0-.03-.03-.07-.06-.12l-.07-.11Z"/>
  <path class="cls-3" d="M33.57,26.95c0-.06-.01-.12,0-.18.01-.06.03-.11.06-.16.03-.05.07-.08.11-.1.04-.02.09-.04.14-.04.05,0,.1,0,.14.03.04.02.08.05.12.09.04.04.08.09.1.15.03.05.05.11.06.18.01.06.01.12,0,.17,0,.05-.02.1-.05.14-.03.05-.08.08-.12.11-.05.02-.1.04-.16.04-.11,0-.19-.04-.27-.12-.08-.08-.13-.19-.15-.32ZM33.65,26.94c.02.11.06.19.12.26.06.07.14.1.22.09.08,0,.16-.04.21-.11.05-.07.06-.16.04-.27-.02-.1-.06-.19-.13-.26-.07-.07-.14-.1-.22-.1-.03,0-.06,0-.09.03-.03.02-.06.04-.08.07-.03.04-.05.08-.06.13-.01.05-.01.11,0,.16ZM32.83,26.7c.02.13.04.26.05.39.02.13.02.26.02.38-.02,0-.05,0-.07,0,0-.14,0-.28-.02-.42-.02-.14-.04-.28-.06-.43.07-.01.13-.02.2-.03.04,0,.08,0,.1,0s.05.01.07.03c.03.02.06.05.08.09.02.04.04.08.04.12.01.07,0,.13-.02.18-.03.05-.06.08-.11.1.07.1.14.21.19.31-.03,0-.06,0-.09,0-.04-.06-.07-.13-.11-.19-.04-.06-.09-.13-.13-.19.02,0,.05,0,.07,0,.05,0,.08-.03.1-.06.02-.04.03-.08.02-.13,0-.03-.01-.06-.03-.08-.01-.02-.03-.04-.05-.06-.02-.01-.03-.02-.06-.02-.02,0-.06,0-.11,0-.04,0-.07.01-.11.02ZM32.48,27.53s-.05,0-.07.01c0-.14,0-.28-.02-.42-.02-.14-.04-.28-.05-.42.02,0,.05,0,.07-.01.02.14.04.28.05.42.02.14.02.28.02.42ZM31.72,27.18c.1-.01.21-.03.31-.04,0,.03,0,.06,0,.08-.1.01-.21.03-.31.04,0,.1,0,.2,0,.3.1-.01.21-.03.31-.04,0,.03,0,.05,0,.08-.13.02-.26.03-.39.05,0-.14,0-.28,0-.42-.01-.14-.03-.28-.04-.42.13-.01.25-.03.38-.05,0,.03,0,.06,0,.08-.1.01-.2.03-.31.04.01.1.02.2.03.29ZM31.22,27.58c0-.12,0-.25-.01-.37-.01-.12-.02-.25-.04-.37.02,0,.05,0,.07,0,.01.14.03.28.04.42,0,.14,0,.28,0,.42-.03,0-.06,0-.09,0-.07-.12-.14-.24-.21-.36-.07-.12-.15-.25-.23-.37.01.12.03.25.03.37,0,.12,0,.25,0,.37-.02,0-.05,0-.07,0,0-.14,0-.28,0-.42,0-.14-.02-.28-.03-.42.03,0,.06,0,.09,0,.08.12.16.25.23.37.07.12.14.24.21.36ZM30.26,27.33c-.02-.07-.05-.15-.07-.22-.03-.07-.05-.15-.08-.22-.02.07-.04.14-.06.21-.02.07-.04.14-.07.21.09,0,.19.01.28.02ZM29.86,27.65s-.05,0-.08,0c.05-.14.1-.27.15-.41.05-.14.08-.28.12-.42.03,0,.06,0,.09,0,.06.14.12.29.17.43.05.14.09.29.14.43-.03,0-.05,0-.08,0-.03-.09-.06-.18-.09-.27-.11,0-.22-.01-.33-.02-.03.09-.06.17-.09.26ZM29.44,26.76s.05,0,.07,0c0,.1,0,.19,0,.29,0,.09,0,.19,0,.29,0,.05,0,.09,0,.12,0,.03-.01.05-.02.07-.02.03-.04.06-.07.07-.03.02-.07.02-.1.02-.06,0-.1-.03-.13-.08-.03-.04-.05-.1-.05-.17.02,0,.05,0,.07,0,0,.04.01.08.03.1.02.03.05.04.08.05.04,0,.08,0,.1-.04.02-.03.03-.1.03-.19,0-.09,0-.18,0-.27,0-.09,0-.18,0-.27ZM28.39,27.14c-.01-.07-.03-.13-.07-.17-.04-.04-.08-.06-.14-.07-.05,0-.1.01-.14.05-.04.04-.06.09-.07.15.14.01.28.02.42.04ZM28.47,27.22c-.17-.02-.34-.03-.5-.05,0,.07.02.13.06.17.04.05.09.07.15.08.04,0,.08,0,.11-.03.03-.02.06-.05.08-.1.03,0,.05,0,.08,0-.03.07-.06.12-.11.15-.05.03-.1.05-.16.04-.08,0-.15-.05-.2-.12-.05-.07-.08-.15-.08-.24,0-.1.03-.17.09-.23.06-.06.13-.08.21-.08.08,0,.15.05.2.12.05.07.07.16.07.26,0,0,0,0,0,0ZM27.63,26.91s0-.09,0-.14c0-.05,0-.11,0-.16.02,0,.05,0,.07,0,0,.14,0,.28-.01.42,0,.14,0,.28-.01.42-.02,0-.05,0-.07,0,0-.03,0-.06,0-.09-.03.03-.06.06-.1.08-.04.02-.08.03-.12.02-.08,0-.15-.04-.2-.1-.05-.07-.08-.14-.07-.24,0-.09.03-.17.09-.23.06-.06.13-.09.21-.09.04,0,.08.01.12.03.04.02.06.05.09.09ZM27.62,27.13c0-.07-.02-.13-.06-.19-.04-.05-.09-.08-.15-.08-.06,0-.11.02-.15.07-.04.05-.07.1-.07.17,0,.07.02.14.06.19.04.05.09.08.15.08.06,0,.11-.02.15-.07.04-.05.07-.1.07-.17Z"/>
  <path class="cls-6" d="M21.45,28.97l-1.02.43-.05.32.56-.1.18.2,1.37-.47c-.34-.12-.68-.25-1.03-.38Z"/>
  <path class="cls-13" d="M21.09,29.91l-.18-.21-.61.11.08-.45,1.08-.45h.03c.36.15.71.28,1.03.39l.18.06-1.6.55ZM20.96,29.55l.17.2,1.15-.39c-.26-.09-.54-.2-.83-.31l-.96.4-.03.19.5-.09Z"/>
  <path class="cls-10" d="M31.59,16.68c0-2.7-1.11-5.09-2.8-6.5l-.99.57-.4.81-.4,1.4-.28.09-.45.68-.15-.81-.32-.09.23-.38-.45-1.02.23-.85-.21-.15.06-.19-.49-.4-.45,1.13.19.21-.34.64-.26.02-.19.57-.19-.45-.43.15v.32l-.3.11-.34-.45-.34.3-.83,2.4-1.17-.04-.47-.94h-.49l-.34.49-.04.03c-.17.69-.27,1.41-.29,2.16l12.67.19h0Z"/>
  <path class="cls-12" d="M31.64,16.74h-.05s-12.72-.19-12.72-.19v-.05c.01-.74.11-1.47.29-2.18v-.02s.05-.03.05-.03l.35-.5h.55l.47.94,1.1.04.82-2.38.39-.34.35.46.23-.08v-.32l.51-.18.16.36.16-.47.26-.02.31-.58-.19-.21.49-1.23.57.47-.06.19.21.15-.24.87.45,1.03-.21.35.28.08.13.71.38-.58.27-.08.4-1.39.41-.82,1.04-.6.03.02c1.76,1.48,2.82,3.92,2.82,6.54v.06ZM18.98,16.45l12.56.19c-.01-2.55-1.04-4.93-2.75-6.38l-.95.54-.39.79-.41,1.43-.29.09-.51.78-.17-.91-.36-.09.26-.42-.44-1.01.23-.83-.21-.15.06-.19-.4-.33-.41,1.03.19.22-.37.7-.25.02-.22.67-.23-.53-.34.12v.32l-.37.13-.33-.43-.29.25-.84,2.43-1.24-.05-.47-.93h-.43l-.34.48-.02.02c-.17.67-.26,1.37-.28,2.08Z"/>
  <path class="cls-2" d="M28.69,20.05c0-1.7-1.55-3.08-3.45-3.08s-3.45,1.38-3.45,3.08,1.55,3.08,3.45,3.08,3.45-1.38,3.45-3.08Z"/>
  <path class="cls-12" d="M25.24,23.2c-1.94,0-3.52-1.41-3.52-3.15s1.58-3.15,3.52-3.15,3.52,1.41,3.52,3.15-1.58,3.15-3.52,3.15ZM25.24,17.03c-1.87,0-3.39,1.35-3.39,3.02s1.52,3.02,3.39,3.02,3.39-1.35,3.39-3.02-1.52-3.02-3.39-3.02Z"/>
  <path class="cls-7" d="M28.19,20.05c0-1.45-1.32-2.63-2.95-2.63s-2.95,1.18-2.95,2.63,1.32,2.63,2.95,2.63,2.95-1.18,2.95-2.63Z"/>
  <path class="cls-12" d="M25.24,22.75c-1.66,0-3.01-1.21-3.01-2.7s1.35-2.7,3.01-2.7,3.02,1.21,3.02,2.7-1.35,2.7-3.02,2.7ZM25.24,17.49c-1.59,0-2.88,1.15-2.88,2.56s1.29,2.56,2.88,2.56,2.88-1.15,2.88-2.56-1.29-2.56-2.88-2.56Z"/>
  <path class="cls-9" d="M27.26,20.05c0-.99-.91-1.8-2.02-1.8s-2.02.81-2.02,1.8.91,1.8,2.02,1.8,2.02-.81,2.02-1.8Z"/>
  <path class="cls-13" d="M25.24,21.91c-1.14,0-2.07-.83-2.07-1.86s.93-1.86,2.07-1.86,2.07.83,2.07,1.86-.93,1.86-2.07,1.86ZM25.24,18.3c-1.08,0-1.97.78-1.97,1.75s.88,1.75,1.97,1.75,1.97-.78,1.97-1.75-.88-1.75-1.97-1.75Z"/>
  <path class="cls-3" d="M26.92,18.8s.05-.02.07-.03c.02,0,.03-.02.04-.02l.25-.13s0,0,0,.01c0,0,0,0,0,.01,0,0,0,0,0,.01,0,0,0,0,0,0-.03.04-.05.09-.08.13-.02.04-.05.09-.07.13.05,0,.1-.01.15-.02.05,0,.1-.02.15-.03,0,0,0,0,0,.01,0,0,0,0,0,.01,0,0,0,0,0,.01,0,0,0,0,0,0l-.21.19s-.04.04-.05.05-.02.02-.03.03c0,0,0-.02-.01-.02,0,0,0-.01-.01-.02,0,0,0-.01-.01-.02,0,0-.01-.01-.02-.02,0,0,0,0,0,0,.03-.02.05-.04.06-.05l.14-.12s-.09.01-.14.02c-.05,0-.1.02-.15.02,0,0,0,0,0,0,0,0,0,0,0,0,0,0,0,0,0,0,0,0,0,0,0,0,.03-.05.05-.09.07-.13s.04-.08.06-.12l-.11.06h0c-.06.03-.09.06-.12.07,0,0,0,0,0-.01,0,0,0,0,0,0,0,0,0,0,0,0,0,0,0,0,0,0ZM26.7,18.38s0,0,0,0c.02.01.03.02.04.03,0,0,0,0,.02.01,0,0,.01.01.03.02,0-.02.02-.05.02-.07,0-.02.01-.05.02-.07-.02.01-.04.02-.06.03-.02.01-.04.02-.06.04ZM26.52,18.43c.06-.03.12-.07.19-.1.06-.04.13-.08.19-.12,0,0,0,0,0,0,0,0,0,0,0,0,0,0,0,0,0,0,0,0,0,0,0,0-.02.07-.04.13-.06.2-.02.07-.04.14-.06.22,0,0-.01-.01-.02-.02,0,0-.01-.01-.02-.02,0,0-.01-.01-.02-.02,0,0-.01,0-.02-.01,0-.01.01-.03.02-.05,0-.02.01-.04.03-.07,0,0-.01-.01-.02-.02,0,0-.02-.01-.03-.03-.01-.01-.03-.02-.03-.03,0,0-.01-.01-.02-.02-.03.02-.05.03-.07.04-.01,0-.03.02-.04.02,0,0,0,0-.01,0,0,0,0,0,0,0,0,0-.01,0-.02-.01,0,0,0,0,0,0ZM26.51,18.07h0s0-.04-.01-.06c-.01-.02-.03-.03-.06-.05-.04-.02-.07-.02-.11,0-.03.02-.06.05-.08.1-.02.05-.03.1-.02.13,0,.04.03.07.08.09.02,0,.04.01.06.01.02,0,.04,0,.06,0h0s-.03.04-.03.04c-.02,0-.04,0-.06,0-.02,0-.04-.01-.06-.02-.06-.03-.1-.07-.12-.12-.02-.05-.01-.1.01-.16.03-.06.07-.09.12-.11.05-.02.11-.01.17.02.02,0,.04.02.06.03.02.01.03.03.05.05,0,0-.02.02-.02.03,0,0-.01.02-.02.03ZM25.78,18.12s.02-.05.03-.08c0-.03.02-.07.03-.11.01-.04.02-.08.03-.11,0-.03.01-.06.02-.08,0,0,.02,0,.02,0,0,0,.02,0,.02,0,0,0,.02,0,.02,0,0,0,.02,0,.02,0,0,.02-.02.05-.03.08,0,.03-.02.07-.03.11-.01.05-.02.09-.03.11,0,.03-.01.06-.02.08,0,0-.02,0-.02,0,0,0-.02,0-.02,0,0,0-.02,0-.02,0,0,0-.02,0-.03,0ZM25.36,18.04s.01-.06.02-.09c0-.03,0-.07.02-.11,0-.04,0-.08.01-.11,0-.03,0-.06,0-.09,0,0,.02,0,.02,0,0,0,.02,0,.02,0,0,0,.02,0,.02,0,0,0,.02,0,.02,0,0,.03-.01.06-.02.09,0,.03-.01.07-.02.11,0,.04,0,.07-.01.1,0,.02,0,.04,0,.06.02,0,.05,0,.07,0,.02,0,.04,0,.06,0,0,0,0,0,0,.01,0,0,0,0,0,.01,0,0,0,0,0,.01h0s-.05,0-.07,0c-.02,0-.04,0-.05,0-.01,0-.03,0-.05,0-.02,0-.04,0-.06,0ZM24.86,18.07s0-.04,0-.06c0-.02,0-.05,0-.09v-.05c0-.06-.01-.1-.01-.13,0-.03,0-.05,0-.07.02,0,.03,0,.04,0,.01,0,.02,0,.03,0,0,0,.02,0,.03,0,.02,0,.03,0,.03,0,.04,0,.08,0,.1.02.02.01.03.04.04.07,0,.03,0,.05-.03.07-.02.02-.05.03-.09.03h0s.08,0,.1.02c.02.02.03.04.04.07,0,.03,0,.06-.03.08-.02.02-.06.03-.1.04-.01,0-.03,0-.05,0-.02,0-.04,0-.05,0,0,0-.02,0-.03,0,0,0,0,0,0,0ZM24.96,18.03s0,0,.01,0c0,0,0,0,0,0,.02,0,.04,0,.05-.02.01-.02.02-.04.02-.06,0-.03,0-.05-.02-.06-.01-.01-.04-.02-.06-.02,0,0,0,0-.01,0,0,0,0,0,0,0v.08s0,.03,0,.04c0,.01,0,.03,0,.04ZM24.94,17.84h0s0,0,0,0c.03,0,.05,0,.06-.02.01-.01.02-.03.02-.06,0-.02,0-.04-.02-.05-.01-.01-.03-.01-.05-.01,0,0,0,0,0,0,0,0,0,0-.01,0,0,0,0,.02,0,.03,0,.01,0,.03,0,.04v.07ZM24.18,17.84s.02,0,.02,0c0,0,.02,0,.03,0,0,0,.02,0,.02,0,0,0,.01,0,.02,0,0,.03.01.06.02.1,0,.03.02.07.03.11,0,.03.02.06.02.07,0,.01.01.02.02.03.01.01.02.02.04.03.02,0,.04,0,.06,0,.02,0,.04-.02.05-.03.01-.01.02-.03.03-.04,0-.01,0-.03,0-.05,0-.02-.01-.05-.02-.09-.01-.03-.02-.07-.03-.1-.01-.03-.02-.06-.03-.08,0,0,0,0,.01,0,0,0,0,0,.01,0,0,0,.01,0,.02,0,0,0,0,0,.01,0,0,.03.01.05.02.07,0,.02.01.04.02.05,0,0,0,.02.01.04,0,.02.01.03.01.04.01.04.02.07.02.09,0,.02,0,.04-.01.06,0,.02-.02.04-.04.05-.02.01-.04.03-.07.04-.03.01-.06.01-.09.01-.03,0-.05,0-.07-.02-.01,0-.02-.02-.03-.04,0-.02-.02-.05-.03-.09l-.02-.05s-.02-.06-.03-.08c0-.02-.02-.04-.02-.06ZM23.89,18.44s-.02-.05-.04-.08c-.01-.03-.03-.06-.06-.1-.02-.04-.04-.07-.06-.1-.02-.03-.03-.05-.05-.07,0,0,.01,0,.02,0,0,0,.01,0,.02,0,0,0,.02-.01.04-.02.02-.01.03-.02.05-.03.04-.02.07-.03.1-.03.03,0,.05.02.07.05.02.04.02.07.01.1-.01.03-.04.06-.09.09,0,0,0,0,0,0,0,0,0,0,0,0l.04.07s0,.01.01.02c0,.01.02.03.03.05,0,0-.02,0-.02.01,0,0-.01,0-.02.01,0,0-.01,0-.02.01,0,0-.01,0-.02.01ZM23.86,18.22s.04-.03.05-.05c0-.02,0-.04-.02-.07-.01-.02-.03-.04-.04-.04-.02,0-.03,0-.05,0,0,0,0,0-.01,0,0,0,0,0,0,0,0,0,0,.02.01.03,0,0,0,.02.02.03l.05.08ZM23.37,18.91s-.03-.05-.05-.06c-.01-.02-.02-.03-.03-.04l-.17-.22s0,0,0,0c0,0,0,0,0,0,0,0,0,0,0,0,0,0,0,0,0-.01.05.02.1.03.14.05s.1.03.15.04c-.02-.05-.03-.09-.05-.14-.02-.05-.04-.1-.06-.14,0,0,0,0,.01,0,0,0,0,0,0,0,0,0,0,0,0-.01,0,0,0,0,0-.01l.22.17s.04.03.06.04c.01,0,.03.02.04.03,0,0-.01.01-.02.02,0,0-.01.01-.02.02,0,0-.01.01-.02.02,0,0-.01.01-.02.02,0,0,0,0,0,0-.03-.03-.05-.04-.06-.05l-.15-.12s.03.09.05.14c.02.05.03.1.05.14,0,0,0,0,0,0,0,0,0,0,0,0,0,0,0,0,0,0,0,0,0,0,0,0-.05-.02-.1-.03-.14-.05-.05-.01-.09-.03-.13-.04l.08.09h0c.04.05.07.09.09.1,0,0,0,0-.01,0,0,0,0,0,0,0,0,0,0,0,0,0,0,0,0,0,0,.01ZM23.16,19.27s-.04-.03-.06-.04c-.02-.01-.06-.04-.11-.06h-.03s-.07-.05-.09-.06c-.02-.01-.04-.02-.06-.03,0-.02.02-.03.03-.05,0-.02.02-.03.03-.05.01-.02.02-.04.03-.05,0-.02.02-.03.02-.04,0,0,0,0,.01,0,0,0,0,0,0,0,0,0,0,0,0,0,0,0,0,0,.01,0-.02.02-.03.05-.04.06-.01.02-.02.03-.03.05,0,0,.01,0,.02.01,0,0,.02,0,.03.02h.02s.03.03.03.03c0-.01.02-.03.03-.06.01-.03.02-.05.03-.06,0,0,0,0,.01,0,0,0,0,0,0,0,0,0,.01,0,.02,0,0,0,0,0,0,0-.02.03-.03.05-.04.07s-.02.03-.02.04l.06.03s.04.02.05.02c0,0,.02,0,.02.01,0-.02.02-.03.03-.05,0-.02.02-.04.03-.07,0,0,0,0,0,0,0,0,0,0,0,0,0,0,0,0,.01,0,0,0,0,0,.01,0-.02.03-.04.06-.05.08-.01.02-.02.03-.03.04,0,.02-.02.03-.02.04,0,.01-.01.02-.02.03ZM23.01,19.74s-.05-.02-.08-.03c-.03,0-.07-.02-.11-.03-.04,0-.08-.02-.11-.02-.03,0-.06-.01-.09-.02,0,0,0-.01,0-.02,0,0,0,0,0-.01,0,0,0-.01,0-.04,0-.02,0-.04.02-.06.01-.05.03-.08.05-.1.02-.02.05-.02.08-.02.03,0,.05.02.06.04.01.02.02.05.02.08l.22-.08s0,.02,0,.03c0,0,0,.02,0,.02,0,0,0,.02,0,.02,0,0,0,.02,0,.03-.03,0-.07.02-.1.03-.04.01-.07.02-.11.04l.08.02s.03,0,.05.01c.02,0,.04,0,.06.01,0,0,0,.02,0,.02,0,0,0,.01,0,.02,0,0,0,.01,0,.02,0,0,0,.02,0,.03ZM22.83,19.61h0s0-.06,0-.08c0-.02-.03-.03-.06-.04-.02,0-.04,0-.06,0-.01,0-.02.03-.03.05,0,0,0,0,0,0,0,0,0,0,0,0,.01,0,.02,0,.03.01.01,0,.02,0,.03,0l.08.02Z"/>
  <path class="cls-3" d="M23.13,20.74s-.04.01-.07.02c-.03,0-.07.02-.12.04h-.03s-.07.04-.1.05c-.02,0-.04.02-.06.03,0-.02-.01-.04-.02-.05,0-.02-.01-.04-.02-.06s-.01-.04-.02-.05c0-.02-.01-.03-.02-.05,0,0,.01,0,.02,0,0,0,0,0,0,0,0,0,0,0,0,0,0,0,0,0,.01,0,0,.03.02.05.02.07,0,.02.01.04.02.05,0,0,.01,0,.02,0,0,0,.02,0,.03-.01h.03s.04-.02.04-.02c0-.01-.01-.03-.02-.06-.01-.03-.02-.05-.03-.06,0,0,.01,0,.01,0,0,0,0,0,0,0,0,0,.01,0,.02-.01,0,0,0,0,0,0,.01.03.02.06.03.08,0,.02.01.03.02.05l.07-.03s.04-.02.05-.02c0,0,.02,0,.02-.01,0-.02-.02-.03-.02-.05,0-.02-.02-.04-.03-.06,0,0,0,0,.01,0,0,0,0,0,.01,0,0,0,0,0,.01,0,0,0,0,0,.01,0,.01.04.02.07.03.09,0,.02.01.04.02.05,0,.02.01.03.02.04,0,.01.01.02.02.03h0ZM23.29,21.06s-.05.03-.08.05c-.03.02-.06.04-.09.06-.01,0-.03.02-.05.03-.02.02-.05.03-.08.05h0s.02.04.03.05c0,.01.02.03.03.04,0,0,0,0-.01,0,0,0,0,0-.01,0,0,0,0,0-.01.01,0,0,0,0,0,0-.02-.03-.03-.05-.04-.07-.01-.02-.03-.04-.04-.06-.01-.02-.03-.04-.04-.06-.01-.02-.03-.04-.05-.07,0,0,0,0,.01,0,0,0,0,0,.01,0,0,0,0,0,.01,0,0,0,0,0,.01,0,0,.01.01.03.02.04,0,.01.02.03.03.04h0s.03,0,.04-.02c.01,0,.04-.02.07-.04.05-.03.09-.06.12-.08s.05-.04.07-.05c0,0,0,.02.01.02,0,0,0,.01.01.02,0,0,0,.01.01.02,0,0,0,.01.02.02ZM23.23,21.49h0s-.01.04,0,.07c0,.02.02.04.04.06.03.03.06.04.1.04.04,0,.08-.03.11-.06.04-.04.06-.08.07-.12,0-.04,0-.07-.04-.11-.01-.01-.03-.03-.05-.03-.02,0-.04-.01-.06-.02h0s.04-.03.04-.03c.02,0,.04.02.06.03.02.01.03.02.05.04.05.05.07.1.07.15,0,.05-.02.1-.07.15-.04.04-.09.07-.15.06-.06,0-.11-.03-.16-.08-.02-.02-.03-.03-.04-.05-.01-.02-.02-.04-.03-.06,0,0,.02-.01.03-.02.01,0,.02-.01.03-.02ZM24.01,21.73s-.03.04-.04.06c-.02.02-.04.06-.07.11l-.02.02s-.04.07-.05.09c-.01.02-.02.04-.03.06-.02-.01-.03-.02-.05-.03-.02-.01-.03-.02-.05-.03-.02-.01-.03-.02-.05-.03-.02,0-.03-.02-.04-.02,0,0,0,0,0-.01,0,0,0,0,0,0,0,0,0,0,0,0,0,0,0,0,0-.01.02.02.04.03.06.04.02.01.03.02.05.03,0,0,0-.01.01-.02,0,0,.01-.02.02-.03l.02-.02.02-.03s-.03-.02-.06-.03c-.03-.02-.05-.03-.06-.03,0,0,0,0,0-.01,0,0,0,0,0,0,0,0,0-.01.01-.02,0,0,0,0,0,0,.03.02.05.04.07.05.02.01.03.02.04.03l.04-.06s.02-.04.03-.05c0,0,0-.02.01-.02-.02,0-.03-.02-.05-.03-.02-.01-.04-.02-.06-.03,0,0,0,0,0,0,0,0,0,0,0,0,0,0,0,0,0-.01,0,0,0,0,0-.01.03.02.06.04.08.05.02.01.03.02.04.03.02,0,.03.02.04.02.01,0,.02.01.03.02ZM24.45,21.93s-.03.05-.04.08c-.01.03-.03.06-.04.1-.02.04-.03.07-.04.1-.01.03-.02.06-.03.09,0,0,0,0-.01,0,0,0,0,0-.01,0,0,0-.01,0-.04-.01-.02,0-.04-.02-.06-.02-.04-.02-.07-.04-.09-.06-.02-.02-.02-.05,0-.08.01-.02.03-.04.05-.05.02,0,.05-.01.08,0l-.05-.23s.02,0,.02.01.02,0,.02.01c0,0,.01,0,.02,0,0,0,.02,0,.03,0,0,.03,0,.07.02.11,0,.04.01.07.02.11l.03-.07s.01-.03.02-.05c0-.02.01-.04.02-.06,0,0,.01,0,.02.01,0,0,.01,0,.02,0,0,0,.01,0,.02,0,0,0,.02,0,.03,0ZM24.28,22.09h0s-.05-.02-.07,0c-.02,0-.03.02-.04.05,0,.02-.01.04,0,.06,0,.02.02.03.05.04,0,0,0,0,0,0,0,0,0,0,0,0,0-.01.01-.02.02-.03,0-.01,0-.02.01-.03l.03-.08Z"/>
  <path class="cls-3" d="M26.24,21.83s.01.04.02.07c0,.03.02.07.05.12v.03s.04.07.05.1c.01.02.02.04.03.06-.02,0-.04.01-.05.02-.02,0-.04.01-.06.02-.02,0-.04.02-.05.02-.02,0-.03.01-.05.02,0,0,0-.01,0-.02,0,0,0,0,0,0,0,0,0,0,0,0,0,0,0,0,0-.01.03,0,.05-.02.07-.02.02,0,.04-.01.05-.02,0,0,0-.01,0-.02,0,0,0-.02-.01-.03v-.03s-.03-.04-.03-.04c-.01,0-.03.01-.06.03-.03.01-.05.02-.06.03,0,0,0-.01,0-.01,0,0,0,0,0,0,0,0,0-.01-.01-.02,0,0,0,0,0,0,.03-.01.06-.02.08-.03.02,0,.03-.01.05-.02l-.03-.07s-.02-.04-.02-.05c0,0,0-.02-.01-.02-.02,0-.03.02-.05.02-.02,0-.04.02-.06.03,0,0,0,0,0-.01,0,0,0,0,0-.01,0,0,0,0,0-.01,0,0,0,0,0-.01.04-.01.06-.02.08-.03.02,0,.04-.01.05-.02.02,0,.03-.01.04-.02.01,0,.02-.01.03-.02ZM26.66,21.59s.03.05.04.08c.02.03.03.06.06.1.02.04.04.07.06.09.02.03.04.05.05.07,0,0,0,0-.01,0,0,0,0,0-.01,0,0,0-.01,0-.03.02-.02.01-.04.03-.06.04-.04.03-.07.04-.1.04-.03,0-.05-.02-.07-.05-.01-.02-.02-.05-.01-.07,0-.02.02-.05.04-.07l-.22-.1s.02,0,.02-.01c0,0,.02,0,.02-.01,0,0,.01,0,.02-.01,0,0,.01-.01.02-.02.03.02.06.03.1.05.03.02.07.03.11.05l-.04-.07s-.02-.03-.03-.04c-.01-.02-.02-.03-.03-.05,0,0,.01,0,.02-.01s.01,0,.02-.01c0,0,.01,0,.02-.01,0,0,.01,0,.02-.02ZM26.69,21.82h0s-.04.04-.05.06c0,.02,0,.04.02.07.01.02.03.03.05.04.02,0,.04,0,.06-.02,0,0,0,0,0,0,0,0,0,0,0,0,0-.01-.01-.02-.02-.03,0-.01-.01-.02-.02-.03l-.05-.07ZM26.95,21.32s.03.03.05.05c.02.02.05.05.09.09l.02.02s.06.06.07.07c.02.02.04.03.05.04-.01.01-.03.03-.04.04-.01.01-.03.03-.04.04-.02.02-.03.03-.04.04-.01.01-.02.02-.03.04,0,0,0,0,0-.01,0,0,0,0,0,0s0,0,0,0c0,0,0,0-.01,0,.02-.02.04-.04.06-.05.02-.01.03-.03.04-.04,0,0,0-.01-.01-.02,0,0-.01-.01-.02-.03l-.02-.02-.03-.03s-.02.02-.04.05c-.02.02-.04.04-.05.05,0,0,0,0,0-.01,0,0,0,0,0,0,0,0,0,0-.02-.02,0,0,0,0,0,0,.03-.02.05-.04.06-.06.01-.01.03-.02.04-.03l-.05-.05s-.03-.03-.04-.04c0,0-.01-.01-.02-.02-.01.01-.03.03-.04.04-.01.02-.03.03-.05.05,0,0,0,0,0,0,0,0,0,0,0,0,0,0,0,0-.01-.01,0,0,0,0,0,0,.03-.03.05-.05.07-.06.02-.01.03-.03.04-.04.01-.01.02-.02.03-.03,0,0,.02-.02.03-.03ZM27.24,20.94s.04.03.07.05c.03.02.06.04.09.06.03.02.07.04.09.06.03.02.05.03.08.04,0,0,0,0-.01.01,0,0,0,0,0,.01,0,0,0,.01-.02.03-.01.02-.02.04-.04.06-.03.04-.05.06-.08.08-.03.01-.05,0-.08-.01-.02-.01-.04-.03-.04-.06,0-.02,0-.05,0-.08h-.24s.01-.01.02-.02c0,0,0-.01.01-.02s0-.01.01-.02c0,0,0-.02.01-.02.03,0,.07,0,.11,0,.04,0,.08,0,.12,0l-.07-.04s-.03-.02-.05-.03c-.02,0-.03-.02-.05-.03,0,0,.01-.01.02-.02,0,0,0-.01.01-.02,0,0,0-.01.01-.02,0,0,0-.01.01-.02ZM27.36,21.13h0s-.02.05-.02.07c0,.02.02.04.04.05.02.01.04.02.06.01.02,0,.03-.02.05-.04,0,0,0,0,0,0,0,0,0,0,0,0,0,0-.02-.01-.03-.02,0,0-.02-.01-.03-.02l-.07-.05ZM27.39,20.56s.04.02.06.03c.02.01.06.03.12.05h.03s.07.04.1.05c.02,0,.05.01.06.02,0,.02-.01.03-.02.05,0,.02-.01.04-.02.06s-.01.04-.02.06c0,.02-.01.03-.02.05,0,0-.01,0-.01,0s0,0,0,0c0,0,0,0,0,0,0,0,0,0-.01,0,.01-.03.02-.05.03-.07,0-.02.02-.04.02-.05,0,0-.01,0-.02,0,0,0-.02,0-.03-.01h-.03s-.04-.02-.04-.02c0,.01-.01.03-.02.06,0,.03-.02.05-.02.06,0,0,0,0-.01,0,0,0,0,0,0,0,0,0-.01,0-.02,0,0,0,0,0,0,0,.02-.03.03-.06.03-.08,0-.02.01-.03.02-.05l-.07-.02s-.04-.02-.05-.02c0,0-.02,0-.02,0,0,.02-.01.04-.02.06,0,.02-.01.04-.02.07,0,0,0,0-.01,0,0,0,0,0-.01,0,0,0,0,0-.02,0,0,0-.01,0-.01,0,.02-.04.03-.06.03-.08,0-.02.01-.04.02-.05,0-.02.01-.03.02-.04,0-.01,0-.03.01-.04ZM27.48,20.36s-.01-.06-.01-.09c0-.03,0-.06,0-.08,0-.07.03-.12.07-.15.04-.03.09-.05.16-.04.06,0,.11.03.15.07.03.04.05.1.04.17,0,.03,0,.06-.02.08s-.02.05-.03.06c-.01,0-.02-.01-.04-.02-.01,0-.02,0-.03,0h0s.04-.03.06-.05c.01-.02.02-.04.02-.07,0-.04,0-.08-.04-.11-.03-.03-.07-.04-.13-.05-.06,0-.1,0-.13.02-.03.02-.05.05-.05.1,0,.01,0,.03,0,.04,0,.01,0,.02,0,.03,0,0,.02,0,.03,0,0,0,.02,0,.03,0,.02,0,.03,0,.05,0,.01,0,.03,0,.04,0,0,0,0,.01,0,.02,0,0,0,.02,0,.03,0,0,0,.02,0,.02v.02s-.03,0-.04,0c-.01,0-.03,0-.05,0-.02,0-.03,0-.04,0,0,0-.02,0-.03,0h0Z"/>
  <path class="cls-7" d="M27.26,20.05c0-.16-.02-.31-.06-.45-1.24-.34-2.7-.34-3.94.12-.02.11-.03.22-.03.33,0,.16.02.32.07.48,1.18-.45,2.65-.42,3.91-.05.04-.14.06-.28.06-.42Z"/>
  <path class="cls-13" d="M23.26,20.6l-.02-.05c-.05-.16-.07-.32-.07-.49,0-.11.01-.23.03-.34v-.03s.03-.01.03-.01c1.17-.44,2.65-.49,3.97-.13h.03s0,.04,0,.04c.04.15.07.31.07.47,0,.15-.02.29-.06.44v.05s-.07-.02-.07-.02c-1.32-.39-2.77-.37-3.88.05l-.05.02ZM23.3,19.76c-.02.1-.03.19-.03.29,0,.14.02.27.05.4,1.1-.41,2.53-.42,3.84-.05.03-.12.04-.24.04-.36,0-.14-.02-.28-.05-.41-1.28-.35-2.71-.3-3.85.12Z"/>
  <path class="cls-3" d="M26.78,20.14v-.04s.06-.04.09-.06c.02-.02.04-.04.06-.06.01-.02.02-.04.03-.06,0-.02.01-.05.01-.07,0-.03,0-.06-.02-.08-.01-.02-.03-.03-.05-.03-.02,0-.04,0-.05.02-.01.02-.02.04-.02.07,0-.01-.01-.02-.02-.03,0,0-.02-.02-.03-.03.01-.03.03-.05.05-.06.02,0,.05-.01.08,0,.05,0,.08.03.11.06.03.03.04.06.04.11,0,.02,0,.04-.01.06,0,.02-.02.04-.04.05,0,0-.03.02-.06.04-.03.02-.05.04-.07.05.02,0,.03,0,.04.01,0,0,.02,0,.02,0,.02,0,.04.01.06.02.02,0,.04,0,.07.01,0,.01,0,.02,0,.03,0,0,0,.01,0,.02,0,.01,0,.03,0,.05h0s-.05-.02-.08-.02-.05-.01-.07-.02c-.02,0-.04-.01-.07-.02-.02,0-.05-.01-.07-.02ZM26.64,19.88s-.03.02-.04.02c-.01,0-.03,0-.05,0-.04,0-.07-.03-.09-.06-.02-.03-.03-.06-.03-.1,0-.04.01-.07.04-.09.03-.02.06-.03.11-.02.05,0,.08.03.11.07.01.02.02.04.03.07,0,.03,0,.05.01.09,0,.04,0,.08-.01.11,0,.03-.02.06-.04.08-.04.04-.09.05-.15.04,0,0-.02,0-.03,0,0,0-.02,0-.02-.01,0-.01,0-.03,0-.04,0,0,.02.01.02.02,0,0,.02,0,.03.01.04,0,.06,0,.09-.03.01-.02.02-.03.02-.06,0-.02,0-.05,0-.08ZM26.64,19.78s0-.06-.02-.08c0-.02-.02-.03-.04-.03-.02,0-.03,0-.04.02,0,.01-.01.04-.01.08,0,.04,0,.06.01.08,0,.02.02.03.04.03.02,0,.03,0,.04-.01,0-.01.01-.04.01-.08ZM26.3,19.78h0s.05.03.07.06c.01.02.02.05.02.08,0,.04-.01.07-.04.09-.03.02-.06.02-.11.01-.05,0-.08-.03-.11-.05-.03-.03-.04-.06-.04-.1,0-.03,0-.06.02-.07.01-.02.04-.03.06-.03h0s-.04-.03-.05-.04c-.01-.02-.02-.04-.02-.06,0-.03.01-.06.04-.07.02-.02.06-.02.1-.01.04,0,.08.02.1.04.02.02.03.05.03.08,0,.02,0,.04-.02.06-.01.01-.03.02-.05.02ZM26.19,19.67s0,.05.01.06c0,.02.02.02.04.03.02,0,.03,0,.04-.01,0-.01.01-.03.01-.06,0-.03,0-.05-.01-.06,0-.01-.02-.02-.04-.03-.02,0-.03,0-.04.01,0,.01-.01.03-.01.06ZM26.18,19.88s0,.06.01.08c0,.02.02.03.04.03.02,0,.03,0,.04-.02,0-.02.01-.04.01-.07,0-.03,0-.06-.01-.08,0-.02-.02-.03-.04-.03-.02,0-.03,0-.04.02,0,.02-.01.04-.01.07ZM25.86,19.95s0-.04,0-.06c0-.02,0-.04,0-.06,0-.02,0-.04,0-.06,0-.02,0-.04,0-.06,0-.02,0-.05,0-.07,0-.02,0-.04,0-.06-.01,0-.02,0-.03.01-.01,0-.02.01-.03.02-.01-.01-.02-.03-.03-.04.03,0,.06-.02.09-.03.03-.01.06-.02.09-.04,0,0,0,0,.01,0,0,.02,0,.04,0,.07,0,.01,0,.03,0,.06,0,.03,0,.06,0,.09,0,.03,0,.06,0,.08,0,.02,0,.04,0,.06,0,.03,0,.06,0,.08,0,0-.02,0-.02,0,0,0-.01,0-.02,0s-.02,0-.02,0c0,0-.02,0-.02,0h0ZM25.3,19.94s0-.06,0-.1c0-.02,0-.04,0-.06,0-.02,0-.04,0-.07,0-.02,0-.05,0-.07,0-.02,0-.04,0-.06,0-.04,0-.07,0-.1,0,0,.02,0,.03,0,0,0,.02,0,.03,0,0,0,.02,0,.03,0,0,0,.02,0,.03,0,0,.03,0,.06,0,.1,0,.02,0,.04,0,.06,0,.02,0,.04,0,.07,0,.05,0,.08,0,.11,0,.03,0,.05,0,.07.03,0,.05,0,.07,0,.02,0,.05,0,.07,0,0,0,0,0,0,.01,0,0,0,0,0,.01s0,0,0,.01c0,0,0,0,0,.01-.03,0-.05,0-.07,0s-.04,0-.05,0c-.02,0-.03,0-.05,0-.02,0-.04,0-.07,0ZM25.1,19.95s0-.06,0-.1c0-.02,0-.04,0-.06,0-.02,0-.05,0-.07,0-.03,0-.05,0-.07,0-.02,0-.04,0-.06,0-.04,0-.07,0-.1,0,0,.02,0,.03,0,0,0,.02,0,.03,0s.02,0,.03,0c0,0,.02,0,.03,0,0,.03,0,.06,0,.1,0,.02,0,.04,0,.06,0,.02,0,.05,0,.07,0,.03,0,.05,0,.08,0,.02,0,.04,0,.06,0,.03,0,.06,0,.09-.01,0-.02,0-.03,0,0,0-.02,0-.03,0s-.02,0-.03,0c0,0-.02,0-.03,0ZM24.72,19.98s0-.06,0-.1c0-.02,0-.04,0-.06,0-.02,0-.04,0-.07,0-.02,0-.05,0-.07,0-.02,0-.04,0-.06,0-.04,0-.07,0-.1,0,0,.01,0,.02,0,0,0,.01,0,.02,0,0,0,.02,0,.04,0s.05,0,.07,0c.05,0,.09,0,.11.02.02.02.04.05.04.08,0,.03,0,.06-.02.08-.02.02-.04.04-.07.05.02.04.05.07.07.11.02.04.05.07.07.11,0,0-.02,0-.03,0,0,0-.02,0-.03,0,0,0-.02,0-.03,0,0,0-.02,0-.03,0-.02-.03-.04-.07-.06-.1-.02-.03-.05-.07-.07-.1,0,.03,0,.06,0,.09,0,.02,0,.04,0,.06,0,.02,0,.04,0,.07,0,0-.02,0-.03,0,0,0-.02,0-.02,0s-.02,0-.02,0c0,0-.02,0-.03,0h0ZM24.81,19.73s0,0,0,0c.03,0,.06-.02.07-.03.01-.02.02-.04.02-.08,0-.03,0-.05-.02-.06-.01-.01-.04-.02-.06-.01,0,0,0,0,0,0,0,0,0,0,0,0,0,.01,0,.03,0,.04,0,.01,0,.03,0,.04,0,.03,0,.07,0,.1ZM24.35,20.05s0-.04,0-.06c0-.02,0-.06,0-.1,0-.02,0-.04,0-.06,0-.03,0-.06,0-.09,0-.02,0-.04,0-.06,0-.03,0-.06,0-.08.02,0,.03,0,.05,0,.01,0,.02,0,.03,0,0,0,.02,0,.04,0,.02,0,.03,0,.04,0,.05-.01.08,0,.1,0,.02.01.03.04.04.07,0,.03,0,.06-.03.08-.02.02-.05.04-.09.05h0s.08,0,.1.01c.02.01.04.04.04.08,0,.04-.01.07-.04.1-.03.03-.06.04-.11.05-.01,0-.03,0-.05,0-.02,0-.04,0-.06,0,0,0-.02,0-.04.01,0,0,0,0,0,0ZM24.45,19.99s0,0,.01,0c0,0,0,0,0,0,.03,0,.05-.02.06-.04.01-.02.02-.04.02-.07,0-.03,0-.05-.02-.06-.02-.01-.04-.02-.07,0,0,0,0,0-.01,0,0,0,0,0,0,0,0,.03,0,.06,0,.08,0,.02,0,.03,0,.05,0,.02,0,.03,0,.05ZM24.44,19.78s0,0,0,0c0,0,0,0,0,0,.03,0,.05-.02.07-.04.01-.02.02-.04.02-.07,0-.02,0-.04-.02-.05-.01,0-.03-.01-.06,0,0,0,0,0,0,0,0,0,0,0-.01,0,0,.01,0,.02,0,.04,0,.01,0,.03,0,.04,0,.03,0,.05,0,.08ZM24.03,19.95s0,0,0,0c.02,0,.04,0,.05-.01,0,0,.01,0,.02,0,0,0,.02,0,.03-.01,0-.02-.02-.05-.03-.07,0-.02-.02-.04-.03-.06,0,.03-.02.05-.03.08,0,.03-.02.05-.02.08ZM23.91,20.16s.03-.08.04-.12c.01-.04.03-.08.04-.12.01-.04.03-.08.04-.12.01-.04.03-.09.04-.13,0,0,0,0,.01,0s0,0,.01,0c0,0,0,0,.01,0,0,0,0,0,.01,0,.01.03.03.06.04.1.01.03.03.07.05.1.02.03.03.07.05.1.02.03.03.07.05.1,0,0-.02,0-.03,0,0,0-.02,0-.03,0,0,0-.02,0-.03,0,0,0-.02,0-.03,0,0-.02-.01-.03-.02-.05,0-.02-.02-.04-.03-.07,0,0-.02,0-.03,0-.01,0-.02,0-.04.01s-.04,0-.05.01c0,0-.02,0-.03,0-.01.04-.02.07-.02.09,0,.02-.01.04-.02.05,0,0-.01,0-.02,0,0,0,0,0-.01,0,0,0-.01,0-.03,0,0,0,0,0,0,0ZM23.63,20.03s-.02.03-.04.04c-.01.01-.03.02-.05.02-.04,0-.06,0-.09-.02-.02-.02-.03-.05-.04-.09,0-.04.01-.08.04-.11.03-.03.06-.05.11-.06.05-.01.08,0,.11.02.01.01.02.03.03.05,0,.02.01.05.01.08,0,.04,0,.07,0,.11,0,.03-.02.06-.04.09-.04.06-.09.09-.15.11,0,0-.02,0-.03,0,0,0-.02,0-.02,0,0-.01,0-.02,0-.04,0,0,.02,0,.02,0,0,0,.02,0,.03,0,.04,0,.06-.03.08-.07,0-.02.02-.04.02-.07,0-.02,0-.05,0-.08ZM23.63,19.93s0-.06-.02-.07c-.01-.01-.02-.02-.04-.02-.02,0-.03.02-.04.03,0,.02-.01.05-.01.08,0,.04,0,.06.02.07,0,.01.02.02.04.01.02,0,.03-.02.04-.03,0-.02.01-.04,0-.08Z"/>
  <polygon class="cls-2" points="25.24 18.41 25.36 18.66 25.63 18.7 25.43 18.89 25.48 19.16 25.24 19.03 25 19.16 25.04 18.89 24.85 18.7 25.12 18.66 25.24 18.41"/>
  <path class="cls-9" d="M28.79,10.19c-1.01-.85-2.23-1.34-3.54-1.34-4.77.15-6.14,5.26-6.01,5.46l.34-.49h.49l.47.94,1.17.04.83-2.4.34-.3.34.45.3-.11v-.32l.43-.15.19.45.19-.57.26-.02.34-.64-.19-.21.45-1.13.49.4-.06.19.21.15-.23.85.45,1.02-.23.38.32.09.15.81.45-.68.28-.09.4-1.4.4-.81.99-.57Z"/>
  <path class="cls-12" d="M21.75,14.85l-1.24-.05-.47-.93h-.43l-.37.53-.04-.07c-.08-.12.15-.99.61-1.89.68-1.32,2.29-3.56,5.44-3.66,1.28,0,2.52.47,3.57,1.35l.06.05-1.05.6-.39.79-.41,1.43-.29.09-.51.78-.17-.91-.36-.09.26-.42-.44-1.01.23-.83-.21-.15.06-.19-.4-.33-.41,1.03.19.22-.37.7-.25.02-.22.67-.23-.53-.34.12v.32l-.37.13-.33-.43-.29.25-.84,2.43ZM20.58,14.7l1.1.04.82-2.38.39-.34.35.46.23-.08v-.32l.51-.18.16.36.16-.47.26-.02.31-.58-.19-.21.49-1.23.57.47-.06.19.21.15-.24.87.45,1.03-.21.35.28.08.13.71.38-.58.27-.08.4-1.39.41-.82.94-.54c-1.03-.84-2.21-1.28-3.44-1.28-2.46.08-3.96,1.5-4.79,2.68-.76,1.08-1.09,2.16-1.16,2.55l.25-.37h.55l.47.94Z"/>
  <path class="cls-13" d="M22.91,9.43c-.08-.09-.33-.21-1.12-.09l-.02-.11c.63-.1,1.05-.06,1.21.12l-.08.07Z"/>
  <path class="cls-13" d="M20.86,10.15l-.04-.1c.47-.19,1.08-.33,1.25-.15l-.08.07c-.09-.1-.51-.07-1.13.17Z"/>
  <path class="cls-13" d="M20.23,10.87l-.05-.1c.16-.08.99-.48,1.19-.27l-.08.07c-.08-.09-.56.04-1.06.29Z"/>
  <path class="cls-13" d="M19.58,11.86l-.07-.08.07-.06c.35-.28.78-.64,1.1-.53l-.03.1c-.26-.08-.69.26-1,.51l-.07.06Z"/>
  <path class="cls-13" d="M19.13,12.77l-.07-.08c.08-.07.16-.14.24-.21.25-.23.49-.44.75-.36l-.03.1c-.21-.07-.41.12-.65.34-.08.07-.16.14-.24.21Z"/>
  <path class="cls-13" d="M18.8,13.69l-.07-.08c.1-.08.19-.17.27-.25.19-.2.35-.36.6-.28l-.03.1c-.18-.06-.3.05-.49.26-.08.08-.17.18-.28.26Z"/>
  <path class="cls-13" d="M18.52,14.84l-.07-.08c.13-.11.24-.27.34-.43.15-.24.3-.47.52-.4l-.03.1c-.14-.04-.24.11-.4.36-.1.16-.21.34-.36.46Z"/>
  <path class="cls-13" d="M18.4,15.84l-.08-.07c.09-.1.16-.26.23-.41.14-.3.29-.6.54-.52l-.03.1c-.16-.05-.28.2-.41.47-.08.16-.15.32-.25.43Z"/>
  <path class="cls-13" d="M18.37,16.95l-.08-.07c.1-.12.16-.31.22-.5.1-.29.19-.6.43-.52l-.03.1c-.13-.04-.2.15-.3.45-.06.2-.13.4-.24.54Z"/>
  <path class="cls-13" d="M18.46,18.04l-.1-.03c.02-.09.04-.2.06-.31.07-.37.14-.75.32-.85.05-.03.11-.04.17-.02l-.03.1s-.06,0-.09,0c-.14.08-.21.47-.27.78-.02.11-.04.22-.06.31Z"/>
  <path class="cls-13" d="M18.69,19l-.1-.03c.03-.13.05-.31.07-.48.04-.35.07-.64.21-.74.05-.03.1-.04.16-.02l-.03.1s-.06,0-.07,0c-.1.07-.13.38-.16.66-.02.17-.04.35-.07.49Z"/>
  <path class="cls-13" d="M18.98,20.12l-.1-.03c.04-.15.05-.35.05-.55.01-.32.03-.59.15-.68.03-.02.08-.04.15-.02l-.03.1s-.05,0-.06,0c-.08.06-.09.34-.11.59,0,.2-.02.41-.06.57Z"/>
  <path class="cls-13" d="M19.37,21.06l-.1-.03s0-.14,0-.24c-.02-.43-.03-.83.11-.94.03-.02.07-.04.14-.02l-.03.1s-.03,0-.04,0c-.11.08-.08.6-.06.85,0,.16.01.24,0,.28Z"/>
  <path class="cls-13" d="M19.93,21.98l-.1-.03h.05s-.05,0-.05,0c0-.03-.01-.15-.03-.26-.06-.4-.09-.71.03-.82.03-.02.07-.04.14-.02l-.03.1s-.04,0-.04,0c-.08.07-.03.49,0,.72.02.17.04.26.02.3Z"/>
  <path class="cls-13" d="M20.58,22.84l-.1-.03h.05s-.05,0-.05,0c0-.03-.03-.18-.06-.31-.1-.41-.16-.71-.06-.81.02-.02.07-.05.14-.02l-.03.1s-.02,0-.03,0c-.07.06.04.5.09.71.05.21.07.31.06.36Z"/>
  <path class="cls-13" d="M21.41,23.67l-.1-.02s-.08-.23-.14-.38c-.18-.44-.29-.72-.2-.81.02-.02.06-.04.13-.02l-.03.1s-.02,0-.02,0c-.04.06.14.49.22.7.12.29.16.39.14.45Z"/>
  <path class="cls-13" d="M22.44,24.36l-.1-.03s0,0,0,0c0-.05-.15-.28-.26-.45-.31-.48-.4-.64-.34-.71.02-.02.05-.04.12-.02l-.03.09c.01.09.22.4.34.59.22.34.3.46.28.52Z"/>
  <path class="cls-13" d="M23.71,24.96c-.23-.11-.96-.7-.97-1.09h.11c0,.31.65.87.91,1l-.05.1Z"/>
  <path class="cls-13" d="M24.96,25.18l-.08-.04c-.58-.28-1.24-.64-1.24-.95h.11c0,.28.89.71,1.18.85l.08.04-.05.1Z"/>
  <path class="cls-13" d="M26.18,25.12c-.06-.03-.21-.07-.37-.12-.48-.14-1.08-.3-1.08-.6h.11c0,.21.63.39,1.01.49.18.05.31.09.39.12l-.05.1Z"/>
  <path class="cls-13" d="M27.24,24.81c-.08-.04-.28-.06-.49-.07-.45-.04-.96-.09-.97-.36h.11c0,.18.52.22.87.25.23.02.43.04.53.09l-.05.1Z"/>
  <path class="cls-13" d="M28.11,24.46c-.08-.04-.31-.03-.53-.02-.34.01-.69.02-.83-.11-.04-.04-.06-.08-.06-.14h.11s0,.04.03.06c.1.1.46.09.75.08.25,0,.47-.02.58.04l-.05.1Z"/>
  <path class="cls-13" d="M27.84,24.04c-.08,0-.15-.01-.19-.05-.04-.03-.06-.08-.06-.13h.11s.01.04.02.05c.08.07.39,0,.64-.06.28-.07.52-.12.64-.06l-.05.1c-.09-.04-.34.02-.57.07-.2.05-.4.09-.54.09Z"/>
  <path class="cls-13" d="M28.58,23.48s-.08,0-.11-.03c-.03-.02-.06-.05-.06-.12h.11s0,.03.01.03c.07.05.38-.07.6-.16.3-.12.56-.22.69-.16l-.05.1c-.09-.04-.38.07-.61.16-.26.1-.46.17-.58.17Z"/>
  <path class="cls-13" d="M29.5,22.81c-.1,0-.21-.01-.34-.04l.02-.1c.45.1.63,0,.86-.15.1-.06.21-.13.35-.19l.04.1c-.13.05-.24.12-.33.18-.18.11-.33.2-.6.2Z"/>
  <path class="cls-13" d="M30.07,22.06c-.07,0-.16,0-.25-.03l.02-.1c.39.09.53-.05.7-.22.1-.1.22-.22.4-.29l.04.1c-.16.06-.26.17-.36.26-.14.14-.28.28-.55.28Z"/>
  <path class="cls-13" d="M30.68,21.11c-.06,0-.12,0-.19-.02l.02-.1c.35.08.45-.09.57-.3.09-.15.18-.32.39-.41l.04.1c-.17.07-.26.22-.34.36-.1.18-.21.37-.49.37Z"/>
  <path class="cls-13" d="M30.91,20.23v-.11c.28,0,.37-.16.47-.33.09-.15.19-.32.44-.39l.03.1c-.21.05-.29.19-.37.34-.1.17-.22.37-.56.38Z"/>
  <polygon class="cls-7" points="25.29 3.63 25.93 4.85 27.4 5.03 26.33 5.97 26.59 7.31 25.29 6.66 23.98 7.31 24.25 5.97 23.18 5.03 24.65 4.85 25.29 3.63"/>
  <path class="cls-12" d="M23.91,7.4l.28-1.41-1.14-1,1.56-.19.68-1.29.68,1.29,1.56.19-1.14,1,.28,1.41-1.38-.68-1.38.68ZM25.29,6.6l1.23.61-.25-1.26,1-.88-1.38-.17-.61-1.16-.61,1.16-1.38.17,1,.88-.25,1.26,1.23-.61Z"/>
  <rect class="cls-12" x="24.78" y="4.81" width=".11" height=".62" transform="translate(1.89 15.91) rotate(-36.85)"/>
  <rect class="cls-12" x="23.95" y="4.47" width=".11" height="1.69" transform="translate(11.08 26.23) rotate(-70.78)"/>
  <rect class="cls-12" x="24.25" y="5.89" width=".54" height=".11" transform="translate(-.65 4.26) rotate(-9.8)"/>
  <rect class="cls-12" x="23.75" y="6.68" width="1.51" height=".11" transform="translate(3.25 20.66) rotate(-48.61)"/>
  <rect class="cls-12" x="25.26" y="6.27" width=".11" height=".4"/>
  <rect class="cls-12" x="26.06" y="6" width=".11" height="1.49" transform="translate(1.99 18.81) rotate(-41.07)"/>
  <rect class="cls-12" x="26.02" y="5.73" width=".11" height=".48" transform="translate(16.26 30.85) rotate(-81.35)"/>
  <rect class="cls-12" x="25.71" y="5.26" width="1.68" height=".11" transform="translate(-.29 8.87) rotate(-18.87)"/>
  <rect class="cls-12" x="25.45" y="5.08" width=".65" height=".11" transform="translate(7.3 23.82) rotate(-56.58)"/>
  <rect class="cls-12" x="25.25" y="3.68" width=".11" height="1.58" transform="translate(-.11 .66) rotate(-1.5)"/>
  <path class="cls-13" d="M31.23,19.26v-.11c.35,0,.42-.15.53-.35.06-.11.13-.23.25-.36l.07.08c-.11.11-.17.22-.23.33-.11.21-.21.39-.62.4Z"/>
  <path class="cls-13" d="M31.48,18.24v-.11c.34,0,.39-.16.46-.4.04-.13.08-.27.18-.41l.09.06c-.09.13-.13.26-.17.38-.07.24-.14.46-.57.47Z"/>
  <path class="cls-13" d="M31.59,17.22v-.11c.32,0,.34-.18.39-.44.03-.16.06-.34.17-.5l.09.06c-.1.14-.12.3-.15.45-.04.26-.09.52-.49.53Z"/>
  <path class="cls-13" d="M31.57,16.24v-.11c.38-.01.41-.24.44-.65,0-.12.02-.24.04-.36l.11.02c-.02.12-.03.24-.04.35-.03.38-.06.74-.55.75Z"/>
  <path class="cls-13" d="M31.4,15.05v-.11c.37,0,.37-.11.37-.5,0-.14,0-.32.02-.53h.11c-.02.22-.02.39-.02.53,0,.38,0,.59-.48.6Z"/>
  <path class="cls-13" d="M31.09,13.8v-.11c.14,0,.23-.03.27-.07.05-.06.03-.18,0-.35-.02-.16-.05-.36-.04-.62h.11c0,.25.02.45.04.61.03.2.05.34-.03.43-.06.07-.16.1-.35.11Z"/>
  <path class="cls-13" d="M30.66,12.71v-.11c.15,0,.24-.03.28-.08.05-.07.02-.21-.02-.39-.03-.12-.06-.25-.07-.41h.11c.02.14.05.27.07.39.05.21.08.37,0,.47-.06.08-.17.12-.37.12Z"/>
  <path class="cls-13" d="M30.19,11.79l-.05-.09c.25-.13.19-.53.17-.71-.01-.09-.01-.12.02-.14h.06s-.03.05-.03.05h.05s0,.05,0,.08c.02.19.08.64-.23.81Z"/>
  <path class="cls-13" d="M29.59,11.07l-.05-.09c.25-.14.07-.7,0-.92-.03-.11-.04-.13,0-.15h.07s-.03.04-.03.04h.05s.01.04.02.08c.08.26.26.86-.06,1.04Z"/>
  <path class="cls-13" d="M28.99,10.43l-.05-.09s.06-.05.08-.1c.06-.23-.2-.69-.29-.84-.04-.07-.06-.1-.02-.13h.07s-.03.04-.03.04l.05-.02s.01.03.03.05c.1.18.37.65.3.92-.02.07-.06.13-.13.17ZM28.75,9.31l-.03.04.03-.04Z"/>
  <path class="cls-13" d="M28.31,9.89l-.05-.09s.06-.05.07-.09c.02-.11-.02-.34-.39-.83-.03-.05-.06-.08-.02-.11h.07s-.03.04-.03.04l.04-.02s.01.02.03.03c.12.16.47.64.4.92-.02.07-.06.13-.12.16ZM27.96,8.81l-.03.04.03-.04Z"/>
  <path class="cls-13" d="M27.65,9.49l-.05-.09s.06-.05.07-.09c.01-.08-.02-.29-.42-.75-.02-.02-.05-.06-.02-.09h.08s-.03.03-.03.03l.03-.03s0,0,.02.02c.33.38.48.66.45.84-.01.07-.06.13-.12.17Z"/>
  <path class="cls-13" d="M26.91,9.18l-.05-.09s.06-.05.07-.09c.02-.17-.23-.47-.45-.68h0s0,0,0,0h0s0,0,0,0h0s0,0,0,0v-.08s.07,0,.07,0h0s0,0,0,0c.16.15.52.52.49.77,0,.07-.05.13-.12.17Z"/>
  <path class="cls-13" d="M26.12,8.95l-.05-.09s.04-.05.04-.06c-.02-.19-.74-.58-.83-.61l.02-.05h0s-.04.04-.04.04v-.06s.04-.03.04-.03c.04,0,.86.41.92.69,0,.04,0,.12-.09.18Z"/>
  <path class="cls-13" d="M24.08,9.01s-.4-.41-1.18-.29l-.02-.11c.83-.13,1.23.28,1.27.32l-.08.07Z"/>
  <path class="cls-13" d="M25.15,8.88s-.04-.04-.06-.07c-.16-.19-.45-.56-1.03-.47l-.02-.11c.64-.1.97.31,1.13.5.02.03.04.05.05.06l-.08.07Z"/>
  <path class="cls-13" d="M25.26,24.45c-3.53,0-6.41-3.51-6.41-7.82s2.88-7.82,6.41-7.82,6.41,3.51,6.41,7.82-2.88,7.82-6.41,7.82ZM25.26,8.91c-3.48,0-6.31,3.47-6.31,7.73s2.83,7.73,6.31,7.73,6.31-3.47,6.31-7.73-2.83-7.73-6.31-7.73Z"/>
  <path class="cls-6" d="M31.62,16.63c0-.1,0-.2,0-.3h-.03c0,.12,0,.24,0,.35h0s-12.67-.18-12.67-.18c0-.06,0-.12,0-.17h-.03c0,.1,0,.2,0,.3,0,1.38.3,2.67.81,3.8l2.12.04c-.02-.14-.03-.28-.03-.42,0-1.7,1.55-3.08,3.45-3.08s3.45,1.39,3.45,3.08c0,.19-.02.37-.06.55l2.07.04c.58-1.17.92-2.55.92-4.02Z"/>
  <path class="cls-12" d="M30.74,20.7l-2.17-.04v-.06c.05-.18.07-.36.07-.54,0-1.67-1.53-3.03-3.4-3.03s-3.4,1.36-3.4,3.03c0,.14.01.27.03.41v.06s-2.21-.04-2.21-.04v-.03c-.55-1.16-.83-2.48-.83-3.82,0-.1,0-.2,0-.3v-.05h.14v.06s0,.08,0,.12l12.56.19c0-.1,0-.2,0-.3v-.06s.14,0,.14,0v.05c0,.1,0,.2,0,.3,0,1.43-.32,2.82-.92,4.04l-.02.03ZM28.7,20.55l1.97.04c.57-1.16.88-2.49.9-3.85l-12.63-.19s0,.05,0,.08c0,1.31.27,2.6.79,3.74l2.02.04c-.02-.12-.02-.24-.02-.36,0-1.73,1.57-3.14,3.51-3.14s3.51,1.41,3.51,3.14c0,.17-.02.34-.05.5Z"/>
  <path class="cls-7" d="M25.3,16.01l-.2.23-.03.28-.13.26.56.02-.05-.13-.08-.21.02-.17-.08-.28ZM19.9,13.09l4.5.38.69.78c.33-.12.76-.11,1.22-.05.04.07.09.13.13.2.15,0,.31.01.46.02.34.25.61.51.86.76.06.03.13.09.17.16.03.06-.07.17-.04.22.02.1.01.21.03.31-.11.14-.13.09-.21.13-.02-.08-.06-.17-.08-.25-.09.01-.16.06-.28,0-.22-.14-.44-.29-.66-.43v.12c-.08.01-.15.02-.23.03-.08.14-.15.29-.23.43l-.21.2c0,.07.01.13.02.2-.06.04-.12.08-.18.12l-.07.26-.08.07.03.08.48.05.05.23h-.13c-.29-.07-.59-.11-.9-.11-.25,0-.49.02-.72.07h-.28s-.02-.19-.02-.19h.54l-.03-.21-.08-.07v-.2l-.21-.1-.07-.3-.28-.21-.05.13-.46-.02-.21-.21-.31.2-.16.02-.13-.15-.23.07-.02-.13-.26.07-.3-.17.3-.15-.05-.13.83-.23-.02-.17h-.31l.05-.26h-.21l-.02-.18-.21.03.08-.15-.25.02.02-.25-1.07.03.05-.21-.28-.02.02-.26-.33.03-.03-.26h-.3l-.3-.31Z"/>
  <path class="cls-12" d="M26.34,17.13h-.21c-.52-.13-1.08-.15-1.6-.05h0s-.33,0-.33,0l-.03-.29h.54l-.02-.13-.09-.07v-.19l-.21-.1-.07-.3-.21-.16-.04.1-.52-.02-.2-.2-.29.18-.2.02-.13-.14-.26.07-.02-.13-.23.06-.4-.22.34-.17-.05-.14.84-.23v-.07h-.34l.05-.26h-.2l-.02-.17-.27.04.09-.16h-.21s.02-.24.02-.24l-1.08.03.05-.22-.27-.02.02-.25-.32.03-.03-.27h-.27l-.41-.43,4.66.39.68.76c.3-.1.69-.11,1.21-.04h.02s.13.2.13.2l.45.02h.01c.36.27.63.54.86.77.06.03.14.1.18.18.02.05,0,.1-.02.15,0,.02-.02.06-.02.07h0c0,.06.01.12.02.17,0,.05,0,.1.02.15v.02s-.01.02-.01.02c-.09.11-.13.12-.18.13-.02,0-.03,0-.05.01l-.06.02v-.06s-.04-.08-.05-.12c0-.03-.02-.05-.03-.08,0,0,0,0-.01,0-.07.02-.14.03-.25-.02l-.58-.38v.06l-.25.04c-.07.14-.15.27-.22.4h-.01s-.2.19-.2.19l.02.2-.19.12-.07.26-.07.05v.02s.49.05.49.05l.07.34ZM26.15,17.02h.05s-.03-.12-.03-.12l-.47-.05-.06-.15.1-.08.07-.27.17-.11-.02-.19.23-.21c.08-.14.15-.28.23-.42v-.02s.22-.03.22-.03v-.17l.74.48c.07.04.12.02.18.01.02,0,.05-.01.07-.01h.05s.01.04.01.04c0,.04.02.08.04.12,0,.03.02.05.03.08,0,0,0,0,.01,0,.03,0,.05,0,.1-.07,0-.05,0-.09-.01-.14,0-.05,0-.1-.01-.14-.02-.05,0-.1.02-.15,0-.02.02-.06.02-.07-.03-.06-.09-.11-.14-.13h-.02c-.22-.24-.49-.5-.84-.75l-.47-.02-.13-.2c-.51-.06-.89-.05-1.17.05h-.03s-.7-.77-.7-.77l-4.34-.37.18.19h.32l.03.26.34-.03-.02.27.29.02-.05.21,1.06-.03-.02.25.28-.02-.08.14.16-.02.02.19h.23l-.05.26h.3l.03.26-.81.23.05.12-.25.12.19.11.3-.08.02.13.2-.06.14.15h.12s.34-.23.34-.23l.23.23h.4s.06-.15.06-.15l.35.27.06.29.22.1v.21l.08.06.05.3h-.55v.08s.23,0,.23,0c.54-.1,1.1-.09,1.64.04ZM25.57,16.85l-.72-.02.17-.33.03-.29.28-.31.11.38-.02.16.16.41ZM25.02,16.73h.4s-.11-.27-.11-.27l.02-.17-.05-.18-.13.14-.03.28-.09.19Z"/>
  <path class="cls-7" d="M26.29,14.19l.39-.41,2.46-.86,1.39-.07-.18.26-.2.1.02.23-.36.05.1.26-.36.02v.18l-.51-.03-.03.21-.46.08.1.25-.26.07-.05.26-.33.07-.02.2h-.31c-.22-.23-.46-.44-.75-.66-.15,0-.31-.01-.46-.02-.04-.07-.09-.13-.13-.2-.01,0-.02,0-.03,0Z"/>
  <path class="cls-12" d="M28.02,15.12h-.35s-.05-.03-.05-.03c-.19-.19-.42-.41-.73-.63l-.47-.02-.13-.2h-.11s.07-.09.07-.09l.4-.42,2.49-.86,1.49-.07-.25.36-.18.09.02.25-.35.05.1.27-.39.02v.19l-.52-.03-.03.2-.43.08.1.24-.29.07-.05.27-.33.07-.02.21ZM27.7,15.01h.22l.02-.19.33-.07.05-.26.24-.06-.1-.25.49-.09.03-.23.5.03v-.18l.34-.02-.1-.26.38-.05-.02-.22.22-.11.11-.16-1.27.06-2.44.85-.34.35.11.16.45.02h.01c.31.24.55.47.74.66h0Z"/>
  <polygon class="cls-7" points="21.43 13.22 21.85 13.25 22.11 13.5 22.71 13.65 23.02 13.6 23.2 13.78 22.71 14.09 21.96 14.09 21.88 13.88 21.65 13.83 21.67 13.65 21.34 13.42 21.35 13.23 21.43 13.22"/>
  <path class="cls-12" d="M22.72,14.15h-.79l-.08-.22-.25-.05.02-.2-.33-.23.02-.25.12-.03.45.04.26.25.57.14.33-.05.25.25-.56.36ZM22,14.04h.69l.43-.27-.11-.11-.3.05-.62-.15-.26-.25-.4-.03h-.03s-.01.12-.01.12l.33.23-.02.17.21.05.08.21Z"/>
  <rect class="cls-12" x="20.5" y="13.35" width=".84" height=".11"/>
  <polyline class="cls-7" points="20.88 13.66 21.65 13.63 22.12 13.52"/>
  <polygon class="cls-12" points="20.88 13.72 20.87 13.61 21.64 13.58 22.11 13.47 22.13 13.57 21.65 13.68 20.88 13.72"/>
  <line class="cls-15" x1="21.14" y1="13.94" x2="21.63" y2="13.81"/>
  <rect class="cls-12" x="21.13" y="13.82" width=".51" height=".11" transform="translate(-2.85 5.97) rotate(-14.92)"/>
  <line class="cls-15" x1="21.88" y1="13.89" x2="22.7" y2="13.65"/>
  <rect class="cls-12" x="21.87" y="13.72" width=".85" height=".11" transform="translate(-2.99 6.88) rotate(-16.45)"/>
  <polyline class="cls-7" points="22.36 14.34 22.74 14.11 23.25 14.25"/>
  <polygon class="cls-12" points="22.39 14.39 22.33 14.29 22.73 14.05 23.26 14.19 23.23 14.3 22.75 14.17 22.39 14.39"/>
  <polyline class="cls-7" points="22.74 14.62 23.47 14.42 23 14.88"/>
  <polygon class="cls-12" points="23.04 14.92 22.97 14.85 23.29 14.53 22.75 14.67 22.73 14.57 23.65 14.32 23.04 14.92"/>
  <polyline class="cls-7" points="22.51 14.46 23.32 14.21 23.95 13.97"/>
  <polygon class="cls-12" points="22.52 14.51 22.49 14.4 23.3 14.16 23.94 13.92 23.97 14.02 23.34 14.26 22.52 14.51"/>
  <polyline class="cls-7" points="23.05 15.05 23.4 14.98 23.33 15.18 23.89 15.13"/>
  <polygon class="cls-12" points="23.26 15.24 23.32 15.05 23.06 15.1 23.04 15 23.48 14.91 23.41 15.12 23.89 15.08 23.9 15.19 23.26 15.24"/>
  <polyline class="cls-7" points="23.27 14.23 23.43 14.42 23.71 14.44 24.01 14.41 24.26 14.36 24.82 14.51 24.92 14.82"/>
  <polygon class="cls-12" points="24.87 14.83 24.78 14.55 24.26 14.41 24.02 14.46 23.72 14.49 23.41 14.47 23.23 14.27 23.31 14.2 23.46 14.37 23.72 14.39 24.01 14.36 24.26 14.3 24.86 14.46 24.97 14.8 24.87 14.83"/>
  <polyline class="cls-7" points="23.2 13.78 23.96 13.96 24.21 14.13 24.27 14.36 23.69 14.42 23.69 14.43"/>
  <polygon class="cls-12" points="23.69 14.47 23.69 14.43 23.63 14.43 23.63 14.37 24.21 14.31 24.16 14.16 23.94 14.01 23.19 13.83 23.21 13.73 23.99 13.92 24.25 14.09 24.34 14.4 23.69 14.47"/>
  <polyline class="cls-7" points="23.88 15.15 23.94 14.92 24.32 15.02 24.92 14.8 23.67 14.43 23.92 14.93 23.4 14.98 23.65 14.44"/>
  <path class="cls-12" d="M23.93,15.16l-.1-.03.04-.14-.56.05.29-.62-.04-.08,1.53.45-.76.28-.34-.09-.05.18ZM23.94,14.86l.38.1.43-.15-.98-.29.17.35ZM23.66,14.54l-.18.38.35-.03-.17-.34Z"/>
  <polyline class="cls-7" points="22.79 15.76 23.06 15.32 23.37 15.2"/>
  <polygon class="cls-12" points="22.84 15.79 22.74 15.73 23.02 15.28 23.35 15.15 23.39 15.25 23.1 15.37 22.84 15.79"/>
  <polyline class="cls-7" points="22.49 15.64 22.67 15.45 23.35 15.21"/>
  <polygon class="cls-12" points="22.53 15.68 22.45 15.61 22.64 15.4 23.33 15.16 23.37 15.27 22.7 15.49 22.53 15.68"/>
  <polyline class="cls-7" points="22.97 15.84 23.52 15.18 23.37 15.66"/>
  <polygon class="cls-12" points="23.01 15.88 22.93 15.81 23.47 15.15 23.57 15.2 23.42 15.68 23.32 15.64 23.38 15.43 23.01 15.88"/>
  <polyline class="cls-7" points="30.16 13.23 29.39 13.25 29.26 13.35 29.32 13.47 29.11 13.5 29.09 13.65 28.88 13.66 28.84 13.91 28.45 13.88 28.22 14.06 27.87 14.22 27.71 14.41 27.71 14.57 27.44 14.64 27.36 14.8"/>
  <polygon class="cls-12" points="27.41 14.83 27.31 14.78 27.4 14.59 27.65 14.53 27.65 14.39 27.85 14.18 28.19 14.01 28.43 13.82 28.8 13.85 28.83 13.61 29.04 13.6 29.06 13.45 29.24 13.42 29.19 13.34 29.37 13.2 30.16 13.18 30.16 13.29 29.41 13.3 29.33 13.36 29.41 13.51 29.16 13.55 29.14 13.7 28.92 13.71 28.89 13.97 28.46 13.93 28.24 14.11 27.9 14.27 27.76 14.43 27.76 14.61 27.48 14.68 27.41 14.83"/>
  <polyline class="cls-7" points="29.7 12.92 29.42 13.25 29.14 13.19 28.96 13.43 28.65 13.48 28.45 13.48 28.28 13.76 28.07 13.73 28 13.88 27.77 13.86 27.61 14.03 27.34 14.08 26.99 14.45"/>
  <polygon class="cls-12" points="27.02 14.49 26.95 14.41 27.32 14.03 27.58 13.98 27.75 13.81 27.97 13.82 28.04 13.67 28.26 13.7 28.42 13.43 28.65 13.43 28.93 13.38 29.12 13.13 29.4 13.19 29.65 12.89 29.74 12.96 29.44 13.31 29.16 13.25 28.99 13.48 28.65 13.54 28.48 13.54 28.31 13.82 28.1 13.79 28.04 13.93 27.79 13.92 27.63 14.08 27.37 14.13 27.02 14.49"/>
  <line class="cls-15" x1="29.8" y1="13.52" x2="29.32" y2="13.46"/>
  <rect class="cls-12" x="29.51" y="13.25" width=".11" height=".48" transform="translate(12.78 41.31) rotate(-83.44)"/>
  <polyline class="cls-7" points="29.52 13.81 29.1 13.65 29.07 13.65"/>
  <polygon class="cls-12" points="29.5 13.86 29.06 13.7 29.09 13.6 29.11 13.6 29.54 13.76 29.5 13.86"/>
  <polyline class="cls-7" points="27.99 14.88 27.45 14.65 27.44 14.63"/>
  <polygon class="cls-12" points="27.97 14.93 27.41 14.69 27.39 14.66 27.46 14.62 27.47 14.6 28.01 14.83 27.97 14.93"/>
  <line class="cls-15" x1="28.36" y1="14.57" x2="27.69" y2="14.53"/>
  <rect class="cls-12" x="27.97" y="14.21" width=".11" height=".67" transform="translate(11.94 41.72) rotate(-86.81)"/>
  <line class="cls-15" x1="28.54" y1="14.23" x2="28.17" y2="14.11"/>
  <rect class="cls-12" x="28.3" y="13.97" width=".11" height=".39" transform="translate(6.35 36.98) rotate(-72.59)"/>
  <line class="cls-15" x1="29.04" y1="13.95" x2="28.84" y2="13.92"/>
  <rect class="cls-12" x="28.88" y="13.83" width=".11" height=".2" transform="translate(9.95 39.84) rotate(-79.47)"/>
  <polyline class="cls-7" points="27.35 15.19 27.72 15.5 27.64 15.73"/>
  <polygon class="cls-12" points="27.69 15.75 27.59 15.72 27.65 15.52 27.32 15.23 27.39 15.15 27.78 15.49 27.69 15.75"/>
  <line class="cls-15" x1="27.89" y1="15.55" x2="27.73" y2="15.51"/>
  <rect class="cls-12" x="27.75" y="15.45" width=".11" height=".16" transform="translate(6.3 39.02) rotate(-76.71)"/>
  <path class="cls-4" d="M27.71,15.43s-.08-.04-.1-.02c-.02.02,0,.06.04.09.04.03.08.04.1.02.02-.02,0-.06-.04-.09Z"/>
  <path class="cls-12" d="M27.72,15.59s-.07-.01-.1-.04c-.06-.05-.08-.12-.04-.17.01-.02.03-.03.06-.03.04,0,.08.01.11.04h0s.06.07.06.1c0,.02,0,.05-.02.06-.02.02-.04.03-.07.03Z"/>
  <polyline class="cls-7" points="25.38 15.23 24.88 15.58 23.86 15.15 24.08 15.81"/>
  <polygon class="cls-12" points="24.03 15.83 23.78 15.06 24.88 15.52 25.35 15.19 25.41 15.27 24.89 15.64 23.95 15.24 24.13 15.79 24.03 15.83"/>
  <path class="cls-4" d="M24.75,16.64h.14s.16-.09.16-.09l-.11.24h.56s-.11-.29-.11-.29l.19.15.21.02-.06.06.03.08c.15.02.31.03.46.05.1.1.15.19.06.23h-.14c-.29-.07-.59-.11-.9-.11-.25,0-.5.02-.74.07-.09,0-.17,0-.26,0-.05-.06-.07-.12-.02-.19h.55l-.02-.2Z"/>
  <path class="cls-12" d="M26.28,17.13h-.16c-.52-.13-1.08-.14-1.61-.04h0s-.29,0-.29,0l-.02-.02c-.1-.11-.07-.2-.03-.26l.02-.02h.52l-.02-.21.18.02.3-.2-.16.34h.4s-.15-.4-.15-.4l.33.26.32.03-.13.11v.02s.46.05.46.05h.01c.09.1.13.17.12.24,0,.03-.02.07-.08.1h-.01ZM26.14,17.02h.11s0,0,0,0c0,0,0-.04-.08-.12l-.48-.05-.05-.14h-.1s-.06-.05-.06-.05l.07.2h-.72s.07-.15.07-.15h-.01s-.09,0-.09,0l.02.2h-.57s0,.05.02.09h.23c.54-.1,1.11-.09,1.64.04Z"/>
  <rect class="cls-12" x="28.99" y="13.4" width=".11" height=".15" transform="translate(1.27 29.41) rotate(-54.74)"/>
  <polygon class="cls-12" points="28.87 13.72 28.84 13.71 28.84 13.71 28.41 13.54 28.45 13.44 28.9 13.62 28.87 13.72"/>
  <rect class="cls-12" x="28.29" y="13.73" width=".11" height=".19" transform="translate(-.54 26.47) rotate(-49.64)"/>
  <rect class="cls-12" x="28.02" y="13.85" width=".11" height=".27" transform="translate(-2.72 19.94) rotate(-37.43)"/>
  <rect class="cls-12" x="27.66" y="13.97" width=".11" height=".32" transform="translate(-.22 27.83) rotate(-53.13)"/>
  <rect class="cls-12" x="27.37" y="14.12" width=".11" height=".61" transform="translate(5.07 35.88) rotate(-71.57)"/>
</svg>