<?xml version="1.0" encoding="UTF-8"?>
<svg id="Layer_1" xmlns="http://www.w3.org/2000/svg" viewBox="0 0 356.36 240.49">
  <defs>
    <style>
      .cls-1 {
        fill: #ffc10e;
      }
    </style>
  </defs>
  <path class="cls-1" d="M338.88,68.6h0C303.65,26.69,250.86,0,191.95,0,86.11,0,0,86.11,0,191.95c0,16.77,2.2,33.03,6.27,48.54.15-5.89,1.06-11.63,2.75-17.23-.49-5.3-.76-10.67-.76-16.1C8.26,109.44,87.76,29.93,185.49,29.93c44.89,0,85.92,16.78,117.18,44.39,2.53,2.38,5.02,4.82,7.4,7.38,14.72,15.84,5.85,10.11,26.88,7.87,7.49-.79,9.6-.34,19.41,2.17-4.57-7.69-10.54-15.5-17.48-23.14Z"/>
</svg>